<svg width="550" height="550" viewBox="0 0 550 550" fill="none" xmlns="http://www.w3.org/2000/svg">
<path d="M264.25 93.9676L306.174 2.72559V532.88L268.999 547.967C268.999 547.967 264.25 222.39 264.25 93.9676Z" fill="url(#paint0_linear_2003_2)"/>
<path d="M150.979 134.964L187.343 50.4062L188.604 490.454L151.292 451.394C151.292 451.394 150.979 242.93 150.979 134.964Z" fill="url(#paint1_linear_2003_2)"/>
<path d="M269.05 533.981L268.668 487.793C268.636 366.615 268.668 245.437 268.381 124.259L268.604 124.705V84.7681L243.779 73.8213L243.874 74.0123C225.892 66.1841 207.305 58.7059 187.381 50.4004V94.9829C187.349 221.189 187.274 363.2 187.624 489.406C189.27 491.341 193.047 494.557 193.907 495.288C197.312 498.312 200.812 501.062 204.249 503.99C214.911 512.996 226.369 521.206 237.954 528.97C244.002 533.012 250.144 536.894 256.382 540.617C257.464 541.254 269.018 547.141 269.05 548C268.922 541.604 269.368 541.237 269.05 533.981Z" fill="url(#paint2_linear_2003_2)"/>
<path d="M475 72.1673V217.562C472.486 371.007 409.916 464.729 305.428 533.241L305.998 2C322.261 8.61896 337.156 14.5697 351.956 20.7431C386.871 35.3494 421.721 50.0829 456.636 64.5619C462.747 67.1076 468.889 69.6534 475 72.1673Z" fill="url(#paint3_linear_2003_2)"/>
<path d="M151.322 358.44C151.322 355.958 151.322 353.476 151.322 350.994C151.322 313.921 151.322 277.199 151.29 240.635C151.29 239.331 151.29 238.058 151.29 236.753C151.29 227.684 151.258 218.614 151.258 209.577C151.258 202.163 151.226 194.748 151.226 187.397C151.226 184.438 151.226 181.478 151.226 178.519C151.226 175.082 151.226 171.677 151.194 168.272L151.258 168.527L151.481 134.732L146.293 132.377C146.293 132.377 146.293 132.377 146.261 132.345C146.134 132.282 146.006 132.218 145.847 132.154L142.601 130.659V130.722C120.64 120.858 98.2657 111.725 75 102.051V217.533C76.3686 300.556 95.1148 366.077 128.629 419.57C135.185 429.976 138.177 434.144 145.593 443.882C145.784 444.136 151.035 451.074 151.29 451.296C151.29 425.33 151.29 399.077 151.29 372.76C151.322 367.987 151.322 363.213 151.322 358.44Z" fill="url(#paint4_linear_2003_2)"/>
<defs>
<linearGradient id="paint0_linear_2003_2" x1="285.363" y1="2.72559" x2="285.363" y2="532.168" gradientUnits="userSpaceOnUse">
<stop stop-color="#B94848"/>
<stop offset="1" stop-color="#851287"/>
</linearGradient>
<linearGradient id="paint1_linear_2003_2" x1="166.231" y1="50.4026" x2="166.231" y2="495.509" gradientUnits="userSpaceOnUse">
<stop stop-color="#B94848"/>
<stop offset="1" stop-color="#851287"/>
</linearGradient>
<linearGradient id="paint2_linear_2003_2" x1="228.2" y1="50.4004" x2="359.405" y2="548.045" gradientUnits="userSpaceOnUse">
<stop stop-color="#F25E79"/>
<stop offset="1" stop-color="#C52CF1"/>
</linearGradient>
<linearGradient id="paint3_linear_2003_2" x1="305.999" y1="-144.743" x2="390.385" y2="533.218" gradientUnits="userSpaceOnUse">
<stop stop-color="#F05C80"/>
<stop offset="1" stop-color="#CC34DF"/>
</linearGradient>
<linearGradient id="paint4_linear_2003_2" x1="-96.7638" y1="-35.2616" x2="215.126" y2="586.213" gradientUnits="userSpaceOnUse">
<stop stop-color="#FFD83E"/>
<stop offset="1" stop-color="#D038D7"/>
</linearGradient>
</defs>
</svg>
