<svg width="123" height="34" viewBox="0 0 123 34" fill="none" xmlns="http://www.w3.org/2000/svg">
<path d="M11.0898 6.39012L13.5469 1.0426V32.1139L11.3682 32.9981C11.3682 32.9981 11.0898 13.9167 11.0898 6.39012Z" fill="url(#paint0_linear_4029_11779)"/>
<path d="M4.45312 8.79283L6.58439 3.83704L6.65828 29.6274L4.47151 27.3381C4.47151 27.3381 4.45312 15.1205 4.45312 8.79283Z" fill="url(#paint1_linear_4029_11779)"/>
<path d="M11.3741 32.1784L11.3517 29.4714C11.3498 22.3694 11.3517 15.2674 11.3349 8.16538L11.348 8.1915V5.85089L9.89303 5.20933L9.89862 5.22052C8.84471 4.76172 7.75536 4.32344 6.58766 3.83667V6.44956C6.5858 13.8462 6.58139 22.1693 6.60191 29.5659C6.69838 29.6793 6.91975 29.8678 6.97011 29.9107C7.1697 30.0879 7.37483 30.2491 7.57629 30.4207C8.20117 30.9485 8.87269 31.4297 9.55167 31.8847C9.90608 32.1216 10.2661 32.3491 10.6317 32.5673C10.6951 32.6046 11.3722 32.9497 11.3741 33C11.3666 32.6251 11.3928 32.6036 11.3741 32.1784Z" fill="url(#paint2_linear_4029_11779)"/>
<path d="M23.4422 5.11237V13.6337C23.2948 22.6268 19.6278 28.1196 13.5039 32.135L13.5373 1C14.4905 1.38792 15.3635 1.73668 16.2308 2.0985C18.2771 2.95454 20.3196 3.81805 22.3659 4.66663C22.7241 4.81583 23.0841 4.96503 23.4422 5.11237Z" fill="url(#paint3_linear_4029_11779)"/>
<path d="M4.47306 21.8902C4.47306 21.7448 4.47306 21.5993 4.47306 21.4538C4.47306 19.2811 4.47306 17.1288 4.4712 14.9859C4.4712 14.9095 4.4712 14.8349 4.4712 14.7584C4.4712 14.2269 4.46933 13.6953 4.46933 13.1657C4.46933 12.7311 4.46747 12.2966 4.46747 11.8658C4.46747 11.6923 4.46747 11.5189 4.46747 11.3454C4.46747 11.144 4.46747 10.9444 4.4656 10.7449L4.46933 10.7598L4.48239 8.77915L4.17834 8.64113C4.17834 8.64113 4.17834 8.64113 4.17648 8.63927C4.16901 8.63554 4.16155 8.63181 4.15223 8.62808L3.96196 8.54042V8.54415C2.67488 7.966 1.36356 7.43074 0 6.86377V13.6319C0.0802092 18.4978 1.17889 22.3379 3.14308 25.473C3.52734 26.0828 3.70268 26.3271 4.1373 26.8978C4.1485 26.9127 4.45627 27.3193 4.4712 27.3324C4.4712 25.8105 4.4712 24.2719 4.4712 22.7295C4.47306 22.4498 4.47306 22.17 4.47306 21.8902Z" fill="url(#paint4_linear_4029_11779)"/>
<path d="M31.1988 16V4.28418H35.7679C36.7945 4.28418 37.6704 4.44598 38.3956 4.76956C39.1209 5.09313 39.6788 5.56177 40.0693 6.17545C40.4599 6.78914 40.6551 7.51998 40.6551 8.36798C40.6551 9.21599 40.4599 9.94683 40.0693 10.5605C39.6788 11.163 39.1209 11.6317 38.3956 11.9664C37.6704 12.29 36.7945 12.4518 35.7679 12.4518H32.1193L32.8725 11.6651V16H31.1988ZM32.8725 11.8325L32.1193 10.9957H35.7177C36.7889 10.9957 37.5978 10.7669 38.1446 10.3095C38.7025 9.85199 38.9814 9.20483 38.9814 8.36798C38.9814 7.53114 38.7025 6.88398 38.1446 6.42651C37.5978 5.96903 36.7889 5.74029 35.7177 5.74029H32.1193L32.8725 4.90345V11.8325ZM46.1274 16.1004C45.179 16.1004 44.3422 15.9052 43.6169 15.5146C42.9028 15.1241 42.3449 14.5885 41.9432 13.9079C41.5527 13.2273 41.3574 12.4462 41.3574 11.5647C41.3574 10.6833 41.5471 9.9022 41.9265 9.22156C42.317 8.54093 42.847 8.01093 43.5165 7.63156C44.1971 7.24103 44.9614 7.04577 45.8094 7.04577C46.6686 7.04577 47.4273 7.23545 48.0856 7.61482C48.744 7.99419 49.2572 8.52977 49.6254 9.22156C50.0048 9.9022 50.1945 10.7 50.1945 11.6149C50.1945 11.6819 50.1889 11.76 50.1777 11.8493C50.1777 11.9385 50.1722 12.0222 50.161 12.1003H42.6127V10.9455H49.3242L48.6714 11.3471C48.6826 10.7781 48.5654 10.2704 48.32 9.82409C48.0745 9.37778 47.7342 9.03188 47.299 8.78641C46.875 8.52977 46.3785 8.40146 45.8094 8.40146C45.2515 8.40146 44.755 8.52977 44.3198 8.78641C43.8847 9.03188 43.5444 9.38335 43.2989 9.84083C43.0534 10.2871 42.9307 10.8004 42.9307 11.3806V11.6484C42.9307 12.2398 43.0646 12.7698 43.3324 13.2384C43.6113 13.6959 43.9963 14.0529 44.4872 14.3096C44.9782 14.5662 45.5416 14.6945 46.1776 14.6945C46.7021 14.6945 47.1763 14.6053 47.6003 14.4267C48.0354 14.2482 48.4148 13.9804 48.7384 13.6234L49.6254 14.661C49.2237 15.1297 48.7216 15.4867 48.1191 15.7322C47.5277 15.9777 46.8638 16.1004 46.1274 16.1004ZM51.7561 16V7.12945H53.2959V9.53957L53.1453 8.93704C53.3907 8.32335 53.8036 7.85472 54.3838 7.53114C54.964 7.20756 55.6781 7.04577 56.5261 7.04577V8.6023C56.4592 8.59114 56.3922 8.58556 56.3253 8.58556C56.2695 8.58556 56.2137 8.58556 56.1579 8.58556C55.2988 8.58556 54.6181 8.8422 54.116 9.35546C53.6139 9.86872 53.3629 10.6107 53.3629 11.5815V16H51.7561ZM68.9335 7.04577C69.6476 7.04577 70.278 7.18524 70.8248 7.46419C71.3715 7.74314 71.7955 8.16714 72.0968 8.73619C72.4092 9.30525 72.5654 10.0249 72.5654 10.8953V16H70.9587V11.0794C70.9587 10.2202 70.7578 9.57304 70.3561 9.13788C69.9545 8.70272 69.391 8.48514 68.6657 8.48514C68.1301 8.48514 67.6615 8.59672 67.2598 8.81988C66.8581 9.04304 66.5457 9.3722 66.3226 9.80736C66.1106 10.2425 66.0046 10.7837 66.0046 11.4308V16H64.3978V11.0794C64.3978 10.2202 64.197 9.57304 63.7953 9.13788C63.4048 8.70272 62.8413 8.48514 62.1049 8.48514C61.5804 8.48514 61.1174 8.59672 60.7157 8.81988C60.314 9.04304 60.0016 9.3722 59.7784 9.80736C59.5553 10.2425 59.4437 10.7837 59.4437 11.4308V16H57.837V7.12945H59.3768V9.48935L59.1257 8.88683C59.4046 8.30661 59.8342 7.85472 60.4144 7.53114C60.9946 7.20756 61.6697 7.04577 62.4396 7.04577C63.2876 7.04577 64.0184 7.25777 64.6321 7.68177C65.2458 8.09461 65.6475 8.72504 65.8372 9.57304L65.1844 9.30525C65.4522 8.62462 65.9209 8.07788 66.5903 7.66503C67.2598 7.25219 68.0409 7.04577 68.9335 7.04577ZM78.7353 19.3474C77.9208 19.3474 77.1286 19.2302 76.3587 18.9959C75.5999 18.7727 74.9807 18.4492 74.5009 18.0252L75.2708 16.7866C75.6836 17.1437 76.1913 17.4226 76.7938 17.6235C77.3964 17.8355 78.0268 17.9415 78.6851 17.9415C79.7339 17.9415 80.5038 17.696 80.9948 17.2051C81.4857 16.7141 81.7312 15.9665 81.7312 14.9623V13.0878L81.8986 11.3304L81.8149 9.5563V7.12945H83.3379V14.7949C83.3379 16.3571 82.9474 17.5063 82.1664 18.2427C81.3853 18.9792 80.2416 19.3474 78.7353 19.3474ZM78.5345 15.6318C77.6753 15.6318 76.9054 15.4533 76.2248 15.0962C75.5553 14.728 75.0197 14.2203 74.618 13.5732C74.2275 12.926 74.0322 12.1784 74.0322 11.3304C74.0322 10.4713 74.2275 9.72367 74.618 9.08767C75.0197 8.44051 75.5553 7.9384 76.2248 7.58135C76.9054 7.2243 77.6753 7.04577 78.5345 7.04577C79.2932 7.04577 79.985 7.20198 80.6098 7.5144C81.2347 7.81567 81.7312 8.2843 82.0994 8.9203C82.4788 9.5563 82.6685 10.3597 82.6685 11.3304C82.6685 12.29 82.4788 13.0878 82.0994 13.7238C81.7312 14.3598 81.2347 14.8396 80.6098 15.1632C79.985 15.4756 79.2932 15.6318 78.5345 15.6318ZM78.7186 14.2259C79.3099 14.2259 79.8344 14.1032 80.2918 13.8577C80.7493 13.6122 81.1064 13.2719 81.363 12.8367C81.6308 12.4016 81.7647 11.8995 81.7647 11.3304C81.7647 10.7614 81.6308 10.2593 81.363 9.82409C81.1064 9.38893 80.7493 9.0542 80.2918 8.81988C79.8344 8.5744 79.3099 8.45167 78.7186 8.45167C78.1272 8.45167 77.5972 8.5744 77.1286 8.81988C76.6711 9.0542 76.3085 9.38893 76.0407 9.82409C75.784 10.2593 75.6557 10.7614 75.6557 11.3304C75.6557 11.8995 75.784 12.4016 76.0407 12.8367C76.3085 13.2719 76.6711 13.6122 77.1286 13.8577C77.5972 14.1032 78.1272 14.2259 78.7186 14.2259ZM89.4708 16.1004C88.7121 16.1004 88.0426 15.9609 87.4624 15.682C86.8934 15.4031 86.447 14.9791 86.1235 14.41C85.811 13.8298 85.6548 13.1045 85.6548 12.2342V7.12945H87.2616V12.0501C87.2616 12.9204 87.468 13.5732 87.8808 14.0083C88.3048 14.4435 88.8962 14.661 89.6549 14.661C90.2128 14.661 90.6982 14.5495 91.111 14.3263C91.5239 14.092 91.8419 13.7573 92.065 13.3221C92.2882 12.8758 92.3998 12.3402 92.3998 11.7154V7.12945H94.0065V16H92.4835V13.6066L92.7345 14.2426C92.4444 14.834 92.0093 15.2915 91.429 15.6151C90.8488 15.9386 90.1961 16.1004 89.4708 16.1004ZM101.902 16V14.1255L101.819 13.774V10.5773C101.819 9.89662 101.618 9.3722 101.216 9.00399C100.826 8.62462 100.234 8.43493 99.442 8.43493C98.9175 8.43493 98.4043 8.52419 97.9022 8.70272C97.4001 8.87009 96.9761 9.09883 96.6302 9.38893L95.9607 8.18388C96.4182 7.81567 96.9649 7.53672 97.6009 7.34703C98.2481 7.14619 98.9231 7.04577 99.6261 7.04577C100.842 7.04577 101.78 7.34145 102.438 7.93282C103.096 8.52419 103.425 9.42799 103.425 10.6442V16H101.902ZM98.9901 16.1004C98.3317 16.1004 97.7515 15.9888 97.2494 15.7657C96.7585 15.5425 96.3791 15.2357 96.1113 14.8452C95.8435 14.4435 95.7096 13.9916 95.7096 13.4895C95.7096 13.0097 95.8212 12.5745 96.0444 12.184C96.2787 11.7935 96.6525 11.481 97.1657 11.2467C97.6902 11.0124 98.3931 10.8953 99.2746 10.8953H102.086V12.0501H99.3415C98.5382 12.0501 97.997 12.184 97.7181 12.4518C97.4391 12.7196 97.2996 13.0432 97.2996 13.4225C97.2996 13.8577 97.4726 14.2092 97.8185 14.4769C98.1644 14.7336 98.6442 14.8619 99.2578 14.8619C99.8604 14.8619 100.385 14.728 100.831 14.4602C101.289 14.1924 101.618 13.8019 101.819 13.2886L102.137 14.3933C101.925 14.9177 101.551 15.3361 101.015 15.6485C100.48 15.9498 99.8046 16.1004 98.9901 16.1004ZM105.729 16V7.12945H107.269V9.53957L107.118 8.93704C107.364 8.32335 107.777 7.85472 108.357 7.53114C108.937 7.20756 109.651 7.04577 110.499 7.04577V8.6023C110.432 8.59114 110.365 8.58556 110.298 8.58556C110.243 8.58556 110.187 8.58556 110.131 8.58556C109.272 8.58556 108.591 8.8422 108.089 9.35546C107.587 9.86872 107.336 10.6107 107.336 11.5815V16H105.729ZM115.394 16.1004C114.535 16.1004 113.765 15.9107 113.084 15.5314C112.415 15.152 111.885 14.622 111.494 13.9414C111.104 13.2607 110.908 12.4685 110.908 11.5647C110.908 10.6609 111.104 9.8743 111.494 9.20483C111.885 8.52419 112.415 7.99419 113.084 7.61482C113.765 7.23545 114.535 7.04577 115.394 7.04577C116.141 7.04577 116.816 7.21314 117.419 7.54788C118.021 7.88261 118.501 8.38472 118.858 9.0542C119.227 9.72367 119.411 10.5605 119.411 11.5647C119.411 12.5689 119.232 13.4058 118.875 14.0753C118.529 14.7447 118.055 15.2524 117.452 15.5983C116.85 15.9331 116.164 16.1004 115.394 16.1004ZM115.528 14.6945C116.086 14.6945 116.588 14.5662 117.034 14.3096C117.491 14.0529 117.849 13.6903 118.105 13.2217C118.373 12.7419 118.507 12.1896 118.507 11.5647C118.507 10.9287 118.373 10.382 118.105 9.92451C117.849 9.45588 117.491 9.09325 117.034 8.83662C116.588 8.57998 116.086 8.45167 115.528 8.45167C114.959 8.45167 114.451 8.57998 114.005 8.83662C113.558 9.09325 113.201 9.45588 112.933 9.92451C112.666 10.382 112.532 10.9287 112.532 11.5647C112.532 12.1896 112.666 12.7419 112.933 13.2217C113.201 13.6903 113.558 14.0529 114.005 14.3096C114.451 14.5662 114.959 14.6945 115.528 14.6945ZM118.557 16V13.6066L118.657 11.548L118.49 9.48935V3.58124H120.097V16H118.557Z" fill="white"/>
<path d="M46.0504 31.154C45.4417 31.154 44.8771 31.0587 44.3564 30.868C43.8431 30.67 43.3957 30.3913 43.0144 30.032C42.6404 29.6727 42.3471 29.251 42.1344 28.767C41.9217 28.2757 41.8154 27.7367 41.8154 27.15C41.8154 26.5633 41.9217 26.028 42.1344 25.544C42.3471 25.0527 42.6404 24.6273 43.0144 24.268C43.3957 23.9087 43.8431 23.6337 44.3564 23.443C44.8771 23.245 45.4417 23.146 46.0504 23.146C46.7617 23.146 47.3961 23.2707 47.9534 23.52C48.5181 23.7693 48.9874 24.1287 49.3614 24.598L47.9754 25.852C47.7261 25.5587 47.4511 25.335 47.1504 25.181C46.8571 25.027 46.5271 24.95 46.1604 24.95C45.8451 24.95 45.5554 25.0013 45.2914 25.104C45.0274 25.2067 44.8001 25.357 44.6094 25.555C44.4261 25.7457 44.2794 25.9767 44.1694 26.248C44.0667 26.5193 44.0154 26.82 44.0154 27.15C44.0154 27.48 44.0667 27.7807 44.1694 28.052C44.2794 28.3233 44.4261 28.558 44.6094 28.756C44.8001 28.9467 45.0274 29.0933 45.2914 29.196C45.5554 29.2987 45.8451 29.35 46.1604 29.35C46.5271 29.35 46.8571 29.273 47.1504 29.119C47.4511 28.965 47.7261 28.7413 47.9754 28.448L49.3614 29.702C48.9874 30.164 48.5181 30.5233 47.9534 30.78C47.3961 31.0293 46.7617 31.154 46.0504 31.154ZM54.9344 31.154C54.3184 31.154 53.75 31.055 53.2294 30.857C52.7087 30.659 52.254 30.3803 51.8654 30.021C51.484 29.6543 51.187 29.229 50.9744 28.745C50.7617 28.261 50.6554 27.7293 50.6554 27.15C50.6554 26.5707 50.7617 26.039 50.9744 25.555C51.187 25.071 51.484 24.6493 51.8654 24.29C52.254 23.9233 52.7087 23.641 53.2294 23.443C53.75 23.245 54.3184 23.146 54.9344 23.146C55.5577 23.146 56.126 23.245 56.6394 23.443C57.16 23.641 57.611 23.9233 57.9924 24.29C58.3737 24.6493 58.6707 25.071 58.8834 25.555C59.1034 26.039 59.2134 26.5707 59.2134 27.15C59.2134 27.7293 59.1034 28.2647 58.8834 28.756C58.6707 29.24 58.3737 29.6617 57.9924 30.021C57.611 30.3803 57.16 30.659 56.6394 30.857C56.126 31.055 55.5577 31.154 54.9344 31.154ZM54.9344 29.35C55.2277 29.35 55.499 29.2987 55.7484 29.196C56.005 29.0933 56.225 28.9467 56.4084 28.756C56.599 28.558 56.7457 28.3233 56.8484 28.052C56.9584 27.7807 57.0134 27.48 57.0134 27.15C57.0134 26.8127 56.9584 26.512 56.8484 26.248C56.7457 25.9767 56.599 25.7457 56.4084 25.555C56.225 25.357 56.005 25.2067 55.7484 25.104C55.499 25.0013 55.2277 24.95 54.9344 24.95C54.641 24.95 54.366 25.0013 54.1094 25.104C53.86 25.2067 53.64 25.357 53.4494 25.555C53.266 25.7457 53.1194 25.9767 53.0094 26.248C52.9067 26.512 52.8554 26.8127 52.8554 27.15C52.8554 27.48 52.9067 27.7807 53.0094 28.052C53.1194 28.3233 53.266 28.558 53.4494 28.756C53.64 28.9467 53.86 29.0933 54.1094 29.196C54.366 29.2987 54.641 29.35 54.9344 29.35ZM61.2341 31V23.3H63.0271L66.2171 28.536H65.2711L68.3731 23.3H70.1661L70.1881 31H68.1861L68.1641 26.347H68.5051L66.1841 30.241H65.2161L62.8291 26.347H63.2471V31H61.2341ZM72.6092 31V23.3H74.4022L77.5922 28.536H76.6462L79.7482 23.3H81.5412L81.5632 31H79.5612L79.5392 26.347H79.8802L77.5592 30.241H76.5912L74.2042 26.347H74.6222V31H72.6092ZM87.5373 31.154C86.4007 31.154 85.5133 30.8423 84.8753 30.219C84.2373 29.5957 83.9183 28.712 83.9183 27.568V23.3H86.0963V27.502C86.0963 28.162 86.2247 28.635 86.4813 28.921C86.7453 29.207 87.1047 29.35 87.5593 29.35C88.014 29.35 88.3697 29.207 88.6263 28.921C88.883 28.635 89.0113 28.162 89.0113 27.502V23.3H91.1563V27.568C91.1563 28.712 90.8373 29.5957 90.1993 30.219C89.5613 30.8423 88.674 31.154 87.5373 31.154ZM93.5118 31V23.3H95.3048L99.5508 28.426H98.7038V23.3H100.838V31H99.0448L94.7988 25.874H95.6458V31H93.5118ZM103.254 31V23.3H105.432V31H103.254ZM109.501 31V25.027H107.136V23.3H114.033V25.027H111.679V31H109.501ZM117.488 31V27.744L117.994 29.053L114.551 23.3H116.85L119.336 27.469H118.005L120.502 23.3H122.614L119.182 29.053L119.666 27.744V31H117.488Z" fill="white"/>
<defs>
<linearGradient id="paint0_linear_4029_11779" x1="12.3272" y1="1.0426" x2="12.3272" y2="32.0722" gradientUnits="userSpaceOnUse">
<stop stop-color="#B94848"/>
<stop offset="1" stop-color="#851287"/>
</linearGradient>
<linearGradient id="paint1_linear_4029_11779" x1="5.34704" y1="3.83682" x2="5.34704" y2="29.9236" gradientUnits="userSpaceOnUse">
<stop stop-color="#B94848"/>
<stop offset="1" stop-color="#851287"/>
</linearGradient>
<linearGradient id="paint2_linear_4029_11779" x1="8.97996" y1="3.83667" x2="16.6696" y2="33.0026" gradientUnits="userSpaceOnUse">
<stop stop-color="#F25E79"/>
<stop offset="1" stop-color="#C52CF1"/>
</linearGradient>
<linearGradient id="paint3_linear_4029_11779" x1="13.5374" y1="-7.6003" x2="18.4831" y2="32.1336" gradientUnits="userSpaceOnUse">
<stop stop-color="#F05C80"/>
<stop offset="1" stop-color="#CC34DF"/>
</linearGradient>
<linearGradient id="paint4_linear_4029_11779" x1="-10.0667" y1="-1.18384" x2="8.21253" y2="35.2396" gradientUnits="userSpaceOnUse">
<stop stop-color="#FFD83E"/>
<stop offset="1" stop-color="#D038D7"/>
</linearGradient>
</defs>
</svg>
