<svg width="498" height="498" viewBox="0 0 498 498" fill="none" xmlns="http://www.w3.org/2000/svg">
<path d="M433.082 237.465C435.113 235.983 435.563 233.151 434.081 231.131C432.709 229.221 430.152 228.782 428.165 229.935C426.518 226.565 425.618 222.877 425.618 219.057C425.618 214.502 426.903 210.133 429.23 206.247L433.082 203.448C434.422 202.471 435.124 200.847 434.916 199.211C434.718 197.576 433.631 196.182 432.095 195.556L322.92 151.891C319.232 150.41 313.887 151.101 310.692 153.428L189.621 241.471C189.248 241.735 188.94 242.064 188.677 242.426L188.666 242.415C184.33 248.156 182.047 254.983 182.047 262.151C182.047 268.232 183.781 274.028 186.931 279.165C183.781 284.301 182.047 290.086 182.047 296.156C182.047 302.237 183.781 308.033 186.931 313.17C183.781 318.307 182.047 324.103 182.047 330.184C182.047 337.341 184.33 344.179 188.666 349.919L189.423 350.929L299.78 395.077C301.152 395.626 302.711 395.89 304.292 395.89C307.069 395.89 309.912 395.077 312.008 393.552L372.533 349.536L433.058 305.509C435.088 304.027 435.538 301.195 434.056 299.175C432.684 297.265 430.127 296.826 428.14 297.979C426.493 294.609 425.593 290.921 425.593 287.101C425.593 282.535 426.878 278.177 429.205 274.291L433.058 271.492C435.088 270.01 435.538 267.178 434.056 265.159C432.684 263.249 430.127 262.81 428.14 263.962C426.494 260.593 425.593 256.904 425.593 253.085C425.593 248.529 426.878 244.161 429.205 240.275L433.082 237.465ZM314.756 181.638L382.789 208.849L357.839 226.993L289.806 199.782L314.756 181.638ZM367.213 342.193L306.689 386.209C305.92 386.758 304.043 386.988 303.154 386.637L195.211 343.467C192.533 339.516 191.128 334.949 191.128 330.174C191.128 326.135 192.159 322.271 194.102 318.77L299.784 361.052C301.156 361.601 302.714 361.864 304.295 361.864C307.072 361.864 309.915 361.052 312.012 359.526L372.536 315.51L419.89 281.065C419.506 283.03 419.243 285.028 419.243 287.091C419.243 292.25 420.483 297.223 422.854 301.701L367.213 342.193ZM367.213 308.178L306.689 352.205C305.92 352.765 304.043 352.996 303.154 352.633L195.211 309.463C192.533 305.512 191.128 300.946 191.128 296.171C191.128 292.131 192.159 288.268 194.102 284.755L299.784 327.037C301.156 327.586 302.714 327.849 304.295 327.849C307.072 327.849 309.915 327.037 312.012 325.511L372.536 281.495L419.89 247.051C419.506 249.015 419.243 251.013 419.243 253.077C419.243 258.235 420.483 263.208 422.854 267.697L367.213 308.178ZM367.213 274.163L306.689 318.179C305.92 318.739 304.043 318.969 303.154 318.607L195.211 275.437C192.533 271.497 191.128 266.919 191.128 262.144C191.128 258.105 192.159 254.23 194.102 250.729L299.784 293.022C301.112 293.549 302.659 293.834 304.273 293.834C307.149 293.834 309.959 292.978 312.012 291.496L419.902 213.035C419.517 215 419.254 216.998 419.254 219.062C419.254 224.22 420.494 229.193 422.865 233.682L367.213 274.163Z" fill="url(#paint0_linear_4029_9171)"/>
<g clip-path="url(#clip0_4029_9171)">
<rect x="18" y="57.9994" width="184.001" height="184.001" rx="92.0003" fill="white" fill-opacity="0.01"/>
<g filter="url(#filter2_d_4029_9171)">
<g clip-path="url(#clip1_4029_9171)">
<rect x="39.5117" y="79.5127" width="140.974" height="140.974" rx="70.487" fill="white" fill-opacity="0.01" shape-rendering="crispEdges"/>
<g filter="url(#filter3_d_4029_9171)">
<rect x="61.0234" y="101.026" width="97.9474" height="97.9472" rx="48.9736" fill="white"/>
<rect x="61.0234" y="101.026" width="97.9474" height="97.9472" rx="48.9736" fill="url(#paint1_linear_4029_9171)" fill-opacity="0.7"/>
<path d="M108.605 126.783L113.981 115.083V183.064L109.214 184.998C109.214 184.998 108.605 143.25 108.605 126.783Z" fill="url(#paint2_linear_4029_9171)"/>
<path d="M94.1016 132.04L98.7646 121.197L98.9262 177.623L94.1418 172.615C94.1418 172.615 94.1016 145.884 94.1016 132.04Z" fill="url(#paint3_linear_4029_9171)"/>
<path d="M109.242 183.209L109.193 177.286C109.189 161.748 109.193 146.209 109.156 130.671L109.185 130.728V125.607L106.001 124.204L106.013 124.228C103.708 123.224 101.324 122.265 98.7694 121.2V126.917C98.7653 143.1 98.7557 161.31 98.8006 177.493C99.0116 177.741 99.496 178.154 99.6062 178.247C100.043 178.635 100.492 178.988 100.932 179.363C102.3 180.518 103.769 181.571 105.254 182.566C106.03 183.085 106.817 183.582 107.617 184.06C107.756 184.141 109.238 184.896 109.242 185.007C109.225 184.186 109.283 184.139 109.242 183.209Z" fill="url(#paint4_linear_4029_9171)"/>
<path d="M135.635 123.99V142.634C135.312 162.31 127.289 174.327 113.891 183.113L113.964 114.993C116.049 115.841 117.959 116.604 119.857 117.396C124.334 119.269 128.803 121.158 133.28 123.015C134.063 123.341 134.851 123.668 135.635 123.99Z" fill="url(#paint5_linear_4029_9171)"/>
<path d="M94.1421 160.697C94.1421 160.379 94.1421 160.061 94.1421 159.742C94.1421 154.989 94.1421 150.28 94.138 145.591C94.138 145.424 94.138 145.261 94.138 145.093C94.138 143.931 94.1339 142.768 94.1339 141.609C94.1339 140.658 94.1299 139.707 94.1299 138.765C94.1299 138.385 94.1299 138.006 94.1299 137.626C94.1299 137.186 94.1299 136.749 94.1258 136.312L94.1339 136.345L94.1625 132.011L93.4973 131.71C93.4973 131.71 93.4973 131.71 93.4932 131.705C93.4769 131.697 93.4605 131.689 93.4401 131.681L93.0239 131.489V131.497C90.2079 130.232 87.3388 129.061 84.3555 127.821V142.629C84.531 153.275 86.9348 161.676 91.2322 168.536C92.0729 169.87 92.4566 170.405 93.4075 171.653C93.432 171.686 94.1054 172.575 94.138 172.604C94.138 169.274 94.138 165.908 94.138 162.533C94.1421 161.921 94.1421 161.309 94.1421 160.697Z" fill="url(#paint6_linear_4029_9171)"/>
</g>
</g>
<rect x="39.8058" y="79.8068" width="140.386" height="140.386" rx="70.1928" stroke="#CC34DF" stroke-width="0.588256" shape-rendering="crispEdges"/>
</g>
</g>
<rect x="18.2941" y="58.2935" width="183.413" height="183.412" rx="91.7062" stroke="#CC34DF" stroke-opacity="0.5" stroke-width="0.588256"/>
<defs>
<filter id="filter2_d_4029_9171" x="-3.515" y="41.8643" width="227.026" height="227.027" filterUnits="userSpaceOnUse" color-interpolation-filters="sRGB">
<feFlood flood-opacity="0" result="BackgroundImageFix"/>
<feColorMatrix in="SourceAlpha" type="matrix" values="0 0 0 0 0 0 0 0 0 0 0 0 0 0 0 0 0 0 127 0" result="hardAlpha"/>
<feOffset dy="5.37834"/>
<feGaussianBlur stdDeviation="21.5134"/>
<feComposite in2="hardAlpha" operator="out"/>
<feColorMatrix type="matrix" values="0 0 0 0 0 0 0 0 0 0 0 0 0 0 0 0 0 0 0.12 0"/>
<feBlend mode="normal" in2="BackgroundImageFix" result="effect1_dropShadow_4029_9171"/>
<feBlend mode="normal" in="SourceGraphic" in2="effect1_dropShadow_4029_9171" result="shape"/>
</filter>
<filter id="filter3_d_4029_9171" x="5.05349" y="54.3844" width="209.889" height="209.887" filterUnits="userSpaceOnUse" color-interpolation-filters="sRGB">
<feFlood flood-opacity="0" result="BackgroundImageFix"/>
<feColorMatrix in="SourceAlpha" type="matrix" values="0 0 0 0 0 0 0 0 0 0 0 0 0 0 0 0 0 0 127 0" result="hardAlpha"/>
<feOffset dy="9.32832"/>
<feGaussianBlur stdDeviation="27.985"/>
<feComposite in2="hardAlpha" operator="out"/>
<feColorMatrix type="matrix" values="0 0 0 0 1 0 0 0 0 1 0 0 0 0 1 0 0 0 0.25 0"/>
<feBlend mode="normal" in2="BackgroundImageFix" result="effect1_dropShadow_4029_9171"/>
<feBlend mode="normal" in="SourceGraphic" in2="effect1_dropShadow_4029_9171" result="shape"/>
</filter>
<linearGradient id="paint0_linear_4029_9171" x1="-385.944" y1="54.8717" x2="-328.593" y2="594.053" gradientUnits="userSpaceOnUse">
<stop stop-color="#FFD83E"/>
<stop offset="1" stop-color="#D038D7"/>
</linearGradient>
<linearGradient id="paint1_linear_4029_9171" x1="109.997" y1="101.026" x2="109.997" y2="198.973" gradientUnits="userSpaceOnUse">
<stop stop-color="#1E1F23" stop-opacity="0"/>
<stop offset="1" stop-color="#1E1F23" stop-opacity="0.24"/>
</linearGradient>
<linearGradient id="paint2_linear_4029_9171" x1="111.313" y1="115.083" x2="111.313" y2="182.973" gradientUnits="userSpaceOnUse">
<stop stop-color="#B94848"/>
<stop offset="1" stop-color="#851287"/>
</linearGradient>
<linearGradient id="paint3_linear_4029_9171" x1="96.0574" y1="121.196" x2="96.0574" y2="178.272" gradientUnits="userSpaceOnUse">
<stop stop-color="#B94848"/>
<stop offset="1" stop-color="#851287"/>
</linearGradient>
<linearGradient id="paint4_linear_4029_9171" x1="104.004" y1="121.2" x2="120.828" y2="185.012" gradientUnits="userSpaceOnUse">
<stop stop-color="#F25E79"/>
<stop offset="1" stop-color="#C52CF1"/>
</linearGradient>
<linearGradient id="paint5_linear_4029_9171" x1="113.964" y1="96.1761" x2="124.785" y2="183.11" gradientUnits="userSpaceOnUse">
<stop stop-color="#F05C80"/>
<stop offset="1" stop-color="#CC34DF"/>
</linearGradient>
<linearGradient id="paint6_linear_4029_9171" x1="62.3304" y1="110.214" x2="102.323" y2="189.904" gradientUnits="userSpaceOnUse">
<stop stop-color="#FFD83E"/>
<stop offset="1" stop-color="#D038D7"/>
</linearGradient>
<clipPath id="clip0_4029_9171">
<rect x="18" y="57.9994" width="184.001" height="184.001" rx="92.0003" fill="white"/>
</clipPath>
<clipPath id="clip1_4029_9171">
<rect x="39.5117" y="79.5127" width="140.974" height="140.974" rx="70.487" fill="white"/>
</clipPath>
</defs>
</svg>
