<svg width="297" height="51" viewBox="0 0 297 51" fill="none" xmlns="http://www.w3.org/2000/svg">
<mask id="path-1-inside-1_3013_1177" fill="white">
<path d="M0 12C0 5.37258 5.37258 0 12 0H144C150.627 0 156 5.37258 156 12V51H0V12Z"/>
</mask>
<path d="M0 12C0 5.37258 5.37258 0 12 0H144C150.627 0 156 5.37258 156 12V51H0V12Z" fill="transparent"/>
<path d="M-1 12C-1 4.8203 4.8203 -1 12 -1H144C151.18 -1 157 4.8203 157 12H155C155 5.92487 150.075 1 144 1H12C5.92487 1 1 5.92487 1 12H-1ZM156 51H0H156ZM-1 51V12C-1 4.8203 4.8203 -1 12 -1V1C5.92487 1 1 5.92487 1 12V51H-1ZM144 -1C151.18 -1 157 4.8203 157 12V51H155V12C155 5.92487 150.075 1 144 1V-1Z" fill="white" fill-opacity="0.05" mask="url(#path-1-inside-1_3013_1177)"/>
<path d="M32.9353 16C28.3657 16 28.6511 17.992 28.6511 17.992L28.6562 20.0557H33.0168V20.6753H26.9241C26.9241 20.6753 24 20.3419 24 24.9768C24 29.6116 26.5522 29.4472 26.5522 29.4472H28.0754V27.2965C28.0754 27.2965 27.9933 24.731 30.5869 24.731C33.1804 24.731 34.9119 24.731 34.9119 24.731C34.9119 24.731 37.3419 24.7704 37.3419 22.3703C37.3419 19.9701 37.3419 18.4017 37.3419 18.4017C37.3419 18.4017 37.7108 16 32.9353 16ZM30.5308 17.3877C30.9647 17.3877 31.3154 17.7402 31.3154 18.1763C31.3154 18.6125 30.9647 18.9649 30.5308 18.9649C30.097 18.9649 29.7463 18.6125 29.7463 18.1763C29.7463 17.7402 30.097 17.3877 30.5308 17.3877Z" fill="url(#paint0_linear_3013_1177)"/>
<path d="M33.0645 33.9999C37.6341 33.9999 37.3488 32.0079 37.3488 32.0079L37.3437 29.9442H32.983V29.3246H39.0757C39.0757 29.3246 41.9998 29.6579 41.9998 25.0231C41.9998 20.3883 39.4476 20.5527 39.4476 20.5527H37.9244V22.7034C37.9244 22.7034 38.0065 25.2689 35.413 25.2689C32.8194 25.2689 31.0879 25.2689 31.0879 25.2689C31.0879 25.2689 28.658 25.2294 28.658 27.6296C28.658 30.0298 28.658 31.5982 28.658 31.5982C28.658 31.5982 28.289 33.9999 33.0645 33.9999ZM35.469 32.6121C35.0351 32.6121 34.6845 32.2596 34.6845 31.8235C34.6845 31.3874 35.0351 31.0349 35.469 31.0349C35.9029 31.0349 36.2535 31.3874 36.2535 31.8235C36.2535 32.2596 35.9029 32.6121 35.469 32.6121Z" fill="url(#paint1_linear_3013_1177)"/>
<path d="M57.4453 31.1328C56.6224 31.1328 55.9401 30.9245 55.3984 30.5078C54.8568 30.0859 54.5859 29.4635 54.5859 28.6406C54.5859 28.0156 54.7396 27.5365 55.0469 27.2031C55.3594 26.8646 55.763 26.6224 56.2578 26.4766C56.7578 26.3307 57.2865 26.224 57.8438 26.1562C58.3594 26.0938 58.7682 26.0417 59.0703 26C59.3724 25.9583 59.5859 25.8958 59.7109 25.8125C59.8411 25.7292 59.9062 25.5859 59.9062 25.3828V25.3125C59.9062 24.9115 59.7604 24.5833 59.4688 24.3281C59.1771 24.0677 58.7682 23.9375 58.2422 23.9375C57.7161 23.9375 57.2865 24.0651 56.9531 24.3203C56.6198 24.5703 56.4375 24.8854 56.4062 25.2656H54.7891C54.8255 24.4792 55.1562 23.8359 55.7812 23.3359C56.4062 22.8359 57.2344 22.5859 58.2656 22.5859C59.2812 22.5859 60.0807 22.8359 60.6641 23.3359C61.2474 23.8359 61.5391 24.5052 61.5391 25.3438V31H59.9141V29.8281H59.8828C59.7109 30.1615 59.4375 30.4635 59.0625 30.7344C58.6927 31 58.1536 31.1328 57.4453 31.1328ZM57.7812 29.8047C58.5104 29.8047 59.0469 29.6172 59.3906 29.2422C59.7396 28.862 59.9141 28.4193 59.9141 27.9141V26.9453C59.8047 27.0339 59.5573 27.1146 59.1719 27.1875C58.7865 27.2552 58.375 27.3203 57.9375 27.3828C57.4844 27.4505 57.0859 27.5781 56.7422 27.7656C56.3984 27.9531 56.2266 28.2552 56.2266 28.6719C56.2266 29.026 56.3646 29.3047 56.6406 29.5078C56.9219 29.7057 57.3021 29.8047 57.7812 29.8047ZM63.3984 34.2656V22.75H65.0156V23.9375H65.0391C65.2995 23.4844 65.6562 23.1458 66.1094 22.9219C66.5625 22.6979 67.0573 22.5859 67.5938 22.5859C68.3021 22.5859 68.9245 22.7682 69.4609 23.1328C69.9974 23.4922 70.4141 23.9948 70.7109 24.6406C71.013 25.2812 71.1641 26.026 71.1641 26.875C71.1641 27.724 71.0156 28.4714 70.7188 29.1172C70.4219 29.7578 70.0052 30.2604 69.4688 30.625C68.9323 30.9844 68.3047 31.1641 67.5859 31.1641C67.0495 31.1641 66.5651 31.0469 66.1328 30.8125C65.7005 30.5781 65.3464 30.2266 65.0703 29.7578H65.0469V34.2656H63.3984ZM67.25 29.7422C67.9167 29.7422 68.4557 29.4974 68.8672 29.0078C69.2839 28.5182 69.4922 27.8073 69.4922 26.875C69.4922 25.9427 69.2839 25.2318 68.8672 24.7422C68.4557 24.2474 67.9167 24 67.25 24C66.5469 24 65.9844 24.263 65.5625 24.7891C65.1458 25.3099 64.9375 26.0052 64.9375 26.875C64.9375 27.7396 65.1458 28.4349 65.5625 28.9609C65.9844 29.4818 66.5469 29.7422 67.25 29.7422ZM72.6172 34.2656V22.75H74.2344V23.9375H74.2578C74.5182 23.4844 74.875 23.1458 75.3281 22.9219C75.7812 22.6979 76.276 22.5859 76.8125 22.5859C77.5208 22.5859 78.1432 22.7682 78.6797 23.1328C79.2161 23.4922 79.6328 23.9948 79.9297 24.6406C80.2318 25.2812 80.3828 26.026 80.3828 26.875C80.3828 27.724 80.2344 28.4714 79.9375 29.1172C79.6406 29.7578 79.224 30.2604 78.6875 30.625C78.151 30.9844 77.5234 31.1641 76.8047 31.1641C76.2682 31.1641 75.7839 31.0469 75.3516 30.8125C74.9193 30.5781 74.5651 30.2266 74.2891 29.7578H74.2656V34.2656H72.6172ZM76.4688 29.7422C77.1354 29.7422 77.6745 29.4974 78.0859 29.0078C78.5026 28.5182 78.7109 27.8073 78.7109 26.875C78.7109 25.9427 78.5026 25.2318 78.0859 24.7422C77.6745 24.2474 77.1354 24 76.4688 24C75.7656 24 75.2031 24.263 74.7812 24.7891C74.3646 25.3099 74.1562 26.0052 74.1562 26.875C74.1562 27.7396 74.3646 28.4349 74.7812 28.9609C75.2031 29.4818 75.7656 29.7422 76.4688 29.7422ZM82.7266 31.1328C82.4245 31.1328 82.1667 31.0286 81.9531 30.8203C81.7448 30.6068 81.6406 30.3464 81.6406 30.0391C81.6406 29.737 81.7448 29.4792 81.9531 29.2656C82.1667 29.0521 82.4245 28.9453 82.7266 28.9453C83.0339 28.9453 83.2917 29.0521 83.5 29.2656C83.7135 29.4792 83.8203 29.737 83.8203 30.0391C83.8203 30.3464 83.7135 30.6068 83.5 30.8203C83.2917 31.0286 83.0339 31.1328 82.7266 31.1328ZM85.4922 34.2656V22.75H87.1094V23.9375H87.1328C87.3932 23.4844 87.75 23.1458 88.2031 22.9219C88.6562 22.6979 89.151 22.5859 89.6875 22.5859C90.3958 22.5859 91.0182 22.7682 91.5547 23.1328C92.0911 23.4922 92.5078 23.9948 92.8047 24.6406C93.1068 25.2812 93.2578 26.026 93.2578 26.875C93.2578 27.724 93.1094 28.4714 92.8125 29.1172C92.5156 29.7578 92.099 30.2604 91.5625 30.625C91.026 30.9844 90.3984 31.1641 89.6797 31.1641C89.1432 31.1641 88.6589 31.0469 88.2266 30.8125C87.7943 30.5781 87.4401 30.2266 87.1641 29.7578H87.1406V34.2656H85.4922ZM89.3438 29.7422C90.0104 29.7422 90.5495 29.4974 90.9609 29.0078C91.3776 28.5182 91.5859 27.8073 91.5859 26.875C91.5859 25.9427 91.3776 25.2318 90.9609 24.7422C90.5495 24.2474 90.0104 24 89.3438 24C88.6406 24 88.0781 24.263 87.6562 24.7891C87.2396 25.3099 87.0312 26.0052 87.0312 26.875C87.0312 27.7396 87.2396 28.4349 87.6562 28.9609C88.0781 29.4818 88.6406 29.7422 89.3438 29.7422ZM94.5078 34.2656V32.875H95.3984C95.6589 32.875 95.8698 32.7995 96.0312 32.6484C96.1979 32.5026 96.3438 32.2604 96.4688 31.9219L96.8438 30.9453L93.6562 22.75H95.4219L97.0703 27.2734C97.1797 27.5807 97.2865 27.8906 97.3906 28.2031C97.4948 28.5104 97.5964 28.8177 97.6953 29.125C97.7943 28.8177 97.8958 28.5104 98 28.2031C98.1094 27.8906 98.2188 27.5807 98.3281 27.2734L99.9531 22.75H101.695L97.9453 32.4453C97.4818 33.6589 96.6849 34.2656 95.5547 34.2656H94.5078Z" fill="white"/>
<path d="M127.5 20.5L118.5 29.5M118.5 20.5L127.5 29.5" stroke="white" stroke-width="1.5" stroke-linecap="round" stroke-linejoin="round"/>
<path d="M186.238 19.032L187.62 16.024V33.5016L186.395 33.9989C186.395 33.9989 186.238 23.2656 186.238 19.032Z" fill="url(#paint2_linear_3013_1177)"/>
<path d="M182.504 20.3834L183.703 17.5958L183.745 32.1028L182.515 30.8151C182.515 30.8151 182.504 23.9427 182.504 20.3834Z" fill="url(#paint3_linear_3013_1177)"/>
<path d="M186.397 33.5378L186.385 32.0151C186.384 28.0203 186.385 24.0254 186.375 20.0305L186.383 20.0452V18.7286L185.564 18.3678L185.567 18.3741C184.975 18.116 184.362 17.8694 183.705 17.5956V19.0654C183.704 23.226 183.702 27.9077 183.713 32.0683C183.767 32.1321 183.892 32.2381 183.92 32.2622C184.032 32.3619 184.148 32.4526 184.261 32.5491C184.613 32.846 184.99 33.1166 185.372 33.3726C185.572 33.5058 185.774 33.6338 185.98 33.7566C186.016 33.7776 186.396 33.9716 186.397 34C186.393 33.7891 186.408 33.777 186.397 33.5378Z" fill="url(#paint4_linear_3013_1177)"/>
<path d="M193.186 18.3132V23.1064C193.104 28.165 191.041 31.2547 187.596 33.5134L187.615 16C188.151 16.2182 188.642 16.4144 189.13 16.6179C190.281 17.0994 191.43 17.5851 192.581 18.0625C192.783 18.1464 192.985 18.2303 193.186 18.3132Z" fill="url(#paint5_linear_3013_1177)"/>
<path d="M182.516 27.7508C182.516 27.6689 182.516 27.5871 182.516 27.5053C182.516 26.2831 182.516 25.0725 182.515 23.8671C182.515 23.8241 182.515 23.7821 182.515 23.7391C182.515 23.4401 182.514 23.1411 182.514 22.8432C182.514 22.5988 182.513 22.3543 182.513 22.112C182.513 22.0144 182.513 21.9169 182.513 21.8193C182.513 21.706 182.513 21.5938 182.512 21.4815L182.514 21.4899L182.521 20.3758L182.35 20.2982C182.35 20.2982 182.35 20.2982 182.349 20.2971C182.345 20.295 182.341 20.2929 182.336 20.2908L182.229 20.2415V20.2436C181.505 19.9184 180.767 19.6173 180 19.2984V23.1055C180.045 25.8425 180.663 28.0025 181.768 29.766C181.984 30.1091 182.083 30.2465 182.327 30.5675C182.334 30.5759 182.507 30.8046 182.515 30.812C182.515 29.9559 182.515 29.0904 182.515 28.2228C182.516 28.0655 182.516 27.9081 182.516 27.7508Z" fill="url(#paint6_linear_3013_1177)"/>
<path d="M210.304 31.1641C209.767 31.1641 209.275 31.0469 208.827 30.8125C208.384 30.5781 208.025 30.2214 207.749 29.7422H207.733V31H206.116V19.3594H207.765V23.9453H207.78C208.046 23.487 208.4 23.1458 208.843 22.9219C209.285 22.6979 209.775 22.5859 210.312 22.5859C211.02 22.5859 211.642 22.7682 212.179 23.1328C212.715 23.4922 213.132 23.9948 213.429 24.6406C213.731 25.2812 213.882 26.026 213.882 26.875C213.882 27.724 213.733 28.4714 213.437 29.1172C213.14 29.7578 212.723 30.2604 212.187 30.625C211.65 30.9844 211.022 31.1641 210.304 31.1641ZM209.968 29.7422C210.634 29.7422 211.174 29.4974 211.585 29.0078C212.002 28.5182 212.21 27.8073 212.21 26.875C212.21 25.9427 212.002 25.2318 211.585 24.7422C211.174 24.2474 210.634 24 209.968 24C209.265 24 208.702 24.263 208.28 24.7891C207.864 25.3099 207.655 26.0052 207.655 26.875C207.655 27.7396 207.864 28.4349 208.28 28.9609C208.702 29.4818 209.265 29.7422 209.968 29.7422ZM215.335 31V22.75H216.913V24.0859H216.944C217.095 23.6328 217.332 23.2812 217.655 23.0312C217.983 22.776 218.41 22.6484 218.937 22.6484C219.062 22.6484 219.176 22.6536 219.28 22.6641C219.384 22.6745 219.47 22.6823 219.538 22.6875V24.2266C219.476 24.2109 219.364 24.1953 219.202 24.1797C219.041 24.1589 218.864 24.1484 218.671 24.1484C218.207 24.1484 217.809 24.3099 217.476 24.6328C217.147 24.9557 216.983 25.4531 216.983 26.125V31H215.335ZM223.085 31.1328C222.262 31.1328 221.58 30.9245 221.038 30.5078C220.496 30.0859 220.226 29.4635 220.226 28.6406C220.226 28.0156 220.379 27.5365 220.687 27.2031C220.999 26.8646 221.403 26.6224 221.897 26.4766C222.397 26.3307 222.926 26.224 223.483 26.1562C223.999 26.0938 224.408 26.0417 224.71 26C225.012 25.9583 225.226 25.8958 225.351 25.8125C225.481 25.7292 225.546 25.5859 225.546 25.3828V25.3125C225.546 24.9115 225.4 24.5833 225.108 24.3281C224.817 24.0677 224.408 23.9375 223.882 23.9375C223.356 23.9375 222.926 24.0651 222.593 24.3203C222.259 24.5703 222.077 24.8854 222.046 25.2656H220.429C220.465 24.4792 220.796 23.8359 221.421 23.3359C222.046 22.8359 222.874 22.5859 223.905 22.5859C224.921 22.5859 225.72 22.8359 226.304 23.3359C226.887 23.8359 227.179 24.5052 227.179 25.3438V31H225.554V29.8281H225.522C225.351 30.1615 225.077 30.4635 224.702 30.7344C224.332 31 223.793 31.1328 223.085 31.1328ZM223.421 29.8047C224.15 29.8047 224.687 29.6172 225.03 29.2422C225.379 28.862 225.554 28.4193 225.554 27.9141V26.9453C225.444 27.0339 225.197 27.1146 224.812 27.1875C224.426 27.2552 224.015 27.3203 223.577 27.3828C223.124 27.4505 222.726 27.5781 222.382 27.7656C222.038 27.9531 221.866 28.2552 221.866 28.6719C221.866 29.026 222.004 29.3047 222.28 29.5078C222.562 29.7057 222.942 29.8047 223.421 29.8047ZM230.687 26.25V31H229.038V22.75H230.655V23.9922C231.218 23.0547 232.049 22.5859 233.147 22.5859C233.715 22.5859 234.223 22.7109 234.671 22.9609C235.124 23.2057 235.481 23.5703 235.741 24.0547C236.002 24.5391 236.132 25.1406 236.132 25.8594V31H234.483V26.0625C234.483 25.401 234.325 24.9036 234.007 24.5703C233.689 24.2318 233.246 24.0625 232.679 24.0625C232.116 24.0625 231.642 24.237 231.257 24.5859C230.877 24.9297 230.687 25.4844 230.687 26.25ZM241.522 31.1875C240.736 31.1875 240.046 31.0052 239.452 30.6406C238.864 30.276 238.405 29.7708 238.077 29.125C237.749 28.474 237.585 27.7292 237.585 26.8906C237.585 26.0417 237.749 25.2917 238.077 24.6406C238.41 23.9896 238.871 23.4818 239.46 23.1172C240.049 22.7474 240.736 22.5625 241.522 22.5625C242.179 22.5625 242.765 22.6927 243.28 22.9531C243.801 23.2083 244.223 23.5625 244.546 24.0156C244.869 24.4688 245.064 24.987 245.132 25.5703H243.491C243.408 25.1068 243.2 24.7266 242.866 24.4297C242.533 24.1328 242.088 23.9844 241.53 23.9844C240.817 23.9844 240.259 24.2474 239.858 24.7734C239.457 25.2995 239.257 26.0052 239.257 26.8906C239.257 27.7656 239.457 28.4635 239.858 28.9844C240.259 29.5052 240.817 29.7656 241.53 29.7656C242.098 29.7656 242.535 29.6224 242.843 29.3359C243.15 29.0443 243.358 28.6562 243.468 28.1719H245.132C245.069 28.7448 244.877 29.2604 244.554 29.7188C244.231 30.1719 243.809 30.5312 243.288 30.7969C242.767 31.0573 242.179 31.1875 241.522 31.1875ZM248.187 26.25V31H246.538V19.3594H248.187V23.9375C248.754 23.0365 249.575 22.5859 250.647 22.5859C251.215 22.5859 251.723 22.7109 252.171 22.9609C252.624 23.2057 252.981 23.5703 253.241 24.0547C253.502 24.5391 253.632 25.1406 253.632 25.8594V31H251.983V26.0625C251.983 25.401 251.825 24.9036 251.507 24.5703C251.189 24.2318 250.746 24.0625 250.179 24.0625C249.616 24.0625 249.142 24.237 248.757 24.5859C248.377 24.9297 248.187 25.4844 248.187 26.25ZM256.382 31.1328C256.08 31.1328 255.822 31.0286 255.608 30.8203C255.4 30.6068 255.296 30.3464 255.296 30.0391C255.296 29.737 255.4 29.4792 255.608 29.2656C255.822 29.0521 256.08 28.9453 256.382 28.9453C256.689 28.9453 256.947 29.0521 257.155 29.2656C257.369 29.4792 257.476 29.737 257.476 30.0391C257.476 30.3464 257.369 30.6068 257.155 30.8203C256.947 31.0286 256.689 31.1328 256.382 31.1328ZM259.147 34.2656V22.75H260.765V23.9375H260.788C261.049 23.4844 261.405 23.1458 261.858 22.9219C262.312 22.6979 262.806 22.5859 263.343 22.5859C264.051 22.5859 264.674 22.7682 265.21 23.1328C265.746 23.4922 266.163 23.9948 266.46 24.6406C266.762 25.2812 266.913 26.026 266.913 26.875C266.913 27.724 266.765 28.4714 266.468 29.1172C266.171 29.7578 265.754 30.2604 265.218 30.625C264.681 30.9844 264.054 31.1641 263.335 31.1641C262.799 31.1641 262.314 31.0469 261.882 30.8125C261.45 30.5781 261.095 30.2266 260.819 29.7578H260.796V34.2656H259.147ZM262.999 29.7422C263.666 29.7422 264.205 29.4974 264.616 29.0078C265.033 28.5182 265.241 27.8073 265.241 26.875C265.241 25.9427 265.033 25.2318 264.616 24.7422C264.205 24.2474 263.666 24 262.999 24C262.296 24 261.733 24.263 261.312 24.7891C260.895 25.3099 260.687 26.0052 260.687 26.875C260.687 27.7396 260.895 28.4349 261.312 28.9609C261.733 29.4818 262.296 29.7422 262.999 29.7422ZM271.89 31.1875C271.072 31.1875 270.369 31.0026 269.78 30.6328C269.197 30.263 268.746 29.7552 268.429 29.1094C268.116 28.4583 267.96 27.7188 267.96 26.8906C267.96 26.0521 268.124 25.3073 268.452 24.6562C268.78 24.0052 269.233 23.4948 269.812 23.125C270.39 22.75 271.054 22.5625 271.804 22.5625C272.585 22.5625 273.262 22.7448 273.835 23.1094C274.413 23.474 274.861 23.9818 275.179 24.6328C275.496 25.2786 275.655 26.026 275.655 26.875V27.3203H269.585C269.616 28.0651 269.83 28.6667 270.226 29.125C270.627 29.5833 271.189 29.8125 271.913 29.8125C272.455 29.8125 272.9 29.6901 273.249 29.4453C273.598 29.2005 273.83 28.8828 273.944 28.4922H275.53C275.431 29.0234 275.21 29.4922 274.866 29.8984C274.528 30.3047 274.101 30.6224 273.585 30.8516C273.075 31.0755 272.509 31.1875 271.89 31.1875ZM269.601 26.0703H274.046C273.978 25.4141 273.746 24.8958 273.351 24.5156C272.955 24.1302 272.444 23.9375 271.819 23.9375C271.194 23.9375 270.684 24.1302 270.288 24.5156C269.897 24.8958 269.668 25.4141 269.601 26.0703ZM277.085 31V22.75H278.663V24.0859H278.694C278.845 23.6328 279.082 23.2812 279.405 23.0312C279.733 22.776 280.16 22.6484 280.687 22.6484C280.812 22.6484 280.926 22.6536 281.03 22.6641C281.134 22.6745 281.22 22.6823 281.288 22.6875V24.2266C281.226 24.2109 281.114 24.1953 280.952 24.1797C280.791 24.1589 280.614 24.1484 280.421 24.1484C279.957 24.1484 279.559 24.3099 279.226 24.6328C278.897 24.9557 278.733 25.4531 278.733 26.125V31H277.085ZM282.569 31V22.75H284.171V24.1328C284.426 23.6224 284.772 23.237 285.21 22.9766C285.647 22.7161 286.121 22.5859 286.632 22.5859C287.194 22.5859 287.687 22.7292 288.108 23.0156C288.535 23.3021 288.835 23.6667 289.007 24.1094C289.231 23.6615 289.569 23.2969 290.022 23.0156C290.481 22.7292 291.015 22.5859 291.624 22.5859C292.134 22.5859 292.598 22.6979 293.015 22.9219C293.431 23.1458 293.762 23.4792 294.007 23.9219C294.252 24.3594 294.374 24.9089 294.374 25.5703V31H292.718V25.7109C292.718 25.1224 292.554 24.6953 292.226 24.4297C291.897 24.1641 291.509 24.0312 291.062 24.0312C290.509 24.0312 290.075 24.2031 289.757 24.5469C289.439 24.8854 289.28 25.3177 289.28 25.8438V31H287.655V25.6016C287.655 25.1276 287.502 24.7474 287.194 24.4609C286.892 24.1745 286.507 24.0312 286.038 24.0312C285.559 24.0312 285.134 24.2005 284.765 24.5391C284.4 24.8776 284.218 25.3724 284.218 26.0234V31H282.569Z" fill="white"/>
<defs>
<linearGradient id="paint0_linear_3013_1177" x1="25.7299" y1="17.5734" x2="34.677" y2="26.5039" gradientUnits="userSpaceOnUse">
<stop stop-color="#387EB8"/>
<stop offset="1" stop-color="#366994"/>
</linearGradient>
<linearGradient id="paint1_linear_3013_1177" x1="31.2046" y1="23.284" x2="40.8115" y2="32.4402" gradientUnits="userSpaceOnUse">
<stop stop-color="#FFE052"/>
<stop offset="1" stop-color="#FFC331"/>
</linearGradient>
<linearGradient id="paint2_linear_3013_1177" x1="186.934" y1="16.024" x2="186.934" y2="33.4781" gradientUnits="userSpaceOnUse">
<stop stop-color="#B94848"/>
<stop offset="1" stop-color="#851287"/>
</linearGradient>
<linearGradient id="paint3_linear_3013_1177" x1="183.007" y1="17.5956" x2="183.007" y2="32.2694" gradientUnits="userSpaceOnUse">
<stop stop-color="#B94848"/>
<stop offset="1" stop-color="#851287"/>
</linearGradient>
<linearGradient id="paint4_linear_3013_1177" x1="185.051" y1="17.5956" x2="189.376" y2="34.0014" gradientUnits="userSpaceOnUse">
<stop stop-color="#F25E79"/>
<stop offset="1" stop-color="#C52CF1"/>
</linearGradient>
<linearGradient id="paint5_linear_3013_1177" x1="187.615" y1="11.1623" x2="190.397" y2="33.5126" gradientUnits="userSpaceOnUse">
<stop stop-color="#F05C80"/>
<stop offset="1" stop-color="#CC34DF"/>
</linearGradient>
<linearGradient id="paint6_linear_3013_1177" x1="174.337" y1="14.7716" x2="184.62" y2="35.2597" gradientUnits="userSpaceOnUse">
<stop stop-color="#FFD83E"/>
<stop offset="1" stop-color="#D038D7"/>
</linearGradient>
</defs>
</svg>
