<svg width="420" height="382" viewBox="0 0 420 382" fill="none" xmlns="http://www.w3.org/2000/svg">
<g opacity="0.5">
<path opacity="0.0344828" d="M95.1163 89.3866C96.8327 87.3411 99.438 86.0494 102.924 85.5266C106.415 85.0029 110.745 85.2593 115.823 86.2744C125.979 88.3043 138.98 93.3367 153.952 100.953C183.886 116.182 221.556 141.665 259.853 173.8C298.15 205.935 329.788 238.608 349.982 265.442C360.083 278.865 367.297 290.794 371.059 300.443C372.941 305.268 373.945 309.487 374.036 313.017C374.126 316.54 373.307 319.33 371.59 321.376C369.874 323.421 367.269 324.713 363.783 325.236C360.291 325.759 355.962 325.503 350.883 324.488C340.727 322.458 327.727 317.426 312.754 309.809C282.82 294.581 245.15 269.097 206.854 236.962C168.557 204.827 136.919 172.155 116.724 145.32C106.623 131.898 99.4098 119.969 95.6472 110.319C93.7657 105.494 92.7613 101.275 92.6707 97.7455C92.5803 94.222 93.4 91.432 95.1163 89.3866Z" stroke="url(#paint0_linear_4247_10613)" stroke-width="1.44654"/>
<path opacity="0.0689655" d="M105.753 76.3338C107.641 74.4457 110.349 73.386 113.867 73.169C117.391 72.9516 121.682 73.5844 126.653 75.0382C136.593 77.9456 149.106 84.0919 163.357 92.9846C191.85 110.764 227.156 139.433 262.506 174.784C297.857 210.134 326.526 245.44 344.305 273.933C353.198 288.184 359.344 300.697 362.252 310.637C363.706 315.608 364.338 319.898 364.121 323.423C363.904 326.941 362.844 329.648 360.956 331.537C359.068 333.425 356.36 334.484 352.842 334.701C349.318 334.919 345.027 334.286 340.057 332.832C330.116 329.925 317.604 323.779 303.352 314.886C274.859 297.107 239.554 268.437 204.203 233.087C168.853 197.736 140.183 162.43 122.404 133.938C113.511 119.686 107.365 107.174 104.458 97.2332C103.004 92.2626 102.371 87.9719 102.589 84.4478C102.806 80.9298 103.865 78.2219 105.753 76.3338Z" stroke="url(#paint1_linear_4247_10613)" stroke-width="1.44654"/>
<path opacity="0.103448" d="M117.361 64.2516C119.406 62.5352 122.196 61.7156 125.72 61.806C129.249 61.8965 133.469 62.9009 138.294 64.7824C147.943 68.5451 159.872 75.7585 173.294 85.8595C200.129 106.054 232.802 137.692 264.937 175.989C297.072 214.286 322.555 251.956 337.783 281.89C345.4 296.862 350.432 309.863 352.462 320.019C353.477 325.097 353.734 329.427 353.21 332.918C352.687 336.404 351.395 339.009 349.35 340.726C347.305 342.442 344.515 343.262 340.991 343.171C337.461 343.081 333.242 342.076 328.417 340.195C318.768 336.432 306.839 329.219 293.417 319.118C266.582 298.923 233.909 267.285 201.774 228.988C169.639 190.691 144.156 153.021 128.928 123.087C121.311 108.115 116.279 95.1146 114.249 84.9585C113.234 79.8801 112.977 75.5505 113.501 72.0589C114.024 68.5732 115.315 65.9679 117.361 64.2516Z" stroke="url(#paint2_linear_4247_10613)" stroke-width="1.44654"/>
<path opacity="0.137931" d="M129.848 53.2214C132.036 51.6898 134.886 51.1165 138.389 51.5136C141.897 51.9114 146.012 53.2797 150.655 55.5746C159.94 60.1639 171.195 68.3896 183.686 79.622C208.658 102.079 238.449 136.444 267.124 177.395C295.799 218.347 317.902 258.095 330.463 289.242C336.746 304.822 340.626 318.211 341.763 328.506C342.332 333.653 342.21 337.989 341.384 341.421C340.56 344.848 339.046 347.331 336.858 348.862C334.671 350.394 331.82 350.967 328.318 350.57C324.81 350.172 320.694 348.804 316.052 346.509C306.767 341.92 295.512 333.694 283.021 322.462C258.048 300.005 228.258 265.64 199.583 224.688C170.908 183.736 148.805 143.989 136.243 112.841C129.96 97.2623 126.08 83.8726 124.943 73.5783C124.375 68.4307 124.496 64.0953 125.323 60.6626C126.147 57.2357 127.661 54.7529 129.848 53.2214Z" stroke="url(#paint3_linear_4247_10613)" stroke-width="1.44654"/>
<path opacity="0.172414" d="M143.125 43.3165C145.438 41.9814 148.328 41.6586 151.782 42.3595C155.242 43.0616 159.223 44.7834 163.648 47.4742C172.497 52.8553 182.993 62.0306 194.457 74.3088C217.377 98.8567 244.06 135.687 269.056 178.982C294.053 222.278 312.608 263.801 322.407 295.924C327.308 311.992 330.006 325.668 330.242 336.023C330.359 341.2 329.86 345.509 328.738 348.856C327.618 352.198 325.893 354.54 323.581 355.875C321.269 357.21 318.379 357.532 314.924 356.832C311.464 356.13 307.483 354.408 303.058 351.717C294.209 346.336 283.714 337.161 272.25 324.882C249.329 300.334 222.647 263.504 197.65 220.209C172.654 176.913 154.099 135.391 144.3 103.267C139.399 87.1996 136.7 73.5227 136.465 63.1684C136.347 57.9909 136.846 53.6826 137.968 50.3349C139.089 46.9929 140.813 44.6515 143.125 43.3165Z" stroke="url(#paint4_linear_4247_10613)" stroke-width="1.44654"/>
<path opacity="0.206897" d="M157.092 34.6007C159.512 33.4722 162.419 33.4026 165.799 34.4019C169.185 35.4029 173.001 37.465 177.174 40.5312C185.521 46.6631 195.177 56.7182 205.527 69.9489C226.221 96.401 249.592 135.417 270.72 180.726C291.848 226.035 306.713 269.017 313.675 301.872C317.157 318.306 318.653 332.166 317.985 342.501C317.651 347.669 316.779 351.918 315.369 355.155C313.962 358.387 312.04 360.569 309.62 361.697C307.2 362.826 304.293 362.895 300.913 361.896C297.527 360.895 293.711 358.833 289.538 355.767C281.191 349.635 271.535 339.58 261.185 326.349C240.491 299.897 217.12 260.881 195.992 215.572C174.864 170.263 159.999 127.281 153.037 94.4255C149.555 77.992 148.059 64.1319 148.727 53.7966C149.061 48.6285 149.933 44.3801 151.343 41.1429C152.75 37.9113 154.672 35.7291 157.092 34.6007Z" stroke="url(#paint5_linear_4247_10613)" stroke-width="1.44654"/>
<path opacity="0.241379" d="M171.636 27.1291C174.145 26.2159 177.047 26.3998 180.327 27.6899C183.613 28.9822 187.234 31.3691 191.125 34.7873C198.905 41.6233 207.648 52.4818 216.806 66.5642C235.115 94.7192 254.997 135.624 272.095 182.602C289.194 229.58 300.257 273.694 304.328 307.031C306.365 323.705 306.647 337.643 305.081 347.881C304.298 353 303.058 357.156 301.372 360.258C299.689 363.355 297.584 365.361 295.075 366.275C292.566 367.188 289.663 367.004 286.383 365.714C283.098 364.422 279.476 362.035 275.586 358.616C267.805 351.78 259.063 340.922 249.905 326.839C231.595 298.685 211.714 257.78 194.615 210.802C177.517 163.824 166.454 119.71 162.382 86.3728C160.345 69.6984 160.063 55.7607 161.629 45.5228C162.412 40.4035 163.652 36.2474 165.338 33.1454C167.022 30.0487 169.127 28.0423 171.636 27.1291Z" stroke="url(#paint6_linear_4247_10613)" stroke-width="1.44654"/>
<path opacity="0.275862" d="M186.649 20.9496C189.228 20.2586 192.103 20.6948 195.258 22.2658C198.419 23.8396 201.818 26.533 205.396 30.2773C212.551 37.7654 220.314 49.3445 228.21 64.1715C243.996 93.8152 260.237 136.297 273.176 184.586C286.115 232.876 293.291 277.786 294.442 311.351C295.017 328.14 294.084 342.049 291.631 352.111C290.405 357.143 288.808 361.175 286.857 364.119C284.91 367.057 282.639 368.872 280.06 369.563C277.48 370.254 274.605 369.818 271.45 368.247C268.29 366.673 264.89 363.98 261.312 360.235C254.157 352.747 246.394 341.168 238.499 326.341C222.713 296.698 206.472 254.216 193.533 205.927C180.594 157.637 173.418 112.727 172.267 79.1614C171.691 62.3729 172.625 48.4636 175.077 38.4012C176.303 33.3697 177.901 29.3374 179.851 26.3942C181.798 23.456 184.07 21.6407 186.649 20.9496Z" stroke="url(#paint7_linear_4247_10613)" stroke-width="1.44654"/>
<path opacity="0.310345" d="M202.019 16.0958C204.649 15.6321 207.475 16.3173 210.481 18.1573C213.492 20.0005 216.644 22.98 219.882 27.0219C226.357 35.1051 233.081 47.3167 239.655 62.7755C252.797 93.6821 265.274 137.417 273.955 186.651C282.636 235.884 285.87 281.249 284.091 314.787C283.202 331.562 281.059 345.337 277.739 355.147C276.079 360.053 274.136 363.931 271.937 366.693C269.741 369.45 267.32 371.06 264.691 371.524C262.061 371.988 259.235 371.302 256.229 369.462C253.217 367.619 250.065 364.64 246.828 360.598C240.353 352.515 233.628 340.303 227.055 324.844C213.913 293.938 201.436 250.202 192.755 200.969C184.074 151.735 180.839 106.37 182.618 72.8326C183.508 56.0578 185.65 42.2828 188.97 32.4724C190.63 27.5669 192.573 23.6891 194.773 20.9271C196.968 18.1698 199.389 16.5595 202.019 16.0958Z" stroke="url(#paint8_linear_4247_10613)" stroke-width="1.44654"/>
<path opacity="0.344828" d="M217.627 12.5945C220.287 12.3618 223.042 13.2906 225.877 15.3857C228.716 17.4843 231.596 20.7271 234.47 25.0359C240.216 33.6527 245.85 46.4039 251.051 62.3767C261.45 94.3112 270.067 138.967 274.424 188.77C278.781 238.573 278.049 284.047 273.354 317.302C271.006 333.936 267.671 347.472 263.509 356.955C261.427 361.697 259.154 365.391 256.722 367.951C254.295 370.506 251.742 371.9 249.082 372.132C246.422 372.365 243.667 371.436 240.832 369.341C237.993 367.242 235.113 364 232.24 359.691C226.494 351.074 220.859 338.323 215.658 322.35C205.26 290.416 196.642 245.759 192.285 195.956C187.928 146.154 188.66 100.679 193.355 67.4245C195.704 50.7911 199.038 37.2552 203.201 27.7715C205.282 23.0293 207.555 19.3357 209.987 16.7759C212.415 14.2204 214.967 12.8272 217.627 12.5945Z" stroke="url(#paint9_linear_4247_10613)" stroke-width="1.44654"/>
<path opacity="0.37931" d="M233.356 10.4607C236.026 10.4607 238.69 11.6262 241.331 13.9603C243.977 16.2984 246.563 19.7799 249.05 24.3227C254.023 33.4075 258.525 46.6012 262.314 62.9666C269.89 95.6859 274.582 140.923 274.582 190.916C274.582 240.909 269.89 286.147 262.314 318.866C258.525 335.231 254.023 348.425 249.05 357.51C246.563 362.053 243.977 365.534 241.331 367.872C238.69 370.206 236.026 371.372 233.356 371.372C230.686 371.372 228.022 370.206 225.381 367.872C222.735 365.534 220.148 362.053 217.662 357.51C212.688 348.425 208.187 335.231 204.398 318.866C196.822 286.147 192.13 240.909 192.13 190.916C192.13 140.923 196.822 95.6859 204.398 62.9666C208.187 46.6012 212.688 33.4075 217.662 24.3227C220.148 19.7799 222.735 16.2984 225.381 13.9603C228.022 11.6262 230.686 10.4607 233.356 10.4607Z" stroke="url(#paint10_linear_4247_10613)" stroke-width="1.44654"/>
<path opacity="0.413793" d="M249.082 9.70048C251.742 9.9332 254.294 11.3264 256.722 13.8819C259.154 16.4417 261.427 20.1353 263.508 24.8775C267.671 34.3612 271.005 47.8971 273.354 64.5305C278.049 97.7855 278.781 143.26 274.424 193.062C270.066 242.865 261.449 287.522 251.051 319.456C245.85 335.429 240.215 348.18 234.469 356.797C231.596 361.106 228.716 364.348 225.876 366.447C223.042 368.542 220.286 369.471 217.626 369.238C214.966 369.006 212.414 367.612 209.986 365.057C207.555 362.497 205.281 358.803 203.2 354.061C199.038 344.578 195.703 331.042 193.355 314.408C188.659 281.153 187.928 235.679 192.285 185.876C196.642 136.073 205.259 91.4172 215.658 59.4827C220.859 43.5099 226.493 30.7587 232.239 22.1419C235.112 17.8331 237.993 14.5903 240.832 12.4917C243.666 10.3966 246.422 9.46776 249.082 9.70048Z" stroke="url(#paint11_linear_4247_10613)" stroke-width="1.44654"/>
<path opacity="0.448276" d="M264.688 10.3086C267.317 10.7723 269.738 12.3827 271.934 15.14C274.133 17.902 276.076 21.7797 277.736 26.6853C281.056 36.4957 283.198 50.2707 284.088 67.0454C285.867 100.583 282.633 145.948 273.952 195.182C265.271 244.415 252.794 288.15 239.652 319.057C233.078 334.516 226.354 346.727 219.879 354.811C216.641 358.853 213.489 361.832 210.478 363.675C207.472 365.515 204.646 366.2 202.016 365.737C199.386 365.273 196.965 363.663 194.77 360.905C192.57 358.143 190.627 354.266 188.967 349.36C185.647 339.55 183.505 325.775 182.615 309C180.836 275.462 184.071 230.097 192.752 180.864C201.433 131.63 213.909 87.895 227.052 56.9883C233.625 41.5296 240.349 29.318 246.825 21.2347C250.062 17.1928 253.214 14.2134 256.226 12.3702C259.232 10.5301 262.058 9.84498 264.688 10.3086Z" stroke="url(#paint12_linear_4247_10613)" stroke-width="1.44654"/>
<path opacity="0.482759" d="M280.059 12.2701C282.639 12.9612 284.91 14.7764 286.857 17.7146C288.808 20.6578 290.405 24.6901 291.631 29.7217C294.084 39.7841 295.017 53.6934 294.441 70.4818C293.291 104.047 286.115 148.957 273.176 197.247C260.237 245.536 243.996 288.018 228.21 317.662C220.314 332.489 212.551 344.068 205.396 351.556C201.818 355.3 198.419 357.994 195.258 359.567C192.103 361.138 189.228 361.575 186.649 360.883C184.07 360.192 181.798 358.377 179.851 355.439C177.901 352.496 176.303 348.463 175.077 343.432C172.625 333.369 171.691 319.46 172.267 302.672C173.418 269.107 180.593 224.196 193.533 175.907C206.472 127.617 222.713 85.1356 238.498 55.492C246.394 40.6649 254.157 29.0858 261.312 21.5977C264.89 17.8534 268.29 15.16 271.45 13.5863C274.605 12.0152 277.48 11.579 280.059 12.2701Z" stroke="url(#paint13_linear_4247_10613)" stroke-width="1.44654"/>
<path opacity="0.517241" d="M295.075 15.5573C297.584 16.4706 299.689 18.477 301.372 21.5736C303.059 24.6756 304.298 28.8318 305.081 33.9511C306.647 44.1889 306.365 58.1266 304.328 74.8011C300.257 108.138 289.194 152.252 272.095 199.23C254.997 246.208 235.115 287.113 216.806 315.268C207.648 329.35 198.905 340.209 191.125 347.045C187.234 350.463 183.613 352.85 180.327 354.142C177.047 355.432 174.145 355.616 171.636 354.703C169.127 353.79 167.022 351.783 165.338 348.687C163.652 345.585 162.412 341.428 161.629 336.309C160.063 326.071 160.345 312.134 162.382 295.459C166.454 262.122 177.517 218.008 194.615 171.03C211.714 124.052 231.595 83.1475 249.905 54.9925C259.063 40.91 267.805 30.0516 275.586 23.2156C279.476 19.7973 283.098 17.4104 286.383 16.1182C289.664 14.8281 292.566 14.6441 295.075 15.5573Z" stroke="url(#paint14_linear_4247_10613)" stroke-width="1.44654"/>
<path opacity="0.551724" d="M309.618 20.1355C312.038 21.264 313.96 23.4461 315.367 26.6778C316.777 29.9149 317.65 34.1633 317.984 39.3314C318.651 49.6668 317.155 63.5268 313.673 79.9603C306.711 112.816 291.846 155.798 270.718 201.107C249.59 246.416 226.219 285.432 205.526 311.884C195.175 325.115 185.519 335.17 177.173 341.302C172.999 344.368 169.184 346.43 165.798 347.431C162.418 348.43 159.511 348.361 157.091 347.232C154.671 346.104 152.749 343.921 151.341 340.69C149.932 337.453 149.059 333.204 148.725 328.036C148.057 317.701 149.553 303.841 153.035 287.407C159.997 254.552 174.863 211.57 195.991 166.261C217.119 120.952 240.489 81.9358 261.183 55.4838C271.534 42.2531 281.189 32.1979 289.536 26.0661C293.71 22.9999 297.525 20.9377 300.911 19.9367C304.291 18.9374 307.198 19.0071 309.618 20.1355Z" stroke="url(#paint15_linear_4247_10613)" stroke-width="1.44654"/>
<path opacity="0.586207" d="M323.58 25.9579C325.893 27.293 327.617 29.6344 328.737 32.9764C329.859 36.324 330.359 40.6324 330.241 45.8099C330.005 56.1641 327.307 69.8411 322.406 85.9085C312.607 118.032 294.052 159.555 269.055 202.85C244.059 246.145 217.377 282.976 194.456 307.524C182.992 319.802 172.497 328.977 163.647 334.358C159.222 337.049 155.242 338.771 151.781 339.473C148.327 340.174 145.437 339.851 143.125 338.516C140.812 337.181 139.088 334.84 137.968 331.498C136.846 328.15 136.346 323.842 136.464 318.664C136.7 308.31 139.398 294.633 144.299 278.566C154.098 246.442 172.653 204.919 197.649 161.624C222.646 118.329 249.328 81.4981 272.249 56.9503C283.713 44.6721 294.208 35.4967 303.058 30.1156C307.483 27.4249 311.463 25.7031 314.924 25.001C318.378 24.3001 321.268 24.6229 323.58 25.9579Z" stroke="url(#paint16_linear_4247_10613)" stroke-width="1.44654"/>
<path opacity="0.62069" d="M336.858 32.9703C339.046 34.5019 340.559 36.9846 341.384 40.4115C342.21 43.8442 342.332 48.1797 341.763 53.3272C340.626 63.6215 336.746 77.0113 330.463 92.5904C317.902 123.738 295.799 163.485 267.124 204.437C238.449 245.389 208.658 279.754 183.686 302.211C171.195 313.443 159.94 321.669 150.655 326.258C146.012 328.553 141.897 329.921 138.389 330.319C134.886 330.716 132.036 330.143 129.848 328.611C127.661 327.08 126.147 324.597 125.323 321.17C124.496 317.737 124.375 313.402 124.943 308.255C126.08 297.96 129.96 284.57 136.243 268.991C148.805 237.844 170.908 198.096 199.583 157.144C228.258 116.193 258.048 81.8277 283.021 59.3709C295.512 48.1386 306.767 39.9129 316.052 35.3235C320.694 33.0287 324.81 31.6604 328.318 31.2626C331.82 30.8654 334.671 31.4388 336.858 32.9703Z" stroke="url(#paint17_linear_4247_10613)" stroke-width="1.44654"/>
<path opacity="0.655172" d="M349.351 41.1068C351.397 42.8232 352.688 45.4284 353.211 48.9141C353.735 52.4058 353.478 56.7354 352.463 61.8138C350.433 71.9698 345.401 84.9704 337.784 99.9427C322.556 129.877 297.073 167.547 264.938 205.844C232.803 244.14 200.13 275.778 173.295 295.973C159.873 306.074 147.944 313.287 138.295 317.05C133.47 318.931 129.25 319.936 125.721 320.026C122.197 320.117 119.407 319.297 117.362 317.581C115.316 315.864 114.025 313.259 113.502 309.773C112.978 306.282 113.235 301.952 114.25 296.874C116.28 286.718 121.312 273.717 128.929 258.745C144.157 228.811 169.64 191.141 201.775 152.844C233.91 114.547 266.583 82.9095 293.418 62.7147C306.84 52.6137 318.769 45.4003 328.418 41.6376C333.243 39.7561 337.463 38.7518 340.992 38.6612C344.516 38.5708 347.306 39.3905 349.351 41.1068Z" stroke="url(#paint18_linear_4247_10613)" stroke-width="1.44654"/>
<path opacity="0.689655" d="M360.955 50.2962C362.843 52.1843 363.903 54.8922 364.12 58.4102C364.337 61.9343 363.705 66.225 362.251 71.1956C359.343 81.1361 353.197 93.6486 344.304 107.9C326.525 136.393 297.856 171.699 262.505 207.049C227.155 242.399 191.849 271.069 163.356 288.848C149.105 297.741 136.592 303.887 126.652 306.795C121.681 308.248 117.39 308.881 113.866 308.664C110.348 308.447 107.64 307.387 105.752 305.499C103.864 303.611 102.805 300.903 102.588 297.385C102.37 293.861 103.003 289.57 104.457 284.6C107.364 274.659 113.51 262.147 122.403 247.895C140.182 219.402 168.852 184.097 204.202 148.746C239.553 113.396 274.858 84.7261 303.351 66.947C317.603 58.0543 330.115 51.908 340.056 49.0006C345.026 47.5468 349.317 46.914 352.841 47.1314C356.359 47.3484 359.067 48.4081 360.955 50.2962Z" stroke="url(#paint19_linear_4247_10613)" stroke-width="1.44654"/>
<path opacity="0.724138" d="M371.594 60.4565C373.311 62.502 374.13 65.292 374.04 68.8155C373.949 72.3451 372.945 76.5643 371.063 81.3893C367.301 91.0386 360.087 102.968 349.986 116.39C329.792 143.225 298.154 175.897 259.857 208.032C221.56 240.167 183.89 265.651 153.956 280.879C138.984 288.496 125.983 293.528 115.827 295.558C110.749 296.573 106.419 296.829 102.928 296.306C99.4419 295.783 96.8366 294.491 95.1203 292.446C93.4039 290.4 92.5843 287.61 92.6747 284.087C92.7653 280.557 93.7696 276.338 95.6511 271.513C99.4138 261.864 106.627 249.934 116.728 236.512C136.923 209.677 168.561 177.005 206.858 144.87C245.154 112.735 282.824 87.2516 312.758 72.0234C327.731 64.4066 340.731 59.3743 350.887 57.3443C355.966 56.3293 360.295 56.0728 363.787 56.5966C367.273 57.1194 369.878 58.4111 371.594 60.4565Z" stroke="url(#paint20_linear_4247_10613)" stroke-width="1.44654"/>
<path opacity="0.758621" d="M381.178 71.4992C382.709 73.6864 383.283 76.5372 382.885 80.0395C382.488 83.5477 381.119 87.6634 378.824 92.306C374.235 101.591 366.009 112.846 354.777 125.336C332.32 150.309 297.955 180.1 257.004 208.775C216.052 237.45 176.304 259.553 145.157 272.114C129.578 278.397 116.188 282.277 105.893 283.414C100.746 283.983 96.4105 283.861 92.9777 283.035C89.5509 282.21 87.0681 280.697 85.5366 278.509C84.005 276.322 83.4316 273.471 83.8288 269.969C84.2267 266.461 85.5949 262.345 87.8898 257.702C92.4791 248.418 100.705 237.163 111.937 224.672C134.394 199.699 168.759 169.908 209.711 141.234C250.663 112.559 290.41 90.4555 321.558 77.8941C337.137 71.6113 350.526 67.7311 360.821 66.5941C365.968 66.0255 370.304 66.1474 373.736 66.9734C377.163 67.7981 379.646 69.3119 381.178 71.4992Z" stroke="url(#paint21_linear_4247_10613)" stroke-width="1.44654"/>
<path opacity="0.793103" d="M389.632 83.3301C390.967 85.6425 391.29 88.5324 390.589 91.9867C389.887 95.447 388.165 99.4277 385.474 103.853C380.093 112.702 370.918 123.197 358.64 134.662C334.092 157.582 297.261 184.264 253.966 209.261C210.671 234.257 169.148 252.812 137.024 262.611C120.957 267.512 107.28 270.211 96.9257 270.446C91.7482 270.564 87.4399 270.065 84.0922 268.943C80.7503 267.823 78.4089 266.098 77.0738 263.786C75.7387 261.473 75.416 258.583 76.1169 255.129C76.819 251.669 78.5408 247.688 81.2315 243.263C86.6126 234.414 95.7879 223.918 108.066 212.454C132.614 189.534 169.445 162.851 212.74 137.855C256.035 112.858 297.558 94.3034 329.681 84.5045C345.749 79.6033 359.426 76.905 369.78 76.6695C374.958 76.5517 379.266 77.0509 382.614 78.173C385.956 79.2932 388.297 81.0177 389.632 83.3301Z" stroke="url(#paint22_linear_4247_10613)" stroke-width="1.44654"/>
<path opacity="0.827586" d="M396.903 95.8473C398.031 98.2673 398.101 101.174 397.101 104.554C396.1 107.94 394.038 111.756 390.972 115.929C384.84 124.276 374.785 133.932 361.554 144.282C335.102 164.976 296.086 188.347 250.777 209.475C205.468 230.603 162.486 245.468 129.631 252.43C113.197 255.912 99.3373 257.408 89.0019 256.74C83.8339 256.407 79.5854 255.534 76.3483 254.124C73.1167 252.717 70.9345 250.795 69.806 248.375C68.6776 245.955 68.6079 243.048 69.6072 239.668C70.6082 236.282 72.6704 232.466 75.7366 228.293C81.8685 219.946 91.9236 210.29 105.154 199.94C131.606 179.246 170.622 155.875 215.931 134.747C261.24 113.619 304.222 98.754 337.078 91.7922C353.511 88.3101 367.371 86.814 377.707 87.4818C382.875 87.8157 387.123 88.6886 390.36 90.0982C393.592 91.5054 395.774 93.4273 396.903 95.8473Z" stroke="url(#paint23_linear_4247_10613)" stroke-width="1.44654"/>
<path opacity="0.862069" d="M402.927 108.945C403.84 111.455 403.656 114.357 402.366 117.637C401.074 120.922 398.687 124.544 395.268 128.434C388.432 136.215 377.574 144.957 363.492 154.115C335.337 172.425 294.432 192.306 247.454 209.405C200.476 226.504 156.362 237.566 123.025 241.638C106.35 243.675 92.4127 243.957 82.1749 242.391C77.0556 241.608 72.8994 240.368 69.7974 238.682C66.7008 236.998 64.6944 234.893 63.7812 232.384C62.8679 229.875 63.0519 226.973 64.342 223.693C65.6343 220.407 68.0211 216.786 71.4394 212.895C78.2754 205.115 89.1338 196.372 103.216 187.214C131.371 168.905 172.276 149.023 219.254 131.925C266.232 114.826 310.346 103.763 343.683 99.6916C360.357 97.655 374.295 97.3726 384.533 98.9387C389.652 99.7218 393.808 100.962 396.91 102.648C400.007 104.331 402.013 106.436 402.927 108.945Z" stroke="url(#paint24_linear_4247_10613)" stroke-width="1.44654"/>
<path opacity="0.896552" d="M407.662 122.513C408.353 125.092 407.916 127.967 406.345 131.122C404.772 134.283 402.078 137.682 398.334 141.26C390.846 148.415 379.267 156.178 364.44 164.074C334.796 179.86 292.315 196.101 244.025 209.04C195.735 221.979 150.825 229.155 117.26 230.306C100.471 230.881 86.5622 229.948 76.4998 227.495C71.4682 226.269 67.4359 224.672 64.4927 222.721C61.5545 220.774 59.7393 218.503 59.0482 215.924C58.3571 213.344 58.7933 210.469 60.3643 207.314C61.9381 204.154 64.6315 200.754 68.3758 197.176C75.8639 190.021 87.443 182.258 102.27 174.363C131.914 158.577 174.395 142.336 222.685 129.397C270.974 116.458 315.885 109.282 349.45 108.131C366.238 107.555 380.148 108.489 390.21 110.941C395.242 112.167 399.274 113.765 402.217 115.715C405.155 117.662 406.97 119.934 407.662 122.513Z" stroke="url(#paint25_linear_4247_10613)" stroke-width="1.44654"/>
<path opacity="0.931035" d="M411.069 136.436C411.533 139.065 410.848 141.891 409.008 144.898C407.165 147.909 404.185 151.061 400.143 154.299C392.06 160.774 379.848 167.498 364.39 174.072C333.483 187.214 289.748 199.69 240.514 208.372C191.281 217.053 145.916 220.287 112.378 218.508C95.6033 217.618 81.8283 215.476 72.0179 212.156C67.1124 210.496 63.2346 208.553 60.4726 206.354C57.7153 204.158 56.105 201.737 55.6413 199.107C55.1776 196.478 55.8627 193.652 57.7028 190.645C59.546 187.634 62.5255 184.482 66.5674 181.244C74.6506 174.769 86.8622 168.045 102.321 161.472C133.228 148.329 176.963 135.853 226.196 127.172C275.43 118.49 320.795 115.256 354.333 117.035C371.107 117.925 384.882 120.067 394.693 123.387C399.598 125.047 403.476 126.99 406.238 129.189C408.995 131.385 410.606 133.806 411.069 136.436Z" stroke="url(#paint26_linear_4247_10613)" stroke-width="1.44654"/>
<path opacity="0.965517" d="M413.125 150.598C413.358 153.258 412.429 156.013 410.334 158.848C408.236 161.687 404.993 164.567 400.684 167.441C392.067 173.187 379.316 178.821 363.343 184.022C331.409 194.421 286.752 203.038 236.95 207.395C187.147 211.752 141.673 211.02 108.418 206.325C91.7842 203.977 78.2483 200.642 68.7647 196.48C64.0225 194.398 60.3288 192.125 57.769 189.693C55.2135 187.266 53.8203 184.713 53.5876 182.053C53.3549 179.393 54.2837 176.638 56.3788 173.803C58.4775 170.964 61.7203 168.084 66.029 165.211C74.6458 159.465 87.397 153.83 103.37 148.629C135.304 138.231 179.961 129.613 229.763 125.256C279.566 120.899 325.04 121.631 358.295 126.326C374.929 128.674 388.465 132.009 397.948 136.171C402.691 138.253 406.384 140.526 408.944 142.958C411.499 145.385 412.893 147.938 413.125 150.598Z" stroke="url(#paint27_linear_4247_10613)" stroke-width="1.44654"/>
<path d="M413.814 164.879C413.814 167.549 412.649 170.213 410.314 172.854C407.976 175.5 404.495 178.086 399.952 180.573C390.867 185.546 377.674 190.048 361.308 193.837C328.589 201.413 283.352 206.105 233.359 206.105C183.366 206.105 138.128 201.413 105.409 193.837C89.0435 190.048 75.8497 185.546 66.7649 180.573C62.2222 178.086 58.7407 175.5 56.4025 172.854C54.0684 170.213 52.903 167.549 52.903 164.879C52.903 162.209 54.0684 159.545 56.4025 156.903C58.7407 154.258 62.2222 151.671 66.7649 149.185C75.8497 144.211 89.0435 139.71 105.409 135.921C138.128 128.345 183.366 123.652 233.359 123.652C283.352 123.652 328.589 128.345 361.308 135.921C377.674 139.71 390.867 144.211 399.952 149.185C404.495 151.671 407.976 154.258 410.314 156.903C412.649 159.545 413.814 162.209 413.814 164.879Z" stroke="url(#paint28_linear_4247_10613)" stroke-width="1.44654"/>
</g>
<path d="M0.8975 167.42C0.8975 160.347 6.63161 154.612 13.705 154.612H287.295C294.368 154.612 300.103 160.347 300.103 167.42V186.767H0.8975V167.42Z" fill="#1E1F23"/>
<path d="M0.8975 167.42C0.8975 160.347 6.63161 154.612 13.705 154.612H287.295C294.368 154.612 300.103 160.347 300.103 167.42V186.767H0.8975V167.42Z" stroke="url(#paint29_linear_4247_10613)" stroke-width="0.545"/>
<circle cx="16.9731" cy="170.69" r="3.27" fill="#FF5C62"/>
<circle cx="30.0552" cy="170.69" r="3.27" fill="#EBB21F"/>
<circle cx="43.1333" cy="170.69" r="3.27" fill="#1BC818"/>
<mask id="path-34-inside-1_4247_10613" fill="white">
<path d="M0.625 187.04H300.375V315.68C300.375 322.904 294.519 328.76 287.295 328.76H13.705C6.4811 328.76 0.625 322.904 0.625 315.68V187.04Z"/>
</mask>
<path d="M0.625 187.04H300.375V315.68C300.375 322.904 294.519 328.76 287.295 328.76H13.705C6.4811 328.76 0.625 322.904 0.625 315.68V187.04Z" fill="#1E1F23"/>
<path d="M0.625 187.04H300.375H0.625ZM300.92 315.68C300.92 323.205 294.82 329.305 287.295 329.305H13.705C6.18012 329.305 0.08 323.205 0.08 315.68H1.17C1.17 322.603 6.78211 328.215 13.705 328.215H287.295C294.218 328.215 299.83 322.603 299.83 315.68H300.92ZM13.705 329.305C6.18012 329.305 0.08 323.205 0.08 315.68V187.04H1.17V315.68C1.17 322.603 6.78211 328.215 13.705 328.215V329.305ZM300.92 187.04V315.68C300.92 323.205 294.82 329.305 287.295 329.305V328.215C294.218 328.215 299.83 322.603 299.83 315.68V187.04H300.92Z" fill="url(#paint30_linear_4247_10613)" mask="url(#path-34-inside-1_4247_10613)"/>
<path d="M20.0775 209.546C20.3194 209.546 20.5254 209.598 20.6955 209.703C20.8655 209.801 21.0552 209.942 21.2645 210.125C21.4149 210.262 21.5391 210.364 21.6372 210.429C21.7419 210.494 21.8531 210.527 21.9708 210.527C22.3174 210.527 22.6411 210.249 22.942 209.693L23.5306 210.007C23.3344 210.373 23.1153 210.671 22.8733 210.9C22.6379 211.129 22.3272 211.243 21.9414 211.243C21.719 211.243 21.5261 211.198 21.3626 211.106C21.2056 211.008 21.0192 210.867 20.8034 210.684C20.653 210.54 20.5222 210.436 20.411 210.37C20.2998 210.298 20.1788 210.262 20.048 210.262C19.8518 210.262 19.6752 210.338 19.5183 210.488C19.3679 210.632 19.2207 210.835 19.0768 211.096L18.4882 210.802C18.6844 210.423 18.9003 210.118 19.1357 209.89C19.3777 209.661 19.6916 209.546 20.0775 209.546ZM24.4685 214.196L28.6574 205.544L29.3146 205.858L25.1356 214.49L24.4685 214.196ZM34.2158 208.202C34.5101 208.202 34.7488 208.307 34.9319 208.516C35.1216 208.719 35.2164 209.092 35.2164 209.634V213.48H34.4611V209.772C34.4611 209.412 34.4382 209.17 34.3924 209.046C34.3466 208.915 34.2354 208.85 34.0589 208.85C33.7253 208.85 33.4245 209.056 33.1563 209.468V213.48H32.3912V209.772C32.3912 209.412 32.3683 209.17 32.3225 209.046C32.2767 208.915 32.1655 208.85 31.9889 208.85C31.6554 208.85 31.3546 209.056 31.0864 209.468V213.48H30.3311V208.31H30.9687L31.0276 208.918C31.1845 208.689 31.348 208.513 31.5181 208.389C31.6946 208.264 31.9039 208.202 32.1459 208.202C32.6299 208.202 32.9405 208.431 33.0779 208.889C33.2348 208.667 33.4016 208.496 33.5782 208.379C33.7547 208.261 33.9673 208.202 34.2158 208.202ZM39.1857 213.509C38.9829 214.105 38.705 214.579 38.3518 214.932C37.9986 215.285 37.5049 215.494 36.8705 215.56L36.7528 214.902C37.0994 214.844 37.3741 214.752 37.5768 214.628C37.7861 214.51 37.9496 214.36 38.0673 214.176C38.185 214 38.2929 213.768 38.391 213.48H38.1164L36.3211 208.31H37.1942L38.6755 212.852L40.1372 208.31H40.9907L39.1857 213.509ZM42.8213 210.056H46.2548V210.763H42.8213V210.056ZM50.8028 212.882C51.2541 212.882 51.7021 212.731 52.1468 212.43L52.5392 212.97C52.3234 213.16 52.0552 213.31 51.7348 213.421C51.4143 213.532 51.1037 213.588 50.8028 213.588C50.0377 213.588 49.4392 213.349 49.0076 212.872C48.5825 212.388 48.37 211.737 48.37 210.92C48.37 210.403 48.4648 209.939 48.6544 209.527C48.8506 209.115 49.1319 208.791 49.4981 208.555C49.8643 208.32 50.2993 208.202 50.8028 208.202C51.4699 208.202 52.0454 208.405 52.5294 208.81L52.1272 209.35C51.6759 209.049 51.2312 208.899 50.793 208.899C50.3287 208.899 49.9559 209.072 49.6747 209.419C49.4 209.759 49.2627 210.259 49.2627 210.92C49.2627 211.58 49.4 212.074 49.6747 212.401C49.9559 212.721 50.332 212.882 50.8028 212.882ZM56.3122 208.202C57.0251 208.202 57.5712 208.444 57.9505 208.928C58.3364 209.406 58.5293 210.06 58.5293 210.89C58.5293 211.701 58.3331 212.355 57.9407 212.852C57.5548 213.343 57.0087 213.588 56.3024 213.588C55.5896 213.588 55.0402 213.349 54.6543 212.872C54.2685 212.388 54.0755 211.731 54.0755 210.9C54.0755 210.082 54.2685 209.428 54.6543 208.938C55.0467 208.447 55.5994 208.202 56.3122 208.202ZM56.3122 208.879C55.861 208.879 55.5242 209.046 55.3018 209.379C55.0794 209.713 54.9683 210.22 54.9683 210.9C54.9683 211.58 55.0762 212.087 55.292 212.421C55.5143 212.748 55.8512 212.911 56.3024 212.911C56.7537 212.911 57.0872 212.748 57.303 212.421C57.5254 212.087 57.6366 211.577 57.6366 210.89C57.6366 210.21 57.5254 209.706 57.303 209.379C57.0872 209.046 56.7569 208.879 56.3122 208.879ZM62.1944 208.202C62.9073 208.202 63.4533 208.444 63.8327 208.928C64.2185 209.406 64.4115 210.06 64.4115 210.89C64.4115 211.701 64.2153 212.355 63.8229 212.852C63.437 213.343 62.8909 213.588 62.1846 213.588C61.4717 213.588 60.9224 213.349 60.5365 212.872C60.1506 212.388 59.9577 211.731 59.9577 210.9C59.9577 210.082 60.1506 209.428 60.5365 208.938C60.9289 208.447 61.4815 208.202 62.1944 208.202ZM62.1944 208.879C61.7431 208.879 61.4063 209.046 61.184 209.379C60.9616 209.713 60.8504 210.22 60.8504 210.9C60.8504 211.58 60.9583 212.087 61.1742 212.421C61.3965 212.748 61.7333 212.911 62.1846 212.911C62.6358 212.911 62.9694 212.748 63.1852 212.421C63.4076 212.087 63.5187 211.577 63.5187 210.89C63.5187 210.21 63.4076 209.706 63.1852 209.379C62.9694 209.046 62.6391 208.879 62.1944 208.879ZM68.1256 212.205C68.1256 212.669 68.4101 212.901 68.9791 212.901C69.2472 212.901 69.535 212.842 69.8424 212.725L70.0582 213.323C69.7312 213.5 69.3224 213.588 68.8319 213.588C68.3676 213.588 67.9948 213.46 67.7136 213.205C67.4389 212.95 67.3016 212.604 67.3016 212.165V206.888H65.7124V206.23H68.1256V212.205ZM72.2322 210.056H75.6657V210.763H72.2322V210.056ZM80.5374 213.48L79.8605 209.693L79.1346 213.48H77.9966L77.0647 208.31H77.8985L78.5656 212.97L79.3896 208.967H80.3608L81.1358 212.97L81.8029 208.31H82.5975L81.7048 213.48H80.5374ZM85.7231 208.202C86.4359 208.202 86.982 208.444 87.3613 208.928C87.7472 209.406 87.9401 210.06 87.9401 210.89C87.9401 211.701 87.7439 212.355 87.3515 212.852C86.9657 213.343 86.4196 213.588 85.7133 213.588C85.0004 213.588 84.451 213.349 84.0652 212.872C83.6793 212.388 83.4864 211.731 83.4864 210.9C83.4864 210.082 83.6793 209.428 84.0652 208.938C84.4576 208.447 85.0102 208.202 85.7231 208.202ZM85.7231 208.879C85.2718 208.879 84.935 209.046 84.7126 209.379C84.4903 209.713 84.3791 210.22 84.3791 210.9C84.3791 211.58 84.487 212.087 84.7028 212.421C84.9252 212.748 85.262 212.911 85.7133 212.911C86.1645 212.911 86.4981 212.748 86.7139 212.421C86.9362 212.087 87.0474 211.577 87.0474 210.89C87.0474 210.21 86.9362 209.706 86.7139 209.379C86.4981 209.046 86.1678 208.879 85.7231 208.879ZM93.1258 208.202C93.3351 208.202 93.577 208.238 93.8517 208.31L93.734 210.066H93.0669V208.958H93.0179C92.22 208.958 91.6543 209.527 91.3207 210.665V212.842H92.3704V213.48H89.6825V212.842H90.4967V208.948H89.6825V208.31H91.1147L91.2717 209.536C91.481 209.092 91.7295 208.758 92.0173 208.536C92.3116 208.313 92.6811 208.202 93.1258 208.202ZM96.3985 213.48H95.5745V206.23L96.3985 206.132V213.48ZM97.5266 210.645L100.116 213.48H99.0276L96.4868 210.655L98.7823 208.31H99.8418L97.5266 210.645ZM103.164 212.911C103.556 212.911 103.867 212.836 104.096 212.685C104.324 212.535 104.439 212.335 104.439 212.087C104.439 211.917 104.409 211.78 104.351 211.675C104.292 211.564 104.174 211.466 103.997 211.381C103.821 211.289 103.553 211.198 103.193 211.106C102.591 210.956 102.147 210.776 101.859 210.566C101.571 210.351 101.427 210.033 101.427 209.615C101.427 209.183 101.607 208.84 101.967 208.585C102.326 208.33 102.801 208.202 103.389 208.202C104.109 208.202 104.736 208.392 105.273 208.771L104.9 209.34C104.684 209.19 104.458 209.075 104.223 208.997C103.988 208.912 103.716 208.869 103.409 208.869C102.663 208.869 102.29 209.095 102.29 209.546C102.29 209.703 102.33 209.831 102.408 209.929C102.493 210.027 102.627 210.115 102.81 210.194C103 210.266 103.281 210.354 103.654 210.459C104.217 210.609 104.635 210.802 104.91 211.037C105.191 211.266 105.332 211.603 105.332 212.048C105.332 212.564 105.122 212.95 104.704 213.205C104.285 213.46 103.772 213.588 103.164 213.588C102.353 213.588 101.679 213.356 101.143 212.891L101.604 212.352C101.813 212.522 102.052 212.659 102.32 212.764C102.588 212.862 102.869 212.911 103.164 212.911ZM109.595 208.202C110.844 208.202 111.469 209.098 111.469 210.89C111.469 211.708 111.299 212.362 110.959 212.852C110.619 213.343 110.125 213.588 109.477 213.588C108.915 213.588 108.457 213.392 108.104 212.999V215.462L107.28 215.56V208.31H107.986L108.055 209.036C108.245 208.768 108.47 208.562 108.732 208.418C109 208.274 109.288 208.202 109.595 208.202ZM109.399 208.869C109.137 208.869 108.895 208.948 108.673 209.105C108.457 209.262 108.267 209.458 108.104 209.693V212.254C108.241 212.456 108.411 212.617 108.614 212.734C108.823 212.846 109.049 212.901 109.291 212.901C109.723 212.901 110.043 212.738 110.252 212.411C110.468 212.077 110.576 211.57 110.576 210.89C110.576 210.21 110.481 209.703 110.292 209.37C110.102 209.036 109.804 208.869 109.399 208.869ZM116.87 212.352C116.87 212.555 116.903 212.705 116.968 212.803C117.034 212.895 117.142 212.963 117.292 213.009L117.086 213.598C116.583 213.532 116.269 213.287 116.144 212.862C115.961 213.097 115.729 213.277 115.448 213.402C115.173 213.526 114.866 213.588 114.526 213.588C114.009 213.588 113.6 213.444 113.299 213.156C113.005 212.868 112.858 212.483 112.858 211.999C112.858 211.469 113.064 211.06 113.476 210.772C113.895 210.485 114.493 210.341 115.271 210.341H116.036V209.919C116.036 209.553 115.932 209.291 115.723 209.134C115.513 208.971 115.209 208.889 114.81 208.889C114.418 208.889 113.97 208.977 113.466 209.154L113.241 208.526C113.849 208.31 114.415 208.202 114.938 208.202C115.566 208.202 116.043 208.349 116.37 208.644C116.704 208.938 116.87 209.347 116.87 209.87V212.352ZM114.732 212.97C114.987 212.97 115.229 212.904 115.458 212.774C115.693 212.643 115.886 212.463 116.036 212.234V210.91H115.291C114.742 210.91 114.346 211.001 114.104 211.184C113.862 211.368 113.741 211.636 113.741 211.989C113.741 212.643 114.071 212.97 114.732 212.97ZM121.389 212.882C121.84 212.882 122.288 212.731 122.733 212.43L123.125 212.97C122.909 213.16 122.641 213.31 122.321 213.421C122 213.532 121.69 213.588 121.389 213.588C120.624 213.588 120.025 213.349 119.594 212.872C119.169 212.388 118.956 211.737 118.956 210.92C118.956 210.403 119.051 209.939 119.24 209.527C119.437 209.115 119.718 208.791 120.084 208.555C120.45 208.32 120.885 208.202 121.389 208.202C122.056 208.202 122.631 208.405 123.115 208.81L122.713 209.35C122.262 209.049 121.817 208.899 121.379 208.899C120.915 208.899 120.542 209.072 120.261 209.419C119.986 209.759 119.849 210.259 119.849 210.92C119.849 211.58 119.986 212.074 120.261 212.401C120.542 212.721 120.918 212.882 121.389 212.882ZM125.584 211.184C125.603 211.753 125.75 212.182 126.025 212.47C126.306 212.757 126.66 212.901 127.085 212.901C127.34 212.901 127.572 212.865 127.781 212.793C127.997 212.715 128.226 212.597 128.468 212.44L128.85 212.989C128.608 213.179 128.331 213.326 128.017 213.431C127.709 213.536 127.399 213.588 127.085 213.588C126.339 213.588 125.757 213.346 125.338 212.862C124.926 212.371 124.72 211.717 124.72 210.9C124.72 210.383 124.812 209.922 124.995 209.517C125.178 209.105 125.44 208.784 125.78 208.555C126.12 208.32 126.516 208.202 126.967 208.202C127.621 208.202 128.134 208.431 128.507 208.889C128.886 209.34 129.076 209.958 129.076 210.743C129.076 210.893 129.07 211.041 129.056 211.184H125.584ZM126.977 208.879C126.578 208.879 126.254 209.023 126.006 209.311C125.757 209.592 125.616 210.007 125.584 210.557H128.272C128.265 210.014 128.147 209.598 127.918 209.311C127.69 209.023 127.376 208.879 126.977 208.879Z" fill="#44A5FF"/>
<path d="M150.77 208.202C152.019 208.202 152.644 209.098 152.644 210.89C152.644 211.708 152.474 212.362 152.134 212.852C151.794 213.343 151.3 213.588 150.653 213.588C150.09 213.588 149.632 213.392 149.279 212.999V215.462L148.455 215.56V208.31H149.161L149.23 209.036C149.42 208.768 149.645 208.562 149.907 208.418C150.175 208.274 150.463 208.202 150.77 208.202ZM150.574 208.869C150.312 208.869 150.07 208.948 149.848 209.105C149.632 209.262 149.443 209.458 149.279 209.693V212.254C149.416 212.456 149.587 212.617 149.789 212.734C149.999 212.846 150.224 212.901 150.466 212.901C150.898 212.901 151.218 212.738 151.428 212.411C151.643 212.077 151.751 211.57 151.751 210.89C151.751 210.21 151.656 209.703 151.467 209.37C151.277 209.036 150.98 208.869 150.574 208.869ZM154.995 211.184C155.014 211.753 155.161 212.182 155.436 212.47C155.717 212.757 156.07 212.901 156.495 212.901C156.751 212.901 156.983 212.865 157.192 212.793C157.408 212.715 157.637 212.597 157.879 212.44L158.261 212.989C158.019 213.179 157.741 213.326 157.427 213.431C157.12 213.536 156.809 213.588 156.495 213.588C155.75 213.588 155.168 213.346 154.749 212.862C154.337 212.371 154.131 211.717 154.131 210.9C154.131 210.383 154.223 209.922 154.406 209.517C154.589 209.105 154.851 208.784 155.191 208.555C155.531 208.32 155.926 208.202 156.378 208.202C157.032 208.202 157.545 208.431 157.918 208.889C158.297 209.34 158.487 209.958 158.487 210.743C158.487 210.893 158.48 211.041 158.467 211.184H154.995ZM156.388 208.879C155.989 208.879 155.665 209.023 155.416 209.311C155.168 209.592 155.027 210.007 154.995 210.557H157.682C157.676 210.014 157.558 209.598 157.329 209.311C157.1 209.023 156.787 208.879 156.388 208.879ZM163.712 208.202C163.921 208.202 164.163 208.238 164.438 208.31L164.32 210.066H163.653V208.958H163.604C162.806 208.958 162.24 209.527 161.907 210.665V212.842H162.956V213.48H160.268V212.842H161.083V208.948H160.268V208.31H161.701L161.858 209.536C162.067 209.092 162.316 208.758 162.603 208.536C162.898 208.313 163.267 208.202 163.712 208.202ZM169.506 208.202C169.8 208.202 170.039 208.307 170.222 208.516C170.411 208.719 170.506 209.092 170.506 209.634V213.48H169.751V209.772C169.751 209.412 169.728 209.17 169.682 209.046C169.636 208.915 169.525 208.85 169.349 208.85C169.015 208.85 168.714 209.056 168.446 209.468V213.48H167.681V209.772C167.681 209.412 167.658 209.17 167.612 209.046C167.567 208.915 167.455 208.85 167.279 208.85C166.945 208.85 166.644 209.056 166.376 209.468V213.48H165.621V208.31H166.259L166.317 208.918C166.474 208.689 166.638 208.513 166.808 208.389C166.985 208.264 167.194 208.202 167.436 208.202C167.92 208.202 168.23 208.431 168.368 208.889C168.525 208.667 168.691 208.496 168.868 208.379C169.045 208.261 169.257 208.202 169.506 208.202ZM176.438 208.546C176.241 208.611 176.029 208.653 175.8 208.673C175.571 208.686 175.28 208.693 174.927 208.693C175.528 208.967 175.829 209.402 175.829 209.997C175.829 210.521 175.656 210.946 175.309 211.273C174.963 211.593 174.489 211.753 173.887 211.753C173.58 211.753 173.321 211.717 173.112 211.646C173.033 211.704 172.968 211.78 172.916 211.871C172.87 211.963 172.847 212.054 172.847 212.146C172.847 212.44 173.076 212.587 173.534 212.587H174.466C174.806 212.587 175.113 212.649 175.388 212.774C175.669 212.891 175.888 213.058 176.045 213.274C176.209 213.49 176.29 213.729 176.29 213.99C176.29 214.494 176.075 214.88 175.643 215.148C175.218 215.422 174.613 215.56 173.828 215.56C173.03 215.56 172.468 215.435 172.141 215.187C171.814 214.938 171.65 214.543 171.65 214H172.396C172.396 214.216 172.435 214.386 172.514 214.51C172.599 214.641 172.742 214.736 172.945 214.795C173.154 214.86 173.449 214.893 173.828 214.893C174.384 214.893 174.793 214.821 175.054 214.677C175.322 214.533 175.457 214.32 175.457 214.039C175.457 213.804 175.349 213.621 175.133 213.49C174.917 213.366 174.639 213.303 174.299 213.303H173.377C172.952 213.303 172.628 213.212 172.406 213.029C172.183 212.839 172.072 212.604 172.072 212.322C172.072 212.159 172.121 211.999 172.219 211.842C172.317 211.678 172.458 211.538 172.641 211.42C172.347 211.269 172.128 211.08 171.984 210.851C171.846 210.615 171.778 210.331 171.778 209.997C171.778 209.651 171.863 209.343 172.033 209.075C172.209 208.801 172.451 208.588 172.759 208.438C173.073 208.281 173.432 208.202 173.838 208.202C174.426 208.202 174.874 208.169 175.182 208.104C175.489 208.039 175.826 207.928 176.192 207.771L176.438 208.546ZM173.828 208.81C173.429 208.81 173.128 208.918 172.926 209.134C172.723 209.343 172.621 209.631 172.621 209.997C172.621 210.364 172.723 210.658 172.926 210.88C173.135 211.096 173.442 211.204 173.848 211.204C174.214 211.204 174.492 211.099 174.682 210.89C174.878 210.674 174.976 210.373 174.976 209.988C174.976 209.203 174.593 208.81 173.828 208.81ZM178.69 211.979C178.69 212.313 178.759 212.558 178.896 212.715C179.04 212.865 179.262 212.94 179.563 212.94C179.838 212.94 180.103 212.862 180.358 212.705C180.613 212.548 180.815 212.352 180.966 212.116V208.31H181.79V213.48H181.084L181.015 212.783C180.812 213.039 180.56 213.238 180.26 213.382C179.965 213.519 179.664 213.588 179.357 213.588C178.867 213.588 178.494 213.457 178.239 213.195C177.99 212.934 177.866 212.558 177.866 212.067V208.31H178.69V211.979ZM187.456 212.352C187.456 212.555 187.489 212.705 187.554 212.803C187.62 212.895 187.728 212.963 187.878 213.009L187.672 213.598C187.169 213.532 186.855 213.287 186.73 212.862C186.547 213.097 186.315 213.277 186.034 213.402C185.759 213.526 185.452 213.588 185.112 213.588C184.595 213.588 184.186 213.444 183.885 213.156C183.591 212.868 183.444 212.483 183.444 211.999C183.444 211.469 183.65 211.06 184.062 210.772C184.481 210.485 185.079 210.341 185.857 210.341H186.622V209.919C186.622 209.553 186.518 209.291 186.309 209.134C186.099 208.971 185.795 208.889 185.396 208.889C185.004 208.889 184.556 208.977 184.052 209.154L183.827 208.526C184.435 208.31 185.001 208.202 185.524 208.202C186.152 208.202 186.629 208.349 186.956 208.644C187.29 208.938 187.456 209.347 187.456 209.87V212.352ZM185.318 212.97C185.573 212.97 185.815 212.904 186.044 212.774C186.279 212.643 186.472 212.463 186.622 212.234V210.91H185.877C185.328 210.91 184.932 211.001 184.69 211.184C184.448 211.368 184.327 211.636 184.327 211.989C184.327 212.643 184.657 212.97 185.318 212.97ZM193.123 208.202C193.332 208.202 193.574 208.238 193.849 208.31L193.731 210.066H193.064V208.958H193.015C192.217 208.958 191.651 209.527 191.318 210.665V212.842H192.367V213.48H189.679V212.842H190.494V208.948H189.679V208.31H191.112L191.269 209.536C191.478 209.092 191.726 208.758 192.014 208.536C192.308 208.313 192.678 208.202 193.123 208.202ZM199.436 206.23V213.48H198.711L198.632 212.803C198.442 213.065 198.223 213.261 197.975 213.392C197.726 213.522 197.458 213.588 197.17 213.588C196.516 213.588 196.023 213.349 195.689 212.872C195.362 212.394 195.199 211.737 195.199 210.9C195.199 210.383 195.28 209.922 195.444 209.517C195.607 209.105 195.839 208.784 196.14 208.555C196.448 208.32 196.807 208.202 197.219 208.202C197.788 208.202 198.253 208.408 198.612 208.82V206.132L199.436 206.23ZM197.435 208.869C197.004 208.869 196.67 209.039 196.435 209.379C196.206 209.719 196.091 210.226 196.091 210.9C196.091 211.567 196.196 212.074 196.405 212.421C196.621 212.761 196.932 212.931 197.337 212.931C197.828 212.931 198.253 212.656 198.612 212.107V209.536C198.469 209.321 198.295 209.157 198.092 209.046C197.89 208.928 197.671 208.869 197.435 208.869ZM209.239 205.897C209.422 205.897 209.569 205.952 209.68 206.064C209.791 206.168 209.847 206.306 209.847 206.476C209.847 206.646 209.791 206.786 209.68 206.897C209.569 207.002 209.422 207.054 209.239 207.054C209.062 207.054 208.918 207.002 208.807 206.897C208.703 206.786 208.65 206.646 208.65 206.476C208.65 206.306 208.703 206.168 208.807 206.064C208.918 205.952 209.062 205.897 209.239 205.897ZM209.896 212.823H211.348V213.48H207.483V212.823H209.072V208.967H207.532V208.31H209.896V212.823ZM213.159 208.31H213.865L213.934 209.036C214.137 208.774 214.392 208.572 214.699 208.428C215.013 208.277 215.327 208.202 215.641 208.202C216.609 208.202 217.093 208.712 217.093 209.733V213.48H216.269V210.341C216.269 209.955 216.246 209.661 216.2 209.458C216.161 209.255 216.079 209.105 215.955 209.007C215.831 208.909 215.641 208.859 215.386 208.859C215.105 208.859 214.84 208.944 214.591 209.115C214.343 209.285 214.14 209.487 213.983 209.723V213.48H213.159V208.31ZM221.003 205.897C221.186 205.897 221.333 205.952 221.445 206.064C221.556 206.168 221.611 206.306 221.611 206.476C221.611 206.646 221.556 206.786 221.445 206.897C221.333 207.002 221.186 207.054 221.003 207.054C220.827 207.054 220.683 207.002 220.571 206.897C220.467 206.786 220.415 206.646 220.415 206.476C220.415 206.306 220.467 206.168 220.571 206.064C220.683 205.952 220.827 205.897 221.003 205.897ZM221.66 212.823H223.112V213.48H219.247V212.823H220.836V208.967H219.296V208.31H221.66V212.823ZM229.034 213.215C228.857 213.333 228.641 213.424 228.386 213.49C228.138 213.555 227.889 213.588 227.641 213.588C227.098 213.588 226.673 213.447 226.365 213.166C226.058 212.878 225.904 212.502 225.904 212.038V208.958H224.717V208.31H225.904V207.143L226.728 207.045V208.31H228.524L228.416 208.958H226.728V212.028C226.728 212.322 226.807 212.541 226.964 212.685C227.121 212.829 227.373 212.901 227.719 212.901C228.072 212.901 228.403 212.819 228.71 212.656L229.034 213.215Z" fill="white"/>
<path d="M140.742 209.988V210.831L137.015 213.156L136.573 212.548L140.036 210.409L136.573 208.281L136.975 207.653L140.742 209.988Z" fill="#0BE749"/>
<path d="M232.94 205.046V216.779H232.4V205.046H232.94Z" fill="url(#paint31_linear_4247_10613)"/>
<path d="M20.1363 237.805C20.1363 237.563 20.2181 237.36 20.3816 237.196C20.5516 237.026 20.7576 236.941 20.9996 236.941C21.2481 236.941 21.4541 237.026 21.6176 237.196C21.7811 237.36 21.8629 237.563 21.8629 237.805C21.8629 238.053 21.7811 238.259 21.6176 238.423C21.4541 238.586 21.2481 238.668 20.9996 238.668C20.7576 238.668 20.5516 238.586 20.3816 238.423C20.2181 238.253 20.1363 238.047 20.1363 237.805ZM26.0185 237.805C26.0185 237.563 26.1002 237.36 26.2637 237.196C26.4338 237.026 26.6398 236.941 26.8818 236.941C27.1303 236.941 27.3363 237.026 27.4998 237.196C27.6633 237.36 27.745 237.563 27.745 237.805C27.745 238.053 27.6633 238.259 27.4998 238.423C27.3363 238.586 27.1303 238.668 26.8818 238.668C26.6398 238.668 26.4338 238.586 26.2637 238.423C26.1002 238.253 26.0185 238.047 26.0185 237.805ZM31.9007 237.805C31.9007 237.563 31.9824 237.36 32.1459 237.196C32.3159 237.026 32.522 236.941 32.7639 236.941C33.0125 236.941 33.2185 237.026 33.382 237.196C33.5455 237.36 33.6272 237.563 33.6272 237.805C33.6272 238.053 33.5455 238.259 33.382 238.423C33.2185 238.586 33.0125 238.668 32.7639 238.668C32.522 238.668 32.3159 238.586 32.1459 238.423C31.9824 238.253 31.9007 238.047 31.9007 237.805Z" fill="white"/>
<rect x="18.0664" y="254.64" width="118.81" height="7.63" rx="1.09" fill="white" fill-opacity="0.05"/>
<rect x="18.3389" y="254.913" width="118.265" height="7.085" rx="0.8175" stroke="white" stroke-opacity="0.12" stroke-width="0.545"/>
<rect x="18.0664" y="270.99" width="168.405" height="7.63" rx="1.09" fill="white" fill-opacity="0.05"/>
<rect x="18.3389" y="271.262" width="167.86" height="7.085" rx="0.8175" stroke="white" stroke-opacity="0.12" stroke-width="0.545"/>
<rect x="18.0664" y="287.34" width="264.87" height="7.63" rx="1.09" fill="white" fill-opacity="0.05"/>
<rect x="18.3389" y="287.612" width="264.325" height="7.085" rx="0.8175" stroke="white" stroke-opacity="0.12" stroke-width="0.545"/>
<rect x="18.0664" y="303.69" width="264.87" height="7.63" rx="1.09" fill="white" fill-opacity="0.05"/>
<rect x="18.3389" y="303.963" width="264.325" height="7.085" rx="0.8175" stroke="white" stroke-opacity="0.12" stroke-width="0.545"/>
<defs>
<linearGradient id="paint0_linear_4247_10613" x1="329.347" y1="370.944" x2="398.465" y2="287.017" gradientUnits="userSpaceOnUse">
<stop stop-color="#F05C80"/>
<stop offset="1" stop-color="#CC34DF"/>
</linearGradient>
<linearGradient id="paint1_linear_4247_10613" x1="314.554" y1="377.234" x2="390.723" y2="299.65" gradientUnits="userSpaceOnUse">
<stop stop-color="#F05C80"/>
<stop offset="1" stop-color="#CC34DF"/>
</linearGradient>
<linearGradient id="paint2_linear_4247_10613" x1="299.141" y1="382.205" x2="381.783" y2="311.555" gradientUnits="userSpaceOnUse">
<stop stop-color="#F05C80"/>
<stop offset="1" stop-color="#CC34DF"/>
</linearGradient>
<linearGradient id="paint3_linear_4247_10613" x1="283.226" y1="385.808" x2="371.71" y2="322.63" gradientUnits="userSpaceOnUse">
<stop stop-color="#F05C80"/>
<stop offset="1" stop-color="#CC34DF"/>
</linearGradient>
<linearGradient id="paint4_linear_4247_10613" x1="266.932" y1="388.006" x2="360.587" y2="332.779" gradientUnits="userSpaceOnUse">
<stop stop-color="#F05C80"/>
<stop offset="1" stop-color="#CC34DF"/>
</linearGradient>
<linearGradient id="paint5_linear_4247_10613" x1="250.386" y1="388.769" x2="348.497" y2="341.915" gradientUnits="userSpaceOnUse">
<stop stop-color="#F05C80"/>
<stop offset="1" stop-color="#CC34DF"/>
</linearGradient>
<linearGradient id="paint6_linear_4247_10613" x1="233.707" y1="388.08" x2="335.529" y2="349.956" gradientUnits="userSpaceOnUse">
<stop stop-color="#F05C80"/>
<stop offset="1" stop-color="#CC34DF"/>
</linearGradient>
<linearGradient id="paint7_linear_4247_10613" x1="217.025" y1="385.937" x2="321.782" y2="356.832" gradientUnits="userSpaceOnUse">
<stop stop-color="#F05C80"/>
<stop offset="1" stop-color="#CC34DF"/>
</linearGradient>
<linearGradient id="paint8_linear_4247_10613" x1="200.469" y1="382.342" x2="307.364" y2="362.478" gradientUnits="userSpaceOnUse">
<stop stop-color="#F05C80"/>
<stop offset="1" stop-color="#CC34DF"/>
</linearGradient>
<linearGradient id="paint9_linear_4247_10613" x1="184.162" y1="377.312" x2="292.381" y2="366.84" gradientUnits="userSpaceOnUse">
<stop stop-color="#F05C80"/>
<stop offset="1" stop-color="#CC34DF"/>
</linearGradient>
<linearGradient id="paint10_linear_4247_10613" x1="168.231" y1="370.874" x2="276.951" y2="369.873" gradientUnits="userSpaceOnUse">
<stop stop-color="#F05C80"/>
<stop offset="1" stop-color="#CC34DF"/>
</linearGradient>
<linearGradient id="paint11_linear_4247_10613" x1="152.793" y1="363.066" x2="261.187" y2="371.545" gradientUnits="userSpaceOnUse">
<stop stop-color="#F05C80"/>
<stop offset="1" stop-color="#CC34DF"/>
</linearGradient>
<linearGradient id="paint12_linear_4247_10613" x1="137.967" y1="353.937" x2="245.209" y2="371.831" gradientUnits="userSpaceOnUse">
<stop stop-color="#F05C80"/>
<stop offset="1" stop-color="#CC34DF"/>
</linearGradient>
<linearGradient id="paint13_linear_4247_10613" x1="123.872" y1="343.547" x2="229.147" y2="370.72" gradientUnits="userSpaceOnUse">
<stop stop-color="#F05C80"/>
<stop offset="1" stop-color="#CC34DF"/>
</linearGradient>
<linearGradient id="paint14_linear_4247_10613" x1="110.609" y1="331.961" x2="213.115" y2="368.205" gradientUnits="userSpaceOnUse">
<stop stop-color="#F05C80"/>
<stop offset="1" stop-color="#CC34DF"/>
</linearGradient>
<linearGradient id="paint15_linear_4247_10613" x1="98.278" y1="319.258" x2="197.235" y2="364.298" gradientUnits="userSpaceOnUse">
<stop stop-color="#F05C80"/>
<stop offset="1" stop-color="#CC34DF"/>
</linearGradient>
<linearGradient id="paint16_linear_4247_10613" x1="86.9741" y1="305.522" x2="181.629" y2="359.016" gradientUnits="userSpaceOnUse">
<stop stop-color="#F05C80"/>
<stop offset="1" stop-color="#CC34DF"/>
</linearGradient>
<linearGradient id="paint17_linear_4247_10613" x1="76.787" y1="290.849" x2="166.419" y2="352.389" gradientUnits="userSpaceOnUse">
<stop stop-color="#F05C80"/>
<stop offset="1" stop-color="#CC34DF"/>
</linearGradient>
<linearGradient id="paint18_linear_4247_10613" x1="67.7937" y1="275.338" x2="151.721" y2="344.456" gradientUnits="userSpaceOnUse">
<stop stop-color="#F05C80"/>
<stop offset="1" stop-color="#CC34DF"/>
</linearGradient>
<linearGradient id="paint19_linear_4247_10613" x1="60.0545" y1="259.097" x2="137.639" y2="335.266" gradientUnits="userSpaceOnUse">
<stop stop-color="#F05C80"/>
<stop offset="1" stop-color="#CC34DF"/>
</linearGradient>
<linearGradient id="paint20_linear_4247_10613" x1="53.6406" y1="242.237" x2="124.291" y2="324.879" gradientUnits="userSpaceOnUse">
<stop stop-color="#F05C80"/>
<stop offset="1" stop-color="#CC34DF"/>
</linearGradient>
<linearGradient id="paint21_linear_4247_10613" x1="48.5907" y1="224.876" x2="111.769" y2="313.361" gradientUnits="userSpaceOnUse">
<stop stop-color="#F05C80"/>
<stop offset="1" stop-color="#CC34DF"/>
</linearGradient>
<linearGradient id="paint22_linear_4247_10613" x1="44.9429" y1="207.137" x2="100.169" y2="300.791" gradientUnits="userSpaceOnUse">
<stop stop-color="#F05C80"/>
<stop offset="1" stop-color="#CC34DF"/>
</linearGradient>
<linearGradient id="paint23_linear_4247_10613" x1="42.7347" y1="189.141" x2="89.5882" y2="287.253" gradientUnits="userSpaceOnUse">
<stop stop-color="#F05C80"/>
<stop offset="1" stop-color="#CC34DF"/>
</linearGradient>
<linearGradient id="paint24_linear_4247_10613" x1="41.9754" y1="171.017" x2="80.0997" y2="272.838" gradientUnits="userSpaceOnUse">
<stop stop-color="#F05C80"/>
<stop offset="1" stop-color="#CC34DF"/>
</linearGradient>
<linearGradient id="paint25_linear_4247_10613" x1="42.6739" y1="152.889" x2="71.7788" y2="257.646" gradientUnits="userSpaceOnUse">
<stop stop-color="#F05C80"/>
<stop offset="1" stop-color="#CC34DF"/>
</linearGradient>
<linearGradient id="paint26_linear_4247_10613" x1="44.8231" y1="134.885" x2="64.6871" y2="241.78" gradientUnits="userSpaceOnUse">
<stop stop-color="#F05C80"/>
<stop offset="1" stop-color="#CC34DF"/>
</linearGradient>
<linearGradient id="paint27_linear_4247_10613" x1="48.4079" y1="117.133" x2="58.8798" y2="225.352" gradientUnits="userSpaceOnUse">
<stop stop-color="#F05C80"/>
<stop offset="1" stop-color="#CC34DF"/>
</linearGradient>
<linearGradient id="paint28_linear_4247_10613" x1="53.4012" y1="99.7541" x2="54.4013" y2="208.474" gradientUnits="userSpaceOnUse">
<stop stop-color="#F05C80"/>
<stop offset="1" stop-color="#CC34DF"/>
</linearGradient>
<linearGradient id="paint29_linear_4247_10613" x1="-672.566" y1="141.483" x2="-671.693" y2="214.317" gradientUnits="userSpaceOnUse">
<stop stop-color="#FFD83E"/>
<stop offset="1" stop-color="#D038D7"/>
</linearGradient>
<linearGradient id="paint30_linear_4247_10613" x1="-672.566" y1="131.32" x2="-656.206" y2="446.173" gradientUnits="userSpaceOnUse">
<stop stop-color="#FFD83E"/>
<stop offset="1" stop-color="#D038D7"/>
</linearGradient>
<linearGradient id="paint31_linear_4247_10613" x1="222.173" y1="199.762" x2="230.122" y2="223.873" gradientUnits="userSpaceOnUse">
<stop stop-color="#FFD83E"/>
<stop offset="1" stop-color="#D038D7"/>
</linearGradient>
</defs>
</svg>
