<svg width="578" height="616" viewBox="0 0 578 616" fill="none" xmlns="http://www.w3.org/2000/svg">
<g opacity="0.3">
<path d="M169.995 -109.544L264.814 -27.7088H312.223L382.35 -109.544L445.563 -71.0913L540.382 -96.7264L530.505 45.2527H593.717L612.484 136.948L569.025 238.502L656.93 275.969L691.5 535.278H504.825L480.132 598.38H343.83L280.617 554.011L135.425 620.071L88.0159 572.745V449.499L40.6063 383.439L88.0159 275.969V168.499L9 136.948V-27.7088L169.995 -109.544Z" stroke="url(#paint0_linear_3049_8161)"/>
<path d="M314.578 224.982L331.726 216.225H354.343L370.123 232.79L374.226 253.47L383.588 257.479L387.27 285.228H367.388L343.508 287.233L328.044 294.302L322.994 289.238V276.049V245.979L314.578 242.602V224.982Z" stroke="url(#paint1_linear_3049_8161)"/>
<path d="M181.778 -84.4851L269.963 -9.28175H315.465L380.804 -84.1848L439.761 -48.0529L527.445 -70.9207L518.485 60.9323L577.556 61.2407L595.02 146.949L555.046 241.759L635.424 276.344L666.57 515.706L493.336 515.783L469.624 574.108L342.617 574.652L284.073 533.502L149.856 594.285L106.093 550.092V435.819L62.3303 372.528L105.769 273.195L105.446 173.862L32.5078 144.06V-8.60812L181.778 -84.4851Z" stroke="url(#paint2_linear_3049_8161)"/>
<path d="M193.561 -59.4254L275.112 9.14611H318.707L379.259 -58.8248L433.96 -25.0137L514.507 -45.1142L506.465 76.6127L561.393 77.2295L577.556 156.952L541.066 245.017L613.918 276.72L641.64 496.135L481.847 496.289L459.117 549.838L341.405 550.925L287.529 512.993L164.286 568.5L124.17 527.44V422.141L84.0542 361.618L123.523 270.422L122.875 179.226L56.0156 151.173V10.4934L193.561 -59.4254Z" stroke="url(#paint3_linear_3049_8161)"/>
<path d="M205.34 -34.3663L280.257 27.5734H321.945L377.709 -33.4654L428.155 -1.97512L501.566 -19.3083L494.442 92.2925L545.228 93.2178L560.088 166.954L527.083 248.275L592.408 277.095L616.706 476.564L470.355 476.795L448.605 525.566L340.188 527.198L290.98 492.484L178.712 542.715L142.243 504.788V408.462L105.774 350.707L141.272 267.648L140.301 184.589L79.5195 158.286V29.5943L205.34 -34.3663Z" stroke="url(#paint4_linear_3049_8161)"/>
<path d="M217.119 -9.3075L285.401 46.0004H325.183L376.16 -8.10631L422.35 21.0632L488.625 6.49735L482.418 107.972L529.062 109.206L542.62 176.956L513.1 251.532L570.898 277.47L591.772 456.992L458.862 457.301L438.093 501.295L338.972 503.47L294.432 471.974L193.138 516.929L160.316 482.135V394.782L127.494 339.796L159.021 264.874L157.727 189.952L103.023 165.399V48.6949L217.119 -9.3075Z" stroke="url(#paint5_linear_3049_8161)"/>
<path d="M228.903 15.7522L290.55 64.4282H328.425L374.614 17.2537L416.549 44.1024L475.688 32.3039L470.399 123.653L512.9 125.195L525.156 186.959L499.121 254.79L549.392 277.846L566.842 437.421L447.373 437.807L427.585 477.024L337.759 479.743L297.888 451.465L207.568 491.144L178.393 459.483V381.104L149.218 328.886L176.775 262.101L175.156 195.316L126.531 172.512V67.7964L228.903 15.7522Z" stroke="url(#paint6_linear_3049_8161)"/>
<path d="M240.682 40.811L295.695 82.8552H331.662L373.064 42.6128L410.743 67.1408L462.747 58.1095L458.375 139.332L496.734 141.183L507.689 196.96L485.137 258.047L527.883 278.221L541.909 417.849L435.881 418.312L417.074 452.753L336.543 456.015L301.34 430.956L221.995 465.358L196.466 436.831V367.424L170.938 317.975L194.524 259.327L192.582 200.679L150.035 179.624V86.897L240.682 40.811Z" stroke="url(#paint7_linear_3049_8161)"/>
<path d="M252.461 65.87L300.84 101.282H334.9L371.515 67.9721L404.938 90.1793L449.806 83.9153L446.352 155.012L480.568 157.171L490.221 206.962L471.154 261.304L506.373 278.597L516.975 398.278L424.388 398.818L406.562 428.481L335.326 432.288L304.792 410.446L236.421 439.572L214.54 414.178V353.745L192.658 307.064L212.274 256.553L210.008 206.043L173.539 186.737V105.998L252.461 65.87Z" stroke="url(#paint8_linear_3049_8161)"/>
<path d="M264.244 90.929L305.989 119.709H338.142L369.969 93.3313L399.137 113.218L436.868 109.721L434.332 170.691L464.406 173.159L472.757 216.964L457.175 264.562L484.867 278.972L492.045 378.706L412.899 379.323L396.054 404.21L334.114 408.56L308.248 389.937L250.851 413.786L232.617 391.526V340.066L214.382 296.153L230.027 253.78L227.438 211.406L197.047 193.849V125.099L264.244 90.929Z" stroke="url(#paint9_linear_3049_8161)"/>
<path d="M276.027 115.989L311.138 138.137H341.384L368.424 118.691L393.336 136.257L423.931 135.528L422.312 186.372L448.244 189.148L455.293 226.967L443.195 267.82L463.361 279.348L467.115 359.135L401.41 359.829L385.547 379.939L332.901 384.833L311.703 369.428L265.281 388.001L250.694 368.874V326.387L236.106 285.243L247.78 251.007L244.867 216.77L220.555 200.963V144.2L276.027 115.989Z" stroke="url(#paint10_linear_3049_8161)"/>
<path d="M287.806 141.048L316.283 156.564H344.622L366.874 144.051L387.531 159.295L410.99 161.333L410.289 202.052L432.078 205.136L437.825 236.969L429.212 271.077L441.851 279.723L442.181 339.564L389.918 340.335L375.035 355.668L331.685 361.106L315.155 348.919L279.707 362.216L268.767 346.221V312.708L257.826 274.332L265.53 248.233L262.293 222.133L244.059 208.075V163.301L287.806 141.048Z" stroke="url(#paint11_linear_3049_8161)"/>
<path d="M299.59 166.106L321.432 174.991H347.864L365.328 169.41L381.729 182.334L398.053 187.139L398.269 217.731L415.916 221.124L420.361 246.971L415.233 274.334L420.345 280.098L417.251 319.992L378.429 320.84L364.527 331.396L330.472 337.378L318.611 328.409L294.138 336.43L286.844 323.569V299.028L279.55 263.421L283.283 245.459L279.723 227.496L267.566 215.188V182.401L299.59 166.106Z" stroke="url(#paint12_linear_3049_8161)"/>
<path d="M311.369 191.166L326.577 193.419H351.101L363.779 194.77L375.924 205.373L385.112 212.946L386.245 233.412L399.75 237.112L402.893 256.973L401.25 277.592L398.835 280.474L392.318 300.421L366.937 301.346L354.016 307.126L329.256 313.651L322.063 307.901L308.564 310.645L304.917 300.917V285.35L301.27 252.511L301.033 242.686L297.148 232.861L291.07 222.301V201.503L311.369 191.166Z" stroke="url(#paint13_linear_3049_8161)"/>
</g>
<path d="M433.082 277.465C435.113 275.983 435.563 273.151 434.081 271.131C432.709 269.221 430.152 268.782 428.165 269.935C426.518 266.565 425.618 262.877 425.618 259.057C425.618 254.502 426.903 250.133 429.23 246.247L433.082 243.448C434.422 242.471 435.124 240.847 434.916 239.211C434.718 237.576 433.631 236.182 432.095 235.556L322.92 191.891C319.232 190.41 313.887 191.101 310.692 193.428L189.621 281.471C189.248 281.735 188.94 282.064 188.677 282.426L188.666 282.415C184.33 288.156 182.047 294.983 182.047 302.151C182.047 308.232 183.781 314.028 186.931 319.165C183.781 324.301 182.047 330.086 182.047 336.156C182.047 342.237 183.781 348.033 186.931 353.17C183.781 358.307 182.047 364.103 182.047 370.184C182.047 377.341 184.33 384.179 188.666 389.919L189.423 390.929L299.78 435.077C301.152 435.626 302.711 435.89 304.292 435.89C307.069 435.89 309.912 435.077 312.008 433.552L372.533 389.536L433.058 345.509C435.088 344.027 435.538 341.195 434.056 339.175C432.684 337.265 430.127 336.826 428.14 337.979C426.493 334.609 425.593 330.921 425.593 327.101C425.593 322.535 426.878 318.177 429.205 314.291L433.058 311.492C435.088 310.01 435.538 307.178 434.056 305.159C432.684 303.249 430.127 302.81 428.14 303.962C426.494 300.593 425.593 296.904 425.593 293.085C425.593 288.529 426.878 284.161 429.205 280.275L433.082 277.465ZM314.756 221.638L382.789 248.849L357.839 266.993L289.806 239.782L314.756 221.638ZM367.213 382.193L306.689 426.209C305.92 426.758 304.043 426.988 303.154 426.637L195.211 383.467C192.533 379.516 191.128 374.949 191.128 370.174C191.128 366.135 192.159 362.271 194.102 358.77L299.784 401.052C301.156 401.601 302.714 401.864 304.295 401.864C307.072 401.864 309.915 401.052 312.012 399.526L372.536 355.51L419.89 321.065C419.506 323.03 419.243 325.028 419.243 327.091C419.243 332.25 420.483 337.223 422.854 341.701L367.213 382.193ZM367.213 348.178L306.689 392.205C305.92 392.765 304.043 392.996 303.154 392.633L195.211 349.463C192.533 345.512 191.128 340.946 191.128 336.171C191.128 332.131 192.159 328.268 194.102 324.755L299.784 367.037C301.156 367.586 302.714 367.849 304.295 367.849C307.072 367.849 309.915 367.037 312.012 365.511L372.536 321.496L419.89 287.051C419.506 289.015 419.243 291.013 419.243 293.077C419.243 298.235 420.483 303.208 422.854 307.697L367.213 348.178ZM367.213 314.163L306.689 358.179C305.92 358.739 304.043 358.969 303.154 358.607L195.211 315.437C192.533 311.497 191.128 306.919 191.128 302.144C191.128 298.105 192.159 294.23 194.102 290.729L299.784 333.022C301.112 333.549 302.659 333.834 304.273 333.834C307.149 333.834 309.959 332.978 312.012 331.496L419.902 253.035C419.517 255 419.254 256.998 419.254 259.062C419.254 264.22 420.494 269.193 422.865 273.682L367.213 314.163Z" fill="url(#paint14_linear_3049_8161)"/>
<g clip-path="url(#clip0_3049_8161)">
<rect x="18" y="97.9994" width="184.001" height="184.001" rx="92.0003" fill="white" fill-opacity="0.01"/>
<g filter="url(#filter2_d_3049_8161)">
<g clip-path="url(#clip1_3049_8161)">
<rect x="39.5117" y="119.513" width="140.974" height="140.974" rx="70.487" fill="white" fill-opacity="0.01" shape-rendering="crispEdges"/>
<g filter="url(#filter3_d_3049_8161)">
<rect x="61.0234" y="141.026" width="97.9474" height="97.9472" rx="48.9736" fill="white"/>
<rect x="61.0234" y="141.026" width="97.9474" height="97.9472" rx="48.9736" fill="url(#paint15_linear_3049_8161)" fill-opacity="0.7"/>
<path d="M108.609 166.783L113.985 155.083V223.064L109.218 224.998C109.218 224.998 108.609 183.25 108.609 166.783Z" fill="url(#paint16_linear_3049_8161)"/>
<path d="M94.1055 172.04L98.7685 161.197L98.9301 217.623L94.1457 212.615C94.1457 212.615 94.1055 185.884 94.1055 172.04Z" fill="url(#paint17_linear_3049_8161)"/>
<path d="M109.246 223.209L109.197 217.286C109.193 201.748 109.197 186.209 109.16 170.671L109.188 170.728V165.607L106.005 164.204L106.017 164.228C103.712 163.224 101.328 162.265 98.7733 161.2V166.917C98.7692 183.1 98.7596 201.31 98.8045 217.493C99.0155 217.741 99.4999 218.154 99.6101 218.247C100.047 218.635 100.496 218.988 100.936 219.363C102.304 220.518 103.773 221.571 105.258 222.566C106.034 223.085 106.821 223.582 107.621 224.06C107.76 224.141 109.241 224.896 109.246 225.007C109.229 224.186 109.286 224.139 109.246 223.209Z" fill="url(#paint18_linear_3049_8161)"/>
<path d="M135.639 163.99V182.634C135.316 202.31 127.293 214.327 113.895 223.113L113.968 154.993C116.053 155.841 117.963 156.604 119.861 157.396C124.338 159.269 128.807 161.158 133.284 163.015C134.067 163.341 134.855 163.668 135.639 163.99Z" fill="url(#paint19_linear_3049_8161)"/>
<path d="M94.146 200.697C94.146 200.379 94.146 200.061 94.146 199.742C94.146 194.989 94.146 190.28 94.1419 185.591C94.1419 185.424 94.1419 185.261 94.1419 185.093C94.1419 183.931 94.1378 182.768 94.1378 181.609C94.1378 180.658 94.1338 179.707 94.1338 178.765C94.1338 178.385 94.1338 178.006 94.1338 177.626C94.1338 177.186 94.1338 176.749 94.1297 176.312L94.1378 176.345L94.1664 172.011L93.5012 171.71C93.5012 171.71 93.5012 171.71 93.4971 171.705C93.4808 171.697 93.4644 171.689 93.444 171.681L93.0278 171.489V171.497C90.2118 170.232 87.3427 169.061 84.3594 167.821V182.629C84.5349 193.275 86.9387 201.676 91.2361 208.536C92.0769 209.87 92.4605 210.405 93.4114 211.653C93.4359 211.686 94.1093 212.575 94.1419 212.604C94.1419 209.274 94.1419 205.908 94.1419 202.533C94.146 201.921 94.146 201.309 94.146 200.697Z" fill="url(#paint20_linear_3049_8161)"/>
</g>
</g>
<rect x="39.8058" y="119.807" width="140.386" height="140.386" rx="70.1928" stroke="#CC34DF" stroke-width="0.588256" shape-rendering="crispEdges"/>
</g>
</g>
<rect x="18.2941" y="98.2935" width="183.413" height="183.412" rx="91.7062" stroke="#CC34DF" stroke-opacity="0.5" stroke-width="0.588256"/>
<defs>
<filter id="filter2_d_3049_8161" x="-3.515" y="81.8643" width="227.026" height="227.027" filterUnits="userSpaceOnUse" color-interpolation-filters="sRGB">
<feFlood flood-opacity="0" result="BackgroundImageFix"/>
<feColorMatrix in="SourceAlpha" type="matrix" values="0 0 0 0 0 0 0 0 0 0 0 0 0 0 0 0 0 0 127 0" result="hardAlpha"/>
<feOffset dy="5.37834"/>
<feGaussianBlur stdDeviation="21.5134"/>
<feComposite in2="hardAlpha" operator="out"/>
<feColorMatrix type="matrix" values="0 0 0 0 0 0 0 0 0 0 0 0 0 0 0 0 0 0 0.12 0"/>
<feBlend mode="normal" in2="BackgroundImageFix" result="effect1_dropShadow_3049_8161"/>
<feBlend mode="normal" in="SourceGraphic" in2="effect1_dropShadow_3049_8161" result="shape"/>
</filter>
<filter id="filter3_d_3049_8161" x="5.05349" y="94.3844" width="209.889" height="209.887" filterUnits="userSpaceOnUse" color-interpolation-filters="sRGB">
<feFlood flood-opacity="0" result="BackgroundImageFix"/>
<feColorMatrix in="SourceAlpha" type="matrix" values="0 0 0 0 0 0 0 0 0 0 0 0 0 0 0 0 0 0 127 0" result="hardAlpha"/>
<feOffset dy="9.32832"/>
<feGaussianBlur stdDeviation="27.985"/>
<feComposite in2="hardAlpha" operator="out"/>
<feColorMatrix type="matrix" values="0 0 0 0 1 0 0 0 0 1 0 0 0 0 1 0 0 0 0.25 0"/>
<feBlend mode="normal" in2="BackgroundImageFix" result="effect1_dropShadow_3049_8161"/>
<feBlend mode="normal" in="SourceGraphic" in2="effect1_dropShadow_3049_8161" result="shape"/>
</filter>
<linearGradient id="paint0_linear_3049_8161" x1="11.3006" y1="-311.083" x2="51.3893" y2="632.761" gradientUnits="userSpaceOnUse">
<stop stop-color="#F05C80"/>
<stop offset="1" stop-color="#CC34DF"/>
</linearGradient>
<linearGradient id="paint1_linear_3049_8161" x1="314.823" y1="194.658" x2="319.133" y2="295.658" gradientUnits="userSpaceOnUse">
<stop stop-color="#F05C80"/>
<stop offset="1" stop-color="#CC34DF"/>
</linearGradient>
<linearGradient id="paint2_linear_3049_8161" x1="34.6452" y1="-271.979" x2="71.9915" y2="606.087" gradientUnits="userSpaceOnUse">
<stop stop-color="#F05C80"/>
<stop offset="1" stop-color="#CC34DF"/>
</linearGradient>
<linearGradient id="paint3_linear_3049_8161" x1="57.9897" y1="-232.875" x2="92.5939" y2="579.413" gradientUnits="userSpaceOnUse">
<stop stop-color="#F05C80"/>
<stop offset="1" stop-color="#CC34DF"/>
</linearGradient>
<linearGradient id="paint4_linear_3049_8161" x1="81.3303" y1="-193.771" x2="113.193" y2="552.739" gradientUnits="userSpaceOnUse">
<stop stop-color="#F05C80"/>
<stop offset="1" stop-color="#CC34DF"/>
</linearGradient>
<linearGradient id="paint5_linear_3049_8161" x1="104.671" y1="-154.668" x2="133.792" y2="526.064" gradientUnits="userSpaceOnUse">
<stop stop-color="#F05C80"/>
<stop offset="1" stop-color="#CC34DF"/>
</linearGradient>
<linearGradient id="paint6_linear_3049_8161" x1="128.016" y1="-115.563" x2="154.395" y2="499.39" gradientUnits="userSpaceOnUse">
<stop stop-color="#F05C80"/>
<stop offset="1" stop-color="#CC34DF"/>
</linearGradient>
<linearGradient id="paint7_linear_3049_8161" x1="151.356" y1="-76.4598" x2="174.995" y2="472.715" gradientUnits="userSpaceOnUse">
<stop stop-color="#F05C80"/>
<stop offset="1" stop-color="#CC34DF"/>
</linearGradient>
<linearGradient id="paint8_linear_3049_8161" x1="174.697" y1="-37.3562" x2="195.595" y2="446.04" gradientUnits="userSpaceOnUse">
<stop stop-color="#F05C80"/>
<stop offset="1" stop-color="#CC34DF"/>
</linearGradient>
<linearGradient id="paint9_linear_3049_8161" x1="198.041" y1="1.74737" x2="216.201" y2="419.366" gradientUnits="userSpaceOnUse">
<stop stop-color="#F05C80"/>
<stop offset="1" stop-color="#CC34DF"/>
</linearGradient>
<linearGradient id="paint10_linear_3049_8161" x1="221.386" y1="40.8517" x2="236.808" y2="392.691" gradientUnits="userSpaceOnUse">
<stop stop-color="#F05C80"/>
<stop offset="1" stop-color="#CC34DF"/>
</linearGradient>
<linearGradient id="paint11_linear_3049_8161" x1="244.726" y1="79.9553" x2="257.414" y2="366.016" gradientUnits="userSpaceOnUse">
<stop stop-color="#F05C80"/>
<stop offset="1" stop-color="#CC34DF"/>
</linearGradient>
<linearGradient id="paint12_linear_3049_8161" x1="268.081" y1="118.797" x2="277.947" y2="340.317" gradientUnits="userSpaceOnUse">
<stop stop-color="#F05C80"/>
<stop offset="1" stop-color="#CC34DF"/>
</linearGradient>
<linearGradient id="paint13_linear_3049_8161" x1="291.447" y1="157.333" x2="298.342" y2="315.767" gradientUnits="userSpaceOnUse">
<stop stop-color="#F05C80"/>
<stop offset="1" stop-color="#CC34DF"/>
</linearGradient>
<linearGradient id="paint14_linear_3049_8161" x1="-385.944" y1="94.8717" x2="-328.593" y2="634.053" gradientUnits="userSpaceOnUse">
<stop stop-color="#FFD83E"/>
<stop offset="1" stop-color="#D038D7"/>
</linearGradient>
<linearGradient id="paint15_linear_3049_8161" x1="109.997" y1="141.026" x2="109.997" y2="238.973" gradientUnits="userSpaceOnUse">
<stop stop-color="#1E1F23" stop-opacity="0"/>
<stop offset="1" stop-color="#1E1F23" stop-opacity="0.24"/>
</linearGradient>
<linearGradient id="paint16_linear_3049_8161" x1="111.317" y1="155.083" x2="111.317" y2="222.973" gradientUnits="userSpaceOnUse">
<stop stop-color="#B94848"/>
<stop offset="1" stop-color="#851287"/>
</linearGradient>
<linearGradient id="paint17_linear_3049_8161" x1="96.0613" y1="161.196" x2="96.0613" y2="218.272" gradientUnits="userSpaceOnUse">
<stop stop-color="#B94848"/>
<stop offset="1" stop-color="#851287"/>
</linearGradient>
<linearGradient id="paint18_linear_3049_8161" x1="104.007" y1="161.2" x2="120.832" y2="225.012" gradientUnits="userSpaceOnUse">
<stop stop-color="#F25E79"/>
<stop offset="1" stop-color="#C52CF1"/>
</linearGradient>
<linearGradient id="paint19_linear_3049_8161" x1="113.968" y1="136.176" x2="124.788" y2="223.11" gradientUnits="userSpaceOnUse">
<stop stop-color="#F05C80"/>
<stop offset="1" stop-color="#CC34DF"/>
</linearGradient>
<linearGradient id="paint20_linear_3049_8161" x1="62.3343" y1="150.214" x2="102.327" y2="229.904" gradientUnits="userSpaceOnUse">
<stop stop-color="#FFD83E"/>
<stop offset="1" stop-color="#D038D7"/>
</linearGradient>
<clipPath id="clip0_3049_8161">
<rect x="18" y="97.9994" width="184.001" height="184.001" rx="92.0003" fill="white"/>
</clipPath>
<clipPath id="clip1_3049_8161">
<rect x="39.5117" y="119.513" width="140.974" height="140.974" rx="70.487" fill="white"/>
</clipPath>
</defs>
</svg>
