<svg width="351" height="481" viewBox="0 0 351 481" fill="none" xmlns="http://www.w3.org/2000/svg">
<g opacity="0.3">
<path d="M111.624 1.1626L173.884 54.8978H205.015L251.062 1.1626L292.569 26.4116L354.829 9.57895L348.344 102.806H389.851L402.174 163.015L373.637 229.699L431.358 254.3L454.057 424.57H331.482L315.268 466.004H225.768L184.261 436.871L88.9244 480.247L57.7941 449.171V368.245L26.6637 324.868L57.7941 254.3V183.733L5.91016 163.015V54.8978L111.624 1.1626Z" stroke="url(#paint0_linear_421_11349)" stroke-width="0.656627"/>
<path d="M206.562 220.822L217.822 215.071H232.673L243.035 225.948L245.729 239.527L251.877 242.16L254.294 260.381H241.239L225.558 261.697L215.404 266.339L212.089 263.013V254.353V234.608L206.562 232.391V220.822Z" stroke="url(#paint1_linear_421_11349)" stroke-width="0.656627"/>
<path d="M119.362 17.6169L177.267 66.9975H207.145L250.048 17.8141L288.761 41.5393L346.336 26.5237L340.453 113.102L379.24 113.304L390.708 169.583L364.46 231.838L417.239 254.547L437.69 411.718L323.94 411.769L308.37 450.067L224.974 450.424L186.532 423.403L98.4013 463.315L69.6656 434.297V359.263L40.9299 317.704L69.453 252.479L69.2405 187.254L21.3477 167.686V67.4398L119.362 17.6169Z" stroke="url(#paint2_linear_421_11349)" stroke-width="0.656627"/>
<path d="M127.097 34.0718L180.645 79.0977H209.271L249.031 34.4661L284.95 56.6674L337.839 43.4689L332.559 123.398L368.626 123.803L379.238 176.151L355.278 233.977L403.115 254.794L421.318 398.868L316.393 398.969L301.468 434.13L224.175 434.844L188.799 409.937L107.874 446.384L81.5332 419.423V350.281L55.1921 310.54L81.1081 250.658L80.683 190.776L36.7812 172.357V79.9823L127.097 34.0718Z" stroke="url(#paint3_linear_421_11349)" stroke-width="0.656627"/>
<path d="M134.832 50.5262L184.024 91.1975H211.398L248.014 51.1178L281.138 71.7952L329.342 60.4137L324.664 133.694L358.011 134.301L367.769 182.719L346.097 236.116L388.991 255.04L404.946 386.017L308.847 386.168L294.566 418.193L223.377 419.264L191.066 396.47L117.347 429.453L93.4008 404.549V341.299L69.4544 303.376L92.7632 248.837L92.1255 194.298L52.2148 177.027V92.5245L134.832 50.5262Z" stroke="url(#paint4_linear_421_11349)" stroke-width="0.656627"/>
<path d="M142.567 66.9805L187.403 103.297H213.524L246.997 67.7692L277.327 86.9227L320.845 77.3583L316.769 143.989L347.397 144.799L356.299 189.286L336.916 238.255L374.868 255.286L388.574 373.165L301.301 373.368L287.664 402.255L222.578 403.684L193.333 383.003L126.82 412.521L105.268 389.675V332.316L83.7166 296.211L104.418 247.015L103.568 197.82L67.6484 181.697V105.066L142.567 66.9805Z" stroke="url(#paint5_linear_421_11349)" stroke-width="0.656627"/>
<path d="M150.306 83.4353L190.785 115.397H215.654L245.984 84.4212L273.519 102.051L312.351 94.3036L308.878 154.286L336.786 155.298L344.834 195.854L327.738 240.394L360.748 255.533L372.206 360.314L293.759 360.567L280.766 386.319L221.784 388.104L195.603 369.536L136.297 395.59L117.14 374.801V323.335L97.9828 289.047L116.077 245.195L115.015 201.342L83.0859 186.368V117.609L150.306 83.4353Z" stroke="url(#paint6_linear_421_11349)" stroke-width="0.656627"/>
<path d="M158.041 99.8896L194.164 127.497H217.781L244.966 101.073L269.708 117.178L303.854 111.248L300.984 164.581L326.171 165.796L333.364 202.421L318.557 242.533L346.624 255.78L355.834 347.463L286.213 347.767L273.864 370.381L220.985 372.524L197.87 356.069L145.77 378.658L129.008 359.927V314.352L112.245 281.883L127.732 243.373L126.457 204.863L98.5195 191.038V130.151L158.041 99.8896Z" stroke="url(#paint7_linear_421_11349)" stroke-width="0.656627"/>
<path d="M165.775 116.344L197.542 139.597H219.907L243.949 117.724L265.896 132.306L295.357 128.193L293.089 174.877L315.557 176.294L321.895 208.989L309.375 244.671L332.501 256.026L339.462 334.612L278.667 334.966L266.962 354.444L220.187 356.944L200.137 342.602L155.243 361.727L140.875 345.052V305.37L126.507 274.718L139.387 241.552L137.9 208.385L113.953 195.708V142.693L165.775 116.344Z" stroke="url(#paint8_linear_421_11349)" stroke-width="0.656627"/>
<path d="M173.51 132.798L200.921 151.696H222.034L242.932 134.376L262.085 147.434L286.86 145.138L285.194 185.173L304.942 186.793L310.425 215.556L300.194 246.81L318.377 256.272L323.09 321.761L271.121 322.166L260.06 338.507L219.389 341.363L202.404 329.135L164.716 344.795L152.743 330.178V296.388L140.77 267.554L151.042 239.73L149.342 211.907L129.387 200.379V155.235L173.51 132.798Z" stroke="url(#paint9_linear_421_11349)" stroke-width="0.656627"/>
<path d="M181.249 149.253L204.304 163.797H224.164L241.919 151.028L258.277 162.562L278.367 162.083L277.304 195.469L294.331 197.291L298.96 222.124L291.016 248.95L304.257 256.519L306.722 308.91L263.579 309.366L253.162 322.57L218.594 325.784L204.675 315.668L174.193 327.864L164.614 315.305V287.406L155.036 260.39L162.701 237.91L160.789 215.429L144.824 205.05V167.778L181.249 149.253Z" stroke="url(#paint10_linear_421_11349)" stroke-width="0.656627"/>
<path d="M188.984 165.708L207.682 175.896H226.29L240.902 167.679L254.465 177.69L269.869 179.028L269.409 205.764L283.717 207.79L287.49 228.692L281.835 251.088L290.133 256.766L290.35 296.059L256.033 296.565L246.26 306.633L217.796 310.204L206.942 302.201L183.666 310.932L176.482 300.43V278.424L169.298 253.226L174.356 236.088L172.231 218.951L160.258 209.72V180.32L188.984 165.708Z" stroke="url(#paint11_linear_421_11349)" stroke-width="0.656627"/>
<path d="M196.719 182.162L211.061 187.996H228.417L239.884 184.331L250.654 192.817L261.372 195.972L261.514 216.06L273.102 218.288L276.02 235.259L272.653 253.227L276.01 257.012L273.979 283.207L248.487 283.764L239.358 290.696L216.997 294.623L209.209 288.734L193.139 294.001L188.349 285.556V269.442L183.56 246.061L186.012 234.267L183.674 222.472L175.691 214.39V192.862L196.719 182.162Z" stroke="url(#paint12_linear_421_11349)" stroke-width="0.656627"/>
<path d="M204.453 198.617L214.439 200.096H230.543L238.867 200.983L246.842 207.945L252.875 212.918L253.619 226.356L262.487 228.786L264.551 241.827L263.472 255.366L261.886 257.259L257.607 270.357L240.941 270.964L232.456 274.759L216.199 279.044L211.476 275.268L202.612 277.07L200.217 270.682V260.46L197.822 238.897L197.667 232.446L195.116 225.994L191.125 219.061V205.404L204.453 198.617Z" stroke="url(#paint13_linear_421_11349)" stroke-width="0.656627"/>
</g>
<path d="M284.372 254.925C285.705 253.952 286.001 252.093 285.028 250.767C284.127 249.513 282.447 249.224 281.143 249.981C280.062 247.768 279.471 245.347 279.471 242.839C279.471 239.847 280.314 236.979 281.842 234.427L284.372 232.589C285.251 231.948 285.712 230.881 285.575 229.807C285.446 228.733 284.732 227.818 283.723 227.407L212.036 198.736C209.615 197.763 206.105 198.217 204.007 199.745L124.508 257.556C124.263 257.729 124.062 257.945 123.889 258.183L123.881 258.176C121.034 261.946 119.535 266.429 119.535 271.135C119.535 275.128 120.674 278.934 122.743 282.307C120.674 285.68 119.535 289.478 119.535 293.464C119.535 297.457 120.674 301.263 122.743 304.636C120.674 308.009 119.535 311.814 119.535 315.807C119.535 320.507 121.034 324.997 123.881 328.766L124.379 329.429L196.842 358.418C197.743 358.779 198.767 358.952 199.804 358.952C201.628 358.952 203.495 358.418 204.871 357.416L244.613 328.514L284.355 299.605C285.689 298.632 285.984 296.772 285.011 295.446C284.11 294.192 282.431 293.904 281.126 294.661C280.045 292.448 279.454 290.026 279.454 287.518C279.454 284.52 280.298 281.658 281.826 279.107L284.355 277.269C285.689 276.296 285.984 274.436 285.011 273.11C284.11 271.856 282.431 271.568 281.126 272.325C280.045 270.112 279.454 267.69 279.454 265.182C279.454 262.191 280.298 259.322 281.826 256.771L284.372 254.925ZM206.676 218.268L251.348 236.136L234.965 248.05L190.293 230.182L206.676 218.268ZM241.12 323.693L201.378 352.595C200.874 352.955 199.641 353.107 199.057 352.876L128.179 324.53C126.42 321.935 125.498 318.937 125.498 315.801C125.498 313.149 126.175 310.612 127.451 308.313L196.844 336.076C197.745 336.437 198.769 336.61 199.807 336.61C201.63 336.61 203.497 336.076 204.873 335.074L244.615 306.172L275.709 283.555C275.457 284.845 275.284 286.157 275.284 287.512C275.284 290.899 276.099 294.164 277.656 297.105L241.12 323.693ZM241.12 301.358L201.378 330.267C200.874 330.635 199.641 330.786 199.057 330.548L128.179 302.202C126.42 299.607 125.498 296.609 125.498 293.473C125.498 290.821 126.175 288.284 127.451 285.978L196.844 313.741C197.745 314.102 198.769 314.275 199.807 314.275C201.63 314.275 203.497 313.741 204.873 312.739L244.615 283.837L275.709 261.22C275.457 262.51 275.284 263.822 275.284 265.177C275.284 268.564 276.099 271.829 277.656 274.777L241.12 301.358ZM241.12 279.023L201.378 307.925C200.874 308.292 199.641 308.444 199.057 308.206L128.179 279.859C126.42 277.272 125.498 274.266 125.498 271.131C125.498 268.479 126.175 265.934 127.451 263.635L196.844 291.406C197.716 291.752 198.733 291.939 199.792 291.939C201.68 291.939 203.526 291.377 204.873 290.404L275.717 238.885C275.465 240.175 275.292 241.487 275.292 242.842C275.292 246.229 276.106 249.494 277.663 252.442L241.12 279.023Z" fill="url(#paint14_linear_421_11349)"/>
<g clip-path="url(#clip0_421_11349)">
<rect x="11.8203" y="137.084" width="120.82" height="120.82" rx="60.4098" fill="white" fill-opacity="0.01"/>
<g filter="url(#filter2_d_421_11349)">
<g clip-path="url(#clip1_421_11349)">
<rect x="25.9453" y="151.21" width="92.5673" height="92.5672" rx="46.2836" fill="white" fill-opacity="0.01" shape-rendering="crispEdges"/>
<g filter="url(#filter3_d_421_11349)">
<rect x="40.0703" y="165.336" width="64.3148" height="64.3147" rx="32.1574" fill="white"/>
<rect x="40.0703" y="165.336" width="64.3148" height="64.3147" rx="32.1574" fill="url(#paint15_linear_421_11349)" fill-opacity="0.7"/>
<path d="M71.3125 182.249L74.8424 174.567V219.205L71.7124 220.475C71.7124 220.475 71.3125 193.062 71.3125 182.249Z" fill="url(#paint16_linear_421_11349)"/>
<path d="M61.7891 185.701L64.8509 178.581L64.9571 215.632L61.8155 212.344C61.8155 212.344 61.7891 194.791 61.7891 185.701Z" fill="url(#paint17_linear_421_11349)"/>
<path d="M71.7304 219.3L71.6982 215.411C71.6956 205.208 71.6982 195.005 71.6741 184.802L71.6929 184.84V181.477L69.6026 180.555L69.6107 180.572C68.0966 179.912 66.5316 179.283 64.854 178.583V182.337C64.8514 192.964 64.845 204.921 64.8745 215.547C65.0131 215.71 65.3311 215.981 65.4035 216.042C65.6902 216.297 65.9849 216.528 66.2743 216.775C67.1721 217.533 68.1368 218.224 69.1122 218.878C69.6214 219.218 70.1386 219.545 70.6638 219.859C70.755 219.912 71.7277 220.408 71.7304 220.48C71.7197 219.942 71.7572 219.911 71.7304 219.3Z" fill="url(#paint18_linear_421_11349)"/>
<path d="M89.0629 180.415V192.657C88.8512 205.577 83.5829 213.468 74.7852 219.237L74.8331 174.507C76.2025 175.065 77.4567 175.566 78.7028 176.085C81.6425 177.315 84.5769 178.556 87.5166 179.775C88.0312 179.989 88.5484 180.204 89.0629 180.415Z" fill="url(#paint19_linear_421_11349)"/>
<path d="M61.8168 204.518C61.8168 204.309 61.8168 204.1 61.8168 203.891C61.8168 200.77 61.8168 197.678 61.8141 194.599C61.8141 194.489 61.8141 194.382 61.8141 194.272C61.8141 193.509 61.8114 192.745 61.8114 191.984C61.8114 191.36 61.8087 190.736 61.8087 190.117C61.8087 189.867 61.8087 189.618 61.8087 189.369C61.8087 189.08 61.8087 188.793 61.8061 188.506L61.8114 188.528L61.8302 185.682L61.3934 185.484C61.3934 185.484 61.3934 185.484 61.3907 185.481C61.38 185.476 61.3693 185.471 61.3559 185.465L61.0825 185.339V185.345C59.2335 184.514 57.3496 183.745 55.3906 182.931V192.654C55.5059 199.644 57.0843 205.161 59.9061 209.665C60.4581 210.541 60.71 210.892 61.3344 211.712C61.3505 211.734 61.7927 212.318 61.8141 212.336C61.8141 210.15 61.8141 207.94 61.8141 205.724C61.8168 205.322 61.8168 204.92 61.8168 204.518Z" fill="url(#paint20_linear_421_11349)"/>
</g>
</g>
<rect x="26.1384" y="151.403" width="92.1811" height="92.181" rx="46.0905" stroke="#CC34DF" stroke-width="0.386264" shape-rendering="crispEdges"/>
</g>
</g>
<rect x="12.0134" y="137.277" width="120.434" height="120.433" rx="60.2167" stroke="#CC34DF" stroke-opacity="0.5" stroke-width="0.386264"/>
<defs>
<filter id="filter2_d_421_11349" x="-2.30717" y="126.489" width="149.071" height="149.072" filterUnits="userSpaceOnUse" color-interpolation-filters="sRGB">
<feFlood flood-opacity="0" result="BackgroundImageFix"/>
<feColorMatrix in="SourceAlpha" type="matrix" values="0 0 0 0 0 0 0 0 0 0 0 0 0 0 0 0 0 0 127 0" result="hardAlpha"/>
<feOffset dy="3.53156"/>
<feGaussianBlur stdDeviation="14.1262"/>
<feComposite in2="hardAlpha" operator="out"/>
<feColorMatrix type="matrix" values="0 0 0 0 0 0 0 0 0 0 0 0 0 0 0 0 0 0 0.12 0"/>
<feBlend mode="normal" in2="BackgroundImageFix" result="effect1_dropShadow_421_11349"/>
<feBlend mode="normal" in="SourceGraphic" in2="effect1_dropShadow_421_11349" result="shape"/>
</filter>
<filter id="filter3_d_421_11349" x="3.31896" y="134.71" width="137.819" height="137.817" filterUnits="userSpaceOnUse" color-interpolation-filters="sRGB">
<feFlood flood-opacity="0" result="BackgroundImageFix"/>
<feColorMatrix in="SourceAlpha" type="matrix" values="0 0 0 0 0 0 0 0 0 0 0 0 0 0 0 0 0 0 127 0" result="hardAlpha"/>
<feOffset dy="6.12522"/>
<feGaussianBlur stdDeviation="18.3757"/>
<feComposite in2="hardAlpha" operator="out"/>
<feColorMatrix type="matrix" values="0 0 0 0 1 0 0 0 0 1 0 0 0 0 1 0 0 0 0.25 0"/>
<feBlend mode="normal" in2="BackgroundImageFix" result="effect1_dropShadow_421_11349"/>
<feBlend mode="normal" in="SourceGraphic" in2="effect1_dropShadow_421_11349" result="shape"/>
</filter>
<linearGradient id="paint0_linear_421_11349" x1="7.42082" y1="-131.173" x2="33.7441" y2="488.58" gradientUnits="userSpaceOnUse">
<stop stop-color="#F05C80"/>
<stop offset="1" stop-color="#CC34DF"/>
</linearGradient>
<linearGradient id="paint1_linear_421_11349" x1="206.723" y1="200.91" x2="209.554" y2="267.229" gradientUnits="userSpaceOnUse">
<stop stop-color="#F05C80"/>
<stop offset="1" stop-color="#CC34DF"/>
</linearGradient>
<linearGradient id="paint2_linear_421_11349" x1="22.7511" y1="-105.497" x2="47.2737" y2="471.065" gradientUnits="userSpaceOnUse">
<stop stop-color="#F05C80"/>
<stop offset="1" stop-color="#CC34DF"/>
</linearGradient>
<linearGradient id="paint3_linear_421_11349" x1="38.0775" y1="-79.8197" x2="60.7995" y2="453.55" gradientUnits="userSpaceOnUse">
<stop stop-color="#F05C80"/>
<stop offset="1" stop-color="#CC34DF"/>
</linearGradient>
<linearGradient id="paint4_linear_421_11349" x1="53.4039" y1="-54.1431" x2="74.3255" y2="436.035" gradientUnits="userSpaceOnUse">
<stop stop-color="#F05C80"/>
<stop offset="1" stop-color="#CC34DF"/>
</linearGradient>
<linearGradient id="paint5_linear_421_11349" x1="68.7302" y1="-28.4668" x2="87.8516" y2="418.519" gradientUnits="userSpaceOnUse">
<stop stop-color="#F05C80"/>
<stop offset="1" stop-color="#CC34DF"/>
</linearGradient>
<linearGradient id="paint6_linear_421_11349" x1="84.0605" y1="-2.78991" x2="101.382" y2="401.005" gradientUnits="userSpaceOnUse">
<stop stop-color="#F05C80"/>
<stop offset="1" stop-color="#CC34DF"/>
</linearGradient>
<linearGradient id="paint7_linear_421_11349" x1="99.3869" y1="22.8865" x2="114.909" y2="383.489" gradientUnits="userSpaceOnUse">
<stop stop-color="#F05C80"/>
<stop offset="1" stop-color="#CC34DF"/>
</linearGradient>
<linearGradient id="paint8_linear_421_11349" x1="114.713" y1="48.5629" x2="128.436" y2="365.974" gradientUnits="userSpaceOnUse">
<stop stop-color="#F05C80"/>
<stop offset="1" stop-color="#CC34DF"/>
</linearGradient>
<linearGradient id="paint9_linear_421_11349" x1="130.04" y1="74.2393" x2="141.964" y2="348.459" gradientUnits="userSpaceOnUse">
<stop stop-color="#F05C80"/>
<stop offset="1" stop-color="#CC34DF"/>
</linearGradient>
<linearGradient id="paint10_linear_421_11349" x1="145.37" y1="99.9164" x2="155.496" y2="330.944" gradientUnits="userSpaceOnUse">
<stop stop-color="#F05C80"/>
<stop offset="1" stop-color="#CC34DF"/>
</linearGradient>
<linearGradient id="paint11_linear_421_11349" x1="160.696" y1="125.593" x2="169.027" y2="313.428" gradientUnits="userSpaceOnUse">
<stop stop-color="#F05C80"/>
<stop offset="1" stop-color="#CC34DF"/>
</linearGradient>
<linearGradient id="paint12_linear_421_11349" x1="176.03" y1="151.097" x2="182.508" y2="296.553" gradientUnits="userSpaceOnUse">
<stop stop-color="#F05C80"/>
<stop offset="1" stop-color="#CC34DF"/>
</linearGradient>
<linearGradient id="paint13_linear_421_11349" x1="191.373" y1="176.401" x2="195.9" y2="280.433" gradientUnits="userSpaceOnUse">
<stop stop-color="#F05C80"/>
<stop offset="1" stop-color="#CC34DF"/>
</linearGradient>
<linearGradient id="paint14_linear_421_11349" x1="-253.423" y1="135.03" x2="-215.764" y2="489.071" gradientUnits="userSpaceOnUse">
<stop stop-color="#FFD83E"/>
<stop offset="1" stop-color="#D038D7"/>
</linearGradient>
<linearGradient id="paint15_linear_421_11349" x1="72.2277" y1="165.336" x2="72.2277" y2="229.651" gradientUnits="userSpaceOnUse">
<stop stop-color="#1E1F23" stop-opacity="0"/>
<stop offset="1" stop-color="#1E1F23" stop-opacity="0.24"/>
</linearGradient>
<linearGradient id="paint16_linear_421_11349" x1="73.0901" y1="174.567" x2="73.0901" y2="219.145" gradientUnits="userSpaceOnUse">
<stop stop-color="#B94848"/>
<stop offset="1" stop-color="#851287"/>
</linearGradient>
<linearGradient id="paint17_linear_421_11349" x1="63.0733" y1="178.581" x2="63.0733" y2="216.058" gradientUnits="userSpaceOnUse">
<stop stop-color="#B94848"/>
<stop offset="1" stop-color="#851287"/>
</linearGradient>
<linearGradient id="paint18_linear_421_11349" x1="68.2909" y1="178.583" x2="79.3381" y2="220.484" gradientUnits="userSpaceOnUse">
<stop stop-color="#F25E79"/>
<stop offset="1" stop-color="#C52CF1"/>
</linearGradient>
<linearGradient id="paint19_linear_421_11349" x1="74.8333" y1="162.152" x2="81.9384" y2="219.235" gradientUnits="userSpaceOnUse">
<stop stop-color="#F05C80"/>
<stop offset="1" stop-color="#CC34DF"/>
</linearGradient>
<linearGradient id="paint20_linear_421_11349" x1="40.9284" y1="171.369" x2="67.1888" y2="223.696" gradientUnits="userSpaceOnUse">
<stop stop-color="#FFD83E"/>
<stop offset="1" stop-color="#D038D7"/>
</linearGradient>
<clipPath id="clip0_421_11349">
<rect x="11.8203" y="137.084" width="120.82" height="120.82" rx="60.4098" fill="white"/>
</clipPath>
<clipPath id="clip1_421_11349">
<rect x="25.9453" y="151.21" width="92.5673" height="92.5672" rx="46.2836" fill="white"/>
</clipPath>
</defs>
</svg>
