<svg width="842" height="767" viewBox="0 0 842 767" fill="none" xmlns="http://www.w3.org/2000/svg">
<g opacity="0.5">
<path opacity="0.0344828" d="M225.387 163.04C228.536 159.286 233.316 156.916 239.712 155.957C246.119 154.996 254.063 155.467 263.381 157.329C282.016 161.054 305.871 170.287 333.343 184.263C388.267 212.205 457.387 258.963 527.656 317.927C597.926 376.89 655.976 436.839 693.031 486.078C711.565 510.706 724.801 532.594 731.705 550.299C735.157 559.152 737 566.894 737.166 573.37C737.332 579.835 735.828 584.955 732.679 588.708C729.529 592.461 724.749 594.831 718.353 595.79C711.947 596.751 704.002 596.281 694.684 594.418C676.049 590.694 652.195 581.46 624.723 567.484C569.798 539.543 500.679 492.784 430.409 433.821C360.14 374.858 302.089 314.908 265.034 265.67C246.501 241.042 233.265 219.153 226.361 201.448C222.909 192.595 221.066 184.853 220.9 178.377C220.734 171.912 222.238 166.793 225.387 163.04Z" stroke="url(#paint0_linear_4233_3823)" stroke-width="2.6542"/>
<path opacity="0.0689655" d="M244.903 139.09C248.367 135.625 253.336 133.681 259.791 133.283C266.257 132.884 274.13 134.045 283.25 136.712C301.49 142.047 324.448 153.325 350.598 169.641C402.878 202.264 467.659 254.869 532.522 319.732C597.386 384.595 649.99 449.376 682.613 501.656C698.93 527.806 710.207 550.765 715.542 569.004C718.209 578.124 719.371 585.997 718.972 592.463C718.573 598.918 716.629 603.887 713.165 607.351C709.7 610.816 704.732 612.76 698.277 613.159C691.81 613.557 683.937 612.396 674.817 609.729C656.578 604.394 633.619 593.117 607.469 576.8C555.189 544.177 490.408 491.572 425.545 426.709C360.682 361.846 308.077 297.065 275.455 244.785C259.138 218.635 247.86 195.677 242.525 177.437C239.858 168.317 238.697 160.444 239.096 153.978C239.494 147.523 241.438 142.554 244.903 139.09Z" stroke="url(#paint1_linear_4233_3823)" stroke-width="2.6542"/>
<path opacity="0.103448" d="M266.2 116.92C269.953 113.771 275.073 112.267 281.538 112.433C288.014 112.599 295.756 114.442 304.609 117.894C322.314 124.798 344.203 138.034 368.83 156.568C418.069 193.623 478.018 251.673 536.982 321.943C595.945 392.212 642.703 461.332 670.645 516.256C684.621 543.728 693.854 567.583 697.579 586.218C699.441 595.536 699.912 603.48 698.951 609.887C697.992 616.282 695.622 621.063 691.869 624.212C688.115 627.361 682.996 628.865 676.531 628.699C670.055 628.533 662.313 626.69 653.46 623.238C635.755 616.334 613.866 603.098 589.238 584.564C540 547.51 480.05 489.459 421.087 419.19C362.124 348.92 315.366 279.801 287.424 224.876C273.448 197.404 264.214 173.55 260.49 154.915C258.627 145.597 258.157 137.652 259.118 131.246C260.077 124.85 262.447 120.07 266.2 116.92Z" stroke="url(#paint2_linear_4233_3823)" stroke-width="2.6542"/>
<path opacity="0.137931" d="M289.115 96.6814C293.129 93.8712 298.36 92.8191 304.786 93.5478C311.223 94.2778 318.775 96.7884 327.293 100.999C344.329 109.42 364.981 124.513 387.9 145.123C433.721 186.328 488.383 249.383 540.997 324.524C593.612 399.665 634.168 472.596 657.217 529.747C668.745 558.333 675.864 582.901 677.951 601.79C678.994 611.235 678.77 619.19 677.255 625.489C675.742 631.776 672.964 636.332 668.951 639.142C664.937 641.952 659.706 643.004 653.28 642.276C646.843 641.546 639.291 639.035 630.773 634.824C613.737 626.403 593.085 611.31 570.166 590.701C524.345 549.496 469.683 486.441 417.069 411.3C364.454 336.159 323.898 263.227 300.849 206.076C289.321 177.49 282.202 152.922 280.115 134.033C279.072 124.588 279.296 116.634 280.811 110.335C282.324 104.047 285.102 99.4915 289.115 96.6814Z" stroke="url(#paint3_linear_4233_3823)" stroke-width="2.6542"/>
<path opacity="0.172414" d="M313.475 78.5073C317.718 76.0576 323.02 75.4654 329.358 76.7514C335.707 78.0397 343.012 81.1989 351.131 86.1361C367.368 96.0096 386.626 112.845 407.661 135.374C449.717 180.416 498.675 247.995 544.54 327.436C590.406 406.876 624.451 483.065 642.431 542.008C651.424 571.489 656.375 596.584 656.807 615.583C657.023 625.083 656.107 632.988 654.048 639.131C651.993 645.263 648.829 649.559 644.586 652.009C640.343 654.458 635.04 655.05 628.702 653.764C622.353 652.476 615.049 649.317 606.93 644.38C590.692 634.506 571.435 617.671 550.4 595.142C508.344 550.1 459.385 482.521 413.52 403.08C367.655 323.639 333.609 247.451 315.63 188.508C306.637 159.027 301.685 133.931 301.253 114.933C301.037 105.433 301.953 97.5277 304.012 91.3851C306.067 85.253 309.232 80.957 313.475 78.5073Z" stroke="url(#paint4_linear_4233_3823)" stroke-width="2.6542"/>
<path opacity="0.206897" d="M339.098 62.515C343.538 60.4444 348.872 60.3166 355.074 62.1502C361.287 63.9869 368.288 67.7707 375.946 73.3967C391.26 84.6479 408.977 103.098 427.969 127.374C465.939 175.91 508.822 247.499 547.589 330.635C586.355 413.771 613.631 492.637 626.405 552.922C632.795 583.075 635.54 608.506 634.314 627.47C633.702 636.953 632.1 644.748 629.514 650.688C626.932 656.618 623.405 660.622 618.965 662.692C614.525 664.763 609.19 664.891 602.989 663.057C596.776 661.22 589.775 657.436 582.117 651.811C566.802 640.559 549.085 622.11 530.093 597.833C492.123 549.297 449.241 477.708 410.474 394.572C371.707 311.436 344.431 232.57 331.657 172.285C325.268 142.132 322.523 116.701 323.748 97.7368C324.361 88.2541 325.962 80.4589 328.549 74.5191C331.131 68.5895 334.657 64.5855 339.098 62.515Z" stroke="url(#paint5_linear_4233_3823)" stroke-width="2.6542"/>
<path opacity="0.241379" d="M365.785 48.8058C370.389 47.1301 375.714 47.4677 381.732 49.8348C387.761 52.206 394.406 56.5856 401.544 62.8576C415.82 75.4008 431.862 95.3245 448.665 121.164C482.261 172.824 518.741 247.878 550.114 334.077C581.488 420.275 601.786 501.218 609.258 562.387C612.994 592.982 613.513 618.556 610.639 637.341C609.202 646.734 606.927 654.36 603.833 660.052C600.744 665.734 596.882 669.415 592.278 671.091C587.674 672.767 582.349 672.429 576.331 670.062C570.302 667.691 563.657 663.311 556.519 657.039C542.243 644.496 526.201 624.573 509.398 598.733C475.802 547.073 439.322 472.019 407.949 385.82C376.575 299.622 356.277 218.679 348.806 157.51C345.069 126.915 344.55 101.341 347.424 82.5558C348.861 73.1625 351.136 65.5366 354.23 59.8448C357.319 54.1628 361.181 50.4815 365.785 48.8058Z" stroke="url(#paint6_linear_4233_3823)" stroke-width="2.6542"/>
<path opacity="0.275862" d="M393.336 37.4672C398.069 36.1992 403.344 36.9996 409.133 39.8822C414.933 42.7699 421.17 47.7119 427.735 54.5822C440.863 68.3219 455.107 89.5679 469.595 116.773C498.56 171.165 528.36 249.113 552.101 337.718C575.843 426.322 589.009 508.727 591.121 570.314C592.177 601.119 590.464 626.64 585.965 645.104C583.715 654.336 580.784 661.735 577.205 667.135C573.633 672.526 569.464 675.857 564.732 677.125C560 678.393 554.724 677.593 548.935 674.71C543.136 671.822 536.898 666.88 530.334 660.01C517.205 646.27 502.961 625.024 488.473 597.819C459.508 543.427 429.709 465.479 405.967 376.874C382.226 288.27 369.059 205.865 366.947 144.278C365.891 113.473 367.604 87.9516 372.104 69.4885C374.354 60.2563 377.285 52.8576 380.863 47.4572C384.436 42.066 388.604 38.7353 393.336 37.4672Z" stroke="url(#paint7_linear_4233_3823)" stroke-width="2.6542"/>
<path opacity="0.310345" d="M421.535 28.561C426.36 27.7103 431.546 28.9674 437.062 32.3436C442.587 35.7257 448.37 41.1926 454.311 48.6089C466.192 63.4405 478.53 85.8472 490.592 114.212C514.706 170.921 537.599 251.17 553.528 341.506C569.456 431.843 575.391 515.081 572.127 576.618C570.494 607.398 566.563 632.673 560.472 650.674C557.425 659.675 553.861 666.79 549.825 671.858C545.797 676.917 541.354 679.872 536.529 680.723C531.704 681.573 526.519 680.316 521.003 676.94C515.477 673.558 509.694 668.091 503.753 660.675C491.872 645.843 479.534 623.437 467.472 595.072C443.358 538.362 420.465 458.114 404.537 367.777C388.608 277.441 382.673 194.202 385.938 132.665C387.57 101.886 391.501 76.6106 397.593 58.6099C400.639 49.6089 404.203 42.4938 408.239 37.4259C412.268 32.3666 416.71 29.4118 421.535 28.561Z" stroke="url(#paint8_linear_4233_3823)" stroke-width="2.6542"/>
<path opacity="0.344828" d="M450.175 22.1366C455.056 21.7096 460.112 23.4138 465.312 27.258C470.522 31.1088 475.807 37.0589 481.079 44.9648C491.622 60.7755 501.96 84.1722 511.504 113.48C530.584 172.076 546.395 254.014 554.39 345.395C562.385 436.776 561.042 520.215 552.427 581.233C548.118 611.753 541.999 636.59 534.362 653.991C530.543 662.692 526.372 669.47 521.91 674.167C517.455 678.856 512.772 681.412 507.891 681.839C503.011 682.266 497.954 680.562 492.754 676.718C487.544 672.867 482.259 666.917 476.987 659.011C466.444 643.2 456.106 619.803 446.562 590.495C427.483 531.9 411.671 449.962 403.676 358.581C395.681 267.199 397.024 183.76 405.639 122.742C409.948 92.2222 416.067 67.3857 423.704 49.9844C427.523 41.2831 431.695 34.5058 436.156 29.8088C440.611 25.1199 445.294 22.5636 450.175 22.1366Z" stroke="url(#paint9_linear_4233_3823)" stroke-width="2.6542"/>
<path opacity="0.37931" d="M479.034 18.2214C483.934 18.2214 488.822 20.3599 493.668 24.6427C498.522 28.9329 503.268 35.3209 507.831 43.6562C516.956 60.3256 525.216 84.5344 532.169 114.563C546.069 174.598 554.679 257.602 554.679 349.333C554.679 441.063 546.069 524.067 532.169 584.103C525.216 614.131 516.956 638.34 507.831 655.009C503.268 663.344 498.522 669.732 493.668 674.022C488.822 678.305 483.934 680.444 479.034 680.444C474.135 680.444 469.247 678.305 464.401 674.022C459.546 669.732 454.8 663.344 450.237 655.009C441.112 638.34 432.853 614.131 425.9 584.103C412 524.067 403.39 441.063 403.39 349.333C403.39 257.602 412 174.598 425.9 114.563C432.853 84.5344 441.112 60.3256 450.237 43.6562C454.8 35.3209 459.546 28.9329 464.401 24.6427C469.247 20.3599 474.135 18.2214 479.034 18.2214Z" stroke="url(#paint10_linear_4233_3823)" stroke-width="2.6542"/>
<path opacity="0.413793" d="M507.89 16.8265C512.771 17.2535 517.454 19.8099 521.908 24.4988C526.37 29.1958 530.541 35.9731 534.36 44.6744C541.998 62.0756 548.116 86.9121 552.425 117.432C561.04 178.45 562.383 261.889 554.388 353.271C546.394 444.652 530.582 526.59 511.502 585.185C501.959 614.493 491.621 637.89 481.077 653.701C475.805 661.607 470.521 667.557 465.311 671.407C460.11 675.252 455.054 676.956 450.173 676.529C445.293 676.102 440.609 673.546 436.155 668.857C431.693 664.16 427.522 657.382 423.703 648.681C416.065 631.28 409.947 606.443 405.638 575.923C397.023 514.905 395.68 431.466 403.675 340.085C411.67 248.704 427.481 166.765 446.561 108.17C456.104 78.8621 466.443 55.4654 476.986 39.6548C482.258 31.7488 487.542 25.7988 492.752 21.948C497.953 18.1038 503.009 16.3995 507.89 16.8265Z" stroke="url(#paint11_linear_4233_3823)" stroke-width="2.6542"/>
<path opacity="0.448276" d="M536.527 17.9424C541.351 18.7932 545.794 21.748 549.823 26.8073C553.858 31.8753 557.423 38.9903 560.469 47.9914C566.561 65.992 570.491 91.2673 572.124 122.047C575.388 183.584 569.454 266.822 553.525 357.159C537.596 447.496 514.704 527.744 490.589 584.453C478.528 612.818 466.19 635.225 454.309 650.056C448.368 657.473 442.585 662.939 437.059 666.322C431.543 669.698 426.358 670.955 421.533 670.104C416.708 669.253 412.265 666.299 408.237 661.239C404.201 656.171 400.636 649.056 397.59 640.055C391.498 622.055 387.568 596.779 385.935 566C382.671 504.463 388.605 421.224 404.534 330.888C420.463 240.551 443.356 160.303 467.47 103.593C479.531 75.2286 491.869 52.8219 503.751 37.9903C509.691 30.574 515.475 25.1072 521 21.7251C526.516 18.3488 531.702 17.0917 536.527 17.9424Z" stroke="url(#paint12_linear_4233_3823)" stroke-width="2.6542"/>
<path opacity="0.482759" d="M564.729 21.5414C569.461 22.8095 573.63 26.1402 577.202 31.5314C580.78 36.9318 583.711 44.3305 585.961 53.5627C590.461 72.0259 592.174 97.5475 591.118 128.352C589.006 189.939 575.84 272.344 552.098 360.949C528.357 449.553 498.557 527.501 469.592 581.893C455.104 609.098 440.86 630.344 427.732 644.084C421.167 650.954 414.929 655.896 409.13 658.784C403.341 661.667 398.066 662.467 393.333 661.199C388.601 659.931 384.432 656.6 380.86 651.209C377.281 645.809 374.351 638.41 372.101 629.178C367.601 610.715 365.888 585.193 366.944 554.388C369.056 492.801 382.222 410.397 405.964 321.792C429.705 233.187 459.505 155.24 488.47 100.848C502.958 73.6421 517.202 52.3961 530.33 38.6564C536.895 31.7861 543.133 26.8441 548.932 23.9564C554.721 21.0738 559.996 20.2734 564.729 21.5414Z" stroke="url(#paint13_linear_4233_3823)" stroke-width="2.6542"/>
<path opacity="0.517241" d="M592.281 27.5729C596.885 29.2486 600.747 32.93 603.836 38.6119C606.93 44.3037 609.205 51.9297 610.642 61.3229C613.515 80.1079 612.997 105.682 609.26 136.277C601.789 197.446 581.491 278.389 550.117 364.588C518.743 450.786 482.263 525.84 448.668 577.5C431.864 603.34 415.823 623.263 401.547 635.806C394.408 642.079 387.764 646.458 381.735 648.829C375.716 651.196 370.391 651.534 365.788 649.858C361.184 648.183 357.322 644.501 354.233 638.819C351.138 633.128 348.864 625.502 347.427 616.108C344.553 597.323 345.071 571.749 348.808 541.154C356.279 479.985 376.578 399.042 407.952 312.844C439.325 226.645 475.805 151.591 509.4 99.931C526.204 74.0916 542.246 54.1679 556.522 41.6247C563.66 35.3527 570.305 30.9731 576.334 28.6019C582.352 26.2348 587.677 25.8972 592.281 27.5729Z" stroke="url(#paint14_linear_4233_3823)" stroke-width="2.6542"/>
<path opacity="0.551724" d="M618.966 35.9734C623.406 38.044 626.932 42.0479 629.514 47.9775C632.101 53.9173 633.702 61.7125 634.315 71.1952C635.54 90.1592 632.795 115.591 626.406 145.744C613.632 206.029 586.356 284.895 547.589 368.031C508.822 451.167 465.94 522.756 427.97 571.291C408.978 595.568 391.261 614.018 375.946 625.269C368.288 630.895 361.287 634.679 355.075 636.515C348.873 638.349 343.539 638.221 339.098 636.151C334.658 634.08 331.131 630.076 328.549 624.147C325.963 618.207 324.361 610.412 323.749 600.929C322.523 581.965 325.268 556.534 331.658 526.38C344.432 466.095 371.708 387.229 410.475 304.093C449.241 220.957 492.124 149.369 530.094 100.833C549.086 76.5561 566.803 58.1063 582.118 46.8551C589.776 41.2291 596.777 37.4453 602.989 35.6086C609.191 33.775 614.525 33.9028 618.966 35.9734Z" stroke="url(#paint15_linear_4233_3823)" stroke-width="2.6542"/>
<path opacity="0.586207" d="M644.587 46.6568C648.829 49.1065 651.994 53.4026 654.049 59.5347C656.108 65.6773 657.024 73.5824 656.808 83.0824C656.376 102.081 651.425 127.176 642.432 156.658C624.452 215.6 590.406 291.789 544.541 371.23C498.676 450.671 449.717 518.25 407.662 563.291C386.626 585.82 367.369 602.656 351.131 612.529C343.012 617.467 335.708 620.626 329.359 621.914C323.021 623.2 317.718 622.608 313.475 620.158C309.232 617.708 306.068 613.412 304.013 607.28C301.954 601.138 301.038 593.233 301.254 583.733C301.686 564.734 306.637 539.639 315.63 510.157C333.61 451.215 367.656 375.026 413.521 295.585C459.386 216.144 508.344 148.565 550.4 103.524C571.436 80.9947 590.693 64.1592 606.93 54.2857C615.05 49.3485 622.354 46.1893 628.703 44.901C635.041 43.6149 640.344 44.2072 644.587 46.6568Z" stroke="url(#paint16_linear_4233_3823)" stroke-width="2.6542"/>
<path opacity="0.62069" d="M668.949 59.5235C672.962 62.3337 675.74 66.8892 677.253 73.177C678.768 79.4757 678.992 87.4306 677.949 96.8756C675.862 115.764 668.743 140.333 657.215 168.918C634.166 226.069 593.61 299.001 540.996 374.142C488.381 449.283 433.719 512.338 387.898 553.543C364.979 574.153 344.327 589.246 327.291 597.666C318.773 601.877 311.221 604.388 304.784 605.118C298.358 605.847 293.127 604.794 289.114 601.984C285.1 599.174 282.322 594.619 280.809 588.331C279.294 582.032 279.07 574.077 280.113 564.632C282.2 545.743 289.319 521.175 300.847 492.59C323.896 435.439 364.452 362.507 417.067 287.366C469.681 212.225 524.343 149.17 570.164 107.965C593.083 87.3552 613.735 72.2622 630.771 63.8413C639.29 59.6306 646.841 57.12 653.278 56.39C659.704 55.6612 664.935 56.7133 668.949 59.5235Z" stroke="url(#paint17_linear_4233_3823)" stroke-width="2.6542"/>
<path opacity="0.655172" d="M691.868 74.453C695.621 77.6022 697.991 82.3825 698.95 88.7783C699.911 95.1851 699.441 103.129 697.578 112.447C693.854 131.082 684.62 154.937 670.644 182.409C642.703 237.333 595.944 306.453 536.981 376.722C478.018 446.992 418.068 505.042 368.83 542.097C344.202 560.631 322.313 573.867 304.608 580.771C295.755 584.223 288.013 586.066 281.537 586.232C275.072 586.398 269.953 584.894 266.2 581.745C262.446 578.595 260.076 573.815 259.117 567.419C258.156 561.013 258.627 553.068 260.489 543.75C264.214 525.115 273.448 501.261 287.423 473.789C315.365 418.864 362.124 349.745 421.087 279.475C480.05 209.206 539.999 151.155 589.238 114.1C613.866 95.5666 635.754 82.3309 653.459 75.4269C662.312 71.9747 670.054 70.1318 676.53 69.9656C682.996 69.7997 688.115 71.3037 691.868 74.453Z" stroke="url(#paint18_linear_4233_3823)" stroke-width="2.6542"/>
<path opacity="0.689655" d="M713.163 91.3141C716.627 94.7785 718.572 99.7471 718.97 106.202C719.369 112.668 718.207 120.541 715.54 129.662C710.205 147.901 698.928 170.86 682.611 197.009C649.989 249.29 597.384 314.071 532.521 378.934C467.657 443.797 402.876 496.402 350.596 529.024C324.446 545.341 301.488 556.619 283.248 561.953C274.128 564.621 266.255 565.782 259.789 565.383C253.334 564.985 248.365 563.04 244.901 559.576C241.436 556.112 239.492 551.143 239.094 544.688C238.695 538.222 239.856 530.349 242.524 521.228C247.858 502.989 259.136 480.03 275.453 453.881C308.075 401.6 360.68 336.819 425.543 271.956C490.406 207.093 555.187 154.488 607.468 121.866C633.617 105.549 656.576 94.2715 674.815 88.9368C683.936 86.2693 691.808 85.1082 698.275 85.5071C704.73 85.9053 709.698 87.8497 713.163 91.3141Z" stroke="url(#paint19_linear_4233_3823)" stroke-width="2.6542"/>
<path opacity="0.724138" d="M732.679 109.957C735.829 113.71 737.333 118.829 737.167 125.294C737 131.771 735.158 139.512 731.705 148.366C724.801 166.071 711.566 187.959 693.032 212.587C655.977 261.825 597.926 321.775 527.657 380.738C457.387 439.701 388.268 486.46 333.343 514.401C305.871 528.377 282.017 537.611 263.382 541.336C254.064 543.198 246.12 543.669 239.713 542.708C233.317 541.748 228.537 539.378 225.388 535.625C222.238 531.872 220.734 526.753 220.9 520.288C221.066 513.811 222.909 506.069 226.362 497.216C233.266 479.511 246.501 457.623 265.035 432.995C302.09 383.757 360.141 323.807 430.41 264.844C500.68 205.881 569.799 159.122 624.724 131.18C652.196 117.205 676.05 107.971 694.685 104.246C704.003 102.384 711.947 101.913 718.354 102.874C724.75 103.834 729.53 106.204 732.679 109.957Z" stroke="url(#paint20_linear_4233_3823)" stroke-width="2.6542"/>
<path opacity="0.758621" d="M750.263 130.219C753.074 134.232 754.126 139.463 753.397 145.889C752.667 152.326 750.156 159.878 745.946 168.396C737.525 185.432 722.432 206.084 701.822 229.003C660.617 274.824 597.562 329.486 522.421 382.101C447.28 434.715 374.348 475.272 317.197 498.32C288.612 509.848 264.043 516.968 245.155 519.054C235.71 520.097 227.755 519.874 221.456 518.358C215.168 516.845 210.613 514.067 207.803 510.054C204.993 506.041 203.94 500.81 204.669 494.384C205.399 487.946 207.91 480.395 212.12 471.876C220.541 454.84 235.634 434.189 256.244 411.27C297.449 365.448 360.504 310.786 435.645 258.172C510.786 205.557 583.718 165.001 640.869 141.953C669.454 130.424 694.023 123.305 712.911 121.219C722.356 120.175 730.311 120.399 736.61 121.915C742.898 123.428 747.453 126.205 750.263 130.219Z" stroke="url(#paint21_linear_4233_3823)" stroke-width="2.6542"/>
<path opacity="0.793103" d="M765.781 151.927C768.231 156.17 768.823 161.472 767.537 167.81C766.249 174.16 763.089 181.464 758.152 189.583C748.279 205.82 731.443 225.078 708.914 246.113C663.872 288.169 596.293 337.127 516.853 382.992C437.412 428.858 361.223 462.903 302.281 480.883C272.799 489.876 247.704 494.827 228.705 495.259C219.205 495.475 211.3 494.559 205.157 492.5C199.025 490.445 194.729 487.281 192.28 483.038C189.83 478.795 189.238 473.492 190.524 467.154C191.812 460.805 194.971 453.501 199.908 445.382C209.782 429.145 226.618 409.887 249.146 388.852C294.188 346.796 361.767 297.837 441.208 251.972C520.649 206.107 596.838 172.061 655.78 154.082C685.261 145.089 710.357 140.138 729.355 139.705C738.855 139.489 746.761 140.405 752.903 142.464C759.035 144.52 763.331 147.684 765.781 151.927Z" stroke="url(#paint22_linear_4233_3823)" stroke-width="2.6542"/>
<path opacity="0.827586" d="M779.121 174.894C781.191 179.335 781.319 184.669 779.485 190.871C777.649 197.083 773.865 204.084 768.239 211.742C756.988 227.057 738.538 244.774 714.261 263.766C665.725 301.736 594.137 344.618 511.001 383.385C427.865 422.152 348.999 449.428 288.714 462.202C258.56 468.591 233.129 471.336 214.165 470.111C204.682 469.498 196.887 467.897 190.947 465.31C185.018 462.728 181.014 459.202 178.943 454.761C176.873 450.321 176.745 444.987 178.579 438.785C180.415 432.573 184.199 425.572 189.825 417.914C201.076 402.599 219.526 384.882 243.803 365.89C292.338 327.92 363.927 285.037 447.063 246.271C530.199 207.504 609.065 180.228 669.35 167.454C699.503 161.064 724.935 158.319 743.899 159.545C753.381 160.157 761.177 161.759 767.116 164.345C773.046 166.927 777.05 170.454 779.121 174.894Z" stroke="url(#paint23_linear_4233_3823)" stroke-width="2.6542"/>
<path opacity="0.862069" d="M790.175 198.927C791.85 203.531 791.513 208.856 789.146 214.875C786.775 220.903 782.395 227.548 776.123 234.687C763.58 248.963 743.656 265.004 717.817 281.808C666.156 315.403 591.102 351.883 504.904 383.257C418.706 414.63 337.762 434.929 276.593 442.4C245.998 446.137 220.424 446.655 201.639 443.781C192.246 442.345 184.62 440.07 178.928 436.975C173.246 433.887 169.565 430.024 167.889 425.421C166.214 420.817 166.551 415.492 168.918 409.473C171.29 403.444 175.669 396.8 181.941 389.661C194.484 375.385 214.408 359.344 240.247 342.54C291.908 308.945 366.962 272.465 453.16 241.091C539.358 209.718 620.302 189.419 681.471 181.948C712.066 178.211 737.64 177.693 756.425 180.566C765.818 182.003 773.444 184.278 779.136 187.372C784.818 190.461 788.499 194.323 790.175 198.927Z" stroke="url(#paint24_linear_4233_3823)" stroke-width="2.6542"/>
<path opacity="0.896552" d="M798.861 223.822C800.129 228.554 799.329 233.83 796.446 239.619C793.559 245.418 788.617 251.656 781.746 258.22C768.007 271.349 746.761 285.593 719.555 300.081C665.163 329.046 587.215 358.845 498.611 382.587C410.006 406.328 327.602 419.495 266.014 421.607C235.21 422.663 209.688 420.95 191.225 416.45C181.993 414.2 174.594 411.269 169.194 407.691C163.802 404.118 160.472 399.95 159.204 395.218C157.936 390.485 158.736 385.21 161.619 379.421C164.506 373.621 169.448 367.384 176.319 360.819C190.058 347.691 211.304 333.447 238.51 318.959C292.902 289.994 370.849 260.194 459.454 236.453C548.059 212.711 630.463 199.545 692.051 197.433C722.855 196.377 748.377 198.09 766.84 202.589C776.072 204.839 783.471 207.77 788.871 211.349C794.262 214.921 797.593 219.089 798.861 223.822Z" stroke="url(#paint25_linear_4233_3823)" stroke-width="2.6542"/>
<path opacity="0.931035" d="M805.112 249.368C805.963 254.193 804.706 259.379 801.329 264.895C797.947 270.42 792.48 276.204 785.064 282.144C770.232 294.026 747.826 306.364 719.461 318.425C662.752 342.539 582.503 365.432 492.167 381.361C401.83 397.29 318.591 403.224 257.054 399.96C226.275 398.327 201 394.397 182.999 388.305C173.998 385.259 166.883 381.694 161.815 377.658C156.756 373.63 153.801 369.187 152.95 364.362C152.1 359.537 153.357 354.352 156.733 348.836C160.115 343.31 165.582 337.527 172.998 331.586C187.83 319.705 210.236 307.367 238.601 295.306C295.311 271.191 375.559 248.299 465.896 232.37C556.232 216.441 639.471 210.507 701.008 213.771C731.787 215.404 757.062 219.334 775.063 225.426C784.064 228.472 791.179 232.037 796.247 236.072C801.306 240.101 804.261 244.544 805.112 249.368Z" stroke="url(#paint26_linear_4233_3823)" stroke-width="2.6542"/>
<path opacity="0.965517" d="M808.885 275.354C809.312 280.234 807.608 285.291 803.764 290.491C799.913 295.701 793.963 300.986 786.057 306.258C770.246 316.801 746.85 327.139 717.542 336.683C658.946 355.763 577.008 371.574 485.627 379.569C394.246 387.564 310.807 386.221 249.788 377.606C219.268 373.297 194.432 367.178 177.031 359.541C168.329 355.722 161.552 351.55 156.855 347.089C152.166 342.634 149.61 337.951 149.183 333.07C148.756 328.19 150.46 323.133 154.304 317.933C158.155 312.723 164.105 307.438 172.011 302.166C187.822 291.623 211.218 281.285 240.527 271.741C299.122 252.662 381.06 236.85 472.441 228.855C563.822 220.86 647.261 222.203 708.28 230.818C738.8 235.127 763.636 241.246 781.037 248.883C789.739 252.702 796.516 256.874 801.213 261.335C805.902 265.79 808.458 270.473 808.885 275.354Z" stroke="url(#paint27_linear_4233_3823)" stroke-width="2.6542"/>
<path d="M810.147 301.557C810.147 306.457 808.009 311.345 803.726 316.191C799.436 321.045 793.048 325.791 784.712 330.354C768.043 339.479 743.834 347.739 713.806 354.692C653.771 368.592 570.766 377.202 479.036 377.202C387.306 377.202 304.301 368.592 244.266 354.692C214.238 347.739 190.029 339.479 173.36 330.354C165.024 325.791 158.636 321.045 154.346 316.191C150.063 311.345 147.925 306.457 147.925 301.557C147.925 296.658 150.063 291.77 154.346 286.924C158.636 282.069 165.024 277.323 173.36 272.761C190.029 263.635 214.238 255.376 244.266 248.423C304.301 234.523 387.306 225.913 479.036 225.913C570.766 225.913 653.771 234.523 713.806 248.423C743.834 255.376 768.043 263.635 784.712 272.761C793.048 277.323 799.436 282.069 803.726 286.924C808.009 291.77 810.147 296.658 810.147 301.557Z" stroke="url(#paint28_linear_4233_3823)" stroke-width="2.6542"/>
</g>
<g opacity="0.2" filter="url(#filter0_f_4233_3823)">
<rect x="134" y="166" width="574" height="408" rx="204" fill="url(#paint29_linear_4233_3823)"/>
</g>
<path d="M77 374.5H579C591.979 374.5 602.5 385.021 602.5 398V433.5H53.5V398C53.5 385.021 64.0213 374.5 77 374.5Z" fill="#1E1F23"/>
<path d="M77 374.5H579C591.979 374.5 602.5 385.021 602.5 398V433.5H53.5V398C53.5 385.021 64.0213 374.5 77 374.5Z" stroke="url(#paint30_linear_4233_3823)"/>
<circle cx="83" cy="404" r="6" fill="#FF5C62"/>
<circle cx="107" cy="404" r="6" fill="#EBB21F"/>
<circle cx="131" cy="404" r="6" fill="#1BC818"/>
<mask id="path-36-inside-1_4233_3823" fill="white">
<path d="M53 434H603V670C603 683.255 592.255 694 579 694H77C63.7452 694 53 683.255 53 670V434Z"/>
</mask>
<path d="M53 434H603V670C603 683.255 592.255 694 579 694H77C63.7452 694 53 683.255 53 670V434Z" fill="#1E1F23"/>
<path d="M53 434H603H53ZM604 670C604 683.807 592.807 695 579 695H77C63.1929 695 52 683.807 52 670H54C54 682.703 64.2975 693 77 693H579C591.703 693 602 682.703 602 670H604ZM77 695C63.1929 695 52 683.807 52 670V434H54V670C54 682.703 64.2975 693 77 693V695ZM604 434V670C604 683.807 592.807 695 579 695V693C591.703 693 602 682.703 602 670V434H604Z" fill="url(#paint31_linear_4233_3823)" mask="url(#path-36-inside-1_4233_3823)"/>
<path d="M88.69 475.782C89.134 475.782 89.512 475.878 89.824 476.07C90.136 476.25 90.484 476.508 90.868 476.844C91.144 477.096 91.372 477.282 91.552 477.402C91.744 477.522 91.948 477.582 92.164 477.582C92.8 477.582 93.394 477.072 93.946 476.052L95.026 476.628C94.666 477.3 94.264 477.846 93.82 478.266C93.388 478.686 92.818 478.896 92.11 478.896C91.702 478.896 91.348 478.812 91.048 478.644C90.76 478.464 90.418 478.206 90.022 477.87C89.746 477.606 89.506 477.414 89.302 477.294C89.098 477.162 88.876 477.096 88.636 477.096C88.276 477.096 87.952 477.234 87.664 477.51C87.388 477.774 87.118 478.146 86.854 478.626L85.774 478.086C86.134 477.39 86.53 476.832 86.962 476.412C87.406 475.992 87.982 475.782 88.69 475.782ZM96.747 484.314L104.433 468.438L105.639 469.014L97.971 484.854L96.747 484.314ZM114.632 473.316C115.172 473.316 115.61 473.508 115.946 473.892C116.294 474.264 116.468 474.948 116.468 475.944V483H115.082V476.196C115.082 475.536 115.04 475.092 114.956 474.864C114.872 474.624 114.668 474.504 114.344 474.504C113.732 474.504 113.18 474.882 112.688 475.638V483H111.284V476.196C111.284 475.536 111.242 475.092 111.158 474.864C111.074 474.624 110.87 474.504 110.546 474.504C109.934 474.504 109.382 474.882 108.89 475.638V483H107.504V473.514H108.674L108.782 474.63C109.07 474.21 109.37 473.886 109.682 473.658C110.006 473.43 110.39 473.316 110.834 473.316C111.722 473.316 112.292 473.736 112.544 474.576C112.832 474.168 113.138 473.856 113.462 473.64C113.786 473.424 114.176 473.316 114.632 473.316ZM123.751 483.054C123.379 484.146 122.869 485.016 122.221 485.664C121.573 486.312 120.667 486.696 119.503 486.816L119.287 485.61C119.923 485.502 120.427 485.334 120.799 485.106C121.183 484.89 121.483 484.614 121.699 484.278C121.915 483.954 122.113 483.528 122.293 483H121.789L118.495 473.514H120.097L122.815 481.848L125.497 473.514H127.063L123.751 483.054ZM130.422 476.718H136.722V478.014H130.422V476.718ZM145.067 481.902C145.895 481.902 146.717 481.626 147.533 481.074L148.253 482.064C147.857 482.412 147.365 482.688 146.777 482.892C146.189 483.096 145.619 483.198 145.067 483.198C143.663 483.198 142.565 482.76 141.773 481.884C140.993 480.996 140.603 479.802 140.603 478.302C140.603 477.354 140.777 476.502 141.125 475.746C141.485 474.99 142.001 474.396 142.673 473.964C143.345 473.532 144.143 473.316 145.067 473.316C146.291 473.316 147.347 473.688 148.235 474.432L147.497 475.422C146.669 474.87 145.853 474.594 145.049 474.594C144.197 474.594 143.513 474.912 142.997 475.548C142.493 476.172 142.241 477.09 142.241 478.302C142.241 479.514 142.493 480.42 142.997 481.02C143.513 481.608 144.203 481.902 145.067 481.902ZM155.176 473.316C156.484 473.316 157.486 473.76 158.182 474.648C158.89 475.524 159.244 476.724 159.244 478.248C159.244 479.736 158.884 480.936 158.164 481.848C157.456 482.748 156.454 483.198 155.158 483.198C153.85 483.198 152.842 482.76 152.134 481.884C151.426 480.996 151.072 479.79 151.072 478.266C151.072 476.766 151.426 475.566 152.134 474.666C152.854 473.766 153.868 473.316 155.176 473.316ZM155.176 474.558C154.348 474.558 153.73 474.864 153.322 475.476C152.914 476.088 152.71 477.018 152.71 478.266C152.71 479.514 152.908 480.444 153.304 481.056C153.712 481.656 154.33 481.956 155.158 481.956C155.986 481.956 156.598 481.656 156.994 481.056C157.402 480.444 157.606 479.508 157.606 478.248C157.606 477 157.402 476.076 156.994 475.476C156.598 474.864 155.992 474.558 155.176 474.558ZM165.969 473.316C167.277 473.316 168.279 473.76 168.975 474.648C169.683 475.524 170.037 476.724 170.037 478.248C170.037 479.736 169.677 480.936 168.957 481.848C168.249 482.748 167.247 483.198 165.951 483.198C164.643 483.198 163.635 482.76 162.927 481.884C162.219 480.996 161.865 479.79 161.865 478.266C161.865 476.766 162.219 475.566 162.927 474.666C163.647 473.766 164.661 473.316 165.969 473.316ZM165.969 474.558C165.141 474.558 164.523 474.864 164.115 475.476C163.707 476.088 163.503 477.018 163.503 478.266C163.503 479.514 163.701 480.444 164.097 481.056C164.505 481.656 165.123 481.956 165.951 481.956C166.779 481.956 167.391 481.656 167.787 481.056C168.195 480.444 168.399 479.508 168.399 478.248C168.399 477 168.195 476.076 167.787 475.476C167.391 474.864 166.785 474.558 165.969 474.558ZM176.852 480.66C176.852 481.512 177.374 481.938 178.418 481.938C178.91 481.938 179.438 481.83 180.002 481.614L180.398 482.712C179.798 483.036 179.048 483.198 178.148 483.198C177.296 483.198 176.612 482.964 176.096 482.496C175.592 482.028 175.34 481.392 175.34 480.588V470.904H172.424V469.698H176.852V480.66ZM184.387 476.718H190.687V478.014H184.387V476.718ZM199.626 483L198.384 476.052L197.052 483H194.964L193.254 473.514H194.784L196.008 482.064L197.52 474.72H199.302L200.724 482.064L201.948 473.514H203.406L201.768 483H199.626ZM209.141 473.316C210.449 473.316 211.451 473.76 212.147 474.648C212.855 475.524 213.209 476.724 213.209 478.248C213.209 479.736 212.849 480.936 212.129 481.848C211.421 482.748 210.419 483.198 209.123 483.198C207.815 483.198 206.807 482.76 206.099 481.884C205.391 480.996 205.037 479.79 205.037 478.266C205.037 476.766 205.391 475.566 206.099 474.666C206.819 473.766 207.833 473.316 209.141 473.316ZM209.141 474.558C208.313 474.558 207.695 474.864 207.287 475.476C206.879 476.088 206.675 477.018 206.675 478.266C206.675 479.514 206.873 480.444 207.269 481.056C207.677 481.656 208.295 481.956 209.123 481.956C209.951 481.956 210.563 481.656 210.959 481.056C211.367 480.444 211.571 479.508 211.571 478.248C211.571 477 211.367 476.076 210.959 475.476C210.563 474.864 209.957 474.558 209.141 474.558ZM222.724 473.316C223.108 473.316 223.552 473.382 224.056 473.514L223.84 476.736H222.616V474.702H222.526C221.062 474.702 220.024 475.746 219.412 477.834V481.83H221.338V483H216.406V481.83H217.9V474.684H216.406V473.514H219.034L219.322 475.764C219.706 474.948 220.162 474.336 220.69 473.928C221.23 473.52 221.908 473.316 222.724 473.316ZM228.729 483H227.217V469.698L228.729 469.518V483ZM230.799 477.798L235.551 483H233.553L228.891 477.816L233.103 473.514H235.047L230.799 477.798ZM241.142 481.956C241.862 481.956 242.432 481.818 242.852 481.542C243.272 481.266 243.482 480.9 243.482 480.444C243.482 480.132 243.428 479.88 243.32 479.688C243.212 479.484 242.996 479.304 242.672 479.148C242.348 478.98 241.856 478.812 241.196 478.644C240.092 478.368 239.276 478.038 238.748 477.654C238.22 477.258 237.956 476.676 237.956 475.908C237.956 475.116 238.286 474.486 238.946 474.018C239.606 473.55 240.476 473.316 241.556 473.316C242.876 473.316 244.028 473.664 245.012 474.36L244.328 475.404C243.932 475.128 243.518 474.918 243.086 474.774C242.654 474.618 242.156 474.54 241.592 474.54C240.224 474.54 239.54 474.954 239.54 475.782C239.54 476.07 239.612 476.304 239.756 476.484C239.912 476.664 240.158 476.826 240.494 476.97C240.842 477.102 241.358 477.264 242.042 477.456C243.074 477.732 243.842 478.086 244.346 478.518C244.862 478.938 245.12 479.556 245.12 480.372C245.12 481.32 244.736 482.028 243.968 482.496C243.2 482.964 242.258 483.198 241.142 483.198C239.654 483.198 238.418 482.772 237.434 481.92L238.28 480.93C238.664 481.242 239.102 481.494 239.594 481.686C240.086 481.866 240.602 481.956 241.142 481.956ZM252.943 473.316C255.235 473.316 256.381 474.96 256.381 478.248C256.381 479.748 256.069 480.948 255.445 481.848C254.821 482.748 253.915 483.198 252.727 483.198C251.695 483.198 250.855 482.838 250.207 482.118V486.636L248.695 486.816V473.514H249.991L250.117 474.846C250.465 474.354 250.879 473.976 251.359 473.712C251.851 473.448 252.379 473.316 252.943 473.316ZM252.583 474.54C252.103 474.54 251.659 474.684 251.251 474.972C250.855 475.26 250.507 475.62 250.207 476.052V480.75C250.459 481.122 250.771 481.416 251.143 481.632C251.527 481.836 251.941 481.938 252.385 481.938C253.177 481.938 253.765 481.638 254.149 481.038C254.545 480.426 254.743 479.496 254.743 478.248C254.743 477 254.569 476.07 254.221 475.458C253.873 474.846 253.327 474.54 252.583 474.54ZM266.292 480.93C266.292 481.302 266.352 481.578 266.472 481.758C266.592 481.926 266.79 482.052 267.066 482.136L266.688 483.216C265.764 483.096 265.188 482.646 264.96 481.866C264.624 482.298 264.198 482.628 263.682 482.856C263.178 483.084 262.614 483.198 261.99 483.198C261.042 483.198 260.292 482.934 259.74 482.406C259.2 481.878 258.93 481.17 258.93 480.282C258.93 479.31 259.308 478.56 260.063 478.032C260.832 477.504 261.93 477.24 263.358 477.24H264.762V476.466C264.762 475.794 264.57 475.314 264.186 475.026C263.802 474.726 263.244 474.576 262.512 474.576C261.792 474.576 260.97 474.738 260.046 475.062L259.632 473.91C260.748 473.514 261.786 473.316 262.746 473.316C263.898 473.316 264.774 473.586 265.374 474.126C265.986 474.666 266.292 475.416 266.292 476.376V480.93ZM262.368 482.064C262.836 482.064 263.28 481.944 263.7 481.704C264.132 481.464 264.486 481.134 264.762 480.714V478.284H263.394C262.386 478.284 261.66 478.452 261.216 478.788C260.772 479.124 260.55 479.616 260.55 480.264C260.55 481.464 261.156 482.064 262.368 482.064ZM274.582 481.902C275.41 481.902 276.232 481.626 277.048 481.074L277.768 482.064C277.372 482.412 276.88 482.688 276.292 482.892C275.704 483.096 275.134 483.198 274.582 483.198C273.178 483.198 272.08 482.76 271.288 481.884C270.508 480.996 270.118 479.802 270.118 478.302C270.118 477.354 270.292 476.502 270.64 475.746C271 474.99 271.516 474.396 272.188 473.964C272.86 473.532 273.658 473.316 274.582 473.316C275.806 473.316 276.862 473.688 277.75 474.432L277.012 475.422C276.184 474.87 275.368 474.594 274.564 474.594C273.712 474.594 273.028 474.912 272.512 475.548C272.008 476.172 271.756 477.09 271.756 478.302C271.756 479.514 272.008 480.42 272.512 481.02C273.028 481.608 273.718 481.902 274.582 481.902ZM282.279 478.788C282.315 479.832 282.585 480.618 283.089 481.146C283.605 481.674 284.253 481.938 285.033 481.938C285.501 481.938 285.927 481.872 286.311 481.74C286.707 481.596 287.127 481.38 287.571 481.092L288.273 482.1C287.829 482.448 287.319 482.718 286.743 482.91C286.179 483.102 285.609 483.198 285.033 483.198C283.665 483.198 282.597 482.754 281.829 481.866C281.073 480.966 280.695 479.766 280.695 478.266C280.695 477.318 280.863 476.472 281.199 475.728C281.535 474.972 282.015 474.384 282.639 473.964C283.263 473.532 283.989 473.316 284.817 473.316C286.017 473.316 286.959 473.736 287.643 474.576C288.339 475.404 288.687 476.538 288.687 477.978C288.687 478.254 288.675 478.524 288.651 478.788H282.279ZM284.835 474.558C284.103 474.558 283.509 474.822 283.053 475.35C282.597 475.866 282.339 476.628 282.279 477.636H287.211C287.199 476.64 286.983 475.878 286.563 475.35C286.143 474.822 285.567 474.558 284.835 474.558Z" fill="#44A5FF"/>
<path d="M328.493 473.316C330.785 473.316 331.931 474.96 331.931 478.248C331.931 479.748 331.619 480.948 330.995 481.848C330.371 482.748 329.465 483.198 328.277 483.198C327.245 483.198 326.405 482.838 325.757 482.118V486.636L324.245 486.816V473.514H325.541L325.667 474.846C326.015 474.354 326.429 473.976 326.909 473.712C327.401 473.448 327.929 473.316 328.493 473.316ZM328.133 474.54C327.653 474.54 327.209 474.684 326.801 474.972C326.405 475.26 326.057 475.62 325.757 476.052V480.75C326.009 481.122 326.321 481.416 326.693 481.632C327.077 481.836 327.491 481.938 327.935 481.938C328.727 481.938 329.315 481.638 329.699 481.038C330.095 480.426 330.293 479.496 330.293 478.248C330.293 477 330.119 476.07 329.771 475.458C329.423 474.846 328.877 474.54 328.133 474.54ZM336.244 478.788C336.28 479.832 336.55 480.618 337.054 481.146C337.57 481.674 338.218 481.938 338.998 481.938C339.466 481.938 339.892 481.872 340.276 481.74C340.672 481.596 341.092 481.38 341.536 481.092L342.238 482.1C341.794 482.448 341.284 482.718 340.708 482.91C340.144 483.102 339.574 483.198 338.998 483.198C337.63 483.198 336.562 482.754 335.794 481.866C335.038 480.966 334.66 479.766 334.66 478.266C334.66 477.318 334.828 476.472 335.164 475.728C335.5 474.972 335.98 474.384 336.604 473.964C337.228 473.532 337.954 473.316 338.782 473.316C339.982 473.316 340.924 473.736 341.608 474.576C342.304 475.404 342.652 476.538 342.652 477.978C342.652 478.254 342.64 478.524 342.616 478.788H336.244ZM338.8 474.558C338.068 474.558 337.474 474.822 337.018 475.35C336.562 475.866 336.304 476.628 336.244 477.636H341.176C341.164 476.64 340.948 475.878 340.528 475.35C340.108 474.822 339.532 474.558 338.8 474.558ZM352.239 473.316C352.623 473.316 353.067 473.382 353.571 473.514L353.355 476.736H352.131V474.702H352.041C350.577 474.702 349.539 475.746 348.927 477.834V481.83H350.853V483H345.921V481.83H347.415V474.684H345.921V473.514H348.549L348.837 475.764C349.221 474.948 349.677 474.336 350.205 473.928C350.745 473.52 351.423 473.316 352.239 473.316ZM362.87 473.316C363.41 473.316 363.848 473.508 364.184 473.892C364.532 474.264 364.706 474.948 364.706 475.944V483H363.32V476.196C363.32 475.536 363.278 475.092 363.194 474.864C363.11 474.624 362.906 474.504 362.582 474.504C361.97 474.504 361.418 474.882 360.926 475.638V483H359.522V476.196C359.522 475.536 359.48 475.092 359.396 474.864C359.312 474.624 359.108 474.504 358.784 474.504C358.172 474.504 357.62 474.882 357.128 475.638V483H355.742V473.514H356.912L357.02 474.63C357.308 474.21 357.608 473.886 357.92 473.658C358.244 473.43 358.628 473.316 359.072 473.316C359.96 473.316 360.53 473.736 360.782 474.576C361.07 474.168 361.376 473.856 361.7 473.64C362.024 473.424 362.414 473.316 362.87 473.316ZM375.589 473.946C375.229 474.066 374.839 474.144 374.419 474.18C373.999 474.204 373.465 474.216 372.817 474.216C373.921 474.72 374.473 475.518 374.473 476.61C374.473 477.57 374.155 478.35 373.519 478.95C372.883 479.538 372.013 479.832 370.909 479.832C370.345 479.832 369.871 479.766 369.487 479.634C369.343 479.742 369.223 479.88 369.127 480.048C369.043 480.216 369.001 480.384 369.001 480.552C369.001 481.092 369.421 481.362 370.261 481.362H371.971C372.595 481.362 373.159 481.476 373.663 481.704C374.179 481.92 374.581 482.226 374.869 482.622C375.169 483.018 375.319 483.456 375.319 483.936C375.319 484.86 374.923 485.568 374.131 486.06C373.351 486.564 372.241 486.816 370.801 486.816C369.337 486.816 368.305 486.588 367.705 486.132C367.105 485.676 366.805 484.95 366.805 483.954H368.173C368.173 484.35 368.245 484.662 368.389 484.89C368.545 485.13 368.809 485.304 369.181 485.412C369.565 485.532 370.105 485.592 370.801 485.592C371.821 485.592 372.571 485.46 373.051 485.196C373.543 484.932 373.789 484.542 373.789 484.026C373.789 483.594 373.591 483.258 373.195 483.018C372.799 482.79 372.289 482.676 371.665 482.676H369.973C369.193 482.676 368.599 482.508 368.191 482.172C367.783 481.824 367.579 481.392 367.579 480.876C367.579 480.576 367.669 480.282 367.849 479.994C368.029 479.694 368.287 479.436 368.623 479.22C368.083 478.944 367.681 478.596 367.417 478.176C367.165 477.744 367.039 477.222 367.039 476.61C367.039 475.974 367.195 475.41 367.507 474.918C367.831 474.414 368.275 474.024 368.839 473.748C369.415 473.46 370.075 473.316 370.819 473.316C371.899 473.316 372.721 473.256 373.285 473.136C373.849 473.016 374.467 472.812 375.139 472.524L375.589 473.946ZM370.801 474.432C370.069 474.432 369.517 474.63 369.145 475.026C368.773 475.41 368.587 475.938 368.587 476.61C368.587 477.282 368.773 477.822 369.145 478.23C369.529 478.626 370.093 478.824 370.837 478.824C371.509 478.824 372.019 478.632 372.367 478.248C372.727 477.852 372.907 477.3 372.907 476.592C372.907 475.152 372.205 474.432 370.801 474.432ZM379.722 480.246C379.722 480.858 379.848 481.308 380.1 481.596C380.364 481.872 380.772 482.01 381.324 482.01C381.828 482.01 382.314 481.866 382.782 481.578C383.25 481.29 383.622 480.93 383.898 480.498V473.514H385.41V483H384.114L383.988 481.722C383.616 482.19 383.154 482.556 382.602 482.82C382.062 483.072 381.51 483.198 380.946 483.198C380.046 483.198 379.362 482.958 378.894 482.478C378.438 481.998 378.21 481.308 378.21 480.408V473.514H379.722V480.246ZM395.807 480.93C395.807 481.302 395.867 481.578 395.987 481.758C396.107 481.926 396.305 482.052 396.581 482.136L396.203 483.216C395.279 483.096 394.703 482.646 394.475 481.866C394.139 482.298 393.713 482.628 393.197 482.856C392.693 483.084 392.129 483.198 391.505 483.198C390.557 483.198 389.807 482.934 389.255 482.406C388.715 481.878 388.445 481.17 388.445 480.282C388.445 479.31 388.823 478.56 389.579 478.032C390.347 477.504 391.445 477.24 392.873 477.24H394.277V476.466C394.277 475.794 394.085 475.314 393.701 475.026C393.317 474.726 392.759 474.576 392.027 474.576C391.307 474.576 390.485 474.738 389.561 475.062L389.147 473.91C390.263 473.514 391.301 473.316 392.261 473.316C393.413 473.316 394.289 473.586 394.889 474.126C395.501 474.666 395.807 475.416 395.807 476.376V480.93ZM391.883 482.064C392.351 482.064 392.795 481.944 393.215 481.704C393.647 481.464 394.001 481.134 394.277 480.714V478.284H392.909C391.901 478.284 391.175 478.452 390.731 478.788C390.287 479.124 390.065 479.616 390.065 480.264C390.065 481.464 390.671 482.064 391.883 482.064ZM406.204 473.316C406.588 473.316 407.032 473.382 407.536 473.514L407.32 476.736H406.096V474.702H406.006C404.542 474.702 403.504 475.746 402.892 477.834V481.83H404.818V483H399.886V481.83H401.38V474.684H399.886V473.514H402.514L402.802 475.764C403.186 474.948 403.642 474.336 404.17 473.928C404.71 473.52 405.388 473.316 406.204 473.316ZM417.789 469.698V483H416.457L416.313 481.758C415.965 482.238 415.563 482.598 415.107 482.838C414.651 483.078 414.159 483.198 413.631 483.198C412.431 483.198 411.525 482.76 410.913 481.884C410.313 481.008 410.013 479.802 410.013 478.266C410.013 477.318 410.163 476.472 410.463 475.728C410.763 474.972 411.189 474.384 411.741 473.964C412.305 473.532 412.965 473.316 413.721 473.316C414.765 473.316 415.617 473.694 416.277 474.45V469.518L417.789 469.698ZM414.117 474.54C413.325 474.54 412.713 474.852 412.281 475.476C411.861 476.1 411.651 477.03 411.651 478.266C411.651 479.49 411.843 480.42 412.227 481.056C412.623 481.68 413.193 481.992 413.937 481.992C414.837 481.992 415.617 481.488 416.277 480.48V475.764C416.013 475.368 415.695 475.068 415.323 474.864C414.951 474.648 414.549 474.54 414.117 474.54ZM435.775 469.086C436.111 469.086 436.381 469.188 436.585 469.392C436.789 469.584 436.891 469.836 436.891 470.148C436.891 470.46 436.789 470.718 436.585 470.922C436.381 471.114 436.111 471.21 435.775 471.21C435.451 471.21 435.187 471.114 434.983 470.922C434.791 470.718 434.695 470.46 434.695 470.148C434.695 469.836 434.791 469.584 434.983 469.392C435.187 469.188 435.451 469.086 435.775 469.086ZM436.981 481.794H439.645V483H432.553V481.794H435.469V474.72H432.643V473.514H436.981V481.794ZM442.968 473.514H444.264L444.39 474.846C444.762 474.366 445.23 473.994 445.794 473.73C446.37 473.454 446.946 473.316 447.522 473.316C449.298 473.316 450.186 474.252 450.186 476.124V483H448.674V477.24C448.674 476.532 448.632 475.992 448.548 475.62C448.476 475.248 448.326 474.972 448.098 474.792C447.87 474.612 447.522 474.522 447.054 474.522C446.538 474.522 446.052 474.678 445.596 474.99C445.14 475.302 444.768 475.674 444.48 476.106V483H442.968V473.514ZM457.361 469.086C457.697 469.086 457.967 469.188 458.171 469.392C458.375 469.584 458.477 469.836 458.477 470.148C458.477 470.46 458.375 470.718 458.171 470.922C457.967 471.114 457.697 471.21 457.361 471.21C457.037 471.21 456.773 471.114 456.569 470.922C456.377 470.718 456.281 470.46 456.281 470.148C456.281 469.836 456.377 469.584 456.569 469.392C456.773 469.188 457.037 469.086 457.361 469.086ZM458.567 481.794H461.231V483H454.139V481.794H457.055V474.72H454.229V473.514H458.567V481.794ZM472.096 482.514C471.772 482.73 471.376 482.898 470.908 483.018C470.452 483.138 469.996 483.198 469.54 483.198C468.544 483.198 467.764 482.94 467.2 482.424C466.636 481.896 466.354 481.206 466.354 480.354V474.702H464.176V473.514H466.354V471.372L467.866 471.192V473.514H471.16L470.962 474.702H467.866V480.336C467.866 480.876 468.01 481.278 468.298 481.542C468.586 481.806 469.048 481.938 469.684 481.938C470.332 481.938 470.938 481.788 471.502 481.488L472.096 482.514Z" fill="white"/>
<path d="M310.093 476.592V478.14L303.253 482.406L302.443 481.29L308.797 477.366L302.443 473.46L303.181 472.308L310.093 476.592Z" fill="#0BE749"/>
<path d="M479.273 466.69V488.219H478.282V466.69H479.273Z" fill="url(#paint32_linear_4233_3823)"/>
<path d="M88.798 527.614C88.798 527.17 88.948 526.798 89.248 526.498C89.56 526.186 89.938 526.03 90.382 526.03C90.838 526.03 91.216 526.186 91.516 526.498C91.816 526.798 91.966 527.17 91.966 527.614C91.966 528.07 91.816 528.448 91.516 528.748C91.216 529.048 90.838 529.198 90.382 529.198C89.938 529.198 89.56 529.048 89.248 528.748C88.948 528.436 88.798 528.058 88.798 527.614ZM99.591 527.614C99.591 527.17 99.741 526.798 100.041 526.498C100.353 526.186 100.731 526.03 101.175 526.03C101.631 526.03 102.009 526.186 102.309 526.498C102.609 526.798 102.759 527.17 102.759 527.614C102.759 528.07 102.609 528.448 102.309 528.748C102.009 529.048 101.631 529.198 101.175 529.198C100.731 529.198 100.353 529.048 100.041 528.748C99.741 528.436 99.591 528.058 99.591 527.614ZM110.384 527.614C110.384 527.17 110.534 526.798 110.834 526.498C111.146 526.186 111.524 526.03 111.968 526.03C112.424 526.03 112.802 526.186 113.102 526.498C113.402 526.798 113.552 527.17 113.552 527.614C113.552 528.07 113.402 528.448 113.102 528.748C112.802 529.048 112.424 529.198 111.968 529.198C111.524 529.198 111.146 529.048 110.834 528.748C110.534 528.436 110.384 528.058 110.384 527.614Z" fill="white"/>
<rect x="85" y="558" width="218" height="14" rx="2" fill="white" fill-opacity="0.05"/>
<rect x="85.5" y="558.5" width="217" height="13" rx="1.5" stroke="white" stroke-opacity="0.12"/>
<rect x="85" y="588" width="309" height="14" rx="2" fill="white" fill-opacity="0.05"/>
<rect x="85.5" y="588.5" width="308" height="13" rx="1.5" stroke="white" stroke-opacity="0.12"/>
<rect x="85" y="618" width="486" height="14" rx="2" fill="white" fill-opacity="0.05"/>
<rect x="85.5" y="618.5" width="485" height="13" rx="1.5" stroke="white" stroke-opacity="0.12"/>
<rect x="85" y="648" width="486" height="14" rx="2" fill="white" fill-opacity="0.05"/>
<rect x="85.5" y="648.5" width="485" height="13" rx="1.5" stroke="white" stroke-opacity="0.12"/>
<defs>
<filter id="filter0_f_4233_3823" x="0" y="32" width="842" height="676" filterUnits="userSpaceOnUse" color-interpolation-filters="sRGB">
<feFlood flood-opacity="0" result="BackgroundImageFix"/>
<feBlend mode="normal" in="SourceGraphic" in2="BackgroundImageFix" result="shape"/>
<feGaussianBlur stdDeviation="67" result="effect1_foregroundBlur_4233_3823"/>
</filter>
<linearGradient id="paint0_linear_4233_3823" x1="655.168" y1="679.659" x2="781.99" y2="525.664" gradientUnits="userSpaceOnUse">
<stop stop-color="#F05C80"/>
<stop offset="1" stop-color="#CC34DF"/>
</linearGradient>
<linearGradient id="paint1_linear_4233_3823" x1="628.023" y1="691.201" x2="767.783" y2="548.845" gradientUnits="userSpaceOnUse">
<stop stop-color="#F05C80"/>
<stop offset="1" stop-color="#CC34DF"/>
</linearGradient>
<linearGradient id="paint2_linear_4233_3823" x1="599.743" y1="700.322" x2="751.378" y2="570.688" gradientUnits="userSpaceOnUse">
<stop stop-color="#F05C80"/>
<stop offset="1" stop-color="#CC34DF"/>
</linearGradient>
<linearGradient id="paint3_linear_4233_3823" x1="570.542" y1="706.933" x2="732.899" y2="591.009" gradientUnits="userSpaceOnUse">
<stop stop-color="#F05C80"/>
<stop offset="1" stop-color="#CC34DF"/>
</linearGradient>
<linearGradient id="paint4_linear_4233_3823" x1="540.643" y1="710.964" x2="712.486" y2="609.632" gradientUnits="userSpaceOnUse">
<stop stop-color="#F05C80"/>
<stop offset="1" stop-color="#CC34DF"/>
</linearGradient>
<linearGradient id="paint5_linear_4233_3823" x1="510.279" y1="712.364" x2="690.3" y2="626.395" gradientUnits="userSpaceOnUse">
<stop stop-color="#F05C80"/>
<stop offset="1" stop-color="#CC34DF"/>
</linearGradient>
<linearGradient id="paint6_linear_4233_3823" x1="479.677" y1="711.102" x2="666.505" y2="641.149" gradientUnits="userSpaceOnUse">
<stop stop-color="#F05C80"/>
<stop offset="1" stop-color="#CC34DF"/>
</linearGradient>
<linearGradient id="paint7_linear_4233_3823" x1="449.072" y1="707.169" x2="641.287" y2="653.766" gradientUnits="userSpaceOnUse">
<stop stop-color="#F05C80"/>
<stop offset="1" stop-color="#CC34DF"/>
</linearGradient>
<linearGradient id="paint8_linear_4233_3823" x1="418.691" y1="700.573" x2="614.828" y2="664.125" gradientUnits="userSpaceOnUse">
<stop stop-color="#F05C80"/>
<stop offset="1" stop-color="#CC34DF"/>
</linearGradient>
<linearGradient id="paint9_linear_4233_3823" x1="388.771" y1="691.343" x2="587.339" y2="672.128" gradientUnits="userSpaceOnUse">
<stop stop-color="#F05C80"/>
<stop offset="1" stop-color="#CC34DF"/>
</linearGradient>
<linearGradient id="paint10_linear_4233_3823" x1="359.539" y1="679.53" x2="559.026" y2="677.694" gradientUnits="userSpaceOnUse">
<stop stop-color="#F05C80"/>
<stop offset="1" stop-color="#CC34DF"/>
</linearGradient>
<linearGradient id="paint11_linear_4233_3823" x1="331.213" y1="665.204" x2="530.1" y2="680.762" gradientUnits="userSpaceOnUse">
<stop stop-color="#F05C80"/>
<stop offset="1" stop-color="#CC34DF"/>
</linearGradient>
<linearGradient id="paint12_linear_4233_3823" x1="304.012" y1="648.454" x2="500.787" y2="681.287" gradientUnits="userSpaceOnUse">
<stop stop-color="#F05C80"/>
<stop offset="1" stop-color="#CC34DF"/>
</linearGradient>
<linearGradient id="paint13_linear_4233_3823" x1="278.146" y1="629.389" x2="471.311" y2="679.247" gradientUnits="userSpaceOnUse">
<stop stop-color="#F05C80"/>
<stop offset="1" stop-color="#CC34DF"/>
</linearGradient>
<linearGradient id="paint14_linear_4233_3823" x1="253.812" y1="608.13" x2="441.895" y2="674.634" gradientUnits="userSpaceOnUse">
<stop stop-color="#F05C80"/>
<stop offset="1" stop-color="#CC34DF"/>
</linearGradient>
<linearGradient id="paint15_linear_4233_3823" x1="231.185" y1="584.821" x2="412.757" y2="667.465" gradientUnits="userSpaceOnUse">
<stop stop-color="#F05C80"/>
<stop offset="1" stop-color="#CC34DF"/>
</linearGradient>
<linearGradient id="paint16_linear_4233_3823" x1="210.447" y1="559.619" x2="384.125" y2="657.773" gradientUnits="userSpaceOnUse">
<stop stop-color="#F05C80"/>
<stop offset="1" stop-color="#CC34DF"/>
</linearGradient>
<linearGradient id="paint17_linear_4233_3823" x1="191.753" y1="532.696" x2="356.216" y2="645.614" gradientUnits="userSpaceOnUse">
<stop stop-color="#F05C80"/>
<stop offset="1" stop-color="#CC34DF"/>
</linearGradient>
<linearGradient id="paint18_linear_4233_3823" x1="175.249" y1="504.235" x2="329.244" y2="631.056" gradientUnits="userSpaceOnUse">
<stop stop-color="#F05C80"/>
<stop offset="1" stop-color="#CC34DF"/>
</linearGradient>
<linearGradient id="paint19_linear_4233_3823" x1="161.052" y1="474.434" x2="303.407" y2="614.195" gradientUnits="userSpaceOnUse">
<stop stop-color="#F05C80"/>
<stop offset="1" stop-color="#CC34DF"/>
</linearGradient>
<linearGradient id="paint20_linear_4233_3823" x1="149.278" y1="443.499" x2="278.911" y2="595.135" gradientUnits="userSpaceOnUse">
<stop stop-color="#F05C80"/>
<stop offset="1" stop-color="#CC34DF"/>
</linearGradient>
<linearGradient id="paint21_linear_4233_3823" x1="140.012" y1="411.645" x2="255.936" y2="574.002" gradientUnits="userSpaceOnUse">
<stop stop-color="#F05C80"/>
<stop offset="1" stop-color="#CC34DF"/>
</linearGradient>
<linearGradient id="paint22_linear_4233_3823" x1="133.324" y1="379.095" x2="234.656" y2="550.938" gradientUnits="userSpaceOnUse">
<stop stop-color="#F05C80"/>
<stop offset="1" stop-color="#CC34DF"/>
</linearGradient>
<linearGradient id="paint23_linear_4233_3823" x1="129.271" y1="346.076" x2="215.241" y2="526.097" gradientUnits="userSpaceOnUse">
<stop stop-color="#F05C80"/>
<stop offset="1" stop-color="#CC34DF"/>
</linearGradient>
<linearGradient id="paint24_linear_4233_3823" x1="127.879" y1="312.819" x2="197.832" y2="499.648" gradientUnits="userSpaceOnUse">
<stop stop-color="#F05C80"/>
<stop offset="1" stop-color="#CC34DF"/>
</linearGradient>
<linearGradient id="paint25_linear_4233_3823" x1="129.159" y1="279.558" x2="182.563" y2="471.772" gradientUnits="userSpaceOnUse">
<stop stop-color="#F05C80"/>
<stop offset="1" stop-color="#CC34DF"/>
</linearGradient>
<linearGradient id="paint26_linear_4233_3823" x1="133.1" y1="246.524" x2="169.548" y2="442.661" gradientUnits="userSpaceOnUse">
<stop stop-color="#F05C80"/>
<stop offset="1" stop-color="#CC34DF"/>
</linearGradient>
<linearGradient id="paint27_linear_4233_3823" x1="139.679" y1="213.95" x2="158.893" y2="412.518" gradientUnits="userSpaceOnUse">
<stop stop-color="#F05C80"/>
<stop offset="1" stop-color="#CC34DF"/>
</linearGradient>
<linearGradient id="paint28_linear_4233_3823" x1="148.839" y1="182.062" x2="150.674" y2="381.549" gradientUnits="userSpaceOnUse">
<stop stop-color="#F05C80"/>
<stop offset="1" stop-color="#CC34DF"/>
</linearGradient>
<linearGradient id="paint29_linear_4233_3823" x1="135.935" y1="53.2998" x2="150.855" y2="581.627" gradientUnits="userSpaceOnUse">
<stop stop-color="#F05C80"/>
<stop offset="1" stop-color="#CC34DF"/>
</linearGradient>
<linearGradient id="paint30_linear_4233_3823" x1="-1182.21" y1="350.41" x2="-1180.61" y2="484.05" gradientUnits="userSpaceOnUse">
<stop stop-color="#FFD83E"/>
<stop offset="1" stop-color="#D038D7"/>
</linearGradient>
<linearGradient id="paint31_linear_4233_3823" x1="-1182.21" y1="331.776" x2="-1152.2" y2="909.407" gradientUnits="userSpaceOnUse">
<stop stop-color="#FFD83E"/>
<stop offset="1" stop-color="#D038D7"/>
</linearGradient>
<linearGradient id="paint32_linear_4233_3823" x1="462.525" y1="457.35" x2="479.515" y2="499.512" gradientUnits="userSpaceOnUse">
<stop stop-color="#FFD83E"/>
<stop offset="1" stop-color="#D038D7"/>
</linearGradient>
</defs>
</svg>
