<svg width="20" height="20" viewBox="0 0 20 20" fill="none" xmlns="http://www.w3.org/2000/svg">
<g clip-path="url(#clip0_1186_6386)">
<path d="M14.166 18.3346V16.668M7.49935 12.5013L12.4993 7.5013M9.16602 5.00135L9.55185 4.55469C10.3334 3.77329 11.3933 3.33435 12.4984 3.33443C13.6035 3.33451 14.6634 3.7736 15.4448 4.5551C16.2262 5.33661 16.6651 6.39651 16.665 7.50165C16.6649 8.60678 16.2259 9.66663 15.4443 10.448L14.9993 10.8347M10.8326 15.0013L10.5018 15.4463C9.71114 16.2281 8.64409 16.6666 7.53218 16.6666C6.42027 16.6666 5.35322 16.2281 4.5626 15.4463C4.17289 15.061 3.86351 14.6022 3.65236 14.0964C3.4412 13.5907 3.33248 13.0481 3.33248 12.5001C3.33248 11.952 3.4412 11.4094 3.65236 10.9037C3.86351 10.398 4.17289 9.93914 4.5626 9.5538L4.99926 9.16797M16.666 14.168H18.3327M1.66602 5.83464H3.33268M5.83268 1.66797V3.33464" stroke="white" stroke-width="1.66667" stroke-linecap="round" stroke-linejoin="round"/>
</g>
<defs>
<clipPath id="clip0_1186_6386">
<rect width="20" height="20" fill="white"/>
</clipPath>
</defs>
</svg>
