<svg width="357" height="479" viewBox="0 0 357 479" fill="none" xmlns="http://www.w3.org/2000/svg">
<g clip-path="url(#clip0_4206_1969)">
<g opacity="0.3">
<path d="M105.713 0L167.974 53.7352H199.105L245.151 0L286.659 25.249L348.919 8.41635L342.434 101.644H383.941L396.263 161.853L367.727 228.536L425.448 253.138L448.147 423.407H325.572L309.358 464.841H219.858L178.351 435.708L83.0143 479.085L51.8839 448.009V367.082L20.7536 323.706L51.8839 253.138V182.57L0 161.853V53.7352L105.713 0Z" stroke="url(#paint0_linear_4206_1969)" stroke-width="0.656627"/>
<path d="M200.652 219.659L211.912 213.909H226.763L237.125 224.786L239.819 238.365L245.966 240.997L248.384 259.218H235.329L219.648 260.534L209.494 265.176L206.178 261.851V253.191V233.446L200.652 231.229V219.659Z" stroke="url(#paint1_linear_4206_1969)" stroke-width="0.656627"/>
<path d="M113.452 16.4543L171.357 65.8348H201.235L244.138 16.6515L282.851 40.3766L340.426 25.361L334.543 111.939L373.33 112.142L384.798 168.42L358.55 230.675L411.328 253.384L431.779 410.556L318.029 410.606L302.46 448.904L219.064 449.261L180.622 422.241L92.4911 462.153L63.7554 433.134V358.1L35.0197 316.541L63.5429 251.316L63.3303 186.092L15.4375 166.523V66.2771L113.452 16.4543Z" stroke="url(#paint2_linear_4206_1969)" stroke-width="0.656627"/>
<path d="M121.187 32.9092L174.735 77.9351H203.361L243.121 33.3035L279.04 55.5048L331.929 42.3063L326.648 122.235L362.716 122.64L373.328 174.988L349.368 232.814L397.205 253.631L415.407 397.705L310.483 397.806L295.558 432.967L218.265 433.682L182.889 408.774L101.964 445.222L75.623 418.261V349.118L49.282 309.377L75.1979 249.496L74.7729 189.614L30.8711 171.194V78.8197L121.187 32.9092Z" stroke="url(#paint3_linear_4206_1969)" stroke-width="0.656627"/>
<path d="M128.922 49.3636L178.114 90.0349H205.488L242.104 49.9552L275.228 70.6326L323.432 59.2511L318.754 132.531L352.101 133.139L361.859 181.556L340.187 234.953L383.081 253.878L399.036 384.854L302.937 385.006L288.656 417.03L217.467 418.101L185.156 395.307L111.437 428.29L87.4906 403.387V340.136L63.5442 302.213L86.853 247.674L86.2154 193.136L46.3047 175.864V91.3619L128.922 49.3636Z" stroke="url(#paint4_linear_4206_1969)" stroke-width="0.656627"/>
<path d="M136.657 65.8179L181.493 102.135H207.614L241.087 66.6067L271.417 85.7602L314.935 76.1958L310.859 142.827L341.486 143.637L350.389 188.123L331.005 237.092L368.957 254.124L382.664 372.003L295.391 372.205L281.754 401.093L216.668 402.521L187.422 381.84L120.91 411.359L99.3583 388.512V331.154L77.8065 295.049L98.5081 245.853L97.6579 196.657L61.7383 180.535V103.904L136.657 65.8179Z" stroke="url(#paint5_linear_4206_1969)" stroke-width="0.656627"/>
<path d="M144.396 82.2728L184.875 114.235H209.744L240.073 83.2587L267.609 100.888L306.441 93.141L302.968 153.123L330.876 154.136L338.924 194.691L321.828 239.231L354.838 254.371L366.296 359.152L287.849 359.405L274.856 385.156L215.874 386.941L189.693 368.374L130.387 394.427L111.23 373.638V322.172L92.0726 287.885L110.167 244.032L109.104 200.179L77.1758 185.205V116.446L144.396 82.2728Z" stroke="url(#paint6_linear_4206_1969)" stroke-width="0.656627"/>
<path d="M152.13 98.7271L188.254 126.334H211.871L239.056 99.9101L263.797 116.016L297.944 110.086L295.074 163.419L320.261 164.634L327.454 201.259L312.646 241.37L340.714 254.617L349.924 346.3L280.303 346.604L267.954 369.219L215.075 371.361L191.96 354.906L139.86 377.496L123.097 358.764V313.19L106.335 280.72L121.822 242.211L120.547 203.701L92.6094 189.876V128.988L152.13 98.7271Z" stroke="url(#paint7_linear_4206_1969)" stroke-width="0.656627"/>
<path d="M159.865 115.181L191.632 138.434H213.997L238.039 116.562L259.986 131.144L289.447 127.03L287.179 173.714L309.646 175.132L315.985 207.826L303.465 243.509L326.59 254.863L333.552 333.449L272.757 333.804L261.052 353.282L214.277 355.781L194.227 341.439L149.333 360.564L134.965 343.89V304.208L120.597 273.556L133.477 240.389L131.989 207.223L108.043 194.546V141.53L159.865 115.181Z" stroke="url(#paint8_linear_4206_1969)" stroke-width="0.656627"/>
<path d="M167.6 131.636L195.011 150.534H216.123L237.022 133.213L256.174 146.271L280.95 143.975L279.284 184.01L299.032 185.63L304.515 214.394L294.283 245.648L312.467 255.11L317.18 320.598L265.211 321.003L254.15 337.344L213.478 340.201L196.494 327.972L158.806 343.632L146.833 329.016V295.225L134.859 266.391L145.132 238.568L143.432 210.744L123.477 199.216V154.072L167.6 131.636Z" stroke="url(#paint9_linear_4206_1969)" stroke-width="0.656627"/>
<path d="M175.339 148.091L198.393 162.634H218.254L236.009 149.865L252.367 161.399L272.456 160.92L271.393 194.306L288.421 196.129L293.049 220.962L285.106 247.787L298.347 255.357L300.812 307.747L257.669 308.203L247.252 321.408L212.684 324.621L198.765 314.506L168.283 326.701L158.704 314.142V286.244L149.126 259.228L156.791 236.747L154.878 214.266L138.914 203.887V166.615L175.339 148.091Z" stroke="url(#paint10_linear_4206_1969)" stroke-width="0.656627"/>
<path d="M183.074 164.545L201.772 174.734H220.38L234.991 166.517L248.555 176.527L263.959 177.865L263.499 204.602L277.806 206.627L281.58 227.529L275.924 249.926L284.223 255.603L284.44 294.896L250.123 295.402L240.35 305.47L211.885 309.041L201.032 301.039L177.756 309.77L170.572 299.268V277.262L163.388 252.063L168.446 234.926L166.321 217.788L154.348 208.557V179.157L183.074 164.545Z" stroke="url(#paint11_linear_4206_1969)" stroke-width="0.656627"/>
<path d="M190.808 180.999L205.151 186.833H222.506L233.974 183.168L244.744 191.655L255.462 194.81L255.604 214.897L267.192 217.125L270.11 234.097L266.743 252.065L270.1 255.849L268.068 282.045L242.577 282.602L233.448 289.533L211.087 293.461L203.299 287.572L187.229 292.838L182.439 284.393V268.279L177.65 244.899L180.101 233.104L177.763 221.31L169.781 213.227V191.699L190.808 180.999Z" stroke="url(#paint12_linear_4206_1969)" stroke-width="0.656627"/>
<path d="M198.543 197.454L208.529 198.934H224.633L232.957 199.82L240.932 206.783L246.965 211.755L247.709 225.194L256.577 227.624L258.641 240.665L257.562 254.204L255.976 256.096L251.697 269.194L235.031 269.801L226.546 273.596L210.289 277.881L205.565 274.105L196.702 275.907L194.307 269.52V259.298L191.912 237.735L191.756 231.283L189.206 224.832L185.215 217.898V204.242L198.543 197.454Z" stroke="url(#paint13_linear_4206_1969)" stroke-width="0.656627"/>
</g>
</g>
<defs>
<linearGradient id="paint0_linear_4206_1969" x1="1.51067" y1="-132.336" x2="27.8339" y2="487.417" gradientUnits="userSpaceOnUse">
<stop stop-color="#F05C80"/>
<stop offset="1" stop-color="#CC34DF"/>
</linearGradient>
<linearGradient id="paint1_linear_4206_1969" x1="200.813" y1="199.747" x2="203.643" y2="266.067" gradientUnits="userSpaceOnUse">
<stop stop-color="#F05C80"/>
<stop offset="1" stop-color="#CC34DF"/>
</linearGradient>
<linearGradient id="paint2_linear_4206_1969" x1="16.841" y1="-106.659" x2="41.3635" y2="469.902" gradientUnits="userSpaceOnUse">
<stop stop-color="#F05C80"/>
<stop offset="1" stop-color="#CC34DF"/>
</linearGradient>
<linearGradient id="paint3_linear_4206_1969" x1="32.1673" y1="-80.9823" x2="54.8894" y2="452.387" gradientUnits="userSpaceOnUse">
<stop stop-color="#F05C80"/>
<stop offset="1" stop-color="#CC34DF"/>
</linearGradient>
<linearGradient id="paint4_linear_4206_1969" x1="47.4937" y1="-55.3057" x2="68.4153" y2="434.872" gradientUnits="userSpaceOnUse">
<stop stop-color="#F05C80"/>
<stop offset="1" stop-color="#CC34DF"/>
</linearGradient>
<linearGradient id="paint5_linear_4206_1969" x1="62.8201" y1="-29.6294" x2="81.9414" y2="417.357" gradientUnits="userSpaceOnUse">
<stop stop-color="#F05C80"/>
<stop offset="1" stop-color="#CC34DF"/>
</linearGradient>
<linearGradient id="paint6_linear_4206_1969" x1="78.1504" y1="-3.95245" x2="95.4717" y2="399.842" gradientUnits="userSpaceOnUse">
<stop stop-color="#F05C80"/>
<stop offset="1" stop-color="#CC34DF"/>
</linearGradient>
<linearGradient id="paint7_linear_4206_1969" x1="93.4768" y1="21.7239" x2="108.998" y2="382.327" gradientUnits="userSpaceOnUse">
<stop stop-color="#F05C80"/>
<stop offset="1" stop-color="#CC34DF"/>
</linearGradient>
<linearGradient id="paint8_linear_4206_1969" x1="108.803" y1="47.4004" x2="122.526" y2="364.811" gradientUnits="userSpaceOnUse">
<stop stop-color="#F05C80"/>
<stop offset="1" stop-color="#CC34DF"/>
</linearGradient>
<linearGradient id="paint9_linear_4206_1969" x1="124.13" y1="73.0768" x2="136.053" y2="347.296" gradientUnits="userSpaceOnUse">
<stop stop-color="#F05C80"/>
<stop offset="1" stop-color="#CC34DF"/>
</linearGradient>
<linearGradient id="paint10_linear_4206_1969" x1="139.46" y1="98.7538" x2="149.586" y2="329.781" gradientUnits="userSpaceOnUse">
<stop stop-color="#F05C80"/>
<stop offset="1" stop-color="#CC34DF"/>
</linearGradient>
<linearGradient id="paint11_linear_4206_1969" x1="154.786" y1="124.43" x2="163.117" y2="312.265" gradientUnits="userSpaceOnUse">
<stop stop-color="#F05C80"/>
<stop offset="1" stop-color="#CC34DF"/>
</linearGradient>
<linearGradient id="paint12_linear_4206_1969" x1="170.119" y1="149.935" x2="176.597" y2="295.391" gradientUnits="userSpaceOnUse">
<stop stop-color="#F05C80"/>
<stop offset="1" stop-color="#CC34DF"/>
</linearGradient>
<linearGradient id="paint13_linear_4206_1969" x1="185.462" y1="175.238" x2="189.99" y2="279.271" gradientUnits="userSpaceOnUse">
<stop stop-color="#F05C80"/>
<stop offset="1" stop-color="#CC34DF"/>
</linearGradient>
<clipPath id="clip0_4206_1969">
<rect width="357" height="479" fill="white"/>
</clipPath>
</defs>
</svg>
