<svg width="450" height="481" viewBox="0 0 450 481" fill="none" xmlns="http://www.w3.org/2000/svg">
<g opacity="0.3">
<path d="M106.624 1.1626L168.884 54.8978H200.015L246.062 1.1626L287.569 26.4116L349.829 9.57895L343.344 102.806H384.851L397.174 163.015L368.637 229.699L426.358 254.3L449.057 424.57H326.482L310.268 466.004H220.768L179.261 436.871L83.9244 480.247L52.7941 449.171V368.245L21.6637 324.868L52.7941 254.3V183.733L0.910156 163.015V54.8978L106.624 1.1626Z" stroke="url(#paint0_linear_4029_11803)" stroke-width="0.656627"/>
<path d="M201.562 220.821L212.822 215.071H227.673L238.035 225.948L240.729 239.527L246.877 242.16L249.294 260.38H236.239L220.558 261.697L210.404 266.339L207.089 263.013V254.353V234.608L201.562 232.391V220.821Z" stroke="url(#paint1_linear_4029_11803)" stroke-width="0.656627"/>
<path d="M114.362 17.6169L172.267 66.9975H202.145L245.048 17.8141L283.761 41.5393L341.336 26.5237L335.453 113.102L374.24 113.304L385.708 169.583L359.46 231.838L412.239 254.547L432.69 411.718L318.94 411.769L303.37 450.067L219.974 450.424L181.532 423.403L93.4013 463.315L64.6656 434.297V359.263L35.9299 317.704L64.453 252.479L64.2405 187.254L16.3477 167.686V67.4398L114.362 17.6169Z" stroke="url(#paint2_linear_4029_11803)" stroke-width="0.656627"/>
<path d="M122.097 34.0718L175.645 79.0977H204.271L244.031 34.4661L279.95 56.6674L332.839 43.4689L327.559 123.398L363.626 123.803L374.238 176.151L350.278 233.977L398.115 254.794L416.318 398.868L311.393 398.969L296.468 434.13L219.175 434.844L183.799 409.937L102.874 446.384L76.5332 419.423V350.281L50.1921 310.54L76.1081 250.658L75.683 190.776L31.7812 172.357V79.9823L122.097 34.0718Z" stroke="url(#paint3_linear_4029_11803)" stroke-width="0.656627"/>
<path d="M129.832 50.5262L179.024 91.1975H206.398L243.014 51.1178L276.138 71.7952L324.342 60.4137L319.664 133.694L353.011 134.301L362.769 182.719L341.097 236.116L383.991 255.04L399.946 386.017L303.847 386.168L289.566 418.193L218.377 419.264L186.066 396.47L112.347 429.453L88.4008 404.549V341.299L64.4544 303.376L87.7632 248.837L87.1255 194.298L47.2148 177.027V92.5245L129.832 50.5262Z" stroke="url(#paint4_linear_4029_11803)" stroke-width="0.656627"/>
<path d="M137.567 66.9805L182.403 103.297H208.524L241.997 67.7692L272.327 86.9227L315.845 77.3583L311.769 143.989L342.397 144.799L351.299 189.286L331.916 238.255L369.868 255.286L383.574 373.165L296.301 373.368L282.664 402.255L217.578 403.684L188.333 383.003L121.82 412.521L100.268 389.675V332.316L78.7166 296.211L99.4182 247.015L98.5681 197.82L62.6484 181.697V105.066L137.567 66.9805Z" stroke="url(#paint5_linear_4029_11803)" stroke-width="0.656627"/>
<path d="M145.306 83.4353L185.785 115.397H210.654L240.984 84.4212L268.519 102.051L307.351 94.3036L303.878 154.286L331.786 155.298L339.834 195.854L322.738 240.394L355.748 255.533L367.206 360.314L288.759 360.567L275.766 386.319L216.784 388.104L190.603 369.536L131.297 395.59L112.14 374.801V323.335L92.9828 289.047L111.077 245.195L110.015 201.342L78.0859 186.368V117.609L145.306 83.4353Z" stroke="url(#paint6_linear_4029_11803)" stroke-width="0.656627"/>
<path d="M153.041 99.8896L189.164 127.497H212.781L239.966 101.073L264.708 117.178L298.854 111.248L295.984 164.581L321.171 165.796L328.364 202.421L313.557 242.533L341.624 255.78L350.834 347.463L281.213 347.767L268.864 370.381L215.985 372.524L192.87 356.069L140.77 378.658L124.008 359.927V314.352L107.245 281.883L122.732 243.373L121.457 204.863L93.5195 191.038V130.151L153.041 99.8896Z" stroke="url(#paint7_linear_4029_11803)" stroke-width="0.656627"/>
<path d="M160.775 116.344L192.542 139.597H214.907L238.949 117.724L260.896 132.306L290.357 128.193L288.089 174.877L310.557 176.294L316.895 208.989L304.375 244.671L327.501 256.026L334.462 334.612L273.667 334.966L261.962 354.444L215.187 356.944L195.137 342.602L150.243 361.727L135.875 345.053V305.37L121.507 274.719L134.387 241.552L132.9 208.385L108.953 195.708V142.693L160.775 116.344Z" stroke="url(#paint8_linear_4029_11803)" stroke-width="0.656627"/>
<path d="M168.51 132.798L195.921 151.696H217.034L237.932 134.376L257.085 147.434L281.86 145.138L280.194 185.173L299.942 186.793L305.425 215.556L295.194 246.81L313.377 256.272L318.09 321.761L266.121 322.166L255.06 338.507L214.389 341.363L197.404 329.135L159.716 344.795L147.743 330.178V296.388L135.77 267.554L146.042 239.73L144.342 211.907L124.387 200.379V155.235L168.51 132.798Z" stroke="url(#paint9_linear_4029_11803)" stroke-width="0.656627"/>
<path d="M176.249 149.253L199.304 163.797H219.164L236.919 151.028L253.277 162.562L273.367 162.083L272.304 195.469L289.331 197.291L293.96 222.124L286.016 248.95L299.257 256.519L301.722 308.91L258.579 309.366L248.162 322.57L213.594 325.784L199.675 315.668L169.193 327.864L159.614 315.305V287.406L150.036 260.39L157.701 237.91L155.789 215.429L139.824 205.05V167.778L176.249 149.253Z" stroke="url(#paint10_linear_4029_11803)" stroke-width="0.656627"/>
<path d="M183.984 165.708L202.682 175.896H221.29L235.902 167.679L249.465 177.69L264.869 179.028L264.409 205.764L278.717 207.79L282.49 228.692L276.835 251.088L285.133 256.766L285.35 296.059L251.033 296.565L241.26 306.633L212.796 310.204L201.942 302.201L178.666 310.932L171.482 300.43V278.424L164.298 253.226L169.356 236.088L167.231 218.951L155.258 209.72V180.32L183.984 165.708Z" stroke="url(#paint11_linear_4029_11803)" stroke-width="0.656627"/>
<path d="M191.719 182.162L206.061 187.996H223.417L234.884 184.331L245.654 192.817L256.372 195.972L256.514 216.06L268.102 218.288L271.02 235.259L267.653 253.227L271.01 257.012L268.979 283.207L243.487 283.764L234.358 290.696L211.997 294.623L204.209 288.734L188.139 294.001L183.349 285.556V269.442L178.56 246.061L181.012 234.267L178.674 222.472L170.691 214.39V192.862L191.719 182.162Z" stroke="url(#paint12_linear_4029_11803)" stroke-width="0.656627"/>
<path d="M199.453 198.617L209.439 200.096H225.543L233.867 200.983L241.842 207.945L247.875 212.918L248.619 226.356L257.487 228.786L259.551 241.827L258.472 255.366L256.886 257.259L252.607 270.357L235.941 270.964L227.456 274.759L211.199 279.044L206.476 275.268L197.612 277.07L195.217 270.682V260.46L192.822 238.897L192.667 232.446L190.116 225.994L186.125 219.061V205.404L199.453 198.617Z" stroke="url(#paint13_linear_4029_11803)" stroke-width="0.656627"/>
</g>
<defs>
<linearGradient id="paint0_linear_4029_11803" x1="2.42082" y1="-131.173" x2="28.7441" y2="488.58" gradientUnits="userSpaceOnUse">
<stop stop-color="#F05C80"/>
<stop offset="1" stop-color="#CC34DF"/>
</linearGradient>
<linearGradient id="paint1_linear_4029_11803" x1="201.723" y1="200.91" x2="204.554" y2="267.229" gradientUnits="userSpaceOnUse">
<stop stop-color="#F05C80"/>
<stop offset="1" stop-color="#CC34DF"/>
</linearGradient>
<linearGradient id="paint2_linear_4029_11803" x1="17.7511" y1="-105.497" x2="42.2737" y2="471.065" gradientUnits="userSpaceOnUse">
<stop stop-color="#F05C80"/>
<stop offset="1" stop-color="#CC34DF"/>
</linearGradient>
<linearGradient id="paint3_linear_4029_11803" x1="33.0775" y1="-79.8197" x2="55.7995" y2="453.55" gradientUnits="userSpaceOnUse">
<stop stop-color="#F05C80"/>
<stop offset="1" stop-color="#CC34DF"/>
</linearGradient>
<linearGradient id="paint4_linear_4029_11803" x1="48.4039" y1="-54.1431" x2="69.3255" y2="436.035" gradientUnits="userSpaceOnUse">
<stop stop-color="#F05C80"/>
<stop offset="1" stop-color="#CC34DF"/>
</linearGradient>
<linearGradient id="paint5_linear_4029_11803" x1="63.7302" y1="-28.4668" x2="82.8516" y2="418.519" gradientUnits="userSpaceOnUse">
<stop stop-color="#F05C80"/>
<stop offset="1" stop-color="#CC34DF"/>
</linearGradient>
<linearGradient id="paint6_linear_4029_11803" x1="79.0605" y1="-2.78991" x2="96.3819" y2="401.005" gradientUnits="userSpaceOnUse">
<stop stop-color="#F05C80"/>
<stop offset="1" stop-color="#CC34DF"/>
</linearGradient>
<linearGradient id="paint7_linear_4029_11803" x1="94.3869" y1="22.8865" x2="109.909" y2="383.489" gradientUnits="userSpaceOnUse">
<stop stop-color="#F05C80"/>
<stop offset="1" stop-color="#CC34DF"/>
</linearGradient>
<linearGradient id="paint8_linear_4029_11803" x1="109.713" y1="48.563" x2="123.436" y2="365.974" gradientUnits="userSpaceOnUse">
<stop stop-color="#F05C80"/>
<stop offset="1" stop-color="#CC34DF"/>
</linearGradient>
<linearGradient id="paint9_linear_4029_11803" x1="125.04" y1="74.2394" x2="136.964" y2="348.459" gradientUnits="userSpaceOnUse">
<stop stop-color="#F05C80"/>
<stop offset="1" stop-color="#CC34DF"/>
</linearGradient>
<linearGradient id="paint10_linear_4029_11803" x1="140.37" y1="99.9164" x2="150.496" y2="330.944" gradientUnits="userSpaceOnUse">
<stop stop-color="#F05C80"/>
<stop offset="1" stop-color="#CC34DF"/>
</linearGradient>
<linearGradient id="paint11_linear_4029_11803" x1="155.696" y1="125.593" x2="164.027" y2="313.428" gradientUnits="userSpaceOnUse">
<stop stop-color="#F05C80"/>
<stop offset="1" stop-color="#CC34DF"/>
</linearGradient>
<linearGradient id="paint12_linear_4029_11803" x1="171.03" y1="151.097" x2="177.508" y2="296.553" gradientUnits="userSpaceOnUse">
<stop stop-color="#F05C80"/>
<stop offset="1" stop-color="#CC34DF"/>
</linearGradient>
<linearGradient id="paint13_linear_4029_11803" x1="186.373" y1="176.401" x2="190.9" y2="280.433" gradientUnits="userSpaceOnUse">
<stop stop-color="#F05C80"/>
<stop offset="1" stop-color="#CC34DF"/>
</linearGradient>
</defs>
</svg>
