<svg width="1920" height="1080" viewBox="0 0 1920 1080" fill="none" xmlns="http://www.w3.org/2000/svg">
<g opacity="0.2" filter="url(#filter0_f_4002_2836)">
<rect x="501" y="406" width="918" height="268" fill="#CC34DF"/>
</g>
<g filter="url(#filter1_b_4002_2836)">
<rect x="584" y="484" width="609" height="112" rx="56" fill="white" fill-opacity="0.01"/>
<rect x="583.5" y="483.5" width="610" height="113" rx="56.5" stroke="#CC34DF"/>
<circle cx="640" cy="540" r="8" fill="white"/>
<circle cx="672" cy="540" r="8" fill="white"/>
<circle cx="704" cy="540" r="8" fill="white"/>
<circle cx="736" cy="540" r="8" fill="white"/>
<circle cx="768" cy="540" r="8" fill="white"/>
<circle cx="800" cy="540" r="8" fill="white"/>
<circle cx="832" cy="540" r="8" fill="white"/>
<circle cx="864" cy="540" r="8" fill="white"/>
<circle cx="896" cy="540" r="8" fill="white"/>
<circle cx="928" cy="540" r="8" fill="white"/>
<circle cx="960" cy="540" r="8" fill="white"/>
<circle cx="992" cy="540" r="8" fill="white"/>
<rect x="1016" y="510" width="2" height="60" fill="#CC34DF"/>
<path d="M1118.49 526.185C1119.3 526.064 1120.14 526 1121 526C1131.21 526 1137.91 535.01 1140.16 538.574C1140.43 539.005 1140.57 539.221 1140.65 539.553C1140.7 539.803 1140.7 540.197 1140.65 540.447C1140.57 540.78 1140.43 540.997 1140.16 541.431C1139.56 542.38 1138.64 543.714 1137.43 545.161M1110.45 529.43C1106.12 532.363 1103.19 536.439 1101.84 538.571C1101.57 539.004 1101.43 539.22 1101.36 539.553C1101.3 539.803 1101.3 540.197 1101.36 540.447C1101.43 540.779 1101.57 540.995 1101.84 541.426C1104.09 544.99 1110.79 554 1121 554C1125.12 554 1128.66 552.535 1131.58 550.553M1103 522L1139 558M1116.76 535.757C1115.67 536.843 1115 538.343 1115 540C1115 543.314 1117.69 546 1121 546C1122.66 546 1124.16 545.328 1125.24 544.243" stroke="white" stroke-width="4" stroke-linecap="round" stroke-linejoin="round"/>
</g>
<g filter="url(#filter2_b_4002_2836)">
<rect x="1225" y="484" width="112" height="112" rx="56" fill="url(#paint0_linear_4002_2836)"/>
<rect x="1224.5" y="483.5" width="113" height="113" rx="56.5" stroke="#CC34DF"/>
<path d="M1267 540H1295M1295 540L1281 526M1295 540L1281 554" stroke="white" stroke-width="4" stroke-linecap="round" stroke-linejoin="round"/>
</g>
<g filter="url(#filter3_d_4002_2836)">
<path d="M1303.06 597.412C1302.31 596.452 1301.38 594.506 1299.75 592.079C1298.82 590.746 1296.52 588.212 1295.83 586.906C1295.33 586.112 1295.18 585.145 1295.43 584.239C1295.85 582.517 1297.48 581.375 1299.24 581.572C1300.6 581.846 1301.86 582.514 1302.84 583.492C1303.53 584.141 1304.16 584.846 1304.74 585.599C1305.16 586.132 1305.27 586.346 1305.75 586.959C1306.23 587.572 1306.55 588.186 1306.31 587.279C1306.12 585.946 1305.8 583.706 1305.35 581.706C1305 580.186 1304.92 579.946 1304.6 578.799C1304.28 577.652 1304.1 576.692 1303.75 575.386C1303.43 574.102 1303.18 572.802 1303 571.492C1302.67 569.817 1302.91 568.077 1303.7 566.559C1304.63 565.683 1305.99 565.452 1307.16 565.972C1308.34 566.84 1309.21 568.052 1309.67 569.439C1310.37 571.147 1310.83 572.941 1311.06 574.772C1311.48 577.439 1312.31 581.332 1312.34 582.132C1312.34 581.146 1312.15 579.066 1312.34 578.132C1312.52 577.159 1313.2 576.352 1314.12 575.999C1314.92 575.755 1315.76 575.701 1316.58 575.839C1317.4 576.012 1318.13 576.488 1318.63 577.172C1319.25 578.728 1319.59 580.379 1319.64 582.052C1319.71 580.587 1319.96 579.137 1320.39 577.732C1320.83 577.105 1321.49 576.652 1322.23 576.452C1323.11 576.291 1324.01 576.291 1324.9 576.452C1325.62 576.694 1326.25 577.15 1326.71 577.759C1327.27 579.173 1327.62 580.667 1327.72 582.186C1327.72 582.559 1327.91 581.146 1328.5 580.212C1328.8 579.307 1329.57 578.634 1330.5 578.445C1331.44 578.257 1332.4 578.582 1333.03 579.299C1333.67 580.015 1333.87 581.014 1333.56 581.919C1333.56 583.652 1333.56 583.572 1333.56 584.746C1333.56 585.919 1333.56 586.959 1333.56 587.946C1333.47 589.506 1333.25 591.057 1332.92 592.586C1332.46 593.938 1331.81 595.221 1331 596.399C1329.71 597.839 1328.64 599.466 1327.83 601.226C1327.63 602.1 1327.54 602.996 1327.56 603.892C1327.56 604.721 1327.67 605.546 1327.88 606.346C1326.79 606.461 1325.69 606.461 1324.6 606.346C1323.56 606.186 1322.28 604.106 1321.94 603.466C1321.76 603.122 1321.41 602.905 1321.03 602.905C1320.64 602.905 1320.29 603.122 1320.12 603.466C1319.54 604.479 1318.23 606.319 1317.32 606.426C1315.54 606.639 1311.86 606.426 1308.95 606.426C1308.95 606.426 1309.43 603.759 1308.34 602.799C1307.24 601.839 1306.12 600.719 1305.3 599.972L1303.06 597.412Z" fill="white"/>
<path fill-rule="evenodd" clip-rule="evenodd" d="M1303.06 597.412C1302.31 596.452 1301.38 594.506 1299.75 592.079C1298.82 590.746 1296.52 588.212 1295.83 586.906C1295.33 586.112 1295.18 585.145 1295.43 584.239C1295.85 582.517 1297.48 581.375 1299.24 581.572C1300.6 581.846 1301.86 582.514 1302.84 583.492C1303.53 584.141 1304.16 584.846 1304.74 585.599C1305.16 586.132 1305.27 586.346 1305.75 586.959C1306.23 587.572 1306.55 588.186 1306.31 587.279C1306.12 585.946 1305.8 583.706 1305.35 581.706C1305 580.186 1304.92 579.946 1304.6 578.799C1304.28 577.652 1304.1 576.692 1303.75 575.386C1303.43 574.102 1303.18 572.802 1303 571.492C1302.67 569.817 1302.91 568.077 1303.7 566.559C1304.63 565.683 1305.99 565.452 1307.16 565.972C1308.34 566.84 1309.21 568.052 1309.67 569.439C1310.37 571.147 1310.83 572.941 1311.06 574.772C1311.48 577.439 1312.31 581.332 1312.34 582.132C1312.34 581.146 1312.15 579.066 1312.34 578.132C1312.52 577.159 1313.2 576.352 1314.12 575.999C1314.92 575.755 1315.76 575.701 1316.58 575.839C1317.4 576.012 1318.13 576.488 1318.63 577.172C1319.25 578.728 1319.59 580.379 1319.64 582.052C1319.71 580.587 1319.96 579.137 1320.39 577.732C1320.83 577.105 1321.49 576.652 1322.23 576.452C1323.11 576.291 1324.01 576.291 1324.9 576.452C1325.62 576.694 1326.25 577.15 1326.71 577.759C1327.27 579.173 1327.62 580.667 1327.72 582.186C1327.72 582.559 1327.91 581.146 1328.5 580.212C1328.8 579.307 1329.57 578.634 1330.5 578.445C1331.44 578.257 1332.4 578.582 1333.03 579.299C1333.67 580.015 1333.87 581.014 1333.56 581.919C1333.56 583.652 1333.56 583.572 1333.56 584.746C1333.56 585.919 1333.56 586.959 1333.56 587.946C1333.47 589.506 1333.25 591.057 1332.92 592.586C1332.46 593.938 1331.81 595.221 1331 596.399C1329.71 597.839 1328.64 599.466 1327.83 601.226C1327.63 602.1 1327.54 602.996 1327.56 603.892C1327.56 604.721 1327.67 605.546 1327.88 606.346C1326.79 606.461 1325.69 606.461 1324.6 606.346C1323.56 606.186 1322.28 604.106 1321.94 603.466C1321.76 603.122 1321.41 602.905 1321.03 602.905C1320.64 602.905 1320.29 603.122 1320.12 603.466C1319.54 604.479 1318.23 606.319 1317.32 606.426C1315.54 606.639 1311.86 606.426 1308.95 606.426C1308.95 606.426 1309.43 603.759 1308.34 602.799C1307.24 601.839 1306.12 600.719 1305.3 599.972L1303.06 597.412Z" stroke="#202125" stroke-width="2" stroke-linecap="round" stroke-linejoin="round"/>
<path d="M1325.67 598.868V589.664C1325.67 589.113 1325.22 588.666 1324.67 588.666C1324.11 588.666 1323.67 589.113 1323.67 589.664V598.868C1323.67 599.419 1324.11 599.866 1324.67 599.866C1325.22 599.866 1325.67 599.419 1325.67 598.868Z" fill="#202125"/>
<path d="M1320.39 598.865L1320.33 589.656C1320.33 589.106 1319.88 588.663 1319.33 588.666C1318.77 588.669 1318.33 589.117 1318.33 589.667L1318.39 598.876C1318.39 599.426 1318.84 599.869 1319.39 599.866C1319.94 599.863 1320.39 599.415 1320.39 598.865Z" fill="#202125"/>
<path d="M1313 589.677L1313.05 598.867C1313.06 599.422 1313.51 599.869 1314.06 599.866C1314.61 599.863 1315.06 599.41 1315.05 598.855L1315 589.665C1315 589.11 1314.55 588.663 1313.99 588.666C1313.44 588.669 1313 589.122 1313 589.677Z" fill="#202125"/>
</g>
<defs>
<filter id="filter0_f_4002_2836" x="301" y="206" width="1318" height="668" filterUnits="userSpaceOnUse" color-interpolation-filters="sRGB">
<feFlood flood-opacity="0" result="BackgroundImageFix"/>
<feBlend mode="normal" in="SourceGraphic" in2="BackgroundImageFix" result="shape"/>
<feGaussianBlur stdDeviation="100" result="effect1_foregroundBlur_4002_2836"/>
</filter>
<filter id="filter1_b_4002_2836" x="551" y="451" width="675" height="178" filterUnits="userSpaceOnUse" color-interpolation-filters="sRGB">
<feFlood flood-opacity="0" result="BackgroundImageFix"/>
<feGaussianBlur in="BackgroundImageFix" stdDeviation="16"/>
<feComposite in2="SourceAlpha" operator="in" result="effect1_backgroundBlur_4002_2836"/>
<feBlend mode="normal" in="SourceGraphic" in2="effect1_backgroundBlur_4002_2836" result="shape"/>
</filter>
<filter id="filter2_b_4002_2836" x="1192" y="451" width="178" height="178" filterUnits="userSpaceOnUse" color-interpolation-filters="sRGB">
<feFlood flood-opacity="0" result="BackgroundImageFix"/>
<feGaussianBlur in="BackgroundImageFix" stdDeviation="16"/>
<feComposite in2="SourceAlpha" operator="in" result="effect1_backgroundBlur_4002_2836"/>
<feBlend mode="normal" in="SourceGraphic" in2="effect1_backgroundBlur_4002_2836" result="shape"/>
</filter>
<filter id="filter3_d_4002_2836" x="1292.18" y="564.697" width="44.6563" height="47.6242" filterUnits="userSpaceOnUse" color-interpolation-filters="sRGB">
<feFlood flood-opacity="0" result="BackgroundImageFix"/>
<feColorMatrix in="SourceAlpha" type="matrix" values="0 0 0 0 0 0 0 0 0 0 0 0 0 0 0 0 0 0 127 0" result="hardAlpha"/>
<feOffset dy="2.66667"/>
<feGaussianBlur stdDeviation="1.06667"/>
<feColorMatrix type="matrix" values="0 0 0 0 0 0 0 0 0 0 0 0 0 0 0 0 0 0 0.5 0"/>
<feBlend mode="normal" in2="BackgroundImageFix" result="effect1_dropShadow_4002_2836"/>
<feBlend mode="normal" in="SourceGraphic" in2="effect1_dropShadow_4002_2836" result="shape"/>
</filter>
<linearGradient id="paint0_linear_4002_2836" x1="1226.77" y1="474.754" x2="1205.53" y2="569.267" gradientUnits="userSpaceOnUse">
<stop stop-color="#F05C80"/>
<stop offset="1" stop-color="#CC34DF"/>
</linearGradient>
</defs>
</svg>
