<svg width="1920" height="1080" viewBox="0 0 1920 1080" fill="none" xmlns="http://www.w3.org/2000/svg">
<g clip-path="url(#clip0_4002_2867)">
<g opacity="0.21">
<path d="M867.5 -21.5V69.7208C867.5 93.5903 876.982 116.482 893.86 133.36L987.5 227" stroke="black" stroke-width="2"/>
<path d="M867.5 -21.5V69.7208C867.5 93.5903 876.982 116.482 893.86 133.36L987.5 227" stroke="url(#paint0_linear_4002_2867)" stroke-width="2"/>
</g>
<g opacity="0.21">
<path d="M1687 647H2090" stroke="black" stroke-width="2"/>
<path d="M1687 647H2090" stroke="url(#paint1_linear_4002_2867)" stroke-width="2"/>
</g>
<g opacity="0.21">
<path d="M1035.5 259L1161.14 133.36C1178.02 116.482 1187.5 93.5903 1187.5 69.7208V-34" stroke="black" stroke-width="2"/>
<path d="M1035.5 259L1161.14 133.36C1178.02 116.482 1187.5 93.5903 1187.5 69.7208V-34" stroke="url(#paint2_linear_4002_2867)" stroke-width="2"/>
</g>
<g opacity="0.21">
<path d="M864 681L594.36 950.64C577.482 967.518 554.59 977 530.721 977H363.279C339.41 977 316.518 986.482 299.64 1003.36L215 1088" stroke="black" stroke-width="2"/>
<path d="M864 681L594.36 950.64C577.482 967.518 554.59 977 530.721 977H363.279C339.41 977 316.518 986.482 299.64 1003.36L215 1088" stroke="url(#paint3_linear_4002_2867)" stroke-width="2"/>
</g>
<g opacity="0.21">
<path d="M960 874.5V1124.5" stroke="black" stroke-width="2"/>
<path d="M960 874.5V1124.5" stroke="url(#paint4_linear_4002_2867)" stroke-width="2"/>
</g>
<g opacity="0.21">
<path d="M1183.5 320L1289.14 214.36C1306.02 197.482 1328.91 188 1352.78 188H1573.72C1597.59 188 1620.48 178.518 1637.36 161.64L1832 -33" stroke="black" stroke-width="2"/>
<path d="M1183.5 320L1289.14 214.36C1306.02 197.482 1328.91 188 1352.78 188H1573.72C1597.59 188 1620.48 178.518 1637.36 161.64L1832 -33" stroke="url(#paint5_linear_4002_2867)" stroke-width="2"/>
</g>
<g opacity="0.21">
<path d="M1220 495.5H1497.22C1521.09 495.5 1543.98 504.982 1560.86 521.86L1938.5 899.5" stroke="black" stroke-width="2"/>
<path d="M1220 495.5H1497.22C1521.09 495.5 1543.98 504.982 1560.86 521.86L1938.5 899.5" stroke="url(#paint6_linear_4002_2867)" stroke-width="2"/>
</g>
<g opacity="0.21">
<path d="M696 477.5H386.279C362.41 477.5 339.518 468.018 322.64 451.14L192.86 321.36C175.982 304.482 153.09 295 129.221 295H-134.5" stroke="black" stroke-width="2"/>
<path d="M696 477.5H386.279C362.41 477.5 339.518 468.018 322.64 451.14L192.86 321.36C175.982 304.482 153.09 295 129.221 295H-134.5" stroke="url(#paint7_linear_4002_2867)" stroke-width="2"/>
</g>
<g opacity="0.21">
<path d="M-38 749.5H417.721C441.59 749.5 464.482 740.018 481.36 723.14L611.14 593.36C628.018 576.482 650.91 567 674.779 567H938.5" stroke="black" stroke-width="2"/>
<path d="M-38 749.5H417.721C441.59 749.5 464.482 740.018 481.36 723.14L611.14 593.36C628.018 576.482 650.91 567 674.779 567H938.5" stroke="url(#paint8_linear_4002_2867)" stroke-width="2"/>
</g>
<g opacity="0.2">
<path d="M696 338.5L592.36 234.86C575.482 217.982 566 195.09 566 171.221V-41" stroke="black" stroke-width="2"/>
<path d="M696 338.5L592.36 234.86C575.482 217.982 566 195.09 566 171.221V-41" stroke="url(#paint9_linear_4002_2867)" stroke-width="2"/>
</g>
<g opacity="0.21">
<path d="M1150 822L1468.5 1140.5" stroke="black" stroke-width="2"/>
<path d="M1150 822L1468.5 1140.5" stroke="url(#paint10_linear_4002_2867)" stroke-width="2"/>
</g>
<g filter="url(#filter0_b_4002_2867)">
<g filter="url(#filter1_bd_4002_2867)">
<path d="M932.662 944.598C941.334 949.656 945.669 952.186 951.788 953.498C956.536 954.516 963.464 954.516 968.213 953.498C974.332 952.186 978.667 949.656 987.338 944.598C1063.64 900.086 1273.33 760.262 1273.33 568.015V380.704C1273.33 349.39 1273.33 333.733 1268.21 320.274C1263.69 308.385 1256.34 297.776 1246.79 289.365C1235.99 279.844 1221.33 274.346 1192.01 263.351L982.004 184.6C973.861 181.546 969.79 180.02 965.602 179.414C961.887 178.878 958.114 178.878 954.399 179.414C950.21 180.02 946.139 181.546 937.997 184.6L727.993 263.351C698.672 274.346 684.012 279.844 673.209 289.365C663.665 297.776 656.313 308.385 651.788 320.274C646.667 333.733 646.667 349.39 646.667 380.704V568.015C646.667 760.262 856.364 900.086 932.662 944.598Z" fill="white" fill-opacity="0.02" shape-rendering="crispEdges"/>
<path d="M932.662 944.598C941.334 949.656 945.669 952.186 951.788 953.498C956.536 954.516 963.464 954.516 968.213 953.498C974.332 952.186 978.667 949.656 987.338 944.598C1063.64 900.086 1273.33 760.262 1273.33 568.015V380.704C1273.33 349.39 1273.33 333.733 1268.21 320.274C1263.69 308.385 1256.34 297.776 1246.79 289.365C1235.99 279.844 1221.33 274.346 1192.01 263.351L982.004 184.6C973.861 181.546 969.79 180.02 965.602 179.414C961.887 178.878 958.114 178.878 954.399 179.414C950.21 180.02 946.139 181.546 937.997 184.6L727.993 263.351C698.672 274.346 684.012 279.844 673.209 289.365C663.665 297.776 656.313 308.385 651.788 320.274C646.667 333.733 646.667 349.39 646.667 380.704V568.015C646.667 760.262 856.364 900.086 932.662 944.598Z" stroke="#CC34DF" stroke-opacity="0.4" stroke-width="4" stroke-linecap="round" stroke-linejoin="round" shape-rendering="crispEdges"/>
</g>
</g>
<g opacity="0.3" filter="url(#filter2_f_4002_2867)">
<rect x="728" y="308" width="464" height="464" fill="#CC34DF"/>
</g>
<g filter="url(#filter3_b_4002_2867)">
<g clip-path="url(#clip1_4002_2867)">
<rect x="722" y="302" width="476" height="476" rx="238" fill="white" fill-opacity="0.01"/>
<g filter="url(#filter4_bd_4002_2867)">
<g clip-path="url(#clip2_4002_2867)">
<rect x="770" y="350" width="380" height="380" rx="190" fill="white" fill-opacity="0.01" shape-rendering="crispEdges"/>
<g filter="url(#filter5_d_4002_2867)">
<rect x="818" y="398" width="284" height="284" rx="142" fill="white"/>
<rect x="818" y="398" width="284" height="284" rx="142" fill="url(#paint11_linear_4002_2867)" fill-opacity="0.7"/>
<path d="M957.345 495.302L967.695 472.775V603.662L958.517 607.386C958.517 607.386 957.345 527.007 957.345 495.302Z" fill="url(#paint12_linear_4002_2867)"/>
<path d="M929.379 505.425L938.357 484.549L938.668 593.189L929.456 583.546C929.456 583.546 929.379 532.08 929.379 505.425Z" fill="url(#paint13_linear_4002_2867)"/>
<path d="M958.532 603.939L958.438 592.536C958.43 562.619 958.438 532.702 958.367 502.785L958.422 502.895V493.036L952.293 490.333L952.317 490.38C947.877 488.448 943.288 486.601 938.37 484.551V495.557C938.362 526.716 938.343 561.776 938.43 592.934C938.836 593.412 939.768 594.206 939.981 594.386C940.821 595.133 941.686 595.812 942.534 596.535C945.166 598.758 947.995 600.785 950.855 602.702C952.348 603.699 953.865 604.658 955.405 605.577C955.672 605.734 958.525 607.188 958.532 607.4C958.501 605.821 958.611 605.73 958.532 603.939Z" fill="url(#paint14_linear_4002_2867)"/>
<path d="M1009.38 489.923V525.818C1008.76 563.701 993.309 586.84 967.512 603.754L967.652 472.6C971.668 474.234 975.345 475.703 978.999 477.227C987.619 480.833 996.223 484.47 1004.84 488.045C1006.35 488.674 1007.87 489.302 1009.38 489.923Z" fill="url(#paint15_linear_4002_2867)"/>
<path d="M929.466 560.595C929.466 559.982 929.466 559.37 929.466 558.757C929.466 549.604 929.466 540.538 929.458 531.511C929.458 531.189 929.458 530.875 929.458 530.553C929.458 528.314 929.45 526.075 929.45 523.843C929.45 522.013 929.442 520.182 929.442 518.367C929.442 517.637 929.442 516.906 929.442 516.176C929.442 515.327 929.442 514.486 929.434 513.646L929.45 513.709L929.505 505.365L928.224 504.784C928.224 504.784 928.224 504.784 928.216 504.776C928.185 504.76 928.154 504.745 928.114 504.729L927.313 504.36V504.375C921.891 501.94 916.367 499.685 910.623 497.297V525.807C910.961 546.304 915.589 562.481 923.863 575.687C925.482 578.256 926.221 579.285 928.051 581.689C928.099 581.752 929.395 583.465 929.458 583.52C929.458 577.109 929.458 570.628 929.458 564.13C929.466 562.952 929.466 561.774 929.466 560.595Z" fill="url(#paint16_linear_4002_2867)"/>
</g>
</g>
</g>
</g>
</g>
</g>
<defs>
<filter id="filter0_b_4002_2867" x="446" y="54" width="1028" height="1028" filterUnits="userSpaceOnUse" color-interpolation-filters="sRGB">
<feFlood flood-opacity="0" result="BackgroundImageFix"/>
<feGaussianBlur in="BackgroundImageFix" stdDeviation="22"/>
<feComposite in2="SourceAlpha" operator="in" result="effect1_backgroundBlur_4002_2867"/>
<feBlend mode="normal" in="SourceGraphic" in2="effect1_backgroundBlur_4002_2867" result="shape"/>
</filter>
<filter id="filter1_bd_4002_2867" x="424.667" y="-38.9883" width="1070.67" height="1219.25" filterUnits="userSpaceOnUse" color-interpolation-filters="sRGB">
<feFlood flood-opacity="0" result="BackgroundImageFix"/>
<feGaussianBlur in="BackgroundImageFix" stdDeviation="22"/>
<feComposite in2="SourceAlpha" operator="in" result="effect1_backgroundBlur_4002_2867"/>
<feColorMatrix in="SourceAlpha" type="matrix" values="0 0 0 0 0 0 0 0 0 0 0 0 0 0 0 0 0 0 127 0" result="hardAlpha"/>
<feOffset dy="4"/>
<feGaussianBlur stdDeviation="110"/>
<feComposite in2="hardAlpha" operator="out"/>
<feColorMatrix type="matrix" values="0 0 0 0 0.8 0 0 0 0 0.203922 0 0 0 0 0.87451 0 0 0 0.1 0"/>
<feBlend mode="normal" in2="effect1_backgroundBlur_4002_2867" result="effect2_dropShadow_4002_2867"/>
<feBlend mode="normal" in="SourceGraphic" in2="effect2_dropShadow_4002_2867" result="shape"/>
</filter>
<filter id="filter2_f_4002_2867" x="428" y="8" width="1064" height="1064" filterUnits="userSpaceOnUse" color-interpolation-filters="sRGB">
<feFlood flood-opacity="0" result="BackgroundImageFix"/>
<feBlend mode="normal" in="SourceGraphic" in2="BackgroundImageFix" result="shape"/>
<feGaussianBlur stdDeviation="150" result="effect1_foregroundBlur_4002_2867"/>
</filter>
<filter id="filter3_b_4002_2867" x="690" y="270" width="540" height="540" filterUnits="userSpaceOnUse" color-interpolation-filters="sRGB">
<feFlood flood-opacity="0" result="BackgroundImageFix"/>
<feGaussianBlur in="BackgroundImageFix" stdDeviation="16"/>
<feComposite in2="SourceAlpha" operator="in" result="effect1_backgroundBlur_4002_2867"/>
<feBlend mode="normal" in="SourceGraphic" in2="effect1_backgroundBlur_4002_2867" result="shape"/>
</filter>
<filter id="filter4_bd_4002_2867" x="674" y="266" width="572" height="572" filterUnits="userSpaceOnUse" color-interpolation-filters="sRGB">
<feFlood flood-opacity="0" result="BackgroundImageFix"/>
<feGaussianBlur in="BackgroundImageFix" stdDeviation="16"/>
<feComposite in2="SourceAlpha" operator="in" result="effect1_backgroundBlur_4002_2867"/>
<feColorMatrix in="SourceAlpha" type="matrix" values="0 0 0 0 0 0 0 0 0 0 0 0 0 0 0 0 0 0 127 0" result="hardAlpha"/>
<feOffset dy="12"/>
<feGaussianBlur stdDeviation="48"/>
<feComposite in2="hardAlpha" operator="out"/>
<feColorMatrix type="matrix" values="0 0 0 0 0 0 0 0 0 0 0 0 0 0 0 0 0 0 0.12 0"/>
<feBlend mode="normal" in2="effect1_backgroundBlur_4002_2867" result="effect2_dropShadow_4002_2867"/>
<feBlend mode="normal" in="SourceGraphic" in2="effect2_dropShadow_4002_2867" result="shape"/>
</filter>
<filter id="filter5_d_4002_2867" x="734" y="328" width="452" height="452" filterUnits="userSpaceOnUse" color-interpolation-filters="sRGB">
<feFlood flood-opacity="0" result="BackgroundImageFix"/>
<feColorMatrix in="SourceAlpha" type="matrix" values="0 0 0 0 0 0 0 0 0 0 0 0 0 0 0 0 0 0 127 0" result="hardAlpha"/>
<feOffset dy="14"/>
<feGaussianBlur stdDeviation="42"/>
<feComposite in2="hardAlpha" operator="out"/>
<feColorMatrix type="matrix" values="0 0 0 0 1 0 0 0 0 1 0 0 0 0 1 0 0 0 0.25 0"/>
<feBlend mode="normal" in2="BackgroundImageFix" result="effect1_dropShadow_4002_2867"/>
<feBlend mode="normal" in="SourceGraphic" in2="effect1_dropShadow_4002_2867" result="shape"/>
</filter>
<linearGradient id="paint0_linear_4002_2867" x1="869.397" y1="-42.014" x2="785.134" y2="139.064" gradientUnits="userSpaceOnUse">
<stop stop-color="#F05C80"/>
<stop offset="1" stop-color="#CC34DF"/>
</linearGradient>
<linearGradient id="paint1_linear_4002_2867" x1="1693.37" y1="646.917" x2="1693.37" y2="647.804" gradientUnits="userSpaceOnUse">
<stop stop-color="#F05C80"/>
<stop offset="1" stop-color="#CC34DF"/>
</linearGradient>
<linearGradient id="paint2_linear_4002_2867" x1="1037.9" y1="-58.1876" x2="943.17" y2="160.514" gradientUnits="userSpaceOnUse">
<stop stop-color="#F05C80"/>
<stop offset="1" stop-color="#CC34DF"/>
</linearGradient>
<linearGradient id="paint3_linear_4002_2867" x1="225.259" y1="647.402" x2="175.406" y2="1001.17" gradientUnits="userSpaceOnUse">
<stop stop-color="#F05C80"/>
<stop offset="1" stop-color="#CC34DF"/>
</linearGradient>
<linearGradient id="paint4_linear_4002_2867" x1="960.016" y1="853.862" x2="956.072" y2="853.932" gradientUnits="userSpaceOnUse">
<stop stop-color="#F05C80"/>
<stop offset="1" stop-color="#CC34DF"/>
</linearGradient>
<linearGradient id="paint5_linear_4002_2867" x1="1193.75" y1="-62.1407" x2="1156.04" y2="246.171" gradientUnits="userSpaceOnUse">
<stop stop-color="#F05C80"/>
<stop offset="1" stop-color="#CC34DF"/>
</linearGradient>
<linearGradient id="paint6_linear_4002_2867" x1="1231.36" y1="462.149" x2="1186.82" y2="814.656" gradientUnits="userSpaceOnUse">
<stop stop-color="#F05C80"/>
<stop offset="1" stop-color="#CC34DF"/>
</linearGradient>
<linearGradient id="paint7_linear_4002_2867" x1="-121.372" y1="279.934" x2="-129.341" y2="441.322" gradientUnits="userSpaceOnUse">
<stop stop-color="#F05C80"/>
<stop offset="1" stop-color="#CC34DF"/>
</linearGradient>
<linearGradient id="paint8_linear_4002_2867" x1="925.372" y1="551.934" x2="933.341" y2="713.322" gradientUnits="userSpaceOnUse">
<stop stop-color="#F05C80"/>
<stop offset="1" stop-color="#CC34DF"/>
</linearGradient>
<linearGradient id="paint9_linear_4002_2867" x1="568.055" y1="-72.3283" x2="413.765" y2="162.876" gradientUnits="userSpaceOnUse">
<stop stop-color="#F05C80"/>
<stop offset="1" stop-color="#CC34DF"/>
</linearGradient>
<linearGradient id="paint10_linear_4002_2867" x1="1155.03" y1="795.707" x2="1094.64" y2="1064.48" gradientUnits="userSpaceOnUse">
<stop stop-color="#F05C80"/>
<stop offset="1" stop-color="#CC34DF"/>
</linearGradient>
<linearGradient id="paint11_linear_4002_2867" x1="960" y1="398" x2="960" y2="682" gradientUnits="userSpaceOnUse">
<stop stop-color="#1E1F23" stop-opacity="0"/>
<stop offset="1" stop-color="#1E1F23" stop-opacity="0.24"/>
</linearGradient>
<linearGradient id="paint12_linear_4002_2867" x1="962.557" y1="472.775" x2="962.557" y2="603.486" gradientUnits="userSpaceOnUse">
<stop stop-color="#B94848"/>
<stop offset="1" stop-color="#851287"/>
</linearGradient>
<linearGradient id="paint13_linear_4002_2867" x1="933.145" y1="484.548" x2="933.145" y2="594.437" gradientUnits="userSpaceOnUse">
<stop stop-color="#B94848"/>
<stop offset="1" stop-color="#851287"/>
</linearGradient>
<linearGradient id="paint14_linear_4002_2867" x1="948.447" y1="484.551" x2="980.839" y2="607.411" gradientUnits="userSpaceOnUse">
<stop stop-color="#F25E79"/>
<stop offset="1" stop-color="#C52CF1"/>
</linearGradient>
<linearGradient id="paint15_linear_4002_2867" x1="967.653" y1="436.371" x2="988.486" y2="603.748" gradientUnits="userSpaceOnUse">
<stop stop-color="#F05C80"/>
<stop offset="1" stop-color="#CC34DF"/>
</linearGradient>
<linearGradient id="paint16_linear_4002_2867" x1="868.217" y1="463.397" x2="945.217" y2="616.829" gradientUnits="userSpaceOnUse">
<stop stop-color="#FFD83E"/>
<stop offset="1" stop-color="#D038D7"/>
</linearGradient>
<clipPath id="clip0_4002_2867">
<rect width="1920" height="1080" fill="white"/>
</clipPath>
<clipPath id="clip1_4002_2867">
<rect x="722" y="302" width="476" height="476" rx="238" fill="white"/>
</clipPath>
<clipPath id="clip2_4002_2867">
<rect x="770" y="350" width="380" height="380" rx="190" fill="white"/>
</clipPath>
</defs>
</svg>
