<svg width="1920" height="1080" viewBox="0 0 1920 1080" fill="none" xmlns="http://www.w3.org/2000/svg">
<g clip-path="url(#clip0_4002_1442)">
<g opacity="0.3" filter="url(#filter0_f_4002_1442)">
<rect x="528.418" y="108" width="864.01" height="864.01" fill="#CC34DF"/>
</g>
<path d="M950.887 836.009H672.818V271.59H950.887V836.009ZM679.059 829.768H944.647V277.83H679.059V829.768Z" fill="white"/>
<path d="M932.776 431.258H690.951V366.695H932.776V431.258ZM697.185 425.017H926.53V372.936H697.185V425.017Z" fill="white"/>
<path d="M929.649 447.145H694.064V505.467H929.649V447.145Z" fill="#CC34DF"/>
<path d="M932.776 508.588H690.951V444.025H932.776V508.588ZM697.185 502.347H926.53V450.266H697.185V502.347Z" fill="white"/>
<path d="M932.776 585.91H690.951V521.348H932.776V585.91ZM697.185 579.67H926.53V527.588H697.185V579.67Z" fill="white"/>
<path d="M929.649 601.814H694.064V660.137H929.649V601.814Z" fill="#CC34DF"/>
<path d="M932.776 663.258H690.951V598.695H932.776V663.258ZM697.185 657.017H926.53V604.936H697.185V657.017Z" fill="white"/>
<path d="M932.776 740.592H690.951V676.029H932.776V740.592ZM697.185 734.351H926.53V682.27H697.185V734.351Z" fill="white"/>
<path d="M929.649 756.48H694.064V814.803H929.649V756.48Z" fill="#CC34DF"/>
<path d="M932.776 817.924H690.951V753.361H932.776V817.924ZM697.185 811.683H926.53V759.602H697.185V811.683Z" fill="white"/>
<path d="M929.649 292.48H694.064V350.803H929.649V292.48Z" fill="#CC34DF"/>
<path d="M932.776 353.924H690.951V289.361H932.776V353.924ZM697.185 347.683H926.53V295.602H697.185V347.683Z" fill="white"/>
<path d="M1247.56 836.009H969.486V271.59H1247.55V836.009H1247.56ZM975.727 829.768H1241.31V277.83H975.727V829.768Z" fill="white"/>
<path d="M990.728 428.139L1226.31 428.139V369.817H990.728V428.139Z" fill="#CC34DF"/>
<path d="M1229.43 431.258H987.608V366.695H1229.43V431.258ZM993.849 425.017H1223.19V372.936H993.849V425.017Z" fill="white"/>
<path d="M1229.43 508.588H987.608V444.025H1229.43V508.588ZM993.849 502.347H1223.19V450.266H993.849V502.347Z" fill="white"/>
<path d="M990.728 582.791H1226.31V524.469H990.728V582.791Z" fill="#CC34DF"/>
<path d="M1229.43 585.91H987.608V521.348H1229.43V585.91ZM993.849 579.67H1223.19V527.588H993.849V579.67Z" fill="white"/>
<path d="M1229.43 663.258H987.608V598.695H1229.43V663.258ZM993.849 657.017H1223.19V604.936H993.849V657.017Z" fill="white"/>
<path d="M990.728 737.469H1226.31V679.147H990.728V737.469Z" fill="#CC34DF"/>
<path d="M1229.43 740.592H987.608V676.029H1229.43V740.592ZM993.849 734.351H1223.19V682.27H993.849V734.351Z" fill="white"/>
<path d="M1229.43 817.924H987.608V753.361H1229.43V817.924ZM993.849 811.683H1223.19V759.602H993.849V811.683Z" fill="white"/>
<path d="M1229.43 353.924H987.608V289.361H1229.43V353.924ZM993.849 347.683H1223.19V295.602H993.849V347.683Z" fill="white"/>
<path d="M975.723 832.887H969.483V271.582H1238.43L1224.69 252.037H960.185V245.797H1227.93L1250.43 277.822H975.723V832.887Z" fill="white"/>
<path d="M950.89 832.887H944.649V277.822H669.938L692.44 245.797H960.188V252.037H695.685L681.95 271.582H950.89V832.887Z" fill="white"/>
<path d="M1006.9 318.52H1001.08V324.76H1006.9V318.52Z" fill="white"/>
<path d="M1022.18 318.52H1016.37V324.76H1022.18V318.52Z" fill="white"/>
<path d="M1037.46 318.52H1031.65V324.76H1037.46V318.52Z" fill="white"/>
<path d="M1052.73 318.52H1046.92V324.76H1052.73V318.52Z" fill="white"/>
<path d="M1215.9 318.482H1066.35V324.723H1215.9V318.482Z" fill="white"/>
<path d="M1215.93 396.193H1210.12V402.434H1215.93V396.193Z" fill="white"/>
<path d="M1200.66 396.193H1194.84V402.434H1200.66V396.193Z" fill="white"/>
<path d="M1185.38 396.193H1179.56V402.434H1185.38V396.193Z" fill="white"/>
<path d="M1170.11 396.193H1164.29V402.434H1170.11V396.193Z" fill="white"/>
<path d="M1150.67 396.168H1001.12V402.408H1150.67V396.168Z" fill="white"/>
<path d="M1006.92 473.02H1001.1V479.26H1006.92V473.02Z" fill="white"/>
<path d="M1022.2 473.02H1016.39V479.26H1022.2V473.02Z" fill="white"/>
<path d="M1037.47 473.02H1031.66V479.26H1037.47V473.02Z" fill="white"/>
<path d="M1052.75 473.02H1046.93V479.26H1052.75V473.02Z" fill="white"/>
<path d="M1215.91 472.996H1066.36V479.236H1215.91V472.996Z" fill="white"/>
<path d="M1215.95 550.707H1210.14V556.947H1215.95V550.707Z" fill="white"/>
<path d="M1200.67 550.707H1194.85V556.947H1200.67V550.707Z" fill="white"/>
<path d="M1185.39 550.707H1179.58V556.947H1185.39V550.707Z" fill="white"/>
<path d="M1170.12 550.707H1164.31V556.947H1170.12V550.707Z" fill="white"/>
<path d="M1150.68 550.668H1001.13V556.908H1150.68V550.668Z" fill="white"/>
<path d="M1006.93 627.527H1001.12V633.768H1006.93V627.527Z" fill="white"/>
<path d="M1022.21 627.527H1016.4V633.768H1022.21V627.527Z" fill="white"/>
<path d="M1037.48 627.527H1031.67V633.768H1037.48V627.527Z" fill="white"/>
<path d="M1052.76 627.527H1046.95V633.768H1052.76V627.527Z" fill="white"/>
<path d="M1215.92 627.504H1066.38V633.744H1215.92V627.504Z" fill="white"/>
<path d="M1215.96 705.229H1210.15V711.469H1215.96V705.229Z" fill="white"/>
<path d="M1200.69 705.229H1194.87V711.469H1200.69V705.229Z" fill="white"/>
<path d="M1185.41 705.229H1179.59V711.469H1185.41V705.229Z" fill="white"/>
<path d="M1170.14 705.229H1164.32V711.469H1170.14V705.229Z" fill="white"/>
<path d="M1150.7 705.189H1001.15V711.43H1150.7V705.189Z" fill="white"/>
<path d="M1006.95 782.051H1001.13V788.291H1006.95V782.051Z" fill="white"/>
<path d="M1022.23 782.051H1016.42V788.291H1022.23V782.051Z" fill="white"/>
<path d="M1037.51 782.055H1031.7V788.295H1037.51V782.055Z" fill="white"/>
<path d="M1052.78 782.055H1046.96V788.295H1052.78V782.055Z" fill="white"/>
<path d="M1215.94 782.016H1066.39V788.256H1215.94V782.016Z" fill="white"/>
<path d="M919.298 318.971H913.482V325.211H919.298V318.971Z" fill="white"/>
<path d="M904.021 318.971H898.205V325.211H904.021V318.971Z" fill="white"/>
<path d="M888.742 318.971H882.926V325.211H888.742V318.971Z" fill="white"/>
<path d="M873.468 318.971H867.652V325.211H873.468V318.971Z" fill="white"/>
<path d="M854.029 318.934H704.485V325.174H854.029V318.934Z" fill="white"/>
<path d="M710.265 396.625H704.455V402.865H710.265V396.625Z" fill="white"/>
<path d="M725.548 396.625H719.732V402.865H725.548V396.625Z" fill="white"/>
<path d="M740.82 396.625H735.01V402.865H740.82V396.625Z" fill="white"/>
<path d="M756.099 396.625H750.283V402.865H756.099V396.625Z" fill="white"/>
<path d="M919.259 396.605H769.716V402.846H919.259V396.605Z" fill="white"/>
<path d="M919.278 473.479H913.469V479.719H919.278V473.479Z" fill="white"/>
<path d="M904.005 473.479H898.189V479.719H904.005V473.479Z" fill="white"/>
<path d="M888.724 473.479H882.914V479.719H888.724V473.479Z" fill="white"/>
<path d="M873.454 473.479H867.638V479.719H873.454V473.479Z" fill="white"/>
<path d="M854.016 473.439H704.473V479.68H854.016V473.439Z" fill="white"/>
<path d="M710.253 551.137H704.438V557.377H710.253V551.137Z" fill="white"/>
<path d="M725.531 551.137H719.722V557.377H725.531V551.137Z" fill="white"/>
<path d="M740.803 551.137H734.987V557.377H740.803V551.137Z" fill="white"/>
<path d="M756.087 551.137H750.271V557.377H756.087V551.137Z" fill="white"/>
<path d="M919.248 551.111H769.705V557.352H919.248V551.111Z" fill="white"/>
<path d="M919.266 627.982H913.45V634.223H919.266V627.982Z" fill="white"/>
<path d="M903.988 627.986H898.172V634.227H903.988V627.986Z" fill="white"/>
<path d="M888.713 627.982H882.896V634.223H888.713V627.982Z" fill="white"/>
<path d="M873.439 627.986H867.623V634.227H873.439V627.986Z" fill="white"/>
<path d="M853.998 627.947H704.455V634.188H853.998V627.947Z" fill="white"/>
<path d="M710.243 705.658H704.427V711.899H710.243V705.658Z" fill="white"/>
<path d="M725.513 705.658H719.703V711.899H725.513V705.658Z" fill="white"/>
<path d="M740.793 705.658H734.977V711.899H740.793V705.658Z" fill="white"/>
<path d="M756.064 705.658H750.254V711.899H756.064V705.658Z" fill="white"/>
<path d="M919.229 705.627H769.686V711.867H919.229V705.627Z" fill="white"/>
<path d="M919.254 782.488H913.438V788.729H919.254V782.488Z" fill="white"/>
<path d="M903.972 782.488H898.162V788.729H903.972V782.488Z" fill="white"/>
<path d="M888.701 782.488H882.885V788.729H888.701V782.488Z" fill="white"/>
<path d="M873.421 782.488H867.611V788.729H873.421V782.488Z" fill="white"/>
<path d="M853.981 782.449H704.438V788.69H853.981V782.449Z" fill="white"/>
<path d="M304.967 540.004L651.315 540.004" stroke="white" stroke-width="2.7" stroke-dasharray="10.8 10.8"/>
<path d="M1269.53 540.004L1615.88 540.004" stroke="white" stroke-width="2.7" stroke-dasharray="10.8 10.8"/>
<rect x="156.675" y="475.507" width="128.996" height="128.996" rx="64.4981" stroke="white" stroke-width="1.35"/>
<path d="M221.173 540.005C225.647 540.005 229.273 536.378 229.273 531.905C229.273 527.431 225.647 523.805 221.173 523.805C216.7 523.805 213.073 527.431 213.073 531.905C213.073 536.378 216.7 540.005 221.173 540.005Z" fill="#17181C"/>
<path d="M235.573 556.205C235.573 553.693 235.573 552.437 235.263 551.415C234.565 549.113 232.765 547.313 230.463 546.615C229.441 546.305 228.185 546.305 225.673 546.305H216.673C214.161 546.305 212.905 546.305 211.883 546.615C209.582 547.313 207.782 549.113 207.083 551.415C206.773 552.437 206.773 553.693 206.773 556.205M229.273 531.905C229.273 536.378 225.647 540.005 221.173 540.005C216.7 540.005 213.073 536.378 213.073 531.905C213.073 527.431 216.7 523.805 221.173 523.805C225.647 523.805 229.273 527.431 229.273 531.905Z" stroke="white" stroke-width="3.6" stroke-linecap="round" stroke-linejoin="round"/>
<rect x="1635.17" y="475.507" width="128.996" height="128.996" rx="64.4981" stroke="white" stroke-width="1.35"/>
<path d="M1681.67 531.005H1709.03C1712.06 531.005 1713.57 531.005 1714.72 531.593C1715.74 532.111 1716.57 532.937 1717.08 533.953C1717.67 535.108 1717.67 536.62 1717.67 539.645V547.565C1717.67 550.589 1717.67 552.101 1717.08 553.256C1716.57 554.272 1715.74 555.098 1714.72 555.616C1713.57 556.205 1712.06 556.205 1709.03 556.205H1690.31C1687.29 556.205 1685.78 556.205 1684.62 555.616C1683.6 555.098 1682.78 554.272 1682.26 553.256C1681.67 552.101 1681.67 550.589 1681.67 547.565V531.005Z" fill="#17181C"/>
<path d="M1701.47 531.005L1699.46 526.989C1698.89 525.833 1698.6 525.255 1698.17 524.833C1697.78 524.459 1697.33 524.175 1696.82 524.001C1696.25 523.805 1695.6 523.805 1694.31 523.805H1687.43C1685.42 523.805 1684.41 523.805 1683.64 524.197C1682.96 524.542 1682.41 525.093 1682.06 525.77C1681.67 526.54 1681.67 527.548 1681.67 529.565V531.005M1681.67 531.005H1709.03C1712.06 531.005 1713.57 531.005 1714.72 531.593C1715.74 532.111 1716.57 532.937 1717.08 533.953C1717.67 535.108 1717.67 536.62 1717.67 539.645V547.565C1717.67 550.589 1717.67 552.101 1717.08 553.256C1716.57 554.272 1715.74 555.098 1714.72 555.616C1713.57 556.205 1712.06 556.205 1709.03 556.205H1690.31C1687.29 556.205 1685.78 556.205 1684.62 555.616C1683.6 555.098 1682.78 554.272 1682.26 553.256C1681.67 552.101 1681.67 550.589 1681.67 547.565V531.005Z" stroke="white" stroke-width="3.6" stroke-linecap="round" stroke-linejoin="round"/>
<rect x="233.021" y="147.779" width="128.996" height="128.996" rx="64.4981" stroke="white" stroke-width="1.35"/>
<path d="M306.879 228.476C309.903 228.476 311.415 228.476 312.57 227.888C313.586 227.37 314.412 226.544 314.93 225.528C315.519 224.373 315.519 222.86 315.519 219.836V204.716C315.519 201.692 315.519 200.18 314.93 199.025C314.412 198.009 313.586 197.182 312.57 196.665C311.415 196.076 309.903 196.076 306.879 196.076L288.159 196.076C285.134 196.076 283.622 196.076 282.467 196.665C281.451 197.182 280.625 198.009 280.107 199.025C279.519 200.18 279.519 201.692 279.519 204.716L279.519 219.836C279.519 222.86 279.519 224.373 280.107 225.528C280.625 226.544 281.451 227.37 282.467 227.888C283.622 228.476 285.134 228.476 288.159 228.476H306.879Z" fill="#17181C"/>
<path d="M301.119 222.176L305.619 217.676L301.119 213.176" fill="#17181C"/>
<path d="M293.919 213.176L289.419 217.676L293.919 222.176" fill="#17181C"/>
<path d="M315.519 206.876H279.519M301.119 222.176L305.619 217.676L301.119 213.176M293.919 213.176L289.419 217.676L293.919 222.176M279.519 204.716L279.519 219.836C279.519 222.86 279.519 224.373 280.107 225.528C280.625 226.544 281.451 227.37 282.467 227.888C283.622 228.476 285.134 228.476 288.159 228.476H306.879C309.903 228.476 311.415 228.476 312.57 227.888C313.586 227.37 314.412 226.544 314.93 225.528C315.519 224.373 315.519 222.86 315.519 219.836V204.716C315.519 201.692 315.519 200.18 314.93 199.025C314.412 198.009 313.586 197.182 312.57 196.665C311.415 196.076 309.903 196.076 306.879 196.076L288.159 196.076C285.134 196.076 283.622 196.076 282.467 196.665C281.451 197.182 280.625 198.009 280.107 199.025C279.519 200.18 279.519 201.692 279.519 204.716Z" stroke="white" stroke-width="3.6" stroke-linecap="round" stroke-linejoin="round"/>
<rect x="233.021" y="147.779" width="128.996" height="128.996" rx="64.4981" stroke="white" stroke-width="1.35"/>
<path d="M306.879 228.476C309.903 228.476 311.415 228.476 312.57 227.888C313.586 227.37 314.412 226.544 314.93 225.528C315.519 224.373 315.519 222.86 315.519 219.836V204.716C315.519 201.692 315.519 200.18 314.93 199.025C314.412 198.009 313.586 197.182 312.57 196.665C311.415 196.076 309.903 196.076 306.879 196.076L288.159 196.076C285.134 196.076 283.622 196.076 282.467 196.665C281.451 197.182 280.625 198.009 280.107 199.025C279.519 200.18 279.519 201.692 279.519 204.716L279.519 219.836C279.519 222.86 279.519 224.373 280.107 225.528C280.625 226.544 281.451 227.37 282.467 227.888C283.622 228.476 285.134 228.476 288.159 228.476H306.879Z" fill="#17181C"/>
<path d="M301.119 222.176L305.619 217.676L301.119 213.176" fill="#17181C"/>
<path d="M293.919 213.176L289.419 217.676L293.919 222.176" fill="#17181C"/>
<path d="M315.519 206.876H279.519M301.119 222.176L305.619 217.676L301.119 213.176M293.919 213.176L289.419 217.676L293.919 222.176M279.519 204.716L279.519 219.836C279.519 222.86 279.519 224.373 280.107 225.528C280.625 226.544 281.451 227.37 282.467 227.888C283.622 228.476 285.134 228.476 288.159 228.476H306.879C309.903 228.476 311.415 228.476 312.57 227.888C313.586 227.37 314.412 226.544 314.93 225.528C315.519 224.373 315.519 222.86 315.519 219.836V204.716C315.519 201.692 315.519 200.18 314.93 199.025C314.412 198.009 313.586 197.182 312.57 196.665C311.415 196.076 309.903 196.076 306.879 196.076L288.159 196.076C285.134 196.076 283.622 196.076 282.467 196.665C281.451 197.182 280.625 198.009 280.107 199.025C279.519 200.18 279.519 201.692 279.519 204.716Z" stroke="white" stroke-width="3.6" stroke-linecap="round" stroke-linejoin="round"/>
<rect x="1566.28" y="147.779" width="128.996" height="128.996" rx="64.4981" stroke="white" stroke-width="1.35"/>
<path d="M1630.78 212.276C1635.25 212.276 1638.88 208.65 1638.88 204.176C1638.88 199.703 1635.25 196.076 1630.78 196.076C1626.3 196.076 1622.68 199.703 1622.68 204.176C1622.68 208.65 1626.3 212.276 1630.78 212.276Z" fill="#17181C"/>
<path d="M1645.18 228.476C1645.18 225.964 1645.18 224.708 1644.87 223.686C1644.17 221.385 1642.37 219.584 1640.07 218.886C1639.04 218.576 1637.79 218.576 1635.28 218.576H1626.28C1623.76 218.576 1622.51 218.576 1621.49 218.886C1619.18 219.584 1617.38 221.385 1616.69 223.686C1616.38 224.708 1616.38 225.964 1616.38 228.476M1638.88 204.176C1638.88 208.65 1635.25 212.276 1630.78 212.276C1626.3 212.276 1622.68 208.65 1622.68 204.176C1622.68 199.703 1626.3 196.076 1630.78 196.076C1635.25 196.076 1638.88 199.703 1638.88 204.176Z" stroke="white" stroke-width="3.6" stroke-linecap="round" stroke-linejoin="round"/>
<rect x="233.021" y="806.958" width="128.996" height="128.996" rx="64.4981" stroke="white" stroke-width="1.35"/>
<path d="M279.519 862.456H306.879C309.903 862.456 311.415 862.456 312.57 863.044C313.586 863.562 314.412 864.388 314.93 865.404C315.519 866.559 315.519 868.072 315.519 871.096V879.016C315.519 882.04 315.519 883.552 314.93 884.707C314.412 885.723 313.586 886.55 312.57 887.067C311.415 887.656 309.903 887.656 306.879 887.656H288.159C285.134 887.656 283.622 887.656 282.467 887.067C281.451 886.55 280.625 885.723 280.107 884.707C279.519 883.552 279.519 882.04 279.519 879.016V862.456Z" fill="#17181C"/>
<path d="M299.319 862.456L297.311 858.44C296.733 857.284 296.444 856.706 296.013 856.284C295.631 855.911 295.172 855.627 294.667 855.453C294.097 855.256 293.451 855.256 292.159 855.256H285.279C283.262 855.256 282.254 855.256 281.484 855.648C280.807 855.993 280.256 856.544 279.911 857.221C279.519 857.992 279.519 859 279.519 861.016V862.456M279.519 862.456H306.879C309.903 862.456 311.415 862.456 312.57 863.044C313.586 863.562 314.412 864.388 314.93 865.404C315.519 866.559 315.519 868.072 315.519 871.096V879.016C315.519 882.04 315.519 883.552 314.93 884.707C314.412 885.723 313.586 886.55 312.57 887.067C311.415 887.656 309.903 887.656 306.879 887.656H288.159C285.134 887.656 283.622 887.656 282.467 887.067C281.451 886.55 280.625 885.723 280.107 884.707C279.519 883.552 279.519 882.04 279.519 879.016V862.456Z" stroke="white" stroke-width="3.6" stroke-linecap="round" stroke-linejoin="round"/>
<rect x="1566.28" y="806.958" width="128.996" height="128.996" rx="64.4981" stroke="white" stroke-width="1.35"/>
<path d="M1640.14 887.656C1643.16 887.656 1644.67 887.656 1645.83 887.067C1646.84 886.55 1647.67 885.723 1648.19 884.707C1648.78 883.552 1648.78 882.04 1648.78 879.016V863.896C1648.78 860.872 1648.78 859.359 1648.19 858.204C1647.67 857.188 1646.84 856.362 1645.83 855.844C1644.67 855.256 1643.16 855.256 1640.14 855.256L1621.42 855.256C1618.39 855.256 1616.88 855.256 1615.72 855.844C1614.71 856.362 1613.88 857.188 1613.36 858.204C1612.78 859.359 1612.78 860.872 1612.78 863.896L1612.78 879.016C1612.78 882.04 1612.78 883.552 1613.36 884.707C1613.88 885.723 1614.71 886.55 1615.72 887.067C1616.88 887.656 1618.39 887.656 1621.42 887.656H1640.14Z" fill="#17181C"/>
<path d="M1634.38 881.356L1638.88 876.856L1634.38 872.356" fill="#17181C"/>
<path d="M1627.18 872.356L1622.68 876.856L1627.18 881.356" fill="#17181C"/>
<path d="M1648.78 866.056H1612.78M1634.38 881.356L1638.88 876.856L1634.38 872.356M1627.18 872.356L1622.68 876.856L1627.18 881.356M1612.78 863.896L1612.78 879.016C1612.78 882.04 1612.78 883.552 1613.36 884.707C1613.88 885.723 1614.71 886.55 1615.72 887.067C1616.88 887.656 1618.39 887.656 1621.42 887.656H1640.14C1643.16 887.656 1644.67 887.656 1645.83 887.067C1646.84 886.55 1647.67 885.723 1648.19 884.707C1648.78 883.552 1648.78 882.04 1648.78 879.016V863.896C1648.78 860.872 1648.78 859.359 1648.19 858.204C1647.67 857.188 1646.84 856.362 1645.83 855.844C1644.67 855.256 1643.16 855.256 1640.14 855.256L1621.42 855.256C1618.39 855.256 1616.88 855.256 1615.72 855.844C1614.71 856.362 1613.88 857.188 1613.36 858.204C1612.78 859.359 1612.78 860.872 1612.78 863.896Z" stroke="white" stroke-width="3.6" stroke-linecap="round" stroke-linejoin="round"/>
<path d="M380.382 212.277H541.453L657.833 328.658" stroke="white" stroke-width="2.7" stroke-dasharray="10.8 10.8"/>
<path d="M1546.98 212.277H1385.91L1269.53 328.658" stroke="white" stroke-width="2.7" stroke-dasharray="10.8 10.8"/>
<path d="M380.382 870.523H541.453L657.833 754.143" stroke="white" stroke-width="2.7" stroke-dasharray="10.8 10.8"/>
<path d="M1546.98 870.523H1385.91L1269.53 754.143" stroke="white" stroke-width="2.7" stroke-dasharray="10.8 10.8"/>
</g>
<defs>
<filter id="filter0_f_4002_1442" x="123.418" y="-297" width="1674.01" height="1674.01" filterUnits="userSpaceOnUse" color-interpolation-filters="sRGB">
<feFlood flood-opacity="0" result="BackgroundImageFix"/>
<feBlend mode="normal" in="SourceGraphic" in2="BackgroundImageFix" result="shape"/>
<feGaussianBlur stdDeviation="202.5" result="effect1_foregroundBlur_4002_1442"/>
</filter>
<clipPath id="clip0_4002_1442">
<rect width="1920" height="1080" fill="white"/>
</clipPath>
</defs>
</svg>
