<svg width="1920" height="1080" viewBox="0 0 1920 1080" fill="none" xmlns="http://www.w3.org/2000/svg">
<g clip-path="url(#clip0_4002_1678)">
<g filter="url(#filter0_bd_4002_1678)">
<path d="M948 125.928C955.426 121.641 964.574 121.641 972 125.928L1165.37 237.572C1172.8 241.859 1177.37 249.782 1177.37 258.356V481.644C1177.37 490.218 1172.8 498.141 1165.37 502.428L972 614.072C964.574 618.359 955.426 618.359 948 614.072L754.628 502.428C747.202 498.141 742.628 490.218 742.628 481.644V258.356C742.628 249.782 747.202 241.859 754.628 237.572L948 125.928Z" fill="white" fill-opacity="0.01" shape-rendering="crispEdges"/>
<path d="M971.672 126.497L1165.04 238.14C1172.27 242.31 1176.72 250.016 1176.72 258.356V481.644C1176.72 489.984 1172.27 497.69 1165.04 501.86L971.672 613.503C964.449 617.673 955.551 617.673 948.328 613.503L754.956 501.86C747.733 497.69 743.284 489.984 743.284 481.644V258.356C743.284 250.016 747.733 242.31 754.956 238.14L948.328 126.497C955.551 122.327 964.449 122.327 971.672 126.497Z" stroke="white" stroke-opacity="0.1" stroke-width="1.3125" shape-rendering="crispEdges"/>
</g>
<g opacity="0.3" filter="url(#filter1_f_4002_1678)">
<rect x="728" y="308" width="464" height="464" fill="#CC34DF"/>
</g>
<path d="M1114.92 260.859L977.924 181.762C966.833 175.359 953.167 175.359 942.076 181.762L805.077 260.859C793.986 267.262 787.153 279.097 787.153 291.904V450.096C787.153 462.903 793.986 474.738 805.077 481.141L942.076 560.238C953.167 566.641 966.833 566.641 977.924 560.238L1114.92 481.141C1126.01 474.738 1132.85 462.903 1132.85 450.096V291.904C1132.85 279.097 1126.01 267.262 1114.92 260.859Z" fill="white"/>
<path d="M1114.92 260.859L977.924 181.762C966.833 175.359 953.167 175.359 942.076 181.762L805.077 260.859C793.986 267.262 787.153 279.097 787.153 291.904V450.096C787.153 462.903 793.986 474.738 805.077 481.141L942.076 560.238C953.167 566.641 966.833 566.641 977.924 560.238L1114.92 481.141C1126.01 474.738 1132.85 462.903 1132.85 450.096V291.904C1132.85 279.097 1126.01 267.262 1114.92 260.859Z" fill="url(#paint0_linear_4002_1678)" fill-opacity="0.7"/>
<path d="M1114.92 260.859L977.924 181.762C966.833 175.359 953.167 175.359 942.076 181.762L805.077 260.859C793.986 267.262 787.153 279.097 787.153 291.904V450.096C787.153 462.903 793.986 474.738 805.077 481.141L942.076 560.238C953.167 566.641 966.833 566.641 977.924 560.238L1114.92 481.141C1126.01 474.738 1132.85 462.903 1132.85 450.096V291.904C1132.85 279.097 1126.01 267.262 1114.92 260.859Z" stroke="black" stroke-width="6.21127"/>
<path d="M1114.92 260.859L977.924 181.762C966.833 175.359 953.167 175.359 942.076 181.762L805.077 260.859C793.986 267.262 787.153 279.097 787.153 291.904V450.096C787.153 462.903 793.986 474.738 805.077 481.141L942.076 560.238C953.167 566.641 966.833 566.641 977.924 560.238L1114.92 481.141C1126.01 474.738 1132.85 462.903 1132.85 450.096V291.904C1132.85 279.097 1126.01 267.262 1114.92 260.859Z" stroke="url(#paint1_linear_4002_1678)" stroke-width="6.21127"/>
<path d="M844.747 289.562L844.747 453.816" stroke="white" stroke-width="5.52113"/>
<path d="M844.747 289.562L844.747 453.816" stroke="url(#paint2_linear_4002_1678)" stroke-width="5.52113"/>
<path d="M964.83 289.562L964.83 453.816" stroke="white" stroke-width="5.52113"/>
<path d="M964.83 289.562L964.83 453.816" stroke="url(#paint3_linear_4002_1678)" stroke-width="5.52113"/>
<path d="M1071.11 289.562L1071.11 453.816" stroke="white" stroke-width="5.52113"/>
<path d="M1071.11 289.562L1071.11 453.816" stroke="url(#paint4_linear_4002_1678)" stroke-width="5.52113"/>
<path d="M862 311.646L1071.21 432.435" stroke="white" stroke-width="5.52113"/>
<path d="M862 311.646L1071.21 432.435" stroke="url(#paint5_linear_4002_1678)" stroke-width="5.52113"/>
<path d="M1086.73 299.469L850.267 435.99" stroke="white" stroke-width="5.52113"/>
<path d="M1086.73 299.469L850.267 435.99" stroke="url(#paint6_linear_4002_1678)" stroke-width="5.52113"/>
<path d="M962.496 249.482L850.266 314.278" stroke="white" stroke-width="5.52113"/>
<path d="M962.496 249.482L850.266 314.278" stroke="url(#paint7_linear_4002_1678)" stroke-width="5.52113"/>
<path d="M958.619 246.723L1070.85 311.519" stroke="white" stroke-width="5.52113"/>
<path d="M958.619 246.723L1070.85 311.519" stroke="url(#paint8_linear_4002_1678)" stroke-width="5.52113"/>
<path d="M962.496 497.908L850.266 433.112" stroke="white" stroke-width="5.52113"/>
<path d="M962.496 497.908L850.266 433.112" stroke="url(#paint9_linear_4002_1678)" stroke-width="5.52113"/>
<path d="M958.619 500.668L1070.85 435.872" stroke="white" stroke-width="5.52113"/>
<path d="M958.619 500.668L1070.85 435.872" stroke="url(#paint10_linear_4002_1678)" stroke-width="5.52113"/>
<path d="M847.343 279.3C848.159 278.847 848.566 278.62 848.998 278.532C849.38 278.453 849.775 278.453 850.157 278.532C850.589 278.62 850.996 278.847 851.812 279.3L873.091 291.122C873.953 291.6 874.383 291.84 874.697 292.18C874.974 292.481 875.184 292.838 875.313 293.226C875.458 293.666 875.458 294.159 875.458 295.144V318.485C875.458 319.471 875.458 319.963 875.313 320.403C875.184 320.791 874.974 321.148 874.697 321.449C874.383 321.789 873.953 322.029 873.091 322.507L851.812 334.329C850.996 334.782 850.589 335.009 850.157 335.098C849.775 335.176 849.38 335.176 848.998 335.098C848.566 335.009 848.159 334.782 847.343 334.329L826.064 322.507C825.202 322.029 824.772 321.789 824.458 321.449C824.181 321.148 823.971 320.791 823.842 320.403C823.697 319.963 823.697 319.471 823.697 318.485V295.144C823.697 294.159 823.697 293.666 823.842 293.227C823.971 292.838 824.181 292.481 824.458 292.18C824.772 291.84 825.202 291.6 826.064 291.122L847.343 279.3Z" fill="url(#paint11_linear_4002_1678)"/>
<path d="M874.02 293.235L849.577 306.814M849.577 306.814L825.135 293.235M849.577 306.814L849.578 334.133M875.458 318.485V295.144C875.458 294.159 875.458 293.666 875.313 293.226C875.184 292.838 874.974 292.481 874.697 292.18C874.383 291.84 873.953 291.6 873.091 291.122L851.812 279.3C850.996 278.847 850.589 278.62 850.157 278.532C849.775 278.453 849.38 278.453 848.998 278.532C848.566 278.62 848.159 278.847 847.343 279.3L826.064 291.122C825.202 291.6 824.772 291.84 824.458 292.18C824.181 292.481 823.971 292.838 823.842 293.227C823.697 293.666 823.697 294.159 823.697 295.144V318.485C823.697 319.471 823.697 319.963 823.842 320.403C823.971 320.791 824.181 321.148 824.458 321.449C824.772 321.789 825.202 322.029 826.064 322.507L847.343 334.329C848.159 334.782 848.566 335.009 848.998 335.098C849.38 335.176 849.775 335.176 850.157 335.098C850.589 335.009 850.996 334.782 851.812 334.329L873.091 322.507C873.953 322.029 874.383 321.789 874.697 321.449C874.974 321.148 875.184 320.791 875.313 320.403C875.458 319.963 875.458 319.471 875.458 318.485Z" stroke="white" stroke-width="5.75117" stroke-linecap="round" stroke-linejoin="round"/>
<path d="M962.597 233.062C963.413 232.609 963.82 232.382 964.252 232.293C964.634 232.215 965.029 232.215 965.411 232.293C965.843 232.382 966.25 232.609 967.066 233.062L988.345 244.884C989.207 245.362 989.637 245.601 989.951 245.942C990.228 246.243 990.438 246.6 990.567 246.988C990.712 247.428 990.712 247.92 990.712 248.906V272.247C990.712 273.232 990.712 273.725 990.567 274.164C990.438 274.553 990.228 274.91 989.951 275.211C989.637 275.551 989.207 275.79 988.345 276.269L967.066 288.091C966.25 288.544 965.843 288.77 965.411 288.859C965.029 288.938 964.634 288.938 964.252 288.859C963.82 288.77 963.413 288.544 962.597 288.091L941.318 276.269C940.456 275.79 940.026 275.551 939.712 275.211C939.435 274.91 939.225 274.553 939.096 274.164C938.951 273.725 938.951 273.232 938.951 272.247V248.906C938.951 247.92 938.951 247.428 939.096 246.988C939.225 246.6 939.435 246.243 939.712 245.942C940.026 245.601 940.456 245.362 941.318 244.884L962.597 233.062Z" fill="url(#paint12_linear_4002_1678)"/>
<path d="M989.274 246.997L964.831 260.576M964.831 260.576L940.389 246.997M964.831 260.576L964.831 287.894M990.712 272.247V248.906C990.712 247.92 990.712 247.428 990.567 246.988C990.438 246.6 990.228 246.243 989.951 245.942C989.637 245.601 989.207 245.362 988.345 244.884L967.066 233.062C966.25 232.609 965.843 232.382 965.411 232.293C965.029 232.215 964.634 232.215 964.252 232.293C963.82 232.382 963.413 232.609 962.597 233.062L941.318 244.884C940.456 245.362 940.026 245.601 939.712 245.942C939.435 246.243 939.225 246.6 939.096 246.988C938.951 247.428 938.951 247.92 938.951 248.906V272.247C938.951 273.232 938.951 273.725 939.096 274.164C939.225 274.553 939.435 274.91 939.712 275.211C940.026 275.551 940.456 275.79 941.318 276.269L962.597 288.091C963.413 288.544 963.82 288.77 964.252 288.859C964.634 288.938 965.029 288.938 965.411 288.859C965.843 288.77 966.25 288.544 967.066 288.091L988.345 276.269C989.207 275.79 989.637 275.551 989.951 275.211C990.228 274.91 990.438 274.553 990.567 274.164C990.712 273.725 990.712 273.232 990.712 272.247Z" stroke="white" stroke-width="5.75117" stroke-linecap="round" stroke-linejoin="round"/>
<path d="M1068.19 279.3C1069 278.847 1069.41 278.62 1069.84 278.532C1070.22 278.453 1070.62 278.453 1071 278.532C1071.43 278.62 1071.84 278.847 1072.66 279.3L1093.94 291.122C1094.8 291.6 1095.23 291.84 1095.54 292.18C1095.82 292.481 1096.03 292.838 1096.16 293.226C1096.3 293.666 1096.3 294.159 1096.3 295.144V318.485C1096.3 319.471 1096.3 319.963 1096.16 320.403C1096.03 320.791 1095.82 321.148 1095.54 321.449C1095.23 321.789 1094.8 322.029 1093.94 322.507L1072.66 334.329C1071.84 334.782 1071.43 335.009 1071 335.098C1070.62 335.176 1070.22 335.176 1069.84 335.098C1069.41 335.009 1069 334.782 1068.19 334.329L1046.91 322.507C1046.05 322.029 1045.62 321.789 1045.3 321.449C1045.02 321.148 1044.81 320.791 1044.69 320.403C1044.54 319.963 1044.54 319.471 1044.54 318.485V295.144C1044.54 294.159 1044.54 293.666 1044.69 293.227C1044.81 292.838 1045.02 292.481 1045.3 292.18C1045.62 291.84 1046.05 291.6 1046.91 291.122L1068.19 279.3Z" fill="url(#paint13_linear_4002_1678)"/>
<path d="M1094.86 293.235L1070.42 306.814M1070.42 306.814L1045.98 293.235M1070.42 306.814L1070.42 334.133M1096.3 318.485V295.144C1096.3 294.159 1096.3 293.666 1096.16 293.226C1096.03 292.838 1095.82 292.481 1095.54 292.18C1095.23 291.84 1094.8 291.6 1093.94 291.122L1072.66 279.3C1071.84 278.847 1071.43 278.62 1071 278.532C1070.62 278.453 1070.22 278.453 1069.84 278.532C1069.41 278.62 1069 278.847 1068.19 279.3L1046.91 291.122C1046.05 291.6 1045.62 291.84 1045.3 292.18C1045.02 292.481 1044.81 292.838 1044.69 293.227C1044.54 293.666 1044.54 294.159 1044.54 295.144V318.485C1044.54 319.471 1044.54 319.963 1044.69 320.403C1044.81 320.791 1045.02 321.148 1045.3 321.449C1045.62 321.789 1046.05 322.029 1046.91 322.507L1068.19 334.329C1069 334.782 1069.41 335.009 1069.84 335.098C1070.22 335.176 1070.62 335.176 1071 335.098C1071.43 335.009 1071.84 334.782 1072.66 334.329L1093.94 322.507C1094.8 322.029 1095.23 321.789 1095.54 321.449C1095.82 321.148 1096.03 320.791 1096.16 320.403C1096.3 319.963 1096.3 319.471 1096.3 318.485Z" stroke="white" stroke-width="5.75117" stroke-linecap="round" stroke-linejoin="round"/>
<g filter="url(#filter2_d_4002_1678)">
<rect x="900" y="311" width="120" height="120" rx="60" fill="url(#paint14_linear_4002_1678)"/>
<mask id="mask0_4002_1678" style="mask-type:alpha" maskUnits="userSpaceOnUse" x="933" y="344" width="54" height="54">
<rect x="933.6" y="344.6" width="52.8" height="52.8" fill="#D9D9D9"/>
</mask>
<g mask="url(#mask0_4002_1678)">
<path d="M959.996 393C954.9 391.717 950.692 388.793 947.374 384.228C944.056 379.663 942.396 374.593 942.396 369.02V355.6L959.996 349L977.596 355.6V369.02C977.596 374.593 975.937 379.663 972.619 384.228C969.301 388.793 965.093 391.717 959.996 393ZM959.996 388.38C963.553 387.28 966.523 385.108 968.906 381.863C971.29 378.618 972.683 374.997 973.086 371H959.996V353.675L946.796 358.625V370.01C946.796 370.267 946.833 370.597 946.906 371H959.996V388.38Z" fill="white"/>
</g>
</g>
<path d="M847.343 404.907C848.159 404.454 848.566 404.228 848.998 404.139C849.38 404.06 849.775 404.06 850.157 404.139C850.589 404.228 850.996 404.454 851.812 404.907L873.091 416.729C873.953 417.208 874.383 417.447 874.697 417.787C874.974 418.088 875.184 418.445 875.313 418.834C875.458 419.273 875.458 419.766 875.458 420.751V444.093C875.458 445.078 875.458 445.571 875.313 446.01C875.184 446.399 874.974 446.756 874.697 447.057C874.383 447.397 873.953 447.636 873.091 448.115L851.812 459.937C850.996 460.39 850.589 460.616 850.157 460.705C849.775 460.784 849.38 460.784 848.998 460.705C848.566 460.616 848.159 460.39 847.343 459.937L826.064 448.115C825.202 447.636 824.772 447.397 824.458 447.057C824.181 446.756 823.971 446.399 823.842 446.01C823.697 445.571 823.697 445.078 823.697 444.093V420.751C823.697 419.766 823.697 419.273 823.842 418.834C823.971 418.445 824.181 418.088 824.458 417.787C824.772 417.447 825.202 417.208 826.064 416.729L847.343 404.907Z" fill="url(#paint15_linear_4002_1678)"/>
<path d="M874.02 418.843L849.577 432.422M849.577 432.422L825.135 418.843M849.577 432.422L849.578 459.74M875.458 444.093V420.751C875.458 419.766 875.458 419.273 875.313 418.834C875.184 418.445 874.974 418.088 874.697 417.787C874.383 417.447 873.953 417.208 873.091 416.729L851.812 404.907C850.996 404.454 850.589 404.228 850.157 404.139C849.775 404.06 849.38 404.06 848.998 404.139C848.566 404.228 848.159 404.454 847.343 404.907L826.064 416.729C825.202 417.208 824.772 417.447 824.458 417.787C824.181 418.088 823.971 418.445 823.842 418.834C823.697 419.273 823.697 419.766 823.697 420.751V444.093C823.697 445.078 823.697 445.571 823.842 446.01C823.971 446.399 824.181 446.756 824.458 447.057C824.772 447.397 825.202 447.636 826.064 448.115L847.343 459.937C848.159 460.39 848.566 460.616 848.998 460.705C849.38 460.784 849.775 460.784 850.157 460.705C850.589 460.616 850.996 460.39 851.812 459.937L873.091 448.115C873.953 447.636 874.383 447.397 874.697 447.057C874.974 446.756 875.184 446.399 875.313 446.01C875.458 445.571 875.458 445.078 875.458 444.093Z" stroke="white" stroke-width="5.75117" stroke-linecap="round" stroke-linejoin="round"/>
<path d="M962.597 453.907C963.413 453.454 963.82 453.228 964.252 453.139C964.634 453.06 965.029 453.06 965.411 453.139C965.843 453.228 966.25 453.454 967.066 453.907L988.345 465.729C989.207 466.208 989.637 466.447 989.951 466.787C990.228 467.088 990.438 467.445 990.567 467.834C990.712 468.273 990.712 468.766 990.712 469.751V493.093C990.712 494.078 990.712 494.571 990.567 495.01C990.438 495.399 990.228 495.756 989.951 496.057C989.637 496.397 989.207 496.636 988.345 497.115L967.066 508.937C966.25 509.39 965.843 509.616 965.411 509.705C965.029 509.784 964.634 509.784 964.252 509.705C963.82 509.616 963.413 509.39 962.597 508.937L941.318 497.115C940.456 496.636 940.026 496.397 939.712 496.057C939.435 495.756 939.225 495.399 939.096 495.01C938.951 494.571 938.951 494.078 938.951 493.093V469.751C938.951 468.766 938.951 468.273 939.096 467.834C939.225 467.445 939.435 467.088 939.712 466.787C940.026 466.447 940.456 466.208 941.318 465.729L962.597 453.907Z" fill="url(#paint16_linear_4002_1678)"/>
<path d="M989.274 467.843L964.831 481.422M964.831 481.422L940.389 467.843M964.831 481.422L964.831 508.74M990.712 493.093V469.751C990.712 468.766 990.712 468.273 990.567 467.834C990.438 467.445 990.228 467.088 989.951 466.787C989.637 466.447 989.207 466.208 988.345 465.729L967.066 453.907C966.25 453.454 965.843 453.228 965.411 453.139C965.029 453.06 964.634 453.06 964.252 453.139C963.82 453.228 963.413 453.454 962.597 453.907L941.318 465.729C940.456 466.208 940.026 466.447 939.712 466.787C939.435 467.088 939.225 467.445 939.096 467.834C938.951 468.273 938.951 468.766 938.951 469.751V493.093C938.951 494.078 938.951 494.571 939.096 495.01C939.225 495.399 939.435 495.756 939.712 496.057C940.026 496.397 940.456 496.636 941.318 497.115L962.597 508.937C963.413 509.39 963.82 509.616 964.252 509.705C964.634 509.784 965.029 509.784 965.411 509.705C965.843 509.616 966.25 509.39 967.066 508.937L988.345 497.115C989.207 496.636 989.637 496.397 989.951 496.057C990.228 495.756 990.438 495.399 990.567 495.01C990.712 494.571 990.712 494.078 990.712 493.093Z" stroke="white" stroke-width="5.75117" stroke-linecap="round" stroke-linejoin="round"/>
<path d="M1068.19 404.907C1069 404.454 1069.41 404.228 1069.84 404.139C1070.23 404.06 1070.62 404.06 1071 404.139C1071.43 404.228 1071.84 404.454 1072.66 404.907L1093.94 416.729C1094.8 417.208 1095.23 417.447 1095.54 417.787C1095.82 418.088 1096.03 418.445 1096.16 418.834C1096.3 419.273 1096.3 419.766 1096.3 420.751V444.093C1096.3 445.078 1096.3 445.571 1096.16 446.01C1096.03 446.399 1095.82 446.756 1095.54 447.057C1095.23 447.397 1094.8 447.636 1093.94 448.115L1072.66 459.937C1071.84 460.39 1071.43 460.616 1071 460.705C1070.62 460.784 1070.23 460.784 1069.84 460.705C1069.41 460.616 1069 460.39 1068.19 459.937L1046.91 448.115C1046.05 447.636 1045.62 447.397 1045.3 447.057C1045.03 446.756 1044.82 446.399 1044.69 446.01C1044.54 445.571 1044.54 445.078 1044.54 444.093V420.751C1044.54 419.766 1044.54 419.273 1044.69 418.834C1044.82 418.445 1045.03 418.088 1045.3 417.787C1045.62 417.447 1046.05 417.208 1046.91 416.729L1068.19 404.907Z" fill="url(#paint17_linear_4002_1678)"/>
<path d="M1094.87 418.843L1070.42 432.422M1070.42 432.422L1045.98 418.843M1070.42 432.422L1070.42 459.74M1096.3 444.093V420.751C1096.3 419.766 1096.3 419.273 1096.16 418.834C1096.03 418.445 1095.82 418.088 1095.54 417.787C1095.23 417.447 1094.8 417.208 1093.94 416.729L1072.66 404.907C1071.84 404.454 1071.43 404.228 1071 404.139C1070.62 404.06 1070.23 404.06 1069.84 404.139C1069.41 404.228 1069 404.454 1068.19 404.907L1046.91 416.729C1046.05 417.208 1045.62 417.447 1045.3 417.787C1045.03 418.088 1044.82 418.445 1044.69 418.834C1044.54 419.273 1044.54 419.766 1044.54 420.751V444.093C1044.54 445.078 1044.54 445.571 1044.69 446.01C1044.82 446.399 1045.03 446.756 1045.3 447.057C1045.62 447.397 1046.05 447.636 1046.91 448.115L1068.19 459.937C1069 460.39 1069.41 460.616 1069.84 460.705C1070.23 460.784 1070.62 460.784 1071 460.705C1071.43 460.616 1071.84 460.39 1072.66 459.937L1093.94 448.115C1094.8 447.636 1095.23 447.397 1095.54 447.057C1095.82 446.756 1096.03 446.399 1096.16 446.01C1096.3 445.571 1096.3 445.078 1096.3 444.093Z" stroke="white" stroke-width="5.75117" stroke-linecap="round" stroke-linejoin="round"/>
<rect x="215" y="762" width="70" height="70" rx="35" fill="url(#paint18_linear_4002_1678)"/>
<path d="M260.666 809C260.666 807.139 260.666 806.209 260.437 805.452C259.92 803.747 258.586 802.413 256.881 801.896C256.124 801.667 255.194 801.667 253.333 801.667H246.666C244.806 801.667 243.875 801.667 243.118 801.896C241.414 802.413 240.08 803.747 239.563 805.452C239.333 806.209 239.333 807.139 239.333 809M256 791C256 794.314 253.313 797 250 797C246.686 797 244 794.314 244 791C244 787.686 246.686 785 250 785C253.313 785 256 787.686 256 791Z" stroke="white" stroke-width="2.66667" stroke-linecap="round" stroke-linejoin="round"/>
<rect x="452" y="762" width="70" height="70" rx="35" fill="url(#paint19_linear_4002_1678)"/>
<path d="M488.334 790.333L486.846 787.359C486.418 786.502 486.204 786.074 485.885 785.762C485.602 785.485 485.262 785.275 484.888 785.146C484.466 785 483.987 785 483.03 785H477.934C476.44 785 475.693 785 475.123 785.291C474.621 785.546 474.213 785.954 473.958 786.456C473.667 787.026 473.667 787.773 473.667 789.267V790.333M473.667 790.333H493.934C496.174 790.333 497.294 790.333 498.15 790.769C498.902 791.153 499.514 791.765 499.898 792.517C500.334 793.373 500.334 794.493 500.334 796.733V802.6C500.334 804.84 500.334 805.96 499.898 806.816C499.514 807.569 498.902 808.181 498.15 808.564C497.294 809 496.174 809 493.934 809H480.067C477.827 809 476.707 809 475.851 808.564C475.098 808.181 474.486 807.569 474.103 806.816C473.667 805.96 473.667 804.84 473.667 802.6V790.333Z" stroke="white" stroke-width="2.66667" stroke-linecap="round" stroke-linejoin="round"/>
<rect x="689" y="762" width="70" height="70" rx="35" fill="url(#paint20_linear_4002_1678)"/>
<path d="M737.334 793H710.667M726.667 804.333L730 801L726.667 797.667M721.334 797.667L718 801L721.334 804.333M710.667 791.4L710.667 802.6C710.667 804.84 710.667 805.96 711.103 806.816C711.486 807.569 712.098 808.181 712.851 808.564C713.707 809 714.827 809 717.067 809H730.934C733.174 809 734.294 809 735.15 808.564C735.902 808.181 736.514 807.569 736.898 806.816C737.334 805.96 737.334 804.84 737.334 802.6V791.4C737.334 789.16 737.334 788.04 736.898 787.184C736.514 786.431 735.902 785.819 735.15 785.436C734.294 785 733.174 785 730.934 785L717.067 785C714.827 785 713.707 785 712.851 785.436C712.098 785.819 711.486 786.431 711.103 787.184C710.667 788.04 710.667 789.16 710.667 791.4Z" stroke="white" stroke-width="2.66667" stroke-linecap="round" stroke-linejoin="round"/>
<rect x="926" y="762" width="70" height="70" rx="35" fill="url(#paint21_linear_4002_1678)"/>
<path d="M971.666 809C971.666 807.139 971.666 806.209 971.437 805.452C970.92 803.747 969.586 802.413 967.881 801.896C967.124 801.667 966.194 801.667 964.333 801.667H957.666C955.806 801.667 954.875 801.667 954.118 801.896C952.414 802.413 951.08 803.747 950.563 805.452C950.333 806.209 950.333 807.139 950.333 809M967 791C967 794.314 964.313 797 961 797C957.686 797 955 794.314 955 791C955 787.686 957.686 785 961 785C964.313 785 967 787.686 967 791Z" stroke="white" stroke-width="2.66667" stroke-linecap="round" stroke-linejoin="round"/>
<rect x="1163" y="762" width="70" height="70" rx="35" fill="url(#paint22_linear_4002_1678)"/>
<path d="M1211.33 793H1184.67M1200.67 804.333L1204 801L1200.67 797.667M1195.33 797.667L1192 801L1195.33 804.333M1184.67 791.4L1184.67 802.6C1184.67 804.84 1184.67 805.96 1185.1 806.816C1185.49 807.569 1186.1 808.181 1186.85 808.564C1187.71 809 1188.83 809 1191.07 809H1204.93C1207.17 809 1208.29 809 1209.15 808.564C1209.9 808.181 1210.51 807.569 1210.9 806.816C1211.33 805.96 1211.33 804.84 1211.33 802.6V791.4C1211.33 789.16 1211.33 788.04 1210.9 787.184C1210.51 786.431 1209.9 785.819 1209.15 785.436C1208.29 785 1207.17 785 1204.93 785L1191.07 785C1188.83 785 1187.71 785 1186.85 785.436C1186.1 785.819 1185.49 786.431 1185.1 787.184C1184.67 788.04 1184.67 789.16 1184.67 791.4Z" stroke="white" stroke-width="2.66667" stroke-linecap="round" stroke-linejoin="round"/>
<rect x="1400" y="762" width="70" height="70" rx="35" fill="url(#paint23_linear_4002_1678)"/>
<path d="M1445.67 809C1445.67 807.139 1445.67 806.209 1445.44 805.452C1444.92 803.747 1443.59 802.413 1441.88 801.896C1441.12 801.667 1440.19 801.667 1438.33 801.667H1431.67C1429.81 801.667 1428.88 801.667 1428.12 801.896C1426.41 802.413 1425.08 803.747 1424.56 805.452C1424.33 806.209 1424.33 807.139 1424.33 809M1441 791C1441 794.314 1438.31 797 1435 797C1431.69 797 1429 794.314 1429 791C1429 787.686 1431.69 785 1435 785C1438.31 785 1441 787.686 1441 791Z" stroke="white" stroke-width="2.66667" stroke-linecap="round" stroke-linejoin="round"/>
<rect x="1637" y="762" width="70" height="70" rx="35" fill="url(#paint24_linear_4002_1678)"/>
<path d="M1673.33 790.333L1671.85 787.359C1671.42 786.502 1671.2 786.074 1670.88 785.762C1670.6 785.485 1670.26 785.275 1669.89 785.146C1669.47 785 1668.99 785 1668.03 785H1662.93C1661.44 785 1660.69 785 1660.12 785.291C1659.62 785.546 1659.21 785.954 1658.96 786.456C1658.67 787.026 1658.67 787.773 1658.67 789.267V790.333M1658.67 790.333H1678.93C1681.17 790.333 1682.29 790.333 1683.15 790.769C1683.9 791.153 1684.51 791.765 1684.9 792.517C1685.33 793.373 1685.33 794.493 1685.33 796.733V802.6C1685.33 804.84 1685.33 805.96 1684.9 806.816C1684.51 807.569 1683.9 808.181 1683.15 808.564C1682.29 809 1681.17 809 1678.93 809H1665.07C1662.83 809 1661.71 809 1660.85 808.564C1660.1 808.181 1659.49 807.569 1659.1 806.816C1658.67 805.96 1658.67 804.84 1658.67 802.6V790.333Z" stroke="white" stroke-width="2.66667" stroke-linecap="round" stroke-linejoin="round"/>
<rect x="89" y="915" width="70" height="70" rx="35" fill="url(#paint25_linear_4002_1678)"/>
<path d="M134.666 962C134.666 960.139 134.666 959.209 134.437 958.452C133.92 956.747 132.586 955.413 130.881 954.896C130.124 954.667 129.194 954.667 127.333 954.667H120.666C118.806 954.667 117.875 954.667 117.118 954.896C115.414 955.413 114.08 956.747 113.563 958.452C113.333 959.209 113.333 960.139 113.333 962M130 944C130 947.314 127.313 950 124 950C120.686 950 118 947.314 118 944C118 940.686 120.686 938 124 938C127.313 938 130 940.686 130 944Z" stroke="white" stroke-width="2.66667" stroke-linecap="round" stroke-linejoin="round"/>
<rect x="328" y="915" width="70" height="70" rx="35" fill="url(#paint26_linear_4002_1678)"/>
<path d="M364.334 943.333L362.846 940.359C362.418 939.502 362.204 939.074 361.885 938.762C361.602 938.485 361.262 938.275 360.888 938.146C360.466 938 359.987 938 359.03 938H353.934C352.44 938 351.693 938 351.123 938.291C350.621 938.546 350.213 938.954 349.958 939.456C349.667 940.026 349.667 940.773 349.667 942.267V943.333M349.667 943.333H369.934C372.174 943.333 373.294 943.333 374.15 943.769C374.902 944.153 375.514 944.765 375.898 945.517C376.334 946.373 376.334 947.493 376.334 949.733V955.6C376.334 957.84 376.334 958.96 375.898 959.816C375.514 960.569 374.902 961.181 374.15 961.564C373.294 962 372.174 962 369.934 962H356.067C353.827 962 352.707 962 351.851 961.564C351.098 961.181 350.486 960.569 350.103 959.816C349.667 958.96 349.667 957.84 349.667 955.6V943.333Z" stroke="white" stroke-width="2.66667" stroke-linecap="round" stroke-linejoin="round"/>
<rect x="567" y="915" width="70" height="70" rx="35" fill="url(#paint27_linear_4002_1678)"/>
<path d="M615.334 946H588.667M604.667 957.333L608 954L604.667 950.667M599.334 950.667L596 954L599.334 957.333M588.667 944.4L588.667 955.6C588.667 957.84 588.667 958.96 589.103 959.816C589.486 960.569 590.098 961.181 590.851 961.564C591.707 962 592.827 962 595.067 962H608.934C611.174 962 612.294 962 613.15 961.564C613.902 961.181 614.514 960.569 614.898 959.816C615.334 958.96 615.334 957.84 615.334 955.6V944.4C615.334 942.16 615.334 941.04 614.898 940.184C614.514 939.431 613.902 938.819 613.15 938.436C612.294 938 611.174 938 608.934 938L595.067 938C592.827 938 591.707 938 590.851 938.436C590.098 938.819 589.486 939.431 589.103 940.184C588.667 941.04 588.667 942.16 588.667 944.4Z" stroke="white" stroke-width="2.66667" stroke-linecap="round" stroke-linejoin="round"/>
<rect x="806" y="915" width="70" height="70" rx="35" fill="url(#paint28_linear_4002_1678)"/>
<path d="M842.334 943.333L840.846 940.359C840.418 939.502 840.204 939.074 839.885 938.762C839.602 938.485 839.262 938.275 838.888 938.146C838.466 938 837.987 938 837.03 938H831.934C830.44 938 829.693 938 829.123 938.291C828.621 938.546 828.213 938.954 827.958 939.456C827.667 940.026 827.667 940.773 827.667 942.267V943.333M827.667 943.333H847.934C850.174 943.333 851.294 943.333 852.15 943.769C852.902 944.153 853.514 944.765 853.898 945.517C854.334 946.373 854.334 947.493 854.334 949.733V955.6C854.334 957.84 854.334 958.96 853.898 959.816C853.514 960.569 852.902 961.181 852.15 961.564C851.294 962 850.174 962 847.934 962H834.067C831.827 962 830.707 962 829.851 961.564C829.098 961.181 828.486 960.569 828.103 959.816C827.667 958.96 827.667 957.84 827.667 955.6V943.333Z" stroke="white" stroke-width="2.66667" stroke-linecap="round" stroke-linejoin="round"/>
<rect x="1046" y="915" width="70" height="70" rx="35" fill="url(#paint29_linear_4002_1678)"/>
<path d="M1091.67 962C1091.67 960.139 1091.67 959.209 1091.44 958.452C1090.92 956.747 1089.59 955.413 1087.88 954.896C1087.12 954.667 1086.19 954.667 1084.33 954.667H1077.67C1075.81 954.667 1074.88 954.667 1074.12 954.896C1072.41 955.413 1071.08 956.747 1070.56 958.452C1070.33 959.209 1070.33 960.139 1070.33 962M1087 944C1087 947.314 1084.31 950 1081 950C1077.69 950 1075 947.314 1075 944C1075 940.686 1077.69 938 1081 938C1084.31 938 1087 940.686 1087 944Z" stroke="white" stroke-width="2.66667" stroke-linecap="round" stroke-linejoin="round"/>
<rect x="1285" y="915" width="70" height="70" rx="35" fill="url(#paint30_linear_4002_1678)"/>
<path d="M1333.33 946H1306.67M1322.67 957.333L1326 954L1322.67 950.667M1317.33 950.667L1314 954L1317.33 957.333M1306.67 944.4L1306.67 955.6C1306.67 957.84 1306.67 958.96 1307.1 959.816C1307.49 960.569 1308.1 961.181 1308.85 961.564C1309.71 962 1310.83 962 1313.07 962H1326.93C1329.17 962 1330.29 962 1331.15 961.564C1331.9 961.181 1332.51 960.569 1332.9 959.816C1333.33 958.96 1333.33 957.84 1333.33 955.6V944.4C1333.33 942.16 1333.33 941.04 1332.9 940.184C1332.51 939.431 1331.9 938.819 1331.15 938.436C1330.29 938 1329.17 938 1326.93 938L1313.07 938C1310.83 938 1309.71 938 1308.85 938.436C1308.1 938.819 1307.49 939.431 1307.1 940.184C1306.67 941.04 1306.67 942.16 1306.67 944.4Z" stroke="white" stroke-width="2.66667" stroke-linecap="round" stroke-linejoin="round"/>
<rect x="1524" y="915" width="70" height="70" rx="35" fill="url(#paint31_linear_4002_1678)"/>
<path d="M1569.67 962C1569.67 960.139 1569.67 959.209 1569.44 958.452C1568.92 956.747 1567.59 955.413 1565.88 954.896C1565.12 954.667 1564.19 954.667 1562.33 954.667H1555.67C1553.81 954.667 1552.88 954.667 1552.12 954.896C1550.41 955.413 1549.08 956.747 1548.56 958.452C1548.33 959.209 1548.33 960.139 1548.33 962M1565 944C1565 947.314 1562.31 950 1559 950C1555.69 950 1553 947.314 1553 944C1553 940.686 1555.69 938 1559 938C1562.31 938 1565 940.686 1565 944Z" stroke="white" stroke-width="2.66667" stroke-linecap="round" stroke-linejoin="round"/>
<rect x="1763" y="915" width="70" height="70" rx="35" fill="url(#paint32_linear_4002_1678)"/>
<path d="M1799.33 943.333L1797.85 940.359C1797.42 939.502 1797.2 939.074 1796.88 938.762C1796.6 938.485 1796.26 938.275 1795.89 938.146C1795.47 938 1794.99 938 1794.03 938H1788.93C1787.44 938 1786.69 938 1786.12 938.291C1785.62 938.546 1785.21 938.954 1784.96 939.456C1784.67 940.026 1784.67 940.773 1784.67 942.267V943.333M1784.67 943.333H1804.93C1807.17 943.333 1808.29 943.333 1809.15 943.769C1809.9 944.153 1810.51 944.765 1810.9 945.517C1811.33 946.373 1811.33 947.493 1811.33 949.733V955.6C1811.33 957.84 1811.33 958.96 1810.9 959.816C1810.51 960.569 1809.9 961.181 1809.15 961.564C1808.29 962 1807.17 962 1804.93 962H1791.07C1788.83 962 1787.71 962 1786.85 961.564C1786.1 961.181 1785.49 960.569 1785.1 959.816C1784.67 958.96 1784.67 957.84 1784.67 955.6V943.333Z" stroke="white" stroke-width="2.66667" stroke-linecap="round" stroke-linejoin="round"/>
<path d="M954.667 573C954.667 575.946 957.054 578.333 960 578.333C962.946 578.333 965.333 575.946 965.333 573C965.333 570.054 962.946 567.667 960 567.667C957.054 567.667 954.667 570.054 954.667 573ZM959 576.729C959 577.281 959.448 577.729 960 577.729C960.552 577.729 961 577.281 961 576.729H959ZM961 584.188C961 583.635 960.552 583.188 960 583.188C959.448 583.188 959 583.635 959 584.188H961ZM959 591.646C959 592.198 959.448 592.646 960 592.646C960.552 592.646 961 592.198 961 591.646H959ZM961 599.104C961 598.552 960.552 598.104 960 598.104C959.448 598.104 959 598.552 959 599.104H961ZM959 606.562C959 607.115 959.448 607.562 960 607.562C960.552 607.562 961 607.115 961 606.562H959ZM961 614.021C961 613.469 960.552 613.021 960 613.021C959.448 613.021 959 613.469 959 614.021H961ZM959 621.479C959 622.031 959.448 622.479 960 622.479C960.552 622.479 961 622.031 961 621.479H959ZM961 628.937C961 628.385 960.552 627.937 960 627.937C959.448 627.937 959 628.385 959 628.937H961ZM959 636.396C959 636.948 959.448 637.396 960 637.396C960.552 637.396 961 636.948 961 636.396H959ZM961 643.854C961 643.302 960.552 642.854 960 642.854C959.448 642.854 959 643.302 959 643.854H961ZM959 651.312C959 651.865 959.448 652.312 960 652.312C960.552 652.312 961 651.865 961 651.312H959ZM961 658.771C961 658.219 960.552 657.771 960 657.771C959.448 657.771 959 658.219 959 658.771H961ZM959 573V576.729H961V573H959ZM959 584.188V591.646H961V584.188H959ZM959 599.104V606.562H961V599.104H959ZM959 614.021V621.479H961V614.021H959ZM959 628.937V636.396H961V628.937H959ZM959 643.854V651.312H961V643.854H959ZM959 658.771V662.5H961V658.771H959Z" fill="#CC34DF"/>
<path d="M250 751L250 688.966C250 675.724 260.725 664.985 273.966 664.966L1645.97 663.034C1659.23 663.015 1670 673.766 1670 687.034L1670 750.5" stroke="#CC34DF" stroke-width="2" stroke-linecap="round" stroke-dasharray="8 8"/>
<path d="M363 668V842C363 855.255 352.255 866 339 866H148C134.745 866 124 876.745 124 890V905.5" stroke="#CC34DF" stroke-width="2" stroke-linecap="round" stroke-dasharray="8 8"/>
<path d="M1559 668V842C1559 855.255 1548.25 866 1535 866H1344C1330.75 866 1320 876.745 1320 890V905.5" stroke="#CC34DF" stroke-width="2" stroke-linecap="round" stroke-dasharray="8 8"/>
<path d="M363 668V842C363 855.255 373.745 866 387 866H578C591.255 866 602 876.745 602 890V905.5" stroke="#CC34DF" stroke-width="2" stroke-linecap="round" stroke-dasharray="8 8"/>
<path d="M1559 668V842C1559 855.255 1569.75 866 1583 866H1774C1787.25 866 1798 876.745 1798 890V905.5" stroke="#CC34DF" stroke-width="2" stroke-linecap="round" stroke-dasharray="8 8"/>
<path d="M363 820V905" stroke="#CC34DF" stroke-width="2" stroke-linecap="round" stroke-dasharray="8 8"/>
<path d="M363 995V1097" stroke="#CC34DF" stroke-width="2" stroke-linecap="round" stroke-dasharray="8 8"/>
<path d="M602 995V1097" stroke="#CC34DF" stroke-width="2" stroke-linecap="round" stroke-dasharray="8 8"/>
<path d="M841 995V1097" stroke="#CC34DF" stroke-width="2" stroke-linecap="round" stroke-dasharray="8 8"/>
<path d="M1080 995V1097" stroke="#CC34DF" stroke-width="2" stroke-linecap="round" stroke-dasharray="8 8"/>
<path d="M1319 995V1097" stroke="#CC34DF" stroke-width="2" stroke-linecap="round" stroke-dasharray="8 8"/>
<path d="M1558 995V1097" stroke="#CC34DF" stroke-width="2" stroke-linecap="round" stroke-dasharray="8 8"/>
<path d="M1797 995V1097" stroke="#CC34DF" stroke-width="2" stroke-linecap="round" stroke-dasharray="8 8"/>
<path d="M124 995V1097" stroke="#CC34DF" stroke-width="2" stroke-linecap="round" stroke-dasharray="8 8"/>
<path d="M1559 820V905" stroke="#CC34DF" stroke-width="2" stroke-linecap="round" stroke-dasharray="8 8"/>
<path d="M841 668L841 905" stroke="#CC34DF" stroke-width="2" stroke-linecap="round" stroke-dasharray="8 8"/>
<path d="M1081 668L1081 905" stroke="#CC34DF" stroke-width="2" stroke-linecap="round" stroke-dasharray="8 8"/>
<path d="M487 663V748" stroke="#CC34DF" stroke-width="2" stroke-linecap="round" stroke-dasharray="8 8"/>
<path d="M724 663V748" stroke="#CC34DF" stroke-width="2" stroke-linecap="round" stroke-dasharray="8 8"/>
<path d="M961 663V748" stroke="#CC34DF" stroke-width="2" stroke-linecap="round" stroke-dasharray="8 8"/>
<path d="M1198 663V748" stroke="#CC34DF" stroke-width="2" stroke-linecap="round" stroke-dasharray="8 8"/>
<path d="M1435 663V748" stroke="#CC34DF" stroke-width="2" stroke-linecap="round" stroke-dasharray="8 8"/>
</g>
<defs>
<filter id="filter0_bd_4002_1678" x="646.628" y="38.7129" width="626.744" height="686.574" filterUnits="userSpaceOnUse" color-interpolation-filters="sRGB">
<feFlood flood-opacity="0" result="BackgroundImageFix"/>
<feGaussianBlur in="BackgroundImageFix" stdDeviation="16"/>
<feComposite in2="SourceAlpha" operator="in" result="effect1_backgroundBlur_4002_1678"/>
<feColorMatrix in="SourceAlpha" type="matrix" values="0 0 0 0 0 0 0 0 0 0 0 0 0 0 0 0 0 0 127 0" result="hardAlpha"/>
<feOffset dy="12"/>
<feGaussianBlur stdDeviation="48"/>
<feComposite in2="hardAlpha" operator="out"/>
<feColorMatrix type="matrix" values="0 0 0 0 0 0 0 0 0 0 0 0 0 0 0 0 0 0 0.12 0"/>
<feBlend mode="normal" in2="effect1_backgroundBlur_4002_1678" result="effect2_dropShadow_4002_1678"/>
<feBlend mode="normal" in="SourceGraphic" in2="effect2_dropShadow_4002_1678" result="shape"/>
</filter>
<filter id="filter1_f_4002_1678" x="428" y="8" width="1064" height="1064" filterUnits="userSpaceOnUse" color-interpolation-filters="sRGB">
<feFlood flood-opacity="0" result="BackgroundImageFix"/>
<feBlend mode="normal" in="SourceGraphic" in2="BackgroundImageFix" result="shape"/>
<feGaussianBlur stdDeviation="150" result="effect1_foregroundBlur_4002_1678"/>
</filter>
<filter id="filter2_d_4002_1678" x="-4.09119" y="-471.387" width="1928.18" height="1928.18" filterUnits="userSpaceOnUse" color-interpolation-filters="sRGB">
<feFlood flood-opacity="0" result="BackgroundImageFix"/>
<feColorMatrix in="SourceAlpha" type="matrix" values="0 0 0 0 0 0 0 0 0 0 0 0 0 0 0 0 0 0 127 0" result="hardAlpha"/>
<feOffset dy="121.705"/>
<feGaussianBlur stdDeviation="452.046"/>
<feComposite in2="hardAlpha" operator="out"/>
<feColorMatrix type="matrix" values="0 0 0 0 0.8 0 0 0 0 0.203922 0 0 0 0 0.87451 0 0 0 0.65 0"/>
<feBlend mode="normal" in2="BackgroundImageFix" result="effect1_dropShadow_4002_1678"/>
<feBlend mode="normal" in="SourceGraphic" in2="effect1_dropShadow_4002_1678" result="shape"/>
</filter>
<linearGradient id="paint0_linear_4002_1678" x1="960" y1="175" x2="960" y2="567" gradientUnits="userSpaceOnUse">
<stop stop-color="#1E1F23" stop-opacity="0"/>
<stop offset="1" stop-color="#1E1F23" stop-opacity="0.24"/>
</linearGradient>
<linearGradient id="paint1_linear_4002_1678" x1="770.197" y1="142.64" x2="695.864" y2="473.434" gradientUnits="userSpaceOnUse">
<stop stop-color="#F05C80"/>
<stop offset="1" stop-color="#CC34DF"/>
</linearGradient>
<linearGradient id="paint2_linear_4002_1678" x1="844.763" y1="276.003" x2="840.821" y2="276.11" gradientUnits="userSpaceOnUse">
<stop stop-color="#F05C80"/>
<stop offset="1" stop-color="#CC34DF"/>
</linearGradient>
<linearGradient id="paint3_linear_4002_1678" x1="964.846" y1="276.003" x2="960.904" y2="276.11" gradientUnits="userSpaceOnUse">
<stop stop-color="#F05C80"/>
<stop offset="1" stop-color="#CC34DF"/>
</linearGradient>
<linearGradient id="paint4_linear_4002_1678" x1="1071.13" y1="276.003" x2="1067.19" y2="276.11" gradientUnits="userSpaceOnUse">
<stop stop-color="#F05C80"/>
<stop offset="1" stop-color="#CC34DF"/>
</linearGradient>
<linearGradient id="paint5_linear_4002_1678" x1="844.737" y1="301.662" x2="842.828" y2="305.113" gradientUnits="userSpaceOnUse">
<stop stop-color="#F05C80"/>
<stop offset="1" stop-color="#CC34DF"/>
</linearGradient>
<linearGradient id="paint6_linear_4002_1678" x1="1106.24" y1="288.185" x2="1108.16" y2="291.633" gradientUnits="userSpaceOnUse">
<stop stop-color="#F05C80"/>
<stop offset="1" stop-color="#CC34DF"/>
</linearGradient>
<linearGradient id="paint7_linear_4002_1678" x1="971.753" y1="244.12" x2="973.606" y2="247.6" gradientUnits="userSpaceOnUse">
<stop stop-color="#F05C80"/>
<stop offset="1" stop-color="#CC34DF"/>
</linearGradient>
<linearGradient id="paint8_linear_4002_1678" x1="949.362" y1="241.36" x2="947.509" y2="244.84" gradientUnits="userSpaceOnUse">
<stop stop-color="#F05C80"/>
<stop offset="1" stop-color="#CC34DF"/>
</linearGradient>
<linearGradient id="paint9_linear_4002_1678" x1="971.753" y1="503.271" x2="973.606" y2="499.791" gradientUnits="userSpaceOnUse">
<stop stop-color="#F05C80"/>
<stop offset="1" stop-color="#CC34DF"/>
</linearGradient>
<linearGradient id="paint10_linear_4002_1678" x1="949.362" y1="506.031" x2="947.509" y2="502.551" gradientUnits="userSpaceOnUse">
<stop stop-color="#F05C80"/>
<stop offset="1" stop-color="#CC34DF"/>
</linearGradient>
<linearGradient id="paint11_linear_4002_1678" x1="824.515" y1="273.793" x2="812.856" y2="321.173" gradientUnits="userSpaceOnUse">
<stop stop-color="#F05C80"/>
<stop offset="1" stop-color="#CC34DF"/>
</linearGradient>
<linearGradient id="paint12_linear_4002_1678" x1="939.769" y1="227.555" x2="928.11" y2="274.934" gradientUnits="userSpaceOnUse">
<stop stop-color="#F05C80"/>
<stop offset="1" stop-color="#CC34DF"/>
</linearGradient>
<linearGradient id="paint13_linear_4002_1678" x1="1045.36" y1="273.793" x2="1033.7" y2="321.173" gradientUnits="userSpaceOnUse">
<stop stop-color="#F05C80"/>
<stop offset="1" stop-color="#CC34DF"/>
</linearGradient>
<linearGradient id="paint14_linear_4002_1678" x1="901.897" y1="301.094" x2="902.456" y2="347.563" gradientUnits="userSpaceOnUse">
<stop stop-color="#F05C80"/>
<stop offset="1" stop-color="#CC34DF"/>
</linearGradient>
<linearGradient id="paint15_linear_4002_1678" x1="824.515" y1="399.401" x2="812.856" y2="446.78" gradientUnits="userSpaceOnUse">
<stop stop-color="#F05C80"/>
<stop offset="1" stop-color="#CC34DF"/>
</linearGradient>
<linearGradient id="paint16_linear_4002_1678" x1="939.769" y1="448.401" x2="928.11" y2="495.78" gradientUnits="userSpaceOnUse">
<stop stop-color="#F05C80"/>
<stop offset="1" stop-color="#CC34DF"/>
</linearGradient>
<linearGradient id="paint17_linear_4002_1678" x1="1045.36" y1="399.401" x2="1033.7" y2="446.78" gradientUnits="userSpaceOnUse">
<stop stop-color="#F05C80"/>
<stop offset="1" stop-color="#CC34DF"/>
</linearGradient>
<linearGradient id="paint18_linear_4002_1678" x1="216.107" y1="756.221" x2="216.432" y2="783.329" gradientUnits="userSpaceOnUse">
<stop stop-color="#F05C80"/>
<stop offset="1" stop-color="#CC34DF"/>
</linearGradient>
<linearGradient id="paint19_linear_4002_1678" x1="453.107" y1="756.221" x2="453.432" y2="783.329" gradientUnits="userSpaceOnUse">
<stop stop-color="#F05C80"/>
<stop offset="1" stop-color="#CC34DF"/>
</linearGradient>
<linearGradient id="paint20_linear_4002_1678" x1="690.107" y1="756.221" x2="690.432" y2="783.329" gradientUnits="userSpaceOnUse">
<stop stop-color="#F05C80"/>
<stop offset="1" stop-color="#CC34DF"/>
</linearGradient>
<linearGradient id="paint21_linear_4002_1678" x1="927.107" y1="756.221" x2="927.432" y2="783.329" gradientUnits="userSpaceOnUse">
<stop stop-color="#F05C80"/>
<stop offset="1" stop-color="#CC34DF"/>
</linearGradient>
<linearGradient id="paint22_linear_4002_1678" x1="1164.11" y1="756.221" x2="1164.43" y2="783.329" gradientUnits="userSpaceOnUse">
<stop stop-color="#F05C80"/>
<stop offset="1" stop-color="#CC34DF"/>
</linearGradient>
<linearGradient id="paint23_linear_4002_1678" x1="1401.11" y1="756.221" x2="1401.43" y2="783.329" gradientUnits="userSpaceOnUse">
<stop stop-color="#F05C80"/>
<stop offset="1" stop-color="#CC34DF"/>
</linearGradient>
<linearGradient id="paint24_linear_4002_1678" x1="1638.11" y1="756.221" x2="1638.43" y2="783.329" gradientUnits="userSpaceOnUse">
<stop stop-color="#F05C80"/>
<stop offset="1" stop-color="#CC34DF"/>
</linearGradient>
<linearGradient id="paint25_linear_4002_1678" x1="90.1065" y1="909.221" x2="90.4325" y2="936.329" gradientUnits="userSpaceOnUse">
<stop stop-color="#F05C80"/>
<stop offset="1" stop-color="#CC34DF"/>
</linearGradient>
<linearGradient id="paint26_linear_4002_1678" x1="329.107" y1="909.221" x2="329.432" y2="936.329" gradientUnits="userSpaceOnUse">
<stop stop-color="#F05C80"/>
<stop offset="1" stop-color="#CC34DF"/>
</linearGradient>
<linearGradient id="paint27_linear_4002_1678" x1="568.107" y1="909.221" x2="568.432" y2="936.329" gradientUnits="userSpaceOnUse">
<stop stop-color="#F05C80"/>
<stop offset="1" stop-color="#CC34DF"/>
</linearGradient>
<linearGradient id="paint28_linear_4002_1678" x1="807.107" y1="909.221" x2="807.432" y2="936.329" gradientUnits="userSpaceOnUse">
<stop stop-color="#F05C80"/>
<stop offset="1" stop-color="#CC34DF"/>
</linearGradient>
<linearGradient id="paint29_linear_4002_1678" x1="1047.11" y1="909.221" x2="1047.43" y2="936.329" gradientUnits="userSpaceOnUse">
<stop stop-color="#F05C80"/>
<stop offset="1" stop-color="#CC34DF"/>
</linearGradient>
<linearGradient id="paint30_linear_4002_1678" x1="1286.11" y1="909.221" x2="1286.43" y2="936.329" gradientUnits="userSpaceOnUse">
<stop stop-color="#F05C80"/>
<stop offset="1" stop-color="#CC34DF"/>
</linearGradient>
<linearGradient id="paint31_linear_4002_1678" x1="1525.11" y1="909.221" x2="1525.43" y2="936.329" gradientUnits="userSpaceOnUse">
<stop stop-color="#F05C80"/>
<stop offset="1" stop-color="#CC34DF"/>
</linearGradient>
<linearGradient id="paint32_linear_4002_1678" x1="1764.11" y1="909.221" x2="1764.43" y2="936.329" gradientUnits="userSpaceOnUse">
<stop stop-color="#F05C80"/>
<stop offset="1" stop-color="#CC34DF"/>
</linearGradient>
<clipPath id="clip0_4002_1678">
<rect width="1920" height="1080" fill="white"/>
</clipPath>
</defs>
</svg>
