<svg width="2404" height="682" viewBox="0 0 2404 682" fill="none" xmlns="http://www.w3.org/2000/svg">
<g clip-path="url(#clip0_4001_2)">
<path d="M835.492 208.673V200.664C834.012 200.18 832.787 199.729 831.534 199.379C808.443 192.919 784.959 188.603 761.111 186.243C749.719 185.116 738.325 184.412 726.928 184.133L726.93 184.125C724.307 184.062 721.686 184.025 719.063 184.007C718.775 184.005 718.488 184.005 718.202 184.003C717.421 183.999 716.642 183.995 715.861 183.995C715.082 183.995 714.301 183.999 713.52 184.003C713.232 184.005 712.945 184.005 712.659 184.007C710.038 184.025 707.415 184.062 704.792 184.125L704.794 184.133C693.397 184.412 682.003 185.116 670.611 186.243C646.761 188.603 623.277 192.919 600.188 199.379C598.935 199.729 597.71 200.18 596.23 200.664V208.673C596.23 250.547 596.524 292.423 596.117 334.292C595.884 358.219 603.204 379.417 616.348 398.927C618.992 402.852 621.887 406.604 625.447 409.941C624.782 408.968 624.132 407.985 623.451 407.021C608.565 385.949 600.705 362.825 601.02 336.654C601.523 294.92 601.218 253.174 601.069 211.432C601.055 207.68 602.169 206.199 605.717 205.198C638.734 196.198 672.224 191.161 706.219 190.365C706.219 190.365 712.532 190.274 715.679 190.268C715.74 190.268 715.8 190.268 715.861 190.268C715.922 190.268 715.982 190.268 716.043 190.268C719.19 190.274 722.342 190.314 725.497 190.386L725.503 190.363C759.488 191.086 792.99 195.887 826.005 205.196C829.553 206.197 830.667 207.678 830.653 211.43C830.504 253.172 830.201 294.916 830.702 336.652C831.017 362.823 823.157 385.947 808.271 407.019C807.59 407.981 806.94 408.966 806.275 409.939C809.835 406.602 812.73 402.85 815.374 398.925C828.516 379.413 835.838 358.217 835.605 334.29C835.198 292.423 835.492 250.547 835.492 208.673Z" fill="url(#paint0_linear_4001_2)"/>
<path d="M816.934 331.655C819.717 330.589 822.023 328.613 823.516 325.979C827.116 319.633 825.255 311.549 819.281 307.574C818.876 307.305 818.453 307.057 818.018 306.833V219.465H816.266C790.798 210.531 767.022 206.37 741.473 206.37L737.779 206.378L739.239 209.235C740.259 211.233 741.03 213.357 741.529 215.546L741.88 217.078L743.446 217.072C743.647 217.072 743.853 217.072 744.052 217.072C766.575 217.072 789.701 221.212 807.756 228.451V306.08C804.947 307.038 802.479 308.921 800.696 311.5C799.688 312.955 798.832 313.423 797.179 313.423C797.079 313.423 796.979 313.421 796.875 313.417C795.139 313.36 793.297 313.334 791.077 313.334C789.441 313.334 787.781 313.348 786.176 313.364C784.699 313.378 783.172 313.389 781.672 313.391C780.338 313.393 779.003 313.393 777.638 313.393H774.002C773.998 312.821 773.992 312.257 773.986 311.7C773.961 308.969 773.935 306.387 774.051 303.816C774.188 300.776 773.238 298.42 770.972 296.18C765.393 290.67 759.758 285.024 754.309 279.567C748.613 273.862 742.721 267.962 736.885 262.2C735.362 260.698 733.033 260.057 731.361 259.958C729.836 259.87 728.178 259.829 726.141 259.829C725.007 259.829 723.849 259.84 722.729 259.852C722.187 259.858 721.637 259.864 721.083 259.868C721.057 259.459 721.04 259.081 721.038 258.714C721.032 256.175 721.032 253.636 721.034 251.097C721.036 246.114 721.038 240.96 720.985 235.884C720.971 234.692 721.202 234.268 722.218 233.609C727.217 230.364 729.537 225.542 728.746 220.032C727.967 214.59 724.843 210.799 719.715 209.066C718.345 208.604 716.916 208.368 715.465 208.368C710.229 208.368 705.375 211.414 703.099 216.128C701.654 219.119 701.402 222.533 702.386 225.743C703.353 228.895 705.481 231.723 708.38 233.705C708.523 233.803 708.681 233.906 708.844 234.01C709.051 234.144 709.362 234.346 709.566 234.502C709.687 236.12 709.664 237.784 709.638 239.54C709.636 239.646 709.636 239.752 709.634 239.858C708.947 239.858 708.268 239.86 707.597 239.862C706.354 239.864 705.135 239.868 703.931 239.868C701.046 239.868 698.855 239.853 696.824 239.819C696.487 239.813 695.788 239.443 695.326 239.2C692.764 237.843 690.247 237.156 687.841 237.156C684.892 237.156 682.114 238.177 679.583 240.193C678.041 241.422 676.726 242.863 675.455 244.258C674.792 244.985 674.167 245.672 673.51 246.33C669.2 250.657 664.888 254.981 660.576 259.306C652.733 267.17 644.623 275.303 636.659 283.315C635.735 284.243 634.788 285.38 634.75 286.762C634.657 290.123 634.668 293.413 634.68 296.896C634.684 298.025 634.688 299.163 634.688 300.312V302.379L644.829 301.869L644.944 300.123C645.007 299.173 645.052 298.251 645.095 297.36C645.193 295.327 645.287 293.405 645.575 291.567C645.776 290.269 646.299 289.028 646.906 288.407C651.897 283.288 657.078 278.173 662.089 273.225C663.488 271.842 664.89 270.46 666.287 269.075C669.053 266.336 671.883 263.547 674.622 260.851C675.377 260.108 676.133 259.363 676.892 258.615C679.989 262.346 683.635 264.236 687.753 264.236C688.832 264.236 689.955 264.104 691.091 263.844C697.569 262.364 701.071 257.919 701.517 250.625H709.685C709.699 250.849 709.707 251.066 709.707 251.276C709.705 253.369 709.703 255.459 709.703 257.551C709.701 265.553 709.699 273.827 709.56 281.952C709.544 282.912 709.012 284.202 708.347 284.888C702.336 291.097 696.144 297.342 690.159 303.382L685.602 308.386L700.398 308.386L715.397 293.73C719.247 297.702 734.252 313.181 734.252 313.181H723.51L715.191 304.823L706.873 313.181H683.273V313.264H680.409L679.832 313.869C679.272 314.455 678.705 315.053 678.119 315.669C677.381 316.446 676.618 317.25 675.814 318.09L674.377 319.59L675.951 320.945C676.45 321.376 676.916 321.763 677.366 322.137C678.239 322.86 678.99 323.488 679.664 324.158C683.097 327.578 686.581 331.065 689.951 334.437C695.908 340.398 702.067 346.561 708.17 352.583C709.456 353.851 709.93 354.992 709.916 356.787C709.82 370.026 709.807 383.161 709.875 395.821L709.885 397.778H709.916V406.796C706.405 407.752 703.228 409.77 700.842 412.586C698.061 415.87 696.53 420.051 696.53 424.358C696.53 434.389 704.653 442.55 714.637 442.55C724.622 442.55 732.745 434.389 732.745 424.358C732.745 420.37 731.478 416.58 729.083 413.4C727.067 410.724 724.313 408.635 721.22 407.414V387.68C721.537 387.684 721.85 387.686 722.161 387.689C723.132 387.699 724.046 387.709 724.97 387.709C726.475 387.709 727.707 387.682 728.844 387.623C728.951 387.617 729.053 387.615 729.151 387.615C729.304 387.615 729.413 387.623 729.492 387.63C729.521 387.756 729.556 387.973 729.574 388.321C729.871 393.933 734.377 398.893 740.288 400.114C741.232 400.309 742.167 400.407 743.072 400.407C748.012 400.407 751.612 397.447 754.195 394.869C769.369 379.737 782.023 367.098 794.015 355.09C794.082 355.023 794.152 354.954 794.223 354.884C795.043 354.077 796.167 352.97 796.219 351.485C796.337 348.14 796.321 344.742 796.307 341.458C796.302 340.325 796.298 339.191 796.298 338.052V336.085H785.423V338.052C785.423 338.896 785.411 339.737 785.401 340.551C785.376 342.494 785.35 344.331 785.466 346.217C785.546 347.535 785.166 348.396 784.019 349.509C780.572 352.85 777.155 356.319 773.849 359.674C772.633 360.909 771.416 362.144 770.197 363.375C765.657 367.953 761.12 372.535 756.481 377.222L754.193 379.532C750.848 375.489 747.493 373.597 743.696 373.597C741.105 373.597 738.276 374.508 735.047 376.382C734.694 376.586 734.101 376.722 733.536 376.726C733.177 376.728 732.819 376.73 732.463 376.73C731.128 376.73 729.766 376.712 728.446 376.695C727.115 376.677 725.739 376.659 724.381 376.659C723.473 376.659 722.651 376.667 721.872 376.683C721.825 376.683 721.778 376.685 721.731 376.685C721.502 376.685 721.335 376.671 721.218 376.655V354.994C721.404 354.347 721.782 353.666 722.203 353.242C728.861 346.52 735.914 339.499 744.399 331.147L745.948 329.554L729.741 329.554C729.741 329.554 720.482 338.75 715.289 344.048L696.037 324.416H706.708L715.191 332.939L723.674 324.416H745.029L746.986 324.406H751.478L752.027 323.936C752.342 323.667 752.661 323.395 752.98 323.124C753.726 322.491 754.495 321.836 755.27 321.155L756.799 319.816L755.413 318.329C754.835 317.71 754.344 317.175 753.906 316.699C753.089 315.812 752.445 315.112 751.764 314.426C748.398 311.043 745.031 307.663 741.662 304.284C735.327 297.927 728.775 291.352 722.345 284.871L722.234 284.759C721.934 284.458 721.326 283.846 721.175 283.541C721.056 280.033 721.071 276.54 721.087 272.845C721.091 272.188 721.093 271.53 721.095 270.865C721.424 270.861 721.75 270.857 722.071 270.853C722.991 270.841 723.86 270.832 724.728 270.832C726.248 270.832 727.472 270.867 728.582 270.946C729.351 271.001 730.318 271.421 730.829 271.929C741.762 282.747 751.864 292.873 761.711 302.886C762.232 303.415 762.68 304.509 762.688 305.274C762.796 315.211 762.763 324.182 762.588 332.699C762.569 333.657 762.021 334.962 761.342 335.67C757.724 339.442 753.956 343.204 750.312 346.842C748.212 348.941 746.039 351.11 743.913 353.261C742.025 355.177 740.202 357.122 738.272 359.179C737.376 360.134 736.462 361.11 735.512 362.113L732.365 365.434H736.93C737.72 365.434 738.427 365.416 739.112 365.399C739.684 365.385 740.226 365.371 740.733 365.371C741.441 365.371 742.007 365.399 742.514 365.458C742.913 365.505 743.312 365.528 743.696 365.528C747.163 365.528 749.417 363.641 750.997 361.997C757.437 355.287 763.271 349.263 769.457 343.485C772.99 340.184 774.379 336.695 773.962 332.168C773.775 330.127 773.82 328.028 773.869 325.808C773.876 325.409 773.886 325.004 773.894 324.593C775.213 324.593 776.521 324.591 777.818 324.589C779.703 324.587 781.569 324.585 783.416 324.585C788.063 324.585 793.538 324.595 799.013 324.674C799.198 324.841 799.506 325.193 799.797 325.661C801.13 327.804 802.947 329.537 805.102 330.732C801.888 381.497 771.355 424.257 714.332 457.85C657.632 424.446 627.121 381.975 623.619 331.578C626.506 330.561 628.972 328.524 631.28 325.275C631.515 324.945 632.122 324.597 632.343 324.575C636.688 324.493 641.114 324.471 645.394 324.449C649.029 324.432 652.787 324.414 656.487 324.359H656.565C656.727 324.359 656.847 324.367 656.935 324.377C656.947 324.491 656.953 324.66 656.945 324.902C656.835 328.29 656.735 332.235 656.923 336.164C657.005 337.863 657.847 339.794 659.021 340.97C668.329 350.294 677.861 359.698 687.078 368.793L690.09 371.766C691.466 373.125 692.842 374.431 694.299 375.814C694.972 376.453 695.655 377.102 696.35 377.766L698.949 380.256L699.623 376.712C700.94 369.784 699.223 364.646 694.062 360.048C687.37 354.089 680.942 347.552 674.727 341.232C672.917 339.391 671.045 337.488 669.192 335.623C668.646 335.075 668.176 334.089 668.168 333.474C668.041 323.891 668.045 314.369 668.182 305.171C668.192 304.471 668.685 303.396 669.278 302.774C675.005 296.774 680.744 291.018 685.602 286.178C688.176 283.614 690.775 281.124 693.527 278.485C694.776 277.288 696.045 276.072 697.336 274.826L700.842 271.441H695.98C695.236 271.441 694.51 271.457 693.807 271.475C693.122 271.49 692.476 271.506 691.834 271.506C690.926 271.506 690.188 271.475 689.511 271.41C689.182 271.378 688.855 271.361 688.536 271.361C685.209 271.361 683.058 273.109 681.554 274.633C674.308 281.976 667.013 289.225 659.871 296.176C657.716 298.275 656.819 300.473 656.958 303.309C657.094 306.021 657.064 308.721 657.035 311.576C657.029 312.182 657.021 312.8 657.017 313.423C656.457 313.464 655.95 313.494 655.463 313.498C652.92 313.511 650.378 313.517 647.835 313.521C642.893 313.531 637.78 313.543 632.748 313.616H632.656C631.73 313.616 631.48 313.519 630.916 312.499C629.274 309.519 626.514 307.305 623.202 306.257V228.449C641.21 221.229 664.283 217.09 686.755 217.07L688.313 217.068L688.662 215.542C689.161 213.351 689.932 211.229 690.952 209.235L692.42 206.366L689.208 206.37C663.762 206.4 640.076 210.561 614.692 219.465H612.938V307.1C607.195 310.117 604.457 316.54 606.25 323.053C607.103 326.152 609.009 328.709 611.673 330.363C612.067 342.909 614.181 355.181 617.962 366.854C622.02 379.377 628.125 391.617 636.113 403.237C644.377 415.26 654.919 427.003 667.446 438.137C680.36 449.618 695.794 460.815 713.316 471.421L714.326 472.033L715.336 471.421C732.741 460.886 748.086 449.765 760.946 438.367C773.422 427.309 783.939 415.652 792.207 403.717C800.199 392.179 806.335 380.03 810.443 367.601C814.25 356.099 816.433 344.013 816.934 331.655ZM814.855 319.098C814.859 319.879 814.568 320.607 814.033 321.146C813.469 321.716 812.69 322.03 811.843 322.03H811.796C810.248 322.011 809.03 320.707 809.026 319.063C809.022 317.376 810.173 316.174 811.823 316.139H811.892C813.546 316.139 814.845 317.439 814.855 319.098ZM718.388 221.804C718.388 223.503 717.098 224.832 715.454 224.832H715.428C714.684 224.826 713.978 224.512 713.441 223.947C712.868 223.345 712.57 222.555 712.602 221.721C712.657 220.246 714.044 218.905 715.514 218.905H715.555C717.119 218.932 718.39 220.232 718.388 221.804ZM690.869 250.672C690.881 251.481 690.55 252.287 689.967 252.883C689.419 253.441 688.726 253.748 688.016 253.748H687.976C686.434 253.725 684.995 252.204 685.019 250.617C685.042 248.946 686.093 247.909 687.763 247.909H687.839C689.435 247.939 690.85 249.231 690.869 250.672ZM714.635 432.273C710.288 432.273 706.753 428.719 706.753 424.354C706.753 419.988 710.29 416.432 714.635 416.432C718.981 416.432 722.518 419.986 722.518 424.354C722.518 428.721 718.981 432.273 714.635 432.273ZM743.07 389.804H743.023C741.287 389.78 740.261 388.73 740.283 386.993C740.302 385.455 741.4 384.338 742.892 384.338H742.907C744.44 384.346 745.884 385.678 745.882 387.078C745.879 388.631 744.669 389.804 743.07 389.804ZM621.936 319.297C621.938 319.954 621.574 320.711 620.965 321.325C620.337 321.956 619.554 322.333 618.871 322.333H618.837C618.193 322.322 617.52 321.993 616.99 321.433C616.367 320.774 616.025 319.907 616.054 319.055C616.109 317.386 617.271 316.219 618.882 316.219H618.919C620.55 316.237 621.932 317.645 621.936 319.297Z" fill="url(#paint1_linear_4001_2)"/>
<path d="M740.63 237.615C739.557 237.615 738.48 237.619 737.4 237.621C736.314 237.623 735.223 237.627 734.127 237.627H732.17V248.598H734.127C735.065 248.598 735.967 248.581 736.838 248.565C737.666 248.549 738.449 248.535 739.22 248.535C740.477 248.535 741.487 248.577 742.401 248.665C743.511 248.773 744.677 249.234 745.233 249.784C757.88 262.28 771.056 275.45 784.398 288.928C784.907 289.442 785.337 290.515 785.402 291.424C785.554 293.595 785.525 295.851 785.494 298.031C785.482 298.924 785.468 299.847 785.468 300.755V302.722H796.31V300.755C796.31 299.567 796.314 298.393 796.318 297.231C796.328 293.736 796.337 290.435 796.255 287.074C796.216 285.455 795.014 284.075 794.501 283.556C781.552 270.498 767.631 256.504 750.694 239.517L750.645 239.468C749.952 238.772 748.905 237.721 747.514 237.686C744.989 237.623 742.509 237.615 740.63 237.615Z" fill="url(#paint2_linear_4001_2)"/>
<path d="M634.719 349.619C634.893 351.664 635.817 353.804 637.071 355.072C651.223 369.363 665.124 383.219 680.528 398.555C681.17 399.194 682.478 400.273 684.02 400.317C685.752 400.366 687.6 400.389 690.012 400.389C691.051 400.389 692.096 400.385 693.149 400.381C694.214 400.378 695.285 400.374 696.369 400.374H698.326V389.741H696.369C695.477 389.741 694.631 389.76 693.815 389.78C693.063 389.798 692.353 389.815 691.66 389.815C690.579 389.815 689.714 389.772 688.937 389.678C687.655 389.522 686.402 389.035 685.817 388.462C681.063 383.807 676.265 379.027 671.626 374.405C664.962 367.764 658.07 360.899 651.166 354.264C646.418 349.702 643.875 345.989 644.93 340.51C644.987 340.219 644.973 339.975 644.963 339.828C644.985 338.534 644.646 337.517 643.953 336.801C642.947 335.763 641.571 335.763 641.117 335.763C640.845 335.763 640.579 335.777 640.344 335.79C640.144 335.8 639.957 335.812 639.798 335.812C639.739 335.812 639.684 335.812 639.63 335.806L639.53 335.798C639.207 335.773 638.841 335.745 638.471 335.745C638.013 335.745 636.621 335.745 635.599 336.803C634.893 337.535 634.556 338.567 634.595 339.875C634.633 341.114 634.617 342.396 634.601 343.637C634.572 345.586 634.546 347.603 634.719 349.619Z" fill="url(#paint3_linear_4001_2)"/>
<path d="M853.733 314.553C853.739 310.209 853.745 305.865 853.745 301.519V285.281C853.745 255.018 853.743 223.724 853.798 192.948C853.801 190.725 853.316 188.059 849.491 187.152C845.074 186.104 840.589 184.959 836.254 183.852C828.432 181.854 820.347 179.789 812.278 178.199C781.329 172.096 749.178 169.001 716.717 169.001C702.697 169.001 688.322 169.577 673.992 170.716C643.391 173.144 612.888 178.562 583.332 186.818C578.883 188.061 577.983 190.666 578 194.192C578.104 214.491 578.092 235.134 578.082 255.096C578.081 260.553 578.077 266.009 578.077 271.466H578.059V273.432C578.059 279.894 578.055 286.355 578.051 292.817C578.041 311.141 578.032 330.088 578.106 348.727C578.126 353.435 578.484 358.304 579.173 363.197C580.733 374.285 583.886 385.256 588.544 395.805C592.87 405.6 598.65 415.379 605.724 424.868C619.302 443.082 635.225 459.31 654.405 474.478C671.217 487.774 690.283 500.029 712.697 511.947C713.736 512.499 714.936 512.615 715.76 512.615C717.279 512.615 718.849 512.23 719.958 511.587C722.245 510.259 724.578 508.916 726.833 507.616C736.265 502.185 746.018 496.57 755.232 490.413C770.293 480.346 783.21 470.325 794.725 459.77C807.722 447.859 818.61 435.582 828.013 422.239C845.532 397.382 853.958 372.534 853.776 346.279C853.702 335.709 853.717 324.954 853.733 314.553ZM840.435 255.295C840.441 261.307 840.445 267.316 840.445 273.328C840.445 279.861 840.429 286.506 840.413 292.931C840.38 307.29 840.345 322.138 840.484 336.745C840.728 362.373 831.77 386.623 813.095 410.88C799.062 429.106 781.305 445.688 760.317 460.168C749.802 467.42 738.559 474.049 727.686 480.458C724.435 482.374 721.074 484.356 717.782 486.325C717.439 486.529 716.705 486.736 715.832 486.736C715.118 486.736 714.601 486.598 714.357 486.47C672.33 464.372 641.954 440.355 618.768 410.886C599.862 386.863 590.848 361.465 591.21 333.245C591.668 297.544 591.518 261.246 591.371 226.143C591.334 217.341 591.296 208.237 591.269 199.286C591.261 196.592 591.735 195.951 594.258 195.246C632.51 184.582 673.464 179.174 715.983 179.174C718.87 179.174 721.81 179.199 724.721 179.247C763.625 179.9 801.574 185.274 837.512 195.219C840.049 195.921 840.56 196.594 840.54 199.215C840.403 217.911 840.419 236.916 840.435 255.295Z" fill="url(#paint4_linear_4001_2)"/>
</g>
<path d="M1018.61 358.971C1018.44 362.44 1018.23 366.545 1017.98 371.284C1017.81 375.938 1017.64 380.551 1017.47 385.12C1017.3 389.69 1017.17 393.583 1017.09 396.799H907.413L903.605 391.087L988.654 255.515H935.213C932.589 255.515 929.627 257.63 926.327 261.862C923.111 266.008 920.615 272.355 918.838 280.903L910.967 279.253L914.649 240.282C919.134 241.297 922.9 241.89 925.946 242.059C929.077 242.228 933.012 242.313 937.752 242.313H1014.04L1017.34 247.771L933.055 383.597H994.367C997.836 383.597 1000.67 381.651 1002.87 377.758C1005.16 373.865 1007.86 366.926 1011 356.94L1018.61 358.971ZM1156.22 245.613C1156.14 249.76 1155.71 254.584 1154.95 260.085C1154.19 265.585 1153.34 270.917 1152.41 276.079H1145.94C1144.33 268.547 1142.93 263.047 1141.75 259.577C1140.65 256.107 1138.36 254.372 1134.89 254.372H1089.7L1093.26 242.313H1152.41L1156.22 245.613ZM1044.64 254.372C1043.03 254.372 1041.55 254.922 1040.2 256.023C1038.93 257.123 1037.49 259.281 1035.88 262.496C1034.36 265.712 1032.37 270.494 1029.92 276.841L1023.82 274.302C1024.16 269.563 1024.71 264.104 1025.47 257.927C1026.32 251.749 1027.16 246.544 1028.01 242.313H1099.22L1102.14 254.372H1044.64ZM1059.75 396.799V390.579C1067.28 389.055 1072.44 387.49 1075.23 385.882C1078.03 384.274 1079.42 382.878 1079.42 381.693V253.484C1079.42 252.468 1078.03 251.664 1075.23 251.072C1072.44 250.479 1068.12 249.633 1062.28 248.533V242.313H1119.03V248.533C1113.61 249.633 1109.38 250.437 1106.33 250.945C1103.29 251.453 1101.76 252.299 1101.76 253.484V381.693C1101.76 382.793 1103.16 384.189 1105.95 385.882C1108.74 387.49 1113.86 389.055 1121.31 390.579V396.799H1059.75ZM1202.81 342.722L1189.86 382.201C1189.02 384.74 1190.08 386.601 1193.04 387.786C1196 388.886 1200.78 389.817 1207.38 390.579V396.799H1156.23V390.579C1161.73 389.563 1166.04 388.548 1169.17 387.532C1172.39 386.432 1174.38 384.655 1175.14 382.201L1219.57 246.121C1221.94 243.667 1224.77 241.551 1228.07 239.774C1231.46 237.912 1234.46 236.431 1237.09 235.331L1287.99 382.201C1288.75 384.486 1290.23 386.305 1292.43 387.659C1294.72 388.929 1298.44 389.902 1303.6 390.579V396.799H1250.03V390.579C1256.3 390.156 1260.65 389.352 1263.11 388.167C1265.56 386.898 1266.32 384.909 1265.39 382.201L1251.81 342.722H1202.81ZM1247.75 330.663L1226.8 269.224L1206.75 330.663H1247.75ZM1430.8 386.009C1425.05 389.817 1419.38 393.16 1413.79 396.037C1408.29 398.914 1404.57 400.353 1402.62 400.353C1399.83 400.353 1397.46 398.661 1395.51 395.276C1393.65 391.89 1392.42 386.094 1391.83 377.885C1382.01 387.448 1373.81 393.583 1367.2 396.291C1360.69 398.999 1354.89 400.353 1349.81 400.353C1344.91 400.353 1340.25 399.338 1335.85 397.307C1331.53 395.36 1327.98 391.721 1325.19 386.39C1322.48 380.974 1321.13 373.273 1321.13 363.287V312.13C1321.13 307.052 1320.87 303.413 1320.36 301.213C1319.86 298.928 1318.54 297.447 1316.43 296.77C1314.31 296.009 1310.84 295.416 1306.02 294.993V289.154C1312.28 288.477 1317.78 287.588 1322.52 286.488C1327.35 285.303 1332.55 283.653 1338.14 281.537L1341.82 286.488V356.432C1341.82 367.264 1343.3 374.627 1346.26 378.519C1349.22 382.412 1353.41 384.359 1358.83 384.359C1363.48 384.359 1368.43 382.962 1373.68 380.17C1378.93 377.292 1384.98 372.342 1391.83 365.318V312.13C1391.83 307.306 1391.45 303.71 1390.69 301.34C1390.01 298.97 1388.53 297.363 1386.25 296.516C1383.96 295.67 1380.36 295.162 1375.46 294.993V289.154C1381.72 288.477 1387.64 287.419 1393.23 285.98C1398.81 284.457 1403.97 282.976 1408.71 281.537L1412.52 286.488V365.318C1412.52 375.219 1413.45 380.889 1415.31 382.328C1416.25 383.005 1417.77 383.174 1419.88 382.835C1422.08 382.412 1425.17 381.354 1429.15 379.662L1430.8 386.009ZM1510.14 381.566C1501.68 387.828 1493.85 392.525 1486.66 395.656C1479.47 398.788 1473.75 400.353 1469.52 400.353C1463.68 400.353 1458.56 398.026 1454.16 393.371C1449.85 388.632 1447.69 380.677 1447.69 369.507V297.532H1432.58L1429.79 293.851L1439.06 285.092H1447.69V256.784L1464.45 242.821L1468.38 246.121V285.092H1506.46L1510.14 288.9C1508.71 291.185 1506.76 293.681 1504.3 296.389C1501.85 299.097 1499.82 300.875 1498.21 301.721C1496.35 300.79 1493.47 299.859 1489.58 298.928C1485.69 297.997 1480.82 297.532 1474.98 297.532H1468.38V358.971C1468.38 368.195 1469.31 374.542 1471.17 378.012C1473.12 381.397 1476.21 383.089 1480.44 383.089C1483.23 383.089 1486.66 382.539 1490.72 381.439C1494.78 380.254 1499.95 378.012 1506.21 374.711L1510.14 381.566ZM1588.22 396.799V390.706C1599.13 387.828 1604.59 385.374 1604.59 383.343V322.666C1604.59 312.934 1603.41 306.545 1601.04 303.498C1598.75 300.367 1595.03 298.801 1589.87 298.801C1584.7 298.801 1578.78 301.298 1572.1 306.291C1565.49 311.199 1558.85 318.435 1552.17 327.997V383.343C1552.17 384.528 1553.6 385.797 1556.48 387.151C1559.44 388.421 1563.46 389.606 1568.54 390.706V396.799H1515.1V390.706C1520.35 389.267 1524.37 388.04 1527.16 387.024C1530.04 385.924 1531.47 384.697 1531.47 383.343V241.932C1531.47 237.447 1531.18 234.231 1530.59 232.285C1529.99 230.254 1528.56 228.857 1526.27 228.096C1523.99 227.334 1520.26 226.657 1515.1 226.065V220.225C1522.38 219.041 1528.39 217.771 1533.12 216.417C1537.86 214.979 1542.65 213.075 1547.47 210.705L1552.17 215.021V311.495C1559.61 302.017 1567.74 294.655 1576.54 289.408C1585.34 284.161 1592.83 281.537 1599.01 281.537C1605.86 281.537 1611.95 283.738 1617.29 288.138C1622.62 292.454 1625.28 299.394 1625.28 308.956V383.343C1625.28 384.443 1626.47 385.543 1628.84 386.644C1631.21 387.659 1635.52 389.013 1641.79 390.706V396.799H1588.22ZM1691.25 271.956L1716.97 251.756C1718.44 252.713 1720.35 254.001 1722.71 255.62C1725.06 257.239 1726.79 258.637 1727.89 259.814L1727.78 264.45L1695.11 278.248L1725.25 290.832C1725.17 292.524 1725.02 294.805 1724.8 297.675C1724.58 300.545 1724.18 302.753 1723.59 304.298L1719.4 306.727L1691.47 284.981L1695.66 317.434C1694.26 318.317 1692.24 319.347 1689.59 320.525C1687.02 321.702 1684.99 322.438 1683.52 322.732L1679.22 320.414L1683.85 284.981L1658.13 305.071C1656.73 304.114 1654.82 302.79 1652.39 301.097C1650.04 299.405 1648.38 298.08 1647.43 297.123V292.156L1680.21 278.469L1649.85 265.996C1650 264.303 1650.19 261.985 1650.41 259.041C1650.63 256.098 1650.99 253.927 1651.51 252.529L1655.59 250.211L1683.85 272.067L1679.44 239.173C1680.91 238.363 1682.97 237.37 1685.62 236.192C1688.34 234.941 1690.47 234.132 1692.02 233.764L1695.88 236.413L1691.25 271.956Z" fill="url(#paint5_linear_4001_2)"/>
<defs>
<linearGradient id="paint0_linear_4001_2" x1="715.861" y1="183.995" x2="715.861" y2="409.941" gradientUnits="userSpaceOnUse">
<stop stop-color="white"/>
<stop offset="1" stop-color="#494646"/>
</linearGradient>
<linearGradient id="paint1_linear_4001_2" x1="715.526" y1="206.366" x2="715.526" y2="472.033" gradientUnits="userSpaceOnUse">
<stop stop-color="white"/>
<stop offset="1" stop-color="#494646"/>
</linearGradient>
<linearGradient id="paint2_linear_4001_2" x1="801.109" y1="244.762" x2="830.546" y2="373.512" gradientUnits="userSpaceOnUse">
<stop stop-color="#DBDBDB"/>
<stop offset="1" stop-color="#838383"/>
</linearGradient>
<linearGradient id="paint3_linear_4001_2" x1="694.742" y1="335.745" x2="770.033" y2="432.498" gradientUnits="userSpaceOnUse">
<stop stop-color="#8F8F8F"/>
<stop offset="1" stop-color="#838383"/>
</linearGradient>
<linearGradient id="paint4_linear_4001_2" x1="715.899" y1="169.001" x2="715.899" y2="512.615" gradientUnits="userSpaceOnUse">
<stop stop-color="white"/>
<stop offset="1" stop-color="#494646"/>
</linearGradient>
<linearGradient id="paint5_linear_4001_2" x1="1827" y1="340.807" x2="747.183" y2="340.807" gradientUnits="userSpaceOnUse">
<stop stop-color="white"/>
<stop offset="1" stop-color="#999999"/>
</linearGradient>
<clipPath id="clip0_4001_2">
<rect width="275.797" height="343.616" fill="white" transform="translate(578 169)"/>
</clipPath>
</defs>
</svg>
