<svg width="20" height="20" viewBox="0 0 20 20" fill="none" xmlns="http://www.w3.org/2000/svg">
<path d="M9.51207 8.33191L3.35957 14.5136C3.19643 14.6755 3.06694 14.8681 2.97858 15.0802C2.89022 15.2924 2.84473 15.52 2.84473 15.7498C2.84473 15.9797 2.89022 16.2072 2.97858 16.4194C3.06694 16.6316 3.19643 16.8242 3.35957 16.9861C3.68905 17.3138 4.13486 17.4978 4.59957 17.4978C5.06428 17.4978 5.5101 17.3138 5.83957 16.9861L12.0121 10.8319M15.1012 12.7427L17.2562 10.5877C17.4125 10.4315 17.5002 10.2195 17.5002 9.99857C17.5002 9.7776 17.4125 9.56568 17.2562 9.40941L10.9346 3.08774C10.7783 2.93151 10.5664 2.84375 10.3454 2.84375C10.1244 2.84375 9.91251 2.93151 9.75624 3.08774L7.60124 5.24274C7.44501 5.39901 7.35725 5.61094 7.35725 5.83191C7.35725 6.05288 7.44501 6.2648 7.60124 6.42107L13.9229 12.7427C14.0792 12.899 14.2911 12.9867 14.5121 12.9867C14.733 12.9867 14.945 12.899 15.1012 12.7427Z" stroke="white" stroke-width="1.66667" stroke-linecap="round" stroke-linejoin="round"/>
</svg>
