<svg width="685" height="622" viewBox="0 0 685 622" fill="none" xmlns="http://www.w3.org/2000/svg">
<g opacity="0.3">
<path d="M161.995 -109.044L256.814 -27.2088H304.223L374.35 -109.044L437.563 -70.5913L532.382 -96.2264L522.505 45.7527H585.717L604.484 137.448L561.025 239.002L648.93 276.469L683.5 535.778H496.825L472.132 598.88H335.83L272.617 554.511L127.425 620.571L80.0159 573.245V449.999L32.6063 383.939L80.0159 276.469V168.999L1 137.448V-27.2088L161.995 -109.044Z" stroke="url(#paint0_linear_4214_5931)"/>
<path d="M306.578 225.482L323.726 216.725H346.343L362.123 233.29L366.226 253.97L375.588 257.979L379.27 285.728H359.388L335.508 287.733L320.044 294.802L314.994 289.738V276.549V246.479L306.578 243.102V225.482Z" stroke="url(#paint1_linear_4214_5931)"/>
<path d="M173.778 -83.9851L261.963 -8.78175H307.465L372.804 -83.6848L431.761 -47.5529L519.445 -70.4207L510.485 61.4323L569.556 61.7407L587.02 147.449L547.046 242.259L627.424 276.844L658.57 516.206L485.336 516.283L461.624 574.608L334.617 575.152L276.073 534.002L141.856 594.785L98.0929 550.592V436.319L54.3303 373.028L97.7692 273.695L97.4455 174.362L24.5078 144.56V-8.10812L173.778 -83.9851Z" stroke="url(#paint2_linear_4214_5931)"/>
<path d="M185.561 -58.9254L267.112 9.64611H310.707L371.259 -58.3248L425.96 -24.5137L506.507 -44.6142L498.465 77.1127L553.393 77.7295L569.556 157.452L533.066 245.517L605.918 277.22L633.64 496.635L473.847 496.789L451.117 550.338L333.405 551.425L279.529 513.493L156.286 569L116.17 527.94V422.641L76.0542 362.118L115.523 270.922L114.875 179.726L48.0156 151.673V10.9934L185.561 -58.9254Z" stroke="url(#paint3_linear_4214_5931)"/>
<path d="M197.34 -33.8663L272.257 28.0734H313.945L369.709 -32.9654L420.155 -1.47512L493.566 -18.8083L486.442 92.7925L537.228 93.7178L552.088 167.454L519.083 248.775L584.408 277.595L608.706 477.064L462.355 477.295L440.605 526.066L332.188 527.698L282.98 492.984L170.712 543.215L134.243 505.288V408.962L97.7742 351.207L133.272 268.148L132.301 185.089L71.5195 158.786V30.0943L197.34 -33.8663Z" stroke="url(#paint4_linear_4214_5931)"/>
<path d="M209.119 -8.8075L277.401 46.5004H317.183L368.16 -7.60631L414.35 21.5632L480.625 6.99735L474.418 108.472L521.062 109.706L534.62 177.456L505.1 252.032L562.898 277.97L583.772 457.492L450.862 457.801L430.093 501.795L330.972 503.97L286.432 472.474L185.138 517.429L152.316 482.635V395.282L119.494 340.296L151.021 265.374L149.727 190.452L95.0234 165.899V49.1949L209.119 -8.8075Z" stroke="url(#paint5_linear_4214_5931)"/>
<path d="M220.903 16.2522L282.55 64.9282H320.425L366.614 17.7537L408.549 44.6024L467.688 32.8039L462.399 124.153L504.9 125.695L517.156 187.459L491.121 255.29L541.392 278.346L558.842 437.921L439.373 438.307L419.585 477.524L329.759 480.243L289.888 451.965L199.568 491.644L170.393 459.983V381.604L141.218 329.386L168.775 262.601L167.156 195.816L118.531 173.012V68.2964L220.903 16.2522Z" stroke="url(#paint6_linear_4214_5931)"/>
<path d="M232.682 41.311L287.695 83.3552H323.662L365.064 43.1128L402.743 67.6408L454.747 58.6095L450.375 139.832L488.734 141.683L499.689 197.46L477.137 258.547L519.883 278.721L533.909 418.349L427.881 418.812L409.074 453.253L328.543 456.515L293.34 431.456L213.995 465.858L188.466 437.331V367.924L162.938 318.475L186.524 259.827L184.582 201.179L142.035 180.124V87.397L232.682 41.311Z" stroke="url(#paint7_linear_4214_5931)"/>
<path d="M244.461 66.37L292.84 101.782H326.9L363.515 68.4721L396.938 90.6793L441.806 84.4153L438.352 155.512L472.568 157.671L482.221 207.462L463.154 261.804L498.373 279.097L508.975 398.778L416.388 399.318L398.562 428.981L327.326 432.788L296.792 410.946L228.421 440.072L206.54 414.678V354.245L184.658 307.564L204.274 257.053L202.008 206.543L165.539 187.237V106.498L244.461 66.37Z" stroke="url(#paint8_linear_4214_5931)"/>
<path d="M256.244 91.429L297.989 120.209H330.142L361.969 93.8313L391.137 113.718L428.868 110.221L426.332 171.191L456.406 173.659L464.757 217.464L449.175 265.062L476.867 279.472L484.045 379.206L404.899 379.823L388.054 404.71L326.114 409.06L300.248 390.437L242.851 414.286L224.617 392.026V340.566L206.382 296.653L222.027 254.28L219.438 211.906L189.047 194.349V125.599L256.244 91.429Z" stroke="url(#paint9_linear_4214_5931)"/>
<path d="M268.027 116.489L303.138 138.637H333.384L360.424 119.191L385.336 136.757L415.931 136.028L414.312 186.872L440.244 189.648L447.293 227.467L435.195 268.32L455.361 279.848L459.115 359.635L393.41 360.329L377.547 380.439L324.901 385.333L303.703 369.928L257.281 388.501L242.694 369.374V326.887L228.106 285.743L239.78 251.507L236.867 217.27L212.555 201.463V144.7L268.027 116.489Z" stroke="url(#paint10_linear_4214_5931)"/>
<path d="M279.806 141.548L308.283 157.064H336.622L358.874 144.551L379.531 159.795L402.99 161.833L402.289 202.552L424.078 205.636L429.825 237.469L421.212 271.577L433.851 280.223L434.181 340.064L381.918 340.835L367.035 356.168L323.685 361.606L307.155 349.419L271.707 362.715L260.767 346.721V313.208L249.826 274.832L257.53 248.733L254.293 222.633L236.059 208.575V163.801L279.806 141.548Z" stroke="url(#paint11_linear_4214_5931)"/>
<path d="M291.59 166.606L313.432 175.491H339.864L357.328 169.91L373.729 182.834L390.053 187.639L390.269 218.231L407.916 221.624L412.361 247.471L407.233 274.834L412.345 280.598L409.251 320.492L370.429 321.34L356.527 331.896L322.472 337.878L310.611 328.909L286.138 336.93L278.844 324.069V299.528L271.55 263.921L275.283 245.959L271.723 227.996L259.566 215.688V182.901L291.59 166.606Z" stroke="url(#paint12_linear_4214_5931)"/>
<path d="M303.369 191.666L318.577 193.919H343.101L355.779 195.27L367.924 205.873L377.112 213.446L378.245 233.912L391.75 237.612L394.893 257.473L393.25 278.092L390.835 280.974L384.318 300.921L358.937 301.846L346.016 307.626L321.256 314.151L314.063 308.401L300.564 311.145L296.917 301.417V285.85L293.27 253.011L293.033 243.186L289.148 233.361L283.07 222.801V202.003L303.369 191.666Z" stroke="url(#paint13_linear_4214_5931)"/>
</g>
<defs>
<linearGradient id="paint0_linear_4214_5931" x1="3.30065" y1="-310.583" x2="43.3893" y2="633.261" gradientUnits="userSpaceOnUse">
<stop stop-color="#F05C80"/>
<stop offset="1" stop-color="#CC34DF"/>
</linearGradient>
<linearGradient id="paint1_linear_4214_5931" x1="306.823" y1="195.158" x2="311.133" y2="296.158" gradientUnits="userSpaceOnUse">
<stop stop-color="#F05C80"/>
<stop offset="1" stop-color="#CC34DF"/>
</linearGradient>
<linearGradient id="paint2_linear_4214_5931" x1="26.6452" y1="-271.479" x2="63.9915" y2="606.587" gradientUnits="userSpaceOnUse">
<stop stop-color="#F05C80"/>
<stop offset="1" stop-color="#CC34DF"/>
</linearGradient>
<linearGradient id="paint3_linear_4214_5931" x1="49.9897" y1="-232.375" x2="84.5939" y2="579.913" gradientUnits="userSpaceOnUse">
<stop stop-color="#F05C80"/>
<stop offset="1" stop-color="#CC34DF"/>
</linearGradient>
<linearGradient id="paint4_linear_4214_5931" x1="73.3303" y1="-193.271" x2="105.193" y2="553.239" gradientUnits="userSpaceOnUse">
<stop stop-color="#F05C80"/>
<stop offset="1" stop-color="#CC34DF"/>
</linearGradient>
<linearGradient id="paint5_linear_4214_5931" x1="96.671" y1="-154.168" x2="125.792" y2="526.564" gradientUnits="userSpaceOnUse">
<stop stop-color="#F05C80"/>
<stop offset="1" stop-color="#CC34DF"/>
</linearGradient>
<linearGradient id="paint6_linear_4214_5931" x1="120.016" y1="-115.063" x2="146.395" y2="499.89" gradientUnits="userSpaceOnUse">
<stop stop-color="#F05C80"/>
<stop offset="1" stop-color="#CC34DF"/>
</linearGradient>
<linearGradient id="paint7_linear_4214_5931" x1="143.356" y1="-75.9598" x2="166.995" y2="473.215" gradientUnits="userSpaceOnUse">
<stop stop-color="#F05C80"/>
<stop offset="1" stop-color="#CC34DF"/>
</linearGradient>
<linearGradient id="paint8_linear_4214_5931" x1="166.697" y1="-36.8562" x2="187.595" y2="446.54" gradientUnits="userSpaceOnUse">
<stop stop-color="#F05C80"/>
<stop offset="1" stop-color="#CC34DF"/>
</linearGradient>
<linearGradient id="paint9_linear_4214_5931" x1="190.041" y1="2.24737" x2="208.201" y2="419.866" gradientUnits="userSpaceOnUse">
<stop stop-color="#F05C80"/>
<stop offset="1" stop-color="#CC34DF"/>
</linearGradient>
<linearGradient id="paint10_linear_4214_5931" x1="213.386" y1="41.3517" x2="228.808" y2="393.191" gradientUnits="userSpaceOnUse">
<stop stop-color="#F05C80"/>
<stop offset="1" stop-color="#CC34DF"/>
</linearGradient>
<linearGradient id="paint11_linear_4214_5931" x1="236.726" y1="80.4552" x2="249.414" y2="366.516" gradientUnits="userSpaceOnUse">
<stop stop-color="#F05C80"/>
<stop offset="1" stop-color="#CC34DF"/>
</linearGradient>
<linearGradient id="paint12_linear_4214_5931" x1="260.081" y1="119.297" x2="269.947" y2="340.817" gradientUnits="userSpaceOnUse">
<stop stop-color="#F05C80"/>
<stop offset="1" stop-color="#CC34DF"/>
</linearGradient>
<linearGradient id="paint13_linear_4214_5931" x1="283.447" y1="157.833" x2="290.342" y2="316.267" gradientUnits="userSpaceOnUse">
<stop stop-color="#F05C80"/>
<stop offset="1" stop-color="#CC34DF"/>
</linearGradient>
</defs>
</svg>
