<svg width="120" height="34" viewBox="0 0 120 34" fill="none" xmlns="http://www.w3.org/2000/svg">
<path d="M11.0918 6.39012L13.5489 1.0426V32.1139L11.3701 32.9981C11.3701 32.9981 11.0918 13.9167 11.0918 6.39012Z" fill="url(#paint0_linear_4234_4954)"/>
<path d="M4.45312 8.79283L6.58439 3.83704L6.65828 29.6274L4.47151 27.3381C4.47151 27.3381 4.45312 15.1205 4.45312 8.79283Z" fill="url(#paint1_linear_4234_4954)"/>
<path d="M11.3722 32.1784L11.3498 29.4714C11.3479 22.3694 11.3498 15.2674 11.333 8.16538L11.346 8.1915V5.85089L9.89107 5.20933L9.89667 5.22052C8.84276 4.76172 7.7534 4.32344 6.58571 3.83667V6.44956C6.58384 13.8462 6.57944 22.1693 6.59995 29.5659C6.69643 29.6793 6.9178 29.8678 6.96816 29.9107C7.16775 30.0879 7.37288 30.2491 7.57433 30.4207C8.19922 30.9485 8.87074 31.4297 9.54972 31.8847C9.90413 32.1216 10.2641 32.3491 10.6297 32.5673C10.6932 32.6046 11.3703 32.9497 11.3721 33C11.3647 32.6251 11.3908 32.6036 11.3722 32.1784Z" fill="url(#paint2_linear_4234_4954)"/>
<path d="M23.4422 5.11237V13.6337C23.2948 22.6268 19.6278 28.1196 13.5039 32.135L13.5373 1C14.4905 1.38792 15.3635 1.73668 16.2308 2.0985C18.2771 2.95454 20.3196 3.81805 22.3659 4.66663C22.7241 4.81583 23.0841 4.96503 23.4422 5.11237Z" fill="url(#paint3_linear_4234_4954)"/>
<path d="M4.47306 21.8902C4.47306 21.7448 4.47306 21.5993 4.47306 21.4538C4.47306 19.2811 4.47306 17.1288 4.4712 14.9859C4.4712 14.9095 4.4712 14.8349 4.4712 14.7584C4.4712 14.2269 4.46933 13.6953 4.46933 13.1657C4.46933 12.7311 4.46747 12.2966 4.46747 11.8658C4.46747 11.6923 4.46747 11.5189 4.46747 11.3454C4.46747 11.144 4.46747 10.9444 4.4656 10.7449L4.46933 10.7598L4.48239 8.77915L4.17834 8.64113C4.17834 8.64113 4.17834 8.64113 4.17648 8.63927C4.16901 8.63554 4.16155 8.63181 4.15223 8.62808L3.96196 8.54042V8.54415C2.67488 7.966 1.36356 7.43074 0 6.86377V13.6319C0.0802092 18.4978 1.17889 22.3379 3.14308 25.473C3.52734 26.0828 3.70268 26.3271 4.1373 26.8978C4.1485 26.9127 4.45627 27.3193 4.4712 27.3324C4.4712 25.8105 4.4712 24.2719 4.4712 22.7295C4.47306 22.4498 4.47306 22.17 4.47306 21.8902Z" fill="url(#paint4_linear_4234_4954)"/>
<path d="M28.5406 23V11.2842H33.1097C34.1363 11.2842 35.0122 11.446 35.7374 11.7696C36.4627 12.0931 37.0206 12.5618 37.4111 13.1755C37.8016 13.7891 37.9969 14.52 37.9969 15.368C37.9969 16.216 37.8016 16.9468 37.4111 17.5605C37.0206 18.163 36.4627 18.6317 35.7374 18.9664C35.0122 19.29 34.1363 19.4518 33.1097 19.4518H29.4611L30.2143 18.6651V23H28.5406ZM30.2143 18.8325L29.4611 17.9957H33.0595C34.1307 17.9957 34.9396 17.7669 35.4864 17.3095C36.0443 16.852 36.3232 16.2048 36.3232 15.368C36.3232 14.5311 36.0443 13.884 35.4864 13.4265C34.9396 12.969 34.1307 12.7403 33.0595 12.7403H29.4611L30.2143 11.9034V18.8325ZM43.4692 23.1004C42.5208 23.1004 41.6839 22.9052 40.9587 22.5146C40.2446 22.1241 39.6867 21.5885 39.285 20.9079C38.8945 20.2273 38.6992 19.4462 38.6992 18.5647C38.6992 17.6833 38.8889 16.9022 39.2683 16.2216C39.6588 15.5409 40.1888 15.0109 40.8583 14.6316C41.5389 14.241 42.3032 14.0458 43.1512 14.0458C44.0104 14.0458 44.7691 14.2355 45.4274 14.6148C46.0857 14.9942 46.599 15.5298 46.9672 16.2216C47.3466 16.9022 47.5363 17.7 47.5363 18.6149C47.5363 18.6819 47.5307 18.76 47.5195 18.8493C47.5195 18.9385 47.514 19.0222 47.5028 19.1003H39.9545V17.9455H46.666L46.0132 18.3471C46.0244 17.7781 45.9072 17.2704 45.6617 16.8241C45.4163 16.3778 45.076 16.0319 44.6408 15.7864C44.2168 15.5298 43.7203 15.4015 43.1512 15.4015C42.5933 15.4015 42.0968 15.5298 41.6616 15.7864C41.2265 16.0319 40.8862 16.3834 40.6407 16.8408C40.3952 17.2871 40.2725 17.8004 40.2725 18.3806V18.6484C40.2725 19.2398 40.4064 19.7698 40.6742 20.2384C40.9531 20.6959 41.3381 21.0529 41.829 21.3096C42.32 21.5662 42.8834 21.6945 43.5194 21.6945C44.0438 21.6945 44.5181 21.6053 44.9421 21.4267C45.3772 21.2482 45.7566 20.9804 46.0802 20.6234L46.9672 21.661C46.5655 22.1297 46.0634 22.4867 45.4609 22.7322C44.8695 22.9777 44.2056 23.1004 43.4692 23.1004ZM49.0979 23V14.1295H50.6377V16.5396L50.4871 15.937C50.7325 15.3234 51.1454 14.8547 51.7256 14.5311C52.3058 14.2076 53.0199 14.0458 53.8679 14.0458V15.6023C53.801 15.5911 53.734 15.5856 53.6671 15.5856C53.6113 15.5856 53.5555 15.5856 53.4997 15.5856C52.6405 15.5856 51.9599 15.8422 51.4578 16.3555C50.9557 16.8687 50.7046 17.6107 50.7046 18.5815V23H49.0979ZM66.2753 14.0458C66.9894 14.0458 67.6198 14.1852 68.1666 14.4642C68.7133 14.7431 69.1373 15.1671 69.4386 15.7362C69.751 16.3052 69.9072 17.0249 69.9072 17.8953V23H68.3005V18.0794C68.3005 17.2202 68.0996 16.573 67.6979 16.1379C67.2963 15.7027 66.7328 15.4851 66.0075 15.4851C65.4719 15.4851 65.0033 15.5967 64.6016 15.8199C64.1999 16.043 63.8875 16.3722 63.6644 16.8074C63.4524 17.2425 63.3464 17.7837 63.3464 18.4308V23H61.7396V18.0794C61.7396 17.2202 61.5388 16.573 61.1371 16.1379C60.7466 15.7027 60.1831 15.4851 59.4467 15.4851C58.9222 15.4851 58.4592 15.5967 58.0575 15.8199C57.6558 16.043 57.3434 16.3722 57.1202 16.8074C56.8971 17.2425 56.7855 17.7837 56.7855 18.4308V23H55.1788V14.1295H56.7185V16.4894L56.4675 15.8868C56.7464 15.3066 57.176 14.8547 57.7562 14.5311C58.3364 14.2076 59.0115 14.0458 59.7814 14.0458C60.6294 14.0458 61.3602 14.2578 61.9739 14.6818C62.5876 15.0946 62.9893 15.725 63.179 16.573L62.5262 16.3052C62.794 15.6246 63.2627 15.0779 63.9321 14.665C64.6016 14.2522 65.3827 14.0458 66.2753 14.0458ZM76.0771 26.3474C75.2626 26.3474 74.4704 26.2302 73.7005 25.9959C72.9417 25.7727 72.3225 25.4492 71.8427 25.0252L72.6126 23.7866C73.0254 24.1437 73.5331 24.4226 74.1356 24.6235C74.7382 24.8355 75.3686 24.9415 76.0269 24.9415C77.0757 24.9415 77.8456 24.696 78.3366 24.2051C78.8275 23.7141 79.073 22.9665 79.073 21.9623V20.0878L79.2404 18.3304L79.1567 16.5563V14.1295H80.6797V21.7949C80.6797 23.3571 80.2892 24.5063 79.5082 25.2427C78.7271 25.9792 77.5834 26.3474 76.0771 26.3474ZM75.8763 22.6318C75.0171 22.6318 74.2472 22.4533 73.5666 22.0962C72.8971 21.728 72.3615 21.2203 71.9598 20.5732C71.5693 19.926 71.374 19.1784 71.374 18.3304C71.374 17.4713 71.5693 16.7237 71.9598 16.0877C72.3615 15.4405 72.8971 14.9384 73.5666 14.5814C74.2472 14.2243 75.0171 14.0458 75.8763 14.0458C76.635 14.0458 77.3268 14.202 77.9516 14.5144C78.5765 14.8157 79.073 15.2843 79.4412 15.9203C79.8206 16.5563 80.0103 17.3597 80.0103 18.3304C80.0103 19.29 79.8206 20.0878 79.4412 20.7238C79.073 21.3598 78.5765 21.8396 77.9516 22.1632C77.3268 22.4756 76.635 22.6318 75.8763 22.6318ZM76.0604 21.2259C76.6517 21.2259 77.1762 21.1032 77.6336 20.8577C78.0911 20.6122 78.4482 20.2719 78.7048 19.8367C78.9726 19.4016 79.1065 18.8995 79.1065 18.3304C79.1065 17.7614 78.9726 17.2593 78.7048 16.8241C78.4482 16.3889 78.0911 16.0542 77.6336 15.8199C77.1762 15.5744 76.6517 15.4517 76.0604 15.4517C75.469 15.4517 74.939 15.5744 74.4704 15.8199C74.0129 16.0542 73.6503 16.3889 73.3825 16.8241C73.1258 17.2593 72.9975 17.7614 72.9975 18.3304C72.9975 18.8995 73.1258 19.4016 73.3825 19.8367C73.6503 20.2719 74.0129 20.6122 74.4704 20.8577C74.939 21.1032 75.469 21.2259 76.0604 21.2259ZM86.8126 23.1004C86.0539 23.1004 85.3844 22.9609 84.8042 22.682C84.2352 22.4031 83.7888 21.9791 83.4653 21.41C83.1528 20.8298 82.9966 20.1045 82.9966 19.2342V14.1295H84.6034V19.0501C84.6034 19.9204 84.8098 20.5732 85.2226 21.0083C85.6466 21.4435 86.238 21.661 86.9967 21.661C87.5546 21.661 88.04 21.5495 88.4528 21.3263C88.8657 21.092 89.1837 20.7573 89.4068 20.3221C89.63 19.8758 89.7416 19.3402 89.7416 18.7154V14.1295H91.3483V23H89.8253V20.6066L90.0763 21.2426C89.7862 21.834 89.3511 22.2915 88.7708 22.6151C88.1906 22.9386 87.5379 23.1004 86.8126 23.1004ZM99.2441 23V21.1255L99.1604 20.774V17.5773C99.1604 16.8966 98.9595 16.3722 98.5579 16.004C98.1673 15.6246 97.576 15.4349 96.7838 15.4349C96.2593 15.4349 95.7461 15.5242 95.244 15.7027C94.7419 15.8701 94.3179 16.0988 93.972 16.3889L93.3025 15.1839C93.76 14.8157 94.3067 14.5367 94.9427 14.347C95.5899 14.1462 96.2649 14.0458 96.9679 14.0458C98.1841 14.0458 99.1213 14.3415 99.7797 14.9328C100.438 15.5242 100.767 16.428 100.767 17.6442V23H99.2441ZM96.3319 23.1004C95.6735 23.1004 95.0933 22.9888 94.5912 22.7657C94.1003 22.5425 93.7209 22.2357 93.4531 21.8452C93.1853 21.4435 93.0514 20.9916 93.0514 20.4895C93.0514 20.0097 93.163 19.5745 93.3862 19.184C93.6205 18.7935 93.9943 18.481 94.5075 18.2467C95.032 18.0124 95.7349 17.8953 96.6164 17.8953H99.4282V19.0501H96.6833C95.88 19.0501 95.3388 19.184 95.0599 19.4518C94.7809 19.7196 94.6414 20.0432 94.6414 20.4225C94.6414 20.8577 94.8144 21.2092 95.1603 21.4769C95.5062 21.7336 95.986 21.8619 96.5996 21.8619C97.2022 21.8619 97.7266 21.728 98.1729 21.4602C98.6304 21.1924 98.9595 20.8019 99.1604 20.2886L99.4784 21.3933C99.2664 21.9177 98.8926 22.3361 98.357 22.6485C97.8214 22.9498 97.1464 23.1004 96.3319 23.1004ZM103.071 23V14.1295H104.611V16.5396L104.46 15.937C104.706 15.3234 105.119 14.8547 105.699 14.5311C106.279 14.2076 106.993 14.0458 107.841 14.0458V15.6023C107.774 15.5911 107.707 15.5856 107.64 15.5856C107.584 15.5856 107.529 15.5856 107.473 15.5856C106.614 15.5856 105.933 15.8422 105.431 16.3555C104.929 16.8687 104.678 17.6107 104.678 18.5815V23H103.071ZM112.736 23.1004C111.876 23.1004 111.107 22.9107 110.426 22.5314C109.756 22.152 109.226 21.622 108.836 20.9414C108.445 20.2607 108.25 19.4685 108.25 18.5647C108.25 17.6609 108.445 16.8743 108.836 16.2048C109.226 15.5242 109.756 14.9942 110.426 14.6148C111.107 14.2355 111.876 14.0458 112.736 14.0458C113.483 14.0458 114.158 14.2131 114.761 14.5479C115.363 14.8826 115.843 15.3847 116.2 16.0542C116.568 16.7237 116.752 17.5605 116.752 18.5647C116.752 19.5689 116.574 20.4058 116.217 21.0753C115.871 21.7447 115.397 22.2524 114.794 22.5983C114.192 22.9331 113.505 23.1004 112.736 23.1004ZM112.869 21.6945C113.427 21.6945 113.929 21.5662 114.376 21.3096C114.833 21.0529 115.19 20.6903 115.447 20.2217C115.715 19.7419 115.849 19.1896 115.849 18.5647C115.849 17.9287 115.715 17.382 115.447 16.9245C115.19 16.4559 114.833 16.0932 114.376 15.8366C113.929 15.58 113.427 15.4517 112.869 15.4517C112.3 15.4517 111.793 15.58 111.346 15.8366C110.9 16.0932 110.543 16.4559 110.275 16.9245C110.007 17.382 109.874 17.9287 109.874 18.5647C109.874 19.1896 110.007 19.7419 110.275 20.2217C110.543 20.6903 110.9 21.0529 111.346 21.3096C111.793 21.5662 112.3 21.6945 112.869 21.6945ZM115.899 23V20.6066L115.999 18.548L115.832 16.4894V10.5812H117.439V23H115.899Z" fill="white"/>
<defs>
<linearGradient id="paint0_linear_4234_4954" x1="12.3292" y1="1.0426" x2="12.3292" y2="32.0722" gradientUnits="userSpaceOnUse">
<stop stop-color="#B94848"/>
<stop offset="1" stop-color="#851287"/>
</linearGradient>
<linearGradient id="paint1_linear_4234_4954" x1="5.34704" y1="3.83682" x2="5.34704" y2="29.9236" gradientUnits="userSpaceOnUse">
<stop stop-color="#B94848"/>
<stop offset="1" stop-color="#851287"/>
</linearGradient>
<linearGradient id="paint2_linear_4234_4954" x1="8.97801" y1="3.83667" x2="16.6677" y2="33.0026" gradientUnits="userSpaceOnUse">
<stop stop-color="#F25E79"/>
<stop offset="1" stop-color="#C52CF1"/>
</linearGradient>
<linearGradient id="paint3_linear_4234_4954" x1="13.5374" y1="-7.6003" x2="18.4831" y2="32.1336" gradientUnits="userSpaceOnUse">
<stop stop-color="#F05C80"/>
<stop offset="1" stop-color="#CC34DF"/>
</linearGradient>
<linearGradient id="paint4_linear_4234_4954" x1="-10.0667" y1="-1.18384" x2="8.21253" y2="35.2396" gradientUnits="userSpaceOnUse">
<stop stop-color="#FFD83E"/>
<stop offset="1" stop-color="#D038D7"/>
</linearGradient>
</defs>
</svg>
