<svg width="24" height="32" viewBox="0 0 24 32" fill="none" xmlns="http://www.w3.org/2000/svg">
<path d="M11.0914 5.39L13.5485 0.0424805V31.1138L11.3698 31.998C11.3698 31.998 11.0914 12.9166 11.0914 5.39Z" fill="url(#paint0_linear_114_2199)"/>
<path d="M4.45276 7.7927L6.58403 2.83691L6.65792 28.6272L4.47114 26.338C4.47114 26.338 4.45276 14.1204 4.45276 7.7927Z" fill="url(#paint1_linear_114_2199)"/>
<path d="M11.3727 31.1782L11.3503 28.4711C11.3484 21.3691 11.3503 14.2671 11.3335 7.16514L11.3465 7.19125V4.85065L9.89156 4.20908L9.89716 4.22027C8.84325 3.76148 7.75389 3.3232 6.5862 2.83643V5.44932C6.58433 12.846 6.57992 21.169 6.60044 28.5657C6.69692 28.6791 6.91828 28.8676 6.96865 28.9105C7.16824 29.0876 7.37337 29.2489 7.57482 29.4204C8.19971 29.9482 8.87123 30.4294 9.55021 30.8845C9.90462 31.1213 10.2646 31.3489 10.6302 31.5671C10.6937 31.6044 11.3708 31.9494 11.3726 31.9998C11.3652 31.6249 11.3913 31.6034 11.3727 31.1782Z" fill="url(#paint2_linear_114_2199)"/>
<path d="M23.4431 4.11237V12.6337C23.2957 21.6268 19.6286 27.1196 13.5048 31.135L13.5382 0C14.4913 0.387924 15.3643 0.736683 16.2317 1.0985C18.278 1.95454 20.3205 2.81805 22.3668 3.66663C22.7249 3.81583 23.0849 3.96503 23.4431 4.11237Z" fill="url(#paint3_linear_114_2199)"/>
<path d="M4.47282 20.8902C4.47282 20.7448 4.47282 20.5993 4.47282 20.4538C4.47282 18.2811 4.47282 16.1288 4.47095 13.9859C4.47095 13.9095 4.47095 13.8349 4.47095 13.7584C4.47095 13.2269 4.46909 12.6953 4.46909 12.1657C4.46909 11.7311 4.46722 11.2966 4.46722 10.8658C4.46722 10.6923 4.46722 10.5189 4.46722 10.3454C4.46722 10.144 4.46722 9.94444 4.46536 9.74488L4.46909 9.7598L4.48215 7.77915L4.1781 7.64113C4.1781 7.64113 4.1781 7.64113 4.17623 7.63927C4.16877 7.63554 4.16131 7.63181 4.15198 7.62808L3.96172 7.54042V7.54415C2.67464 6.966 1.36331 6.43074 -0.000244141 5.86377V12.6319C0.0799651 17.4978 1.17865 21.3379 3.14284 24.473C3.5271 25.0828 3.70244 25.3271 4.13706 25.8978C4.14825 25.9127 4.45603 26.3193 4.47095 26.3324C4.47095 24.8105 4.47095 23.2719 4.47095 21.7295C4.47282 21.4498 4.47282 21.17 4.47282 20.8902Z" fill="url(#paint4_linear_114_2199)"/>
<defs>
<linearGradient id="paint0_linear_114_2199" x1="12.3288" y1="0.0424805" x2="12.3288" y2="31.0721" gradientUnits="userSpaceOnUse">
<stop stop-color="#B94848"/>
<stop offset="1" stop-color="#851287"/>
</linearGradient>
<linearGradient id="paint1_linear_114_2199" x1="5.34668" y1="2.8367" x2="5.34668" y2="28.9235" gradientUnits="userSpaceOnUse">
<stop stop-color="#B94848"/>
<stop offset="1" stop-color="#851287"/>
</linearGradient>
<linearGradient id="paint2_linear_114_2199" x1="8.9785" y1="2.83643" x2="16.6682" y2="32.0024" gradientUnits="userSpaceOnUse">
<stop stop-color="#F25E79"/>
<stop offset="1" stop-color="#C52CF1"/>
</linearGradient>
<linearGradient id="paint3_linear_114_2199" x1="13.5383" y1="-8.6003" x2="18.484" y2="31.1336" gradientUnits="userSpaceOnUse">
<stop stop-color="#F05C80"/>
<stop offset="1" stop-color="#CC34DF"/>
</linearGradient>
<linearGradient id="paint4_linear_114_2199" x1="-10.067" y1="-2.18384" x2="8.21229" y2="34.2396" gradientUnits="userSpaceOnUse">
<stop stop-color="#FFD83E"/>
<stop offset="1" stop-color="#D038D7"/>
</linearGradient>
</defs>
</svg>
