<svg width="120" height="35" viewBox="0 0 120 35" fill="none" xmlns="http://www.w3.org/2000/svg">
<path d="M11.0918 5.39012L13.5489 0.0426025V31.1139L11.3701 31.9981C11.3701 31.9981 11.0918 12.9167 11.0918 5.39012Z" fill="url(#paint0_linear_2259_51)"/>
<path d="M4.45312 7.79283L6.58439 2.83704L6.65828 28.6274L4.47151 26.3381C4.47151 26.3381 4.45312 14.1205 4.45312 7.79283Z" fill="url(#paint1_linear_2259_51)"/>
<path d="M11.3731 31.1784L11.3507 28.4714C11.3489 21.3694 11.3507 14.2674 11.334 7.16538L11.347 7.1915V4.85089L9.89205 4.20933L9.89765 4.22052C8.84373 3.76172 7.75438 3.32344 6.58668 2.83667V5.44956C6.58482 12.8462 6.58041 21.1693 6.60093 28.5659C6.69741 28.6793 6.91877 28.8678 6.96914 28.9107C7.16873 29.0879 7.37385 29.2491 7.57531 29.4207C8.20019 29.9485 8.87171 30.4297 9.55069 30.8847C9.90511 31.1216 10.2651 31.3491 10.6307 31.5673C10.6941 31.6046 11.3713 31.9497 11.3731 32C11.3657 31.6251 11.3918 31.6036 11.3731 31.1784Z" fill="url(#paint2_linear_2259_51)"/>
<path d="M23.4432 4.11237V12.6337C23.2958 21.6268 19.6288 27.1196 13.5049 31.135L13.5383 0C14.4915 0.387924 15.3644 0.736683 16.2318 1.0985C18.2781 1.95454 20.3206 2.81805 22.3669 3.66663C22.725 3.81583 23.085 3.96503 23.4432 4.11237Z" fill="url(#paint3_linear_2259_51)"/>
<path d="M4.47306 20.8902C4.47306 20.7448 4.47306 20.5993 4.47306 20.4538C4.47306 18.2811 4.47306 16.1288 4.4712 13.9859C4.4712 13.9095 4.4712 13.8349 4.4712 13.7584C4.4712 13.2269 4.46933 12.6953 4.46933 12.1657C4.46933 11.7311 4.46747 11.2966 4.46747 10.8658C4.46747 10.6923 4.46747 10.5189 4.46747 10.3454C4.46747 10.144 4.46747 9.94444 4.4656 9.74488L4.46933 9.7598L4.48239 7.77915L4.17834 7.64113C4.17834 7.64113 4.17834 7.64113 4.17648 7.63927C4.16901 7.63554 4.16155 7.63181 4.15223 7.62808L3.96196 7.54042V7.54415C2.67488 6.966 1.36356 6.43074 0 5.86377V12.6319C0.0802092 17.4978 1.17889 21.3379 3.14308 24.473C3.52734 25.0828 3.70268 25.3271 4.1373 25.8978C4.1485 25.9127 4.45628 26.3193 4.4712 26.3324C4.4712 24.8105 4.4712 23.2719 4.4712 21.7295C4.47306 21.4498 4.47306 21.17 4.47306 20.8902Z" fill="url(#paint4_linear_2259_51)"/>
<path d="M28.5416 22V10.2842H33.1107C34.1372 10.2842 35.0131 10.446 35.7384 10.7696C36.4637 11.0931 37.0216 11.5618 37.4121 12.1755C37.8026 12.7891 37.9979 13.52 37.9979 14.368C37.9979 15.216 37.8026 15.9468 37.4121 16.5605C37.0216 17.163 36.4637 17.6317 35.7384 17.9664C35.0131 18.29 34.1372 18.4518 33.1107 18.4518H29.4621L30.2152 17.6651V22H28.5416ZM30.2152 17.8325L29.4621 16.9957H33.0605C34.1317 16.9957 34.9406 16.7669 35.4874 16.3095C36.0453 15.852 36.3242 15.2048 36.3242 14.368C36.3242 13.5311 36.0453 12.884 35.4874 12.4265C34.9406 11.969 34.1317 11.7403 33.0605 11.7403H29.4621L30.2152 10.9034V17.8325ZM43.4702 22.1004C42.5218 22.1004 41.6849 21.9052 40.9597 21.5146C40.2456 21.1241 39.6877 20.5885 39.286 19.9079C38.8954 19.2273 38.7002 18.4462 38.7002 17.5647C38.7002 16.6833 38.8899 15.9022 39.2692 15.2216C39.6598 14.5409 40.1898 14.0109 40.8592 13.6316C41.5399 13.241 42.3042 13.0458 43.1522 13.0458C44.0114 13.0458 44.7701 13.2355 45.4284 13.6148C46.0867 13.9942 46.6 14.5298 46.9682 15.2216C47.3476 15.9022 47.5373 16.7 47.5373 17.6149C47.5373 17.6819 47.5317 17.76 47.5205 17.8493C47.5205 17.9385 47.5149 18.0222 47.5038 18.1003H39.9554V16.9455H46.6669L46.0142 17.3471C46.0254 16.7781 45.9082 16.2704 45.6627 15.8241C45.4173 15.3778 45.0769 15.0319 44.6418 14.7864C44.2178 14.5298 43.7212 14.4015 43.1522 14.4015C42.5943 14.4015 42.0978 14.5298 41.6626 14.7864C41.2275 15.0319 40.8871 15.3834 40.6417 15.8408C40.3962 16.2871 40.2734 16.8004 40.2734 17.3806V17.6484C40.2734 18.2398 40.4073 18.7698 40.6751 19.2384C40.9541 19.6959 41.339 20.0529 41.83 20.3096C42.3209 20.5662 42.8844 20.6945 43.5204 20.6945C44.0448 20.6945 44.519 20.6053 44.943 20.4267C45.3782 20.2482 45.7576 19.9804 46.0811 19.6234L46.9682 20.661C46.5665 21.1297 46.0644 21.4867 45.4619 21.7322C44.8705 21.9777 44.2066 22.1004 43.4702 22.1004ZM49.0989 22V13.1295H50.6387V15.5396L50.488 14.937C50.7335 14.3234 51.1464 13.8547 51.7266 13.5311C52.3068 13.2076 53.0209 13.0458 53.8689 13.0458V14.6023C53.8019 14.5911 53.735 14.5856 53.6681 14.5856C53.6123 14.5856 53.5565 14.5856 53.5007 14.5856C52.6415 14.5856 51.9609 14.8422 51.4588 15.3555C50.9567 15.8687 50.7056 16.6107 50.7056 17.5815V22H49.0989ZM66.2763 13.0458C66.9904 13.0458 67.6208 13.1852 68.1675 13.4642C68.7143 13.7431 69.1383 14.1671 69.4396 14.7362C69.752 15.3052 69.9082 16.0249 69.9082 16.8953V22H68.3014V17.0794C68.3014 16.2202 68.1006 15.573 67.6989 15.1379C67.2972 14.7027 66.7338 14.4851 66.0085 14.4851C65.4729 14.4851 65.0043 14.5967 64.6026 14.8199C64.2009 15.043 63.8885 15.3722 63.6653 15.8074C63.4533 16.2425 63.3473 16.7837 63.3473 17.4308V22H61.7406V17.0794C61.7406 16.2202 61.5397 15.573 61.1381 15.1379C60.7475 14.7027 60.1841 14.4851 59.4476 14.4851C58.9232 14.4851 58.4602 14.5967 58.0585 14.8199C57.6568 15.043 57.3444 15.3722 57.1212 15.8074C56.8981 16.2425 56.7865 16.7837 56.7865 17.4308V22H55.1797V13.1295H56.7195V15.4894L56.4685 14.8868C56.7474 14.3066 57.177 13.8547 57.7572 13.5311C58.3374 13.2076 59.0125 13.0458 59.7824 13.0458C60.6304 13.0458 61.3612 13.2578 61.9749 13.6818C62.5886 14.0946 62.9903 14.725 63.18 15.573L62.5272 15.3052C62.795 14.6246 63.2636 14.0779 63.9331 13.665C64.6026 13.2522 65.3836 13.0458 66.2763 13.0458ZM76.0781 25.3474C75.2635 25.3474 74.4713 25.2302 73.7014 24.9959C72.9427 24.7727 72.3234 24.4492 71.8436 24.0252L72.6135 22.7866C73.0264 23.1437 73.5341 23.4226 74.1366 23.6235C74.7391 23.8355 75.3695 23.9415 76.0279 23.9415C77.0767 23.9415 77.8466 23.696 78.3376 23.2051C78.8285 22.7141 79.074 21.9665 79.074 20.9623V19.0878L79.2413 17.3304L79.1577 15.5563V13.1295H80.6807V20.7949C80.6807 22.3571 80.2902 23.5063 79.5091 24.2427C78.7281 24.9792 77.5844 25.3474 76.0781 25.3474ZM75.8772 21.6318C75.0181 21.6318 74.2482 21.4533 73.5675 21.0962C72.8981 20.728 72.3625 20.2203 71.9608 19.5732C71.5703 18.926 71.375 18.1784 71.375 17.3304C71.375 16.4713 71.5703 15.7237 71.9608 15.0877C72.3625 14.4405 72.8981 13.9384 73.5675 13.5814C74.2482 13.2243 75.0181 13.0458 75.8772 13.0458C76.636 13.0458 77.3278 13.202 77.9526 13.5144C78.5775 13.8157 79.074 14.2843 79.4422 14.9203C79.8216 15.5563 80.0112 16.3597 80.0112 17.3304C80.0112 18.29 79.8216 19.0878 79.4422 19.7238C79.074 20.3598 78.5775 20.8396 77.9526 21.1632C77.3278 21.4756 76.636 21.6318 75.8772 21.6318ZM76.0613 20.2259C76.6527 20.2259 77.1771 20.1032 77.6346 19.8577C78.0921 19.6122 78.4491 19.2719 78.7058 18.8367C78.9736 18.4016 79.1075 17.8995 79.1075 17.3304C79.1075 16.7614 78.9736 16.2593 78.7058 15.8241C78.4491 15.3889 78.0921 15.0542 77.6346 14.8199C77.1771 14.5744 76.6527 14.4517 76.0613 14.4517C75.47 14.4517 74.94 14.5744 74.4713 14.8199C74.0139 15.0542 73.6512 15.3889 73.3834 15.8241C73.1268 16.2593 72.9985 16.7614 72.9985 17.3304C72.9985 17.8995 73.1268 18.4016 73.3834 18.8367C73.6512 19.2719 74.0139 19.6122 74.4713 19.8577C74.94 20.1032 75.47 20.2259 76.0613 20.2259ZM86.8136 22.1004C86.0549 22.1004 85.3854 21.9609 84.8052 21.682C84.2361 21.4031 83.7898 20.9791 83.4662 20.41C83.1538 19.8298 82.9976 19.1045 82.9976 18.2342V13.1295H84.6043V18.0501C84.6043 18.9204 84.8108 19.5732 85.2236 20.0083C85.6476 20.4435 86.239 20.661 86.9977 20.661C87.5556 20.661 88.041 20.5495 88.4538 20.3263C88.8667 20.092 89.1847 19.7573 89.4078 19.3221C89.631 18.8758 89.7426 18.3402 89.7426 17.7154V13.1295H91.3493V22H89.8262V19.6066L90.0773 20.2426C89.7872 20.834 89.352 21.2915 88.7718 21.6151C88.1916 21.9386 87.5389 22.1004 86.8136 22.1004ZM99.245 22V20.1255L99.1614 19.774V16.5773C99.1614 15.8966 98.9605 15.3722 98.5588 15.004C98.1683 14.6246 97.5769 14.4349 96.7847 14.4349C96.2603 14.4349 95.747 14.5242 95.2449 14.7027C94.7428 14.8701 94.3188 15.0988 93.9729 15.3889L93.3035 14.1839C93.7609 13.8157 94.3077 13.5367 94.9437 13.347C95.5908 13.1462 96.2659 13.0458 96.9688 13.0458C98.185 13.0458 99.1223 13.3415 99.7806 13.9328C100.439 14.5242 100.768 15.428 100.768 16.6442V22H99.245ZM96.3328 22.1004C95.6745 22.1004 95.0943 21.9888 94.5922 21.7657C94.1012 21.5425 93.7219 21.2357 93.4541 20.8452C93.1863 20.4435 93.0524 19.9916 93.0524 19.4895C93.0524 19.0097 93.164 18.5745 93.3871 18.184C93.6215 17.7935 93.9952 17.481 94.5085 17.2467C95.0329 17.0124 95.7359 16.8953 96.6174 16.8953H99.4292V18.0501H96.6843C95.8809 18.0501 95.3398 18.184 95.0608 18.4518C94.7819 18.7196 94.6424 19.0432 94.6424 19.4225C94.6424 19.8577 94.8154 20.2092 95.1613 20.4769C95.5071 20.7336 95.9869 20.8619 96.6006 20.8619C97.2032 20.8619 97.7276 20.728 98.1739 20.4602C98.6314 20.1924 98.9605 19.8019 99.1614 19.2886L99.4794 20.3933C99.2674 20.9177 98.8936 21.3361 98.358 21.6485C97.8224 21.9498 97.1474 22.1004 96.3328 22.1004ZM103.072 22V13.1295H104.612V15.5396L104.461 14.937C104.707 14.3234 105.12 13.8547 105.7 13.5311C106.28 13.2076 106.994 13.0458 107.842 13.0458V14.6023C107.775 14.5911 107.708 14.5856 107.641 14.5856C107.585 14.5856 107.53 14.5856 107.474 14.5856C106.615 14.5856 105.934 14.8422 105.432 15.3555C104.93 15.8687 104.679 16.6107 104.679 17.5815V22H103.072ZM112.737 22.1004C111.877 22.1004 111.107 21.9107 110.427 21.5314C109.757 21.152 109.227 20.622 108.837 19.9414C108.446 19.2607 108.251 18.4685 108.251 17.5647C108.251 16.6609 108.446 15.8743 108.837 15.2048C109.227 14.5242 109.757 13.9942 110.427 13.6148C111.107 13.2355 111.877 13.0458 112.737 13.0458C113.484 13.0458 114.159 13.2131 114.762 13.5479C115.364 13.8826 115.844 14.3847 116.201 15.0542C116.569 15.7237 116.753 16.5605 116.753 17.5647C116.753 18.5689 116.575 19.4058 116.218 20.0753C115.872 20.7447 115.398 21.2524 114.795 21.5983C114.193 21.9331 113.506 22.1004 112.737 22.1004ZM112.87 20.6945C113.428 20.6945 113.93 20.5662 114.377 20.3096C114.834 20.0529 115.191 19.6903 115.448 19.2217C115.716 18.7419 115.85 18.1896 115.85 17.5647C115.85 16.9287 115.716 16.382 115.448 15.9245C115.191 15.4559 114.834 15.0932 114.377 14.8366C113.93 14.58 113.428 14.4517 112.87 14.4517C112.301 14.4517 111.794 14.58 111.347 14.8366C110.901 15.0932 110.544 15.4559 110.276 15.9245C110.008 16.382 109.875 16.9287 109.875 17.5647C109.875 18.1896 110.008 18.7419 110.276 19.2217C110.544 19.6903 110.901 20.0529 111.347 20.3096C111.794 20.5662 112.301 20.6945 112.87 20.6945ZM115.9 22V19.6066L116 17.548L115.833 15.4894V9.58124H117.44V22H115.9Z" fill="white"/>
<path d="M70.5518 29.663H69.3757C69.3757 29.467 69.3438 29.2933 69.2798 29.142C69.2159 28.9886 69.1264 28.8587 69.0114 28.7521C68.8963 28.6456 68.7599 28.5657 68.6023 28.5124C68.4446 28.457 68.2699 28.4293 68.0781 28.4293C67.7116 28.4293 67.3707 28.522 67.0554 28.7074C66.7401 28.8928 66.4727 29.1623 66.2532 29.516C66.0337 29.8675 65.8814 30.2947 65.7962 30.7976C65.7173 31.2876 65.7248 31.6978 65.8185 32.0281C65.9144 32.3583 66.0806 32.6076 66.3171 32.7759C66.5536 32.9421 66.8413 33.0252 67.18 33.0252C67.3867 33.0252 67.5849 32.9996 67.7745 32.9485C67.9641 32.8952 68.1388 32.8175 68.2987 32.7152C68.4606 32.6108 68.6023 32.484 68.7237 32.3349C68.8473 32.1857 68.9432 32.0163 69.0114 31.8267H70.2035C70.1055 32.1378 69.9616 32.4308 69.772 32.7056C69.5824 32.9783 69.3544 33.2191 69.0881 33.4279C68.8217 33.6346 68.5234 33.7965 68.1932 33.9137C67.8629 34.0309 67.5071 34.0895 67.1257 34.0895C66.5398 34.0895 66.038 33.9531 65.6204 33.6804C65.2049 33.4055 64.9066 33.0124 64.7255 32.5011C64.5444 31.9876 64.5124 31.3729 64.6296 30.657C64.7468 29.9602 64.9727 29.3668 65.3072 28.8768C65.6438 28.3867 66.054 28.0128 66.5376 27.755C67.0234 27.495 67.5465 27.3651 68.1069 27.3651C68.4776 27.3651 68.8143 27.4162 69.1168 27.5185C69.4215 27.6207 69.6825 27.771 69.8999 27.9691C70.1172 28.1651 70.2823 28.4059 70.3952 28.6914C70.5103 28.9748 70.5625 29.2987 70.5518 29.663ZM76.9442 30.804C76.8292 31.4986 76.6023 32.0909 76.2635 32.581C75.9268 33.0689 75.5156 33.4428 75.0298 33.7028C74.5462 33.9606 74.0252 34.0895 73.467 34.0895C72.881 34.0895 72.3782 33.9531 71.9584 33.6804C71.5387 33.4055 71.2361 33.0124 71.0508 32.5011C70.8675 31.9897 70.8356 31.3761 70.9549 30.6602C71.07 29.9677 71.2958 29.3754 71.6325 28.8832C71.9691 28.391 72.3814 28.0149 72.8693 27.755C73.3572 27.495 73.8835 27.3651 74.4481 27.3651C75.0298 27.3651 75.5284 27.5025 75.9439 27.7773C76.3615 28.0501 76.6619 28.4432 76.8452 28.9567C77.0305 29.4702 77.0636 30.0859 76.9442 30.804ZM75.7777 30.6602C75.8565 30.1765 75.8491 29.7685 75.7553 29.4361C75.6637 29.1037 75.5007 28.8533 75.2663 28.685C75.032 28.5146 74.7432 28.4293 74.4002 28.4293C74.0295 28.4293 73.6864 28.522 73.3711 28.7074C73.0579 28.8906 72.7915 29.1591 72.5721 29.5128C72.3548 29.8665 72.2056 30.2969 72.1246 30.804C72.0394 31.2898 72.0447 31.6978 72.1406 32.0281C72.2365 32.3583 72.4027 32.6076 72.6392 32.7759C72.8757 32.9421 73.1644 33.0252 73.5053 33.0252C73.8739 33.0252 74.2148 32.9336 74.5281 32.7504C74.8413 32.5671 75.1065 32.2997 75.3239 31.9482C75.5433 31.5966 75.6946 31.1673 75.7777 30.6602ZM78.2614 27.4545H79.7124L80.8725 32.1974H80.9492L83.6754 27.4545H85.1264L84.0398 34H82.902L83.6499 29.5032H83.5923L81.0355 33.9808H80.1886L79.1275 29.4936H79.0668L78.3125 34H77.1747L78.2614 27.4545ZM86.0576 27.4545H87.5086L88.6688 32.1974H88.7455L91.4717 27.4545H92.9227L91.836 34H90.6982L91.4461 29.5032H91.3886L88.8318 33.9808H87.9848L86.9237 29.4936H86.863L86.1087 34H84.971L86.0576 27.4545ZM97.9799 27.4545H99.1656L98.4561 31.7308C98.3794 32.1996 98.2004 32.6119 97.9192 32.9677C97.6401 33.3235 97.2843 33.6016 96.8517 33.8018C96.4192 34 95.9377 34.0991 95.4071 34.0991C94.8723 34.0991 94.4227 34 94.0584 33.8018C93.6941 33.6016 93.4309 33.3235 93.269 32.9677C93.1092 32.6119 93.0676 32.1996 93.1443 31.7308L93.8539 27.4545H95.0396L94.346 31.6317C94.3013 31.9045 94.3215 32.1474 94.4068 32.3604C94.4941 32.5714 94.6369 32.7376 94.835 32.859C95.0353 32.9805 95.2857 33.0412 95.5861 33.0412C95.8865 33.0412 96.1571 32.9805 96.3979 32.859C96.6387 32.7376 96.8357 32.5714 96.9892 32.3604C97.1426 32.1474 97.2416 31.9045 97.2864 31.6317L97.9799 27.4545ZM105.473 27.4545L104.387 34H103.332L100.989 29.5415H100.938L100.194 34H99.0078L100.094 27.4545H101.156L103.495 31.9162H103.556L104.294 27.4545H105.473ZM107.591 27.4545L106.504 34H105.319L106.405 27.4545H107.591ZM108.061 28.4485L108.227 27.4545H113.45L113.284 28.4485H111.26L110.34 34H109.164L110.084 28.4485H108.061ZM113.649 27.4545H114.988L116.11 30.3501H116.18L118.254 27.4545H119.594L116.532 31.5582L116.126 34H114.943L115.349 31.5582L113.649 27.4545Z" fill="url(#paint5_linear_2259_51)"/>
<defs>
<linearGradient id="paint0_linear_2259_51" x1="12.3292" y1="0.0426025" x2="12.3292" y2="31.0722" gradientUnits="userSpaceOnUse">
<stop stop-color="#B94848"/>
<stop offset="1" stop-color="#851287"/>
</linearGradient>
<linearGradient id="paint1_linear_2259_51" x1="5.34704" y1="2.83682" x2="5.34704" y2="28.9236" gradientUnits="userSpaceOnUse">
<stop stop-color="#B94848"/>
<stop offset="1" stop-color="#851287"/>
</linearGradient>
<linearGradient id="paint2_linear_2259_51" x1="8.97898" y1="2.83667" x2="16.6687" y2="32.0026" gradientUnits="userSpaceOnUse">
<stop stop-color="#F25E79"/>
<stop offset="1" stop-color="#C52CF1"/>
</linearGradient>
<linearGradient id="paint3_linear_2259_51" x1="13.5384" y1="-8.6003" x2="18.4841" y2="31.1336" gradientUnits="userSpaceOnUse">
<stop stop-color="#F05C80"/>
<stop offset="1" stop-color="#CC34DF"/>
</linearGradient>
<linearGradient id="paint4_linear_2259_51" x1="-10.0667" y1="-2.18384" x2="8.21253" y2="34.2396" gradientUnits="userSpaceOnUse">
<stop stop-color="#FFD83E"/>
<stop offset="1" stop-color="#D038D7"/>
</linearGradient>
<linearGradient id="paint5_linear_2259_51" x1="64.1888" y1="21.9615" x2="64.3" y2="36.2161" gradientUnits="userSpaceOnUse">
<stop stop-color="#F05C80"/>
<stop offset="1" stop-color="#CC34DF"/>
</linearGradient>
</defs>
</svg>
