<svg width="122" height="34" viewBox="0 0 122 34" fill="none" xmlns="http://www.w3.org/2000/svg">
<path d="M11.0918 6.39L13.5489 1.04248V32.1138L11.3701 32.998C11.3701 32.998 11.0918 13.9166 11.0918 6.39Z" fill="url(#paint0_linear_4029_7393)"/>
<path d="M4.45312 8.7927L6.58439 3.83691L6.65828 29.6272L4.47151 27.338C4.47151 27.338 4.45312 15.1204 4.45312 8.7927Z" fill="url(#paint1_linear_4029_7393)"/>
<path d="M11.3722 32.1784L11.3498 29.4714C11.3479 22.3694 11.3498 15.2674 11.333 8.16538L11.346 8.1915V5.85089L9.89107 5.20933L9.89667 5.22052C8.84276 4.76172 7.7534 4.32344 6.58571 3.83667V6.44956C6.58384 13.8462 6.57944 22.1693 6.59995 29.5659C6.69643 29.6793 6.9178 29.8678 6.96816 29.9107C7.16775 30.0879 7.37288 30.2491 7.57433 30.4207C8.19922 30.9485 8.87074 31.4297 9.54972 31.8847C9.90413 32.1216 10.2641 32.3491 10.6297 32.5673C10.6932 32.6046 11.3703 32.9497 11.3721 33C11.3647 32.6251 11.3908 32.6036 11.3722 32.1784Z" fill="url(#paint2_linear_4029_7393)"/>
<path d="M23.4422 5.11237V13.6337C23.2948 22.6268 19.6278 28.1196 13.5039 32.135L13.5373 1C14.4905 1.38792 15.3635 1.73668 16.2308 2.0985C18.2771 2.95454 20.3196 3.81805 22.3659 4.66663C22.7241 4.81583 23.0841 4.96503 23.4422 5.11237Z" fill="url(#paint3_linear_4029_7393)"/>
<path d="M4.47306 21.8902C4.47306 21.7448 4.47306 21.5993 4.47306 21.4538C4.47306 19.2811 4.47306 17.1288 4.4712 14.9859C4.4712 14.9095 4.4712 14.8349 4.4712 14.7584C4.4712 14.2269 4.46933 13.6953 4.46933 13.1657C4.46933 12.7311 4.46747 12.2966 4.46747 11.8658C4.46747 11.6923 4.46747 11.5189 4.46747 11.3454C4.46747 11.144 4.46747 10.9444 4.4656 10.7449L4.46933 10.7598L4.48239 8.77915L4.17834 8.64113C4.17834 8.64113 4.17834 8.64113 4.17648 8.63927C4.16901 8.63554 4.16155 8.63181 4.15223 8.62808L3.96196 8.54042V8.54415C2.67488 7.966 1.36356 7.43074 0 6.86377V13.6319C0.0802092 18.4978 1.17889 22.3379 3.14308 25.473C3.52734 26.0828 3.70268 26.3271 4.1373 26.8978C4.1485 26.9127 4.45627 27.3193 4.4712 27.3324C4.4712 25.8105 4.4712 24.2719 4.4712 22.7295C4.47306 22.4498 4.47306 22.17 4.47306 21.8902Z" fill="url(#paint4_linear_4029_7393)"/>
<path d="M30.2007 16V4.28418H34.7699C35.7964 4.28418 36.6723 4.44598 37.3976 4.76956C38.1229 5.09313 38.6807 5.56177 39.0713 6.17545C39.4618 6.78914 39.6571 7.51998 39.6571 8.36798C39.6571 9.21599 39.4618 9.94683 39.0713 10.5605C38.6807 11.163 38.1229 11.6317 37.3976 11.9664C36.6723 12.29 35.7964 12.4518 34.7699 12.4518H31.1213L31.8744 11.6651V16H30.2007ZM31.8744 11.8325L31.1213 10.9957H34.7197C35.7908 10.9957 36.5998 10.7669 37.1465 10.3095C37.7044 9.85199 37.9834 9.20483 37.9834 8.36798C37.9834 7.53114 37.7044 6.88398 37.1465 6.42651C36.5998 5.96903 35.7908 5.74029 34.7197 5.74029H31.1213L31.8744 4.90345V11.8325ZM45.1294 16.1004C44.181 16.1004 43.3441 15.9052 42.6188 15.5146C41.9047 15.1241 41.3468 14.5885 40.9452 13.9079C40.5546 13.2273 40.3594 12.4462 40.3594 11.5647C40.3594 10.6833 40.549 9.9022 40.9284 9.22156C41.3189 8.54093 41.8489 8.01093 42.5184 7.63156C43.1991 7.24103 43.9634 7.04577 44.8114 7.04577C45.6705 7.04577 46.4293 7.23545 47.0876 7.61482C47.7459 7.99419 48.2592 8.52977 48.6274 9.22156C49.0068 9.9022 49.1964 10.7 49.1964 11.6149C49.1964 11.6819 49.1909 11.76 49.1797 11.8493C49.1797 11.9385 49.1741 12.0222 49.163 12.1003H41.6146V10.9455H48.3261L47.6734 11.3471C47.6845 10.7781 47.5674 10.2704 47.3219 9.82409C47.0764 9.37778 46.7361 9.03188 46.301 8.78641C45.877 8.52977 45.3804 8.40146 44.8114 8.40146C44.2535 8.40146 43.7569 8.52977 43.3218 8.78641C42.8866 9.03188 42.5463 9.38335 42.3008 9.84083C42.0554 10.2871 41.9326 10.8004 41.9326 11.3806V11.6484C41.9326 12.2398 42.0665 12.7698 42.3343 13.2384C42.6133 13.6959 42.9982 14.0529 43.4892 14.3096C43.9801 14.5662 44.5436 14.6945 45.1796 14.6945C45.704 14.6945 46.1782 14.6053 46.6022 14.4267C47.0374 14.2482 47.4167 13.9804 47.7403 13.6234L48.6274 14.661C48.2257 15.1297 47.7236 15.4867 47.1211 15.7322C46.5297 15.9777 45.8658 16.1004 45.1294 16.1004ZM50.7581 16V7.12945H52.2979V9.53957L52.1472 8.93704C52.3927 8.32335 52.8055 7.85472 53.3858 7.53114C53.966 7.20756 54.6801 7.04577 55.5281 7.04577V8.6023C55.4611 8.59114 55.3942 8.58556 55.3272 8.58556C55.2714 8.58556 55.2157 8.58556 55.1599 8.58556C54.3007 8.58556 53.6201 8.8422 53.118 9.35546C52.6159 9.86872 52.3648 10.6107 52.3648 11.5815V16H50.7581ZM67.9355 7.04577C68.6496 7.04577 69.28 7.18524 69.8267 7.46419C70.3735 7.74314 70.7975 8.16714 71.0987 8.73619C71.4112 9.30525 71.5674 10.0249 71.5674 10.8953V16H69.9606V11.0794C69.9606 10.2202 69.7598 9.57304 69.3581 9.13788C68.9564 8.70272 68.3929 8.48514 67.6677 8.48514C67.1321 8.48514 66.6635 8.59672 66.2618 8.81988C65.8601 9.04304 65.5477 9.3722 65.3245 9.80736C65.1125 10.2425 65.0065 10.7837 65.0065 11.4308V16H63.3998V11.0794C63.3998 10.2202 63.1989 9.57304 62.7972 9.13788C62.4067 8.70272 61.8432 8.48514 61.1068 8.48514C60.5824 8.48514 60.1193 8.59672 59.7177 8.81988C59.316 9.04304 59.0035 9.3722 58.7804 9.80736C58.5572 10.2425 58.4457 10.7837 58.4457 11.4308V16H56.8389V7.12945H58.3787V9.48935L58.1277 8.88683C58.4066 8.30661 58.8362 7.85472 59.4164 7.53114C59.9966 7.20756 60.6717 7.04577 61.4416 7.04577C62.2896 7.04577 63.0204 7.25777 63.6341 7.68177C64.2478 8.09461 64.6495 8.72504 64.8391 9.57304L64.1864 9.30525C64.4542 8.62462 64.9228 8.07788 65.5923 7.66503C66.2618 7.25219 67.0428 7.04577 67.9355 7.04577ZM77.7373 19.3474C76.9227 19.3474 76.1305 19.2302 75.3606 18.9959C74.6019 18.7727 73.9826 18.4492 73.5028 18.0252L74.2727 16.7866C74.6856 17.1437 75.1933 17.4226 75.7958 17.6235C76.3983 17.8355 77.0287 17.9415 77.687 17.9415C78.7359 17.9415 79.5058 17.696 79.9967 17.2051C80.4877 16.7141 80.7332 15.9665 80.7332 14.9623V13.0878L80.9005 11.3304L80.8168 9.5563V7.12945H82.3399V14.7949C82.3399 16.3571 81.9494 17.5063 81.1683 18.2427C80.3873 18.9792 79.2436 19.3474 77.7373 19.3474ZM77.5364 15.6318C76.6773 15.6318 75.9074 15.4533 75.2267 15.0962C74.5573 14.728 74.0217 14.2203 73.62 13.5732C73.2295 12.926 73.0342 12.1784 73.0342 11.3304C73.0342 10.4713 73.2295 9.72367 73.62 9.08767C74.0217 8.44051 74.5573 7.9384 75.2267 7.58135C75.9074 7.2243 76.6773 7.04577 77.5364 7.04577C78.2952 7.04577 78.9869 7.20198 79.6118 7.5144C80.2366 7.81567 80.7332 8.2843 81.1014 8.9203C81.4807 9.5563 81.6704 10.3597 81.6704 11.3304C81.6704 12.29 81.4807 13.0878 81.1014 13.7238C80.7332 14.3598 80.2366 14.8396 79.6118 15.1632C78.9869 15.4756 78.2952 15.6318 77.5364 15.6318ZM77.7205 14.2259C78.3119 14.2259 78.8363 14.1032 79.2938 13.8577C79.7513 13.6122 80.1083 13.2719 80.3649 12.8367C80.6327 12.4016 80.7666 11.8995 80.7666 11.3304C80.7666 10.7614 80.6327 10.2593 80.3649 9.82409C80.1083 9.38893 79.7513 9.0542 79.2938 8.81988C78.8363 8.5744 78.3119 8.45167 77.7205 8.45167C77.1292 8.45167 76.5991 8.5744 76.1305 8.81988C75.673 9.0542 75.3104 9.38893 75.0426 9.82409C74.786 10.2593 74.6577 10.7614 74.6577 11.3304C74.6577 11.8995 74.786 12.4016 75.0426 12.8367C75.3104 13.2719 75.673 13.6122 76.1305 13.8577C76.5991 14.1032 77.1292 14.2259 77.7205 14.2259ZM88.4728 16.1004C87.714 16.1004 87.0446 15.9609 86.4644 15.682C85.8953 15.4031 85.449 14.9791 85.1254 14.41C84.813 13.8298 84.6568 13.1045 84.6568 12.2342V7.12945H86.2635V12.0501C86.2635 12.9204 86.4699 13.5732 86.8828 14.0083C87.3068 14.4435 87.8982 14.661 88.6569 14.661C89.2148 14.661 89.7002 14.5495 90.113 14.3263C90.5258 14.092 90.8438 13.7573 91.067 13.3221C91.2902 12.8758 91.4017 12.3402 91.4017 11.7154V7.12945H93.0085V16H91.4854V13.6066L91.7365 14.2426C91.4464 14.834 91.0112 15.2915 90.431 15.6151C89.8508 15.9386 89.1981 16.1004 88.4728 16.1004ZM100.904 16V14.1255L100.821 13.774V10.5773C100.821 9.89662 100.62 9.3722 100.218 9.00399C99.8275 8.62462 99.2361 8.43493 98.4439 8.43493C97.9195 8.43493 97.4062 8.52419 96.9041 8.70272C96.402 8.87009 95.978 9.09883 95.6321 9.38893L94.9626 8.18388C95.4201 7.81567 95.9669 7.53672 96.6029 7.34703C97.25 7.14619 97.9251 7.04577 98.628 7.04577C99.8442 7.04577 100.781 7.34145 101.44 7.93282C102.098 8.52419 102.427 9.42799 102.427 10.6442V16H100.904ZM97.992 16.1004C97.3337 16.1004 96.7535 15.9888 96.2514 15.7657C95.7604 15.5425 95.3811 15.2357 95.1133 14.8452C94.8455 14.4435 94.7116 13.9916 94.7116 13.4895C94.7116 13.0097 94.8232 12.5745 95.0463 12.184C95.2806 11.7935 95.6544 11.481 96.1677 11.2467C96.6921 11.0124 97.3951 10.8953 98.2765 10.8953H101.088V12.0501H98.3435C97.5401 12.0501 96.999 12.184 96.72 12.4518C96.4411 12.7196 96.3016 13.0432 96.3016 13.4225C96.3016 13.8577 96.4745 14.2092 96.8204 14.4769C97.1663 14.7336 97.6461 14.8619 98.2598 14.8619C98.8623 14.8619 99.3868 14.728 99.8331 14.4602C100.291 14.1924 100.62 13.8019 100.821 13.2886L101.139 14.3933C100.927 14.9177 100.553 15.3361 100.017 15.6485C99.4816 15.9498 98.8065 16.1004 97.992 16.1004ZM104.731 16V7.12945H106.271V9.53957L106.12 8.93704C106.366 8.32335 106.779 7.85472 107.359 7.53114C107.939 7.20756 108.653 7.04577 109.501 7.04577V8.6023C109.434 8.59114 109.367 8.58556 109.3 8.58556C109.245 8.58556 109.189 8.58556 109.133 8.58556C108.274 8.58556 107.593 8.8422 107.091 9.35546C106.589 9.86872 106.338 10.6107 106.338 11.5815V16H104.731ZM114.396 16.1004C113.537 16.1004 112.767 15.9107 112.086 15.5314C111.417 15.152 110.887 14.622 110.496 13.9414C110.106 13.2607 109.91 12.4685 109.91 11.5647C109.91 10.6609 110.106 9.8743 110.496 9.20483C110.887 8.52419 111.417 7.99419 112.086 7.61482C112.767 7.23545 113.537 7.04577 114.396 7.04577C115.143 7.04577 115.818 7.21314 116.421 7.54788C117.023 7.88261 117.503 8.38472 117.86 9.0542C118.228 9.72367 118.413 10.5605 118.413 11.5647C118.413 12.5689 118.234 13.4058 117.877 14.0753C117.531 14.7447 117.057 15.2524 116.454 15.5983C115.852 15.9331 115.166 16.1004 114.396 16.1004ZM114.53 14.6945C115.088 14.6945 115.59 14.5662 116.036 14.3096C116.493 14.0529 116.85 13.6903 117.107 13.2217C117.375 12.7419 117.509 12.1896 117.509 11.5647C117.509 10.9287 117.375 10.382 117.107 9.92451C116.85 9.45588 116.493 9.09325 116.036 8.83662C115.59 8.57998 115.088 8.45167 114.53 8.45167C113.961 8.45167 113.453 8.57998 113.007 8.83662C112.56 9.09325 112.203 9.45588 111.935 9.92451C111.668 10.382 111.534 10.9287 111.534 11.5647C111.534 12.1896 111.668 12.7419 111.935 13.2217C112.203 13.6903 112.56 14.0529 113.007 14.3096C113.453 14.5662 113.961 14.6945 114.53 14.6945ZM117.559 16V13.6066L117.659 11.548L117.492 9.48935V3.58124H119.099V16H117.559Z" fill="white"/>
<path d="M45.0524 31.154C44.4437 31.154 43.879 31.0587 43.3584 30.868C42.845 30.67 42.3977 30.3913 42.0164 30.032C41.6424 29.6727 41.349 29.251 41.1364 28.767C40.9237 28.2757 40.8174 27.7367 40.8174 27.15C40.8174 26.5633 40.9237 26.028 41.1364 25.544C41.349 25.0527 41.6424 24.6273 42.0164 24.268C42.3977 23.9087 42.845 23.6337 43.3584 23.443C43.879 23.245 44.4437 23.146 45.0524 23.146C45.7637 23.146 46.398 23.2707 46.9554 23.52C47.52 23.7693 47.9894 24.1287 48.3634 24.598L46.9774 25.852C46.728 25.5587 46.453 25.335 46.1524 25.181C45.859 25.027 45.529 24.95 45.1624 24.95C44.847 24.95 44.5574 25.0013 44.2934 25.104C44.0294 25.2067 43.802 25.357 43.6114 25.555C43.428 25.7457 43.2814 25.9767 43.1714 26.248C43.0687 26.5193 43.0174 26.82 43.0174 27.15C43.0174 27.48 43.0687 27.7807 43.1714 28.052C43.2814 28.3233 43.428 28.558 43.6114 28.756C43.802 28.9467 44.0294 29.0933 44.2934 29.196C44.5574 29.2987 44.847 29.35 45.1624 29.35C45.529 29.35 45.859 29.273 46.1524 29.119C46.453 28.965 46.728 28.7413 46.9774 28.448L48.3634 29.702C47.9894 30.164 47.52 30.5233 46.9554 30.78C46.398 31.0293 45.7637 31.154 45.0524 31.154ZM53.9363 31.154C53.3203 31.154 52.752 31.055 52.2313 30.857C51.7107 30.659 51.256 30.3803 50.8673 30.021C50.486 29.6543 50.189 29.229 49.9763 28.745C49.7637 28.261 49.6573 27.7293 49.6573 27.15C49.6573 26.5707 49.7637 26.039 49.9763 25.555C50.189 25.071 50.486 24.6493 50.8673 24.29C51.256 23.9233 51.7107 23.641 52.2313 23.443C52.752 23.245 53.3203 23.146 53.9363 23.146C54.5597 23.146 55.128 23.245 55.6413 23.443C56.162 23.641 56.613 23.9233 56.9943 24.29C57.3757 24.6493 57.6727 25.071 57.8853 25.555C58.1053 26.039 58.2153 26.5707 58.2153 27.15C58.2153 27.7293 58.1053 28.2647 57.8853 28.756C57.6727 29.24 57.3757 29.6617 56.9943 30.021C56.613 30.3803 56.162 30.659 55.6413 30.857C55.128 31.055 54.5597 31.154 53.9363 31.154ZM53.9363 29.35C54.2297 29.35 54.501 29.2987 54.7503 29.196C55.007 29.0933 55.227 28.9467 55.4103 28.756C55.601 28.558 55.7477 28.3233 55.8503 28.052C55.9603 27.7807 56.0153 27.48 56.0153 27.15C56.0153 26.8127 55.9603 26.512 55.8503 26.248C55.7477 25.9767 55.601 25.7457 55.4103 25.555C55.227 25.357 55.007 25.2067 54.7503 25.104C54.501 25.0013 54.2297 24.95 53.9363 24.95C53.643 24.95 53.368 25.0013 53.1113 25.104C52.862 25.2067 52.642 25.357 52.4513 25.555C52.268 25.7457 52.1213 25.9767 52.0113 26.248C51.9087 26.512 51.8573 26.8127 51.8573 27.15C51.8573 27.48 51.9087 27.7807 52.0113 28.052C52.1213 28.3233 52.268 28.558 52.4513 28.756C52.642 28.9467 52.862 29.0933 53.1113 29.196C53.368 29.2987 53.643 29.35 53.9363 29.35ZM60.2361 31V23.3H62.0291L65.2191 28.536H64.2731L67.3751 23.3H69.1681L69.1901 31H67.1881L67.1661 26.347H67.5071L65.1861 30.241H64.2181L61.8311 26.347H62.2491V31H60.2361ZM71.6112 31V23.3H73.4042L76.5942 28.536H75.6482L78.7502 23.3H80.5432L80.5652 31H78.5632L78.5412 26.347H78.8822L76.5612 30.241H75.5932L73.2062 26.347H73.6242V31H71.6112ZM86.5393 31.154C85.4026 31.154 84.5153 30.8423 83.8773 30.219C83.2393 29.5957 82.9203 28.712 82.9203 27.568V23.3H85.0983V27.502C85.0983 28.162 85.2266 28.635 85.4833 28.921C85.7473 29.207 86.1066 29.35 86.5613 29.35C87.016 29.35 87.3716 29.207 87.6283 28.921C87.885 28.635 88.0133 28.162 88.0133 27.502V23.3H90.1583V27.568C90.1583 28.712 89.8393 29.5957 89.2013 30.219C88.5633 30.8423 87.676 31.154 86.5393 31.154ZM92.5138 31V23.3H94.3068L98.5528 28.426H97.7058V23.3H99.8398V31H98.0468L93.8008 25.874H94.6478V31H92.5138ZM102.256 31V23.3H104.434V31H102.256ZM108.503 31V25.027H106.138V23.3H113.035V25.027H110.681V31H108.503ZM116.49 31V27.744L116.996 29.053L113.553 23.3H115.852L118.338 27.469H117.007L119.504 23.3H121.616L118.184 29.053L118.668 27.744V31H116.49Z" fill="white"/>
<defs>
<linearGradient id="paint0_linear_4029_7393" x1="12.3292" y1="1.04248" x2="12.3292" y2="32.0721" gradientUnits="userSpaceOnUse">
<stop stop-color="#B94848"/>
<stop offset="1" stop-color="#851287"/>
</linearGradient>
<linearGradient id="paint1_linear_4029_7393" x1="5.34704" y1="3.8367" x2="5.34704" y2="29.9235" gradientUnits="userSpaceOnUse">
<stop stop-color="#B94848"/>
<stop offset="1" stop-color="#851287"/>
</linearGradient>
<linearGradient id="paint2_linear_4029_7393" x1="8.97801" y1="3.83667" x2="16.6677" y2="33.0026" gradientUnits="userSpaceOnUse">
<stop stop-color="#F25E79"/>
<stop offset="1" stop-color="#C52CF1"/>
</linearGradient>
<linearGradient id="paint3_linear_4029_7393" x1="13.5374" y1="-7.6003" x2="18.4831" y2="32.1336" gradientUnits="userSpaceOnUse">
<stop stop-color="#F05C80"/>
<stop offset="1" stop-color="#CC34DF"/>
</linearGradient>
<linearGradient id="paint4_linear_4029_7393" x1="-10.0667" y1="-1.18384" x2="8.21253" y2="35.2396" gradientUnits="userSpaceOnUse">
<stop stop-color="#FFD83E"/>
<stop offset="1" stop-color="#D038D7"/>
</linearGradient>
</defs>
</svg>
